/* XPM */
static char *result[] = {
/* columns rows colors chars-per-pixel */
"50 50 205 2 ",
"   c #2E1C2E",
".  c #331C2F",
"X  c #3B1D2E",
"o  c #3B1F32",
"O  c #342234",
"+  c #3C2433",
"@  c #3C2936",
"#  c #3E2D3D",
"$  c #3C273A",
"%  c #3E303E",
"&  c #7B0C1E",
"*  c #740B1C",
"=  c #6D101F",
"-  c #441C2D",
";  c #4A192A",
":  c #5A1727",
">  c #7B0D20",
",  c #681827",
"<  c #791625",
"1  c #4C2433",
"2  c #442C3B",
"3  c #4C2E3A",
"4  c #432836",
"5  c #562D3B",
"6  c #45313E",
"7  c #49323E",
"8  c #5D333E",
"9  c #53343C",
"0  c #72282E",
"q  c #692839",
"w  c #762C34",
"e  c #7C2C35",
"r  c #772937",
"t  c #6B323C",
"y  c #63333C",
"u  c #79333A",
"i  c #66202C",
"p  c #3F3241",
"a  c #433441",
"s  c #4C3643",
"d  c #443B45",
"f  c #4B3B44",
"g  c #4F3C49",
"h  c #533643",
"j  c #513A46",
"k  c #543D4B",
"l  c #5B3A46",
"z  c #633C46",
"x  c #663A45",
"c  c #7B3C44",
"v  c #494148",
"b  c #59434F",
"n  c #55454B",
"m  c #5B4453",
"M  c #5A4754",
"N  c #5D505E",
"B  c #624349",
"V  c #694048",
"C  c #644B5B",
"Z  c #684D5D",
"A  c #7C4D56",
"S  c #7F4F58",
"D  c #774147",
"F  c #6C5362",
"G  c #715567",
"H  c #745B6E",
"J  c #795E6E",
"K  c #765E71",
"L  c #7A5F71",
"P  c #6B4F60",
"I  c #7C6274",
"U  c #7E6678",
"Y  c #830D1F",
"T  c #850D22",
"R  c #8B1523",
"E  c #871825",
"W  c #9B1628",
"Q  c #A51B27",
"!  c #AB1529",
"~  c #A61B2B",
"^  c #AC1D2A",
"/  c #A71628",
"(  c #B21F2C",
")  c #A51F30",
"_  c #8A292F",
"`  c #86242C",
"'  c #99282C",
"]  c #862431",
"[  c #8A2A34",
"{  c #9C2533",
"}  c #922A33",
"|  c #8A363A",
" . c #9C353B",
".. c #9D3A3B",
"X. c #983538",
"o. c #AC2229",
"O. c #A5262A",
"+. c #B5232D",
"@. c #BA252E",
"#. c #B52A2D",
"$. c #BB2B2F",
"%. c #A42C33",
"&. c #A62331",
"*. c #BA2730",
"=. c #BC2A31",
"-. c #B72D32",
";. c #A53335",
":. c #AB3533",
">. c #AA3C39",
",. c #BE3231",
"<. c #B33B34",
"1. c #B33637",
"2. c #B1302F",
"3. c #C33433",
"4. c #C53B34",
"5. c #CB3C36",
"6. c #C63E38",
"7. c #C02A31",
"8. c #AC423C",
"9. c #B6423D",
"0. c #BC443B",
"q. c #BA443B",
"w. c #CC4236",
"e. c #C4433C",
"r. c #CB423B",
"t. c #C8483A",
"y. c #D04137",
"u. c #D24339",
"i. c #D6493A",
"p. c #DA4C3C",
"a. c #D9503D",
"s. c #843E44",
"d. c #923F42",
"f. c #805059",
"g. c #B74741",
"h. c #A74944",
"j. c #845761",
"k. c #885963",
"l. c #875963",
"z. c #826676",
"x. c #836779",
"c. c #866A7C",
"v. c #8A6C7E",
"b. c #CE4740",
"n. c #8E6E83",
"m. c #926E81",
"M. c #8D7283",
"N. c #8F7A89",
"B. c #917285",
"V. c #997487",
"C. c #937489",
"Z. c #9A7689",
"A. c #96788B",
"S. c #997B8E",
"D. c #9D7E92",
"F. c #A17F93",
"G. c #9D8294",
"H. c #9A8995",
"J. c #A28496",
"K. c #A58699",
"L. c #A9879C",
"P. c #A48C9B",
"I. c #AA899E",
"U. c #AE8CA1",
"Y. c #B18EA4",
"T. c #AD93A4",
"R. c #A798A3",
"E. c #A99AA5",
"W. c #AD9DA9",
"Q. c #B292A6",
"!. c #B594A9",
"~. c #B999AD",
"^. c #B49AAB",
"/. c #BD9DB1",
"(. c #B4A3AD",
"). c #B7A4B0",
"_. c #B9A6B2",
"`. c #BDAAB6",
"'. c #B6A9B2",
"]. c #C5A7B9",
"[. c #C6ACBC",
"{. c #C6B3BE",
"}. c #C9B0BF",
"|. c #CAB4C2",
" X c #CAB9C4",
".X c #D2B9C8",
"XX c #D3C3CE",
"oX c #DDCBD5",
"OX c #DDD3D9",
"+X c #CFC7CC",
"@X c #E3D6DE",
"#X c #E2DADE",
"$X c #E5DCE2",
"%X c #E9DEE4",
"&X c #E7D7E1",
"*X c #E8E3E6",
"=X c #EBE3E9",
"-X c #E8E6E8",
";X c #F1EEEF",
":X c #F3EEF2",
">X c #F6F3F5",
",X c #F8F7F7",
"<X c #FBFAFA",
"1X c #F9F5F8",
"2X c None",
/* pixels */
"2X2X2X2X2X2X2X2X2X2X2X2X2X2X2X2X2X2X2X2X2X2X2X2X2X2X2X2X2X2X2X2X2X2X2X2X2X2X2X2X2X2X2X2X2X2X2X2X2X2X",
"2X2X2X2X2X2X2X2X2X2X2X2X2X2X2X2X2X2X2X2X2X2X2X2X2X2X2X2X2X2X2X2X2X2X2X2X2X2X2X2X2X2X2X2X2X2X2X2X2X2X",
"2X2X2X2X2X2X2X2X2X2X2X2X2X2X2X2X2X2X2X2X2X2X2X2X2X2X2X2X2X2X2X2X2X2X2X2X2X2X2X2X2X2X2X2X2X2X2X2X2X2X",
"2X2X2X2X2X2X2X2X2X2X2X2X2X2X2X2X2X2X2X2X2X2X2X2X2X2X2X2X2X2X2X2X2X2X2X2X2X2X2X2X2X2X2X2X2X2X2X2X2X2X",
"2X2X2X2X2X2X2X2X2X2X2X2X2X2X2X2X2X2X2X2X2X2X,X@X%X%X=X1X2X2X2X2X2X2X2X2X2X2X2X2X2X2X2X2X2X2X2X2X2X2X",
"2X2X2X2X2X2X2X2X2X2X2X2X2X2X2X2X2X2X2X2X,X XU.U././.!.}.%X<X2X2X2X2X2X2X2X2X2X2X2X2X2X2X2X2X2X2X2X2X",
"2X2X2X2X2X2X2X2X2X2X2X2X2X2X2X2X2X2X<XOXP.n.M.n.F.U.Q.Q.].oX>X2X2X2X2X2X2X2X2X2X2X2X2X2X2X2X2X2X2X2X",
"2X2X2X2X2X2X2X2X2X2X2X2X2X2X2X2X2X,X`.C.n.n.n.n.S.I.U.Q.U.!.].&X<X2X2X2X2X2X2X2X2X2X2X2X2X2X2X2X2X2X",
"2X2X2X2X2X2X2X2X2X2X2X2X2X2X2X2X*XW.n.n.n.n.n.n.n.J.Y.I.Y.Y.I.Q.|.>X2X2X2X2X2X2X2X2X2X2X2X2X2X2X2X2X",
"2X2X2X2X2X2X2X2X2X2X2X2X2X2X2X*XN.K n.x.n.n.n.H k b z.J.U.U.K.B.C.`.>X2X2X2X2X2X2X2X2X2X2X2X2X2X2X2X",
"2X2X2X2X2X2X2X2X2X2X2X2X2X2X;XN.H H n.n.z.G k a 1 - @ m n.F.m.n.n.C.|.1X2X2X2X2X2X2X2X2X2X2X2X2X2X2X",
"2X2X2X2X2X2X2X2X2X2X2X2X2X>XH.H H H K n.k s 1 , < * : X 7 m v.n.n.n.D.XX<X2X2X2X2X2X2X2X2X2X2X2X2X2X",
"2X2X2X2X2X2X2X2X2X2X2X2X<X(.K K H H I P a q E T * & * = - @ Z n.n.n.n.K.#X<X2X2X2X2X2X2X2X2X2X2X2X2X",
"2X2X2X2X2X2X2X2X2X2X2X2X=XM.H H H H N f r W / W T & & Y = ; 4 Z n.n.n.C.|.>X2X2X2X2X2X2X2X2X2X2X2X2X",
"2X2X2X2X2X2X2X2X2X2X2X=X/.!.I H K k a r &./ ! ! / W Y & & > ; 4 G m.n.F.!..X1X2X2X2X2X2X2X2X2X2X2X2X",
"2X2X2X2X2X2X2X2X2X2X,X[.U.^.^.I Z h i ! ^ ! ! ! Q / / T & > > - 2 J C.U.U.~.%X<X2X2X2X2X2X2X2X2X2X2X",
"2X2X2X2X2X2X2X2X2X2X&XU.U.U.U.S.a x ~ / ~ ~ ^ ! ^ ! ! ~ E > T < X 6 A.Y.U.Y..X:X2X2X2X2X2X2X2X2X2X2X",
"2X2X2X2X2X2X2X2X2X,X[.U.U.Y.U.H g s h g j k x ) ~ ^ { z j 2 + O . O G I.I.Y.~.@X2X2X2X2X2X2X2X2X2X2X",
"2X2X2X2X2X2X2X2X2X*XT.U.U.Q.n.j p p p p a d j { ^ ^ [ d d a $       7 v.Y.U.U.].1X2X2X2X2X2X2X2X2X2X",
"2X2X2X2X2X2X2X2X2X XU.U.U.K.C t ] E ] ] ] ` { ( ^ ^ ( } ] ] ] , , , 1 C J.U.U.Y.%X2X2X2X2X2X2X2X2X2X",
"2X2X2X2X2X2X2X2X<X{.K.U.I.x.h %.( ! ( +.( ^ ( @.^ ( @.( ^ ( +.( E R , 2 v.U.U.U.oX2X2X2X2X2X2X2X2X2X",
"2X2X2X2X2X2X2X2X#XD.T.Q.B.b e @.*.! @.*.( ( @.@.^ ( @.@.^ +.@.@.O.R E ; m B.Z.n.Q.:X2X2X2X2X2X2X2X2X",
"2X2X2X2X2X2X2X2X{.C.B.D.I 7 &.@.*.^ *.*.( o.@.@.^ +.@.@.^ ( +.*.o.W R , @ F n.n.J.%X2X2X2X2X2X2X2X2X",
"2X2X2X2X2X2X2X2XT.C.n.A.G q *.*.*.^ *.*.+.+.@.$.o.@.7.$.o.+.*.*.o.$.W E 1 Z n.n.B.XX2X2X2X2X2X2X2X2X",
"2X2X2X2X2X2X2X2XG.C.C.n.m e *.7.$.#.$.$.+.@.$.=.+.@.7.7.o.#.$.$.Q =.' E 1 m n.n.M.`.2X2X2X2X2X2X2X2X",
"2X2X2X2X2X2X2X2XS.C.M.c.k 3 5 8 y l z z B B s.-.#.$.1.D B z z x h y 1 ; + l v.n.C.T.2X2X2X2X2X2X2X2X",
"2X2X2X2X2X2X2X=XM.n.n.z.h $ $ a # p 6 d d d g  .o.$.| v d d a p % # .   O k c.M.B.P.;X2X2X2X2X2X2X2X",
"2X2X2X2X2X2X`.P.M.M.M.x.s 5 r e e w e u e u X.3.#.$.,.| w u e e 0 e i : + j I M.A.H.T. X2X2X2X2X2X2X",
"2X2X2X2X2X2Xc.H H K H I b r 3.3.3.$.3.-.,.-. . .#.1.X.;.#.,.3.3.#.3.O.` 3 M I I I K L U.2X2X2X2X2X2X",
"2X2X2X2X2X2XU H H H H H j t 3.3.3.$.4.,.,.[ M M X.| N k %.,.3.3.-.,.;._ 3 v H H H H H H.2X2X2X2X2X2X",
"2X2X2X2X2X2XU I K K H H j t 3.5.3.,.4.5.,.c a d | u d d [ 3.3.5.,.4.;.} h k I H H H H H.2X2X2X2X2X2X",
"2X2X2X2X2X2X`.H.c.I I G 6 y 4.5.5.$.3.5.4.c ;.d.d.s.>.d.| 3.5.5.6.4.;.] 2 h I c.c.M.H.+X2X2X2X2X2X2X",
"2X2X2X2X2X2X2X<XJ.B.B.B.b y 6.5.5.3.5.5.5. .c c <.>.c c :.5.5.b.e.6.;.} 7 P U.Q.Y..X<X2X2X2X2X2X2X2X",
"2X2X2X2X2X2X2X2XD.M.n.v.k y 6.5.5.3.5.5.w.5.5.4.5.5.5.5.4.5.5.u.6.b.>.[ 4 P I.U.Y.}.2X2X2X2X2X2X2X2X",
"2X2X2X2X2X2X2X,XG.M.n.c.j 8 r.5.y.4.u.r.w.5.r.y.4.w.y.y.4.w.w.t.t.t.;.` 4 C L.Y.U.{.,X2X2X2X2X2X2X2X",
"2X2X2X2X2X2X.X}.!.U.Y.I.M 9 9.9.9.8.0.q.0.9.t.u.w.r.r.b.9.0.g.q.8.q.} 0 @ Z J.S.F.Q.`.XX2X2X2X2X2X2X",
"2X2X2X2X2X-XQ.Y.U.U.U.Y.G a $ a % 6 6 v d v B e.w.y.8.n v v 6 6 p # . . @ G B.n.n.n.m.P.2X2X2X2X2X2X",
"2X2X2X2X2X*XQ.I.U.U.Y.U.F a 4 2 2 2 6 7 f v B 0.w.i.8.n v 6 7 7 2 2 . . @ P M.B.B.n.n.G.;X2X2X2X2X2X",
"2X2X2X2X:X&XQ.I.L.L.I.K.m 7 >.e.t.<.0.0.q.q.t.i.w.y.p.t.8.0.t.q.:.9.} 0 @ M v.v.n.n.B.T.$X2X2X2X2X2X",
"2X2X2X#XJ.D.C.C.D.U z.n.Z s t.i.p.4.p.p.i.y.p.a.t.i.p.a.w.i.i.i.4.i.:.e 4 C L I z.B.B.A.G.Q.2X2X2X2X",
"2X2X2XOXB.n.n.m.B.K K K m m A f.S A f.f.j.l.j.l.f.l.k.k.f.A f.f.A f.x l a m H K K n.n.n.n.G.2X2X2X2X",
"2X2X2X$XS.B.B.B.v.K K G L m.m.V.V.V.V.F.I.I.I.I.U.I.I.I.U.F.V.A.Z.Z.Z.V.m.L I z.K c.B.B.n.P.2X2X2X2X",
"2X2X2X#X(.)._._._.).E.E.R.E.E.R.R.R.E.W._.).(._.(.(.(._._.`._._._.)._.(._._._.`.W.W.W.W.E.(.2X2X2X2X",
"2X2X2X2X2X2X2X2X2X2X2X2X2X2X2X2X2X2X2X2X2X2X2X2X2X2X2X2X2X2X2X2X2X2X2X2X2X2X2X2X2X2X2X2X2X2X2X2X2X2X",
"2X2X2X2X2X2X2X2X2X2X2X2X2X2X2X2X2X2X2X2X2X2X2X2X2X2X2X2X2X2X2X2X2X2X2X2X2X2X2X2X2X2X2X2X2X2X2X2X2X2X",
"2X2X2X2X2X2X2X2X2X2X2X2X2X2X2X2X2X2X2X2X2X2X2X2X2X2X2X2X2X2X2X2X2X2X2X2X2X2X2X2X2X2X2X2X2X2X2X2X2X2X",
"2X2X2X2X2X2X2X2X2X2X2X2X2X2X2X2X2X2X2X2X2X2X2X2X2X2X2X2X2X2X2X2X2X2X2X2X2X2X2X2X2X2X2X2X2X2X2X2X2X2X",
"2X2X2X2X2X2X2X2X2X2X2X2X2X2X2X2X2X2X2X2X2X2X2X2X2X2X2X2X2X2X2X2X2X2X2X2X2X2X2X2X2X2X2X2X2X2X2X2X2X2X",
"2X2X2X2X2X2X2X2X2X2X2X2X2X2X2X2X2X2X2X2X2X2X2X2X2X2X2X2X2X2X2X2X2X2X2X2X2X2X2X2X2X2X2X2X2X2X2X2X2X2X",
"2X2X2X2X2X2X2X2X2X2X2X2X2X2X2X2X2X2X2X2X2X2X2X2X2X2X2X2X2X2X2X2X2X2X2X2X2X2X2X2X2X2X2X2X2X2X2X2X2X2X"
};
