/* XPM */
static char *result[] = {
/* columns rows colors chars-per-pixel */
"50 50 210 2 ",
"   c #422D3D",
".  c #4E2E3C",
"X  c #43303D",
"o  c #49323F",
"O  c #532B37",
"+  c #612937",
"@  c #652E3C",
"#  c #6B323E",
"$  c #423342",
"%  c #4B3543",
"&  c #443C46",
"*  c #4E3946",
"=  c #473B48",
"-  c #4A3E4A",
";  c #523945",
":  c #5B3D44",
">  c #543D4B",
",  c #583640",
"<  c #6A3C4B",
"1  c #6A3A44",
"2  c #7C3C43",
"3  c #763F42",
"4  c #4E414F",
"5  c #4F4346",
"6  c #594447",
"7  c #55454B",
"8  c #59434A",
"9  c #564649",
"0  c #4F4351",
"q  c #524553",
"w  c #594653",
"e  c #554A54",
"r  c #5A4A52",
"t  c #5B4E5B",
"y  c #574E58",
"u  c #5C515C",
"i  c #7E464B",
"p  c #654A59",
"a  c #60535F",
"s  c #794B54",
"d  c #5F5461",
"f  c #625561",
"g  c #6C5363",
"h  c #645B65",
"j  c #6A5C66",
"k  c #665E68",
"l  c #6A5E6A",
"z  c #725566",
"x  c #745B6E",
"c  c #785C6C",
"v  c #775E71",
"b  c #676369",
"n  c #6C626D",
"m  c #646166",
"M  c #6F6670",
"N  c #6E6A71",
"B  c #706671",
"V  c #7A6373",
"C  c #746B75",
"Z  c #7B6D79",
"A  c #7B6A77",
"S  c #7C737C",
"D  c #737077",
"F  c #73636F",
"G  c #9B1B2D",
"H  c #97182C",
"J  c #971C30",
"K  c #A11C2D",
"L  c #AD1B2A",
"P  c #A61628",
"I  c #B01F2B",
"U  c #812B36",
"Y  c #872F3D",
"T  c #9B2D34",
"R  c #9A2635",
"E  c #8B3A3D",
"W  c #89343B",
"Q  c #923236",
"!  c #943B3C",
"~  c #96383C",
"^  c #A9232F",
"/  c #B4232D",
"(  c #B8292E",
")  c #A32531",
"_  c #A62B34",
"`  c #AC2B31",
"'  c #A82633",
"]  c #B02B32",
"[  c #B02630",
"{  c #AC3838",
"}  c #BB3433",
"|  c #B63A37",
" . c #C03534",
".. c #C63A35",
"X. c #CA3C35",
"o. c #C03B39",
"O. c #BB423A",
"+. c #B74339",
"@. c #A9463F",
"#. c #C1433A",
"$. c #CB4439",
"%. c #CA4338",
"&. c #D34538",
"*. c #8D3A45",
"=. c #9C3949",
"-. c #8B2C40",
";. c #874549",
":. c #964A4A",
">. c #87565A",
",. c #8E4756",
"<. c #A84541",
"1. c #AC4D4E",
"2. c #865E65",
"3. c #84677A",
"4. c #85697B",
"5. c #8B697B",
"6. c #856376",
"7. c #927379",
"8. c #A96569",
"9. c #AA6D7C",
"0. c #AA7478",
"q. c #C07A7C",
"w. c #7E7781",
"e. c #8E6F83",
"r. c #906C80",
"t. c #8D7384",
"y. c #847B83",
"u. c #887684",
"i. c #937285",
"p. c #997384",
"a. c #96768A",
"s. c #9B7788",
"d. c #937A8B",
"f. c #9A7B8E",
"g. c #9C7D91",
"h. c #A97B8E",
"j. c #A27E93",
"k. c #888187",
"l. c #8D858D",
"z. c #878188",
"x. c #98828B",
"c. c #8E8B90",
"v. c #9D8293",
"b. c #938C94",
"n. c #9C8993",
"m. c #949296",
"M. c #9B939B",
"N. c #979499",
"B. c #B3828A",
"V. c #A28495",
"C. c #A48699",
"Z. c #A58A9B",
"A. c #AB8A9F",
"S. c #AB8898",
"D. c #A1949D",
"F. c #9C98A0",
"G. c #AE8CA1",
"H. c #B18FA4",
"J. c #A29BA3",
"K. c #AD98A5",
"L. c #B699AB",
"P. c #B595A6",
"I. c #BC9FB1",
"U. c #A6A2A6",
"Y. c #A7A5A9",
"T. c #A9A5AA",
"R. c #AEAAAE",
"E. c #AFABB1",
"W. c #B3AEB4",
"Q. c #BCA8B6",
"!. c #B5B1B6",
"~. c #B7B3B8",
"^. c #BAB5BB",
"/. c #BDB9BD",
"(. c #B0A7AE",
"). c #C78787",
"_. c #C9918F",
"`. c #C99697",
"'. c #D19F9F",
"]. c #D4A7A6",
"[. c #C5A8B9",
"{. c #CBA5A9",
"}. c #BFB9C0",
"|. c #CDAFC1",
" X c #C1BDC2",
".X c #CABBC4",
"XX c #CEBEC8",
"oX c #D5BDCC",
"OX c #C5C1C6",
"+X c #C6C4C8",
"@X c #CAC5CA",
"#X c #CBC6CA",
"$X c #D3C4CA",
"%X c #D5CED3",
"&X c #DBCCD5",
"*X c #DCDADC",
"=X c #DCD1D7",
"-X c #E1D8DD",
";X c #E4DEE2",
":X c #E8DAE2",
">X c #E5E3E4",
",X c #EAE3E6",
"<X c #EAE7E9",
"1X c #EDECED",
"2X c #F0E9EE",
"3X c #F1EFF1",
"4X c #F4F3F3",
"5X c #FCFCFC",
"6X c #F9F7F8",
"7X c None",
/* pixels */
"7X7X7X7X7X7X7X7X7X7X7X7X7X7X7X7X7X7X7X7X7X7X7X7X7X7X7X7X7X7X7X7X7X7X7X7X7X7X7X7X7X7X7X7X7X7X7X7X7X7X",
"7X7X7X7X7X7X7X7X7X7X7X7X7X7X7X7X7X7X7X7X7X7X7X7X7X7X7X7X7X7X7X7X7X7X7X7X7X7X7X7X7X7X7X7X7X7X7X7X7X7X",
"7X7X7X7X7X7X7X7X7X7X7X7X7X7X7X7X7X7X7X7X7X7X7X7X7X7X7X7X7X7X7X7X7X7X7X7X7X7X7X7X7X7X7X7X7X7X7X7X7X7X",
"7X7X7X7X7X7X7X7X7X7X7X7X7X7X7X7X7X7X7X7X7X7X7X7X7X7X7X7X7X7X7X7X7X7X7X7X7X7X7X7X7X7X7X7X7X7X7X7X7X7X",
"7X7X7X7X7X7X7X7X7X7X7X7X7X7X7X7X7X7X7X7X7X7X7X7X7X7X7X7X7X7X7X7X7X7X7X7X7X7X7X7X7X7X7X7X7X7X7X7X7X7X",
"7X7X7X7X7X7X7X7X7X7X7X7X7X7X7X7X7X7X7X7X7X7X7X6X6X6X6X7X7X7X7X7X7X7X7X7X7X7X7X7X7X7X7X7X7X7X7X7X7X7X",
"7X7X7X7X7X7X7X7X7X7X7X7X7X7X7X7X7X7X7X7X7X3XoX[.[.|.[.&X3X7X7X7X7X7X7X7X7X7X7X7X7X7X7X7X7X7X7X7X7X7X",
"7X7X7X7X7X7X7X7X7X7X7X7X7X7X7X7X7X7X7X4X@XV.e.i.V.P.G.H.|.:X6X7X7X7X7X7X7X7X7X7X7X7X7X7X7X7X7X7X7X7X",
"7X7X7X7X7X7X7X7X7X7X7X7X7X7X7X7X7X7X;XK.i.e.e.e.a.G.G.H.H.I.oX2X7X7X7X7X7X7X7X7X7X7X7X7X7X7X7X7X7X7X",
"7X7X7X7X7X7X7X7X7X7X7X7X7X7X7X7X6X=Xv.e.e.e.i.e.i.C.G.H.G.H.H.I.=X5X7X7X7X7X7X7X7X7X7X7X7X7X7X7X7X7X",
"7X7X7X7X7X7X7X7X>X/.>X7X7X7X7X5X~.4.e.3.e.e.e.3.p p f.A.G.G.A.f.g..X6X7X7X7X7X1X/.*X7X7X7X7X7X7X7X7X",
"7X7X7X7X7X7X7X7XY.r p.4X7X7X7X[.V x 4.i.3.3.g ; x f % z j.G.f.r.e.a.XX7X7X7X5XV.7 N.7X7X7X7X7X7X7X7X",
"7X7X7X7X7X7X7X7XY.7 Y oX7X7XOXV x v v t.f %   D.4X4XD.X > g 4.e.e.e.g.&X7X7X&X*.7 N.7X7X7X7X7X7X7X7X",
"7X7X7X7X7X7X7X7XY.e G 9.6X-Xu.v x x v V * j f W.5X5X/.f V X g e.i.e.i.G.,X7Xh.H 7 N.7X7X7X7X7X7X7X7X",
"7X7X7X7X7X7X7X7XY.7 J =.$XD.v x x x z > u.*XC W.6X6X~.n -XM.* z e.e.e.p.[.-X=.H 6 m.7X7X7X7X7X7X7X7X",
"7X7X7X7X7X7X7X7XY.7 G K 9.Z.V x x g * % a h - y k b u q m k - % x e.e.s.L.h.K K 7 m.7X7X7X7X7X7X7X7X",
"7X7X7X7X7X7X7X7XT.7 G P =.H.G.v g * w T.!.E.d z.~.~.l.u E.^.E.e % 6.t.Z.A.,.P G > N.7X7X7X7X7X7X7X7X",
"7X7X7X7X7X7X7X7XT.w K P R j.P.C.= * h 1X5X3XC ~.5X5X}.N 1X5X1Xn p ; 5.G.j._ P K 8 N.7X7X7X7X7X7X7X7X",
"7X7X7X7X7X7X7X7XT.7 -.1 1 6.G.i.w M.l <X5X1XZ W.5X5X^.M 1X5X1Xn R.n c A.r.1 @ -.6 m.7X7X7X7X7X7X7X7X",
"7X7X7X7X7X7X7X7XT.q 1 $ $ g j.p Z M.d E.}.W.n l.^.}.b.d !./.!.h N.N.8 p.x $ $ 1 7 m.7X7X7X7X7X7X7X7X",
"7X7X7X7X7X7X7X7XY.7 U @ + < z w a w $ d h h - a n k u - k b m 4 u b u p 2 + + # 7 N.7X7X7X7X7X7X7X7X",
"7X7X7X7X7X7X7X7XY.7 ) L I G p &X6X Xk ;X4X>XC R.4X4X!.n >X4X>Xm ^.4X>Xa R I I ^ 7 b.7X7X7X7X7X7X7X7X",
"7X7X7X7X7X7X7X7XT.7 ) / / ^ S.6X5X#XM <X5X1XD W.5X5X/.B 3X5X3Xn OX5X5XP.) I / ^ 8 N.7X7X7X7X7X7X7X7X",
"7X7X7X7X7X7X7X7XY.7 ) / / ^ `.6X6X XM >X6X1XC W.6X6X~.N <X5X<Xn /.5X6X{.[ / / [ 8 N.7X7X7X7X7X7X7X7X",
"7X7X7X7X7X7X7X7XY.7 _ / ( / ;.l n f 0 l n k - u n n d 0 n N b 0 m N N s / / / ` 6 m.7X7X7X7X7X7X7X7X",
"7X7X7X7X7X7X7X7Xb.7 _ / ( ( 1.R.~.b.t Y.W.R.d y.!.!.l.u R.~.R.u c.^.~.8.( / ( ` 6 k.7X7X7X7X7X7X7X7X",
"7X7X7X7X7X7X7X7Xu.7 _ ] ` T 0.4X6X@XM <X5X3XC !.5X5X/.B 3X5X1Xn  X5X6XB.T _ ` ` 7 Z 4X7X7X7X7X7X7X7X",
"7X7X7X7X7X7X7X4XS 9 *.6 o % y.4X6X@Xl <X5X3XC !.5X5X/.B 3X5X3Xn  X5X6Xc.  % : *.6 B 1X7X7X7X7X7X7X7X",
"7X7X7X7X7X7X;X.XS 7 1 = $ % V .X XF.f Q. X^.h b. X XN.h ~. X^.d M.+XOXZ   X & 1 7 A .X=X7X7X7X7X7X7X",
"7X7X7X7X7X7XZ.v a 7 ! E ~ { *.g f q $ u f d = w h h y = k k m 4 u b b i ` T U Q 8 f 3.v.7X7X7X7X7X7X",
"7X7X7X7X7X7Xd.x f 7 2 i { o.0.3X4X}.k ;X4X<XC E.4X4X!.n >X4X>Xb ^.4X4X). .} *.3 7 u x u.7X7X7X7X7X7X",
"7X7X7X7X7X7Xy.x a e p f *.o.).6X5X+Xk <X5X4XC W.5X5X/.N 3X5X1Xn  X5X6X_. .W u q 7 u x t.7X7X7X7X7X7X",
"7X7X7X7X7X7XK.V u r i . # } ).6X5X.Xl <X5X1XC W.6X5X^.M <X5X1Xn /.5X6X`.} E O 6 6 y x b.7X7X7X7X7X7X",
"7X7X7X7X7X7X7X1Xb.r ;.E ~ ..:.j n f - n n n 0 d B C h q N D N 0 m D C >.X.~ Q E 9 y.1X7X7X7X7X7X7X7X",
"7X7X7X7X7X7X7X7Xl.r { Q } X.8.U.T.l.0 J.R.J.u w.T.E.y.t U.E.Y.y l.!.R.0...} Q { 8 y.7X7X7X7X7X7X7X7X",
"7X7X7X7X7X7X7X7Xl.r +.X...X._.6X5X+Xl <X5X3XC !.5X5X}.M 3X5X1Xn /.5X5X'.X.....#.8 7.7X7X7X7X7X7X7X7X",
"7X7X7X7X7X7X7X-Xl.7 | %.X.X._.6X5X+Xl 1X5X3XC !.5X5X/.M 1X5X3Xn  X5X5X'.%.X.X.o.9 S &X7X7X7X7X7X7X7X",
"7X7X7X7X7X7XQ.H.4.5 +.%.#.! 7..X.XJ.d ~.+X}.l b.+X+XM.k }.+X/.d F.+XOXx.! O.%.$.8 h a.7X7X7X7X7X7X7X",
"7X7X7X7X7X7XL.G.Z 9 <.;.; X - t a q $ t a t = q f u e = d d d 4 u m m e   ; i @.6 f e.f.7X7X7X7X7X7X",
"7X7X7X7X7X3XL.A.A 9 i 5 $ . V.2X4X#XZ >X3X1Xy.^.4X4XOXw.1X4X1XS +X4X3XU.. X & i 6 f e.g.7X7X7X7X7X7X",
"7X7X7X7X[.L.S.g.V 5 3 . ! O.'.5X5X<XJ.5X5X5XE.*X5X5X;XY.5X5X6XT.>X5X5X].O.! : i 6 j a.V.K.7X7X7X7X7X",
"7X7X7X7Xg.e.e.e.j 9 +.%.&.&._.>X,X;X#X<X<X1X%X:X3X2X;X%X2X,X,X#X-X>X>X'.%.&.%.#.6 j e.t.e.a.7X7X7X7X",
"7X7X7X7Xv.t.e.e.j 9 O.$.@.>.5.7.s.p.p.s.A.G.A.G.G.G.G.G.G.s.p.p.s.s.p.5.s <.$.$.6 f i.5.e.a.7X7X7X7X",
"7X7X7X7XZ.g.g.v.F 5 :.>.V u.t.t.t.t.t.f.C.C.V.V.V.g.V.C.C.Z.V.v.V.Z.V.V.v.d.2.:.9 a d.d.t.x.7X7X7X7X",
"7X7X7X7X7X7X7X7X7X7X7X7X7X7X7X7X7X7X7X7X7X7X7X7X7X7X7X7X7X7X7X7X7X7X7X7X7X7X7X7X7X7X7X7X7X7X7X7X7X7X",
"7X7X7X7X7X7X7X7X7X7X7X7X7X7X7X7X7X7X7X7X7X7X7X7X7X7X7X7X7X7X7X7X7X7X7X7X7X7X7X7X7X7X7X7X7X7X7X7X7X7X",
"7X7X7X7X7X7X7X7X7X7X7X7X7X7X7X7X7X7X7X7X7X7X7X7X7X7X7X7X7X7X7X7X7X7X7X7X7X7X7X7X7X7X7X7X7X7X7X7X7X7X",
"7X7X7X7X7X7X7X7X7X7X7X7X7X7X7X7X7X7X7X7X7X7X7X7X7X7X7X7X7X7X7X7X7X7X7X7X7X7X7X7X7X7X7X7X7X7X7X7X7X7X",
"7X7X7X7X7X7X7X7X7X7X7X7X7X7X7X7X7X7X7X7X7X7X7X7X7X7X7X7X7X7X7X7X7X7X7X7X7X7X7X7X7X7X7X7X7X7X7X7X7X7X",
"7X7X7X7X7X7X7X7X7X7X7X7X7X7X7X7X7X7X7X7X7X7X7X7X7X7X7X7X7X7X7X7X7X7X7X7X7X7X7X7X7X7X7X7X7X7X7X7X7X7X"
};
