/* XPM */
static char *result[] = {
/* columns rows colors chars-per-pixel */
"50 50 196 2 ",
"   c #3E2C3C",
".  c #3B2736",
"X  c #422D3B",
"o  c #45323E",
"O  c #5F333A",
"+  c #6E242D",
"@  c #6A2E3D",
"#  c #762D3C",
"$  c #742835",
"%  c #66343C",
"&  c #76343D",
"*  c #7C343E",
"=  c #7A363B",
"-  c #3F2C40",
";  c #3F3241",
":  c #422F43",
">  c #433443",
",  c #4A3441",
"<  c #453A45",
"1  c #4C3B47",
"2  c #463B49",
"3  c #4A3D4B",
"4  c #573541",
"5  c #513947",
"6  c #553D4B",
"7  c #5C3C49",
"8  c #683745",
"9  c #7B3B43",
"0  c #713945",
"q  c #47444B",
"w  c #4A444C",
"e  c #4B484E",
"r  c #55414E",
"t  c #4C4750",
"y  c #4E4A51",
"u  c #504452",
"i  c #5D4453",
"p  c #524B55",
"a  c #5A4E5A",
"s  c #565057",
"d  c #565359",
"f  c #5D545D",
"g  c #5E595F",
"h  c #6E444A",
"j  c #79484C",
"k  c #654C5B",
"l  c #6A4C58",
"z  c #764956",
"x  c #6E5259",
"c  c #635B63",
"v  c #6C5C69",
"b  c #675764",
"n  c #735A6C",
"m  c #785B6B",
"M  c #775E71",
"N  c #795F72",
"B  c #6E646B",
"V  c #6E6371",
"C  c #7B6375",
"Z  c #766874",
"A  c #73636C",
"S  c #991528",
"D  c #891F33",
"F  c #A31527",
"G  c #AA142B",
"H  c #A51A2B",
"J  c #AC1D2B",
"K  c #A7162A",
"L  c #B21C2C",
"P  c #AD1D33",
"I  c #852B35",
"U  c #972937",
"Y  c #8C343C",
"T  c #833B3F",
"R  c #80363F",
"E  c #9C3C3B",
"W  c #953739",
"Q  c #8E292C",
"!  c #AE242C",
"~  c #A82C2F",
"^  c #B3242D",
"/  c #B8242F",
"(  c #B7282E",
")  c #BA302F",
"_  c #A32C33",
"`  c #AB2631",
"'  c #B42630",
"]  c #BA2530",
"[  c #B42B33",
"{  c #BC2D32",
"}  c #B72E38",
"|  c #A23236",
" . c #A53D39",
".. c #AC3736",
"X. c #BB3233",
"o. c #BC323B",
"O. c #B93838",
"+. c #C33433",
"@. c #C73B35",
"#. c #CA3C35",
"$. c #CA3F38",
"%. c #D13F39",
"&. c #84403E",
"*. c #AE433D",
"=. c #B9423B",
"-. c #CD4236",
";. c #CD433A",
":. c #C54439",
">. c #D3453A",
",. c #D44A3B",
"<. c #D84A3A",
"1. c #843C43",
"2. c #813742",
"3. c #973745",
"4. c #A63A42",
"5. c #844142",
"6. c #8A4544",
"7. c #884648",
"8. c #904B49",
"9. c #894351",
"0. c #A74846",
"q. c #BE4D43",
"w. c #954D60",
"e. c #8F5E72",
"r. c #B05F66",
"t. c #816474",
"y. c #846779",
"u. c #846B7C",
"i. c #896B7D",
"p. c #9A6F7B",
"a. c #92676E",
"s. c #BA7374",
"d. c #B3676E",
"f. c #C27C7C",
"g. c #7F7D82",
"h. c #8F6F83",
"j. c #906F84",
"k. c #867181",
"l. c #8D7385",
"z. c #817D84",
"x. c #8B7B87",
"c. c #917286",
"v. c #997585",
"b. c #9C7689",
"n. c #9D7A8C",
"m. c #95798A",
"M. c #9D7C92",
"N. c #A47C87",
"B. c #A07E94",
"V. c #828085",
"C. c #86868B",
"Z. c #958391",
"A. c #9E8294",
"S. c #9A8B96",
"D. c #A38295",
"F. c #A58D9C",
"G. c #AA899E",
"H. c #A48A96",
"J. c #A6909E",
"K. c #A8919F",
"L. c #AF8CA2",
"P. c #B18FA4",
"I. c #AA92A2",
"U. c #AA9CA4",
"Y. c #B694A9",
"T. c #BA9AAE",
"R. c #B496A7",
"E. c #BD9DB1",
"W. c #AFA2AC",
"Q. c #BBA2AE",
"!. c #B1A4AD",
"~. c #BDA4B1",
"^. c #B8A8B1",
"/. c #BDB2BA",
"(. c #CC8C8B",
"). c #C48688",
"_. c #CD9B99",
"`. c #C6A6BA",
"'. c #C3A3B6",
"]. c #C4B5BF",
"[. c #CAB4C2",
"{. c #C4BCC2",
"}. c #D3B6C6",
"|. c #D5C5CF",
" X c #D9CAD4",
".X c #DDDDDF",
"XX c #D5D3D6",
"oX c #E1D5DD",
"OX c #DFDFE1",
"+X c #E7DBE2",
"@X c #E4E1E5",
"#X c #EBEBEC",
"$X c #E9E3E8",
"%X c #F3ECF1",
"&X c #F9F6F8",
"*X c None",
/* pixels */
"*X*X*X*X*X*X*X*X*X*X*X*X*X*X*X*X*X*X*X*X*X*X*X*X*X*X*X*X*X*X*X*X*X*X*X*X*X*X*X*X*X*X*X*X*X*X*X*X*X*X",
"*X*X*X*X*X*X*X*X*X*X*X*X*X*X*X*X*X*X*X*X*X*X*X*X*X*X*X*X*X*X*X*X*X*X*X*X*X*X*X*X*X*X*X*X*X*X*X*X*X*X",
"*X*X*X*X*X*X*X*X*X*X*X*X*X*X*X*X*X*X*X*X*X*X*X*X*X*X*X*X*X*X*X*X*X*X*X*X*X*X*X*X*X*X*X*X*X*X*X*X*X*X",
"*X*X*X*X*X*X*X*X*X*X*X*X*X*X*X*X*X*X*X*X*X*X&X+X+X%X+X&X*X*X*X*X*X*X*X*X*X*X*X*X*X*X*X*X*X*X*X*X*X*X",
"*X*X*X*X*X*X*X*X*X*X*X*X*X*X*X*X*X*X*X*X*X XI.Y.E.`.Y.Y. X%X*X*X*X*X*X*X*X*X*X*X*X*X*X*X*X*X*X*X*X*X",
"*X*X*X*X*X*X*X*X*X*X*X*X*X*X*X*X*X*X*X$XG.l.j.h.c.Y.P.L.P.}.+X*X*X*X*X*X*X*X*X*X*X*X*X*X*X*X*X*X*X*X",
"*X*X*X*X*X*X*X*X*X*X*X*X*X*X*X*X*X*X{.c.h.j.h.h.j.L.L.L.P.P.'.}.%X*X*X*X*X*X*X*X*X*X*X*X*X*X*X*X*X*X",
"*X*X*X*X*X*X*X*X*X*X*X*X*X*X*X*X#X^.y.j.l.h.h.j.j.B.L.L.L.P.P.P.Y.+X*X*X*X*X*X*X*X*X*X*X*X*X*X*X*X*X",
"*X*X*X*X*X*X*X@XOX*X*X*X*X*X*X+Xl.l.i.i.h.j.h.h.N l M.L.L.L.L.L.B.M.[.*X*X*X*X*X*X*XXX#X*X*X*X*X*X*X",
"*X*X*X*X*X*X.Xy 7 #X*X*X*X*X$XC C C H.C j.h.t.6 X X X x B.P.P.M.j.h.c.[.*X*X*X*X*XH.y g.*X*X*X*X*X*X",
"*X*X*X*X*X*X.Xs # p.*X*X*X*Xk.C M C c.m.m 6 X B *X*X*Xo o y.c.i.j.h.h.m.|.*X*X*X@XI y V.*X*X*X*X*X*X",
"*X*X*X*X*X*X.Xy # S *X*X*XM.n C n n C l.. X X *X*X*X3 > X X , i.j.h.j.j.D.+X*X*XN.S y z.*X*X*X*X*X*X",
"*X*X*X*X*X*XOXy # K N.*XU.N N C C C C 6 *X*X3 *X*X*X*X< *X*X*Xk h.h.l.h.l.P.*X*XU S u z.*X*X*X*X*X*X",
"*X*X*X*X*X*X*Xy # G Y *Xk.C N t.M v 5 *X*X*X*X*X*X*X*Xr *X*X*Xo 7 h.j.h.l.M.*X*XF F t z.*X*X*X*X*X*X",
"*X*X*X*X*X*X*Xp # K ` v.E.C v N n 5 *X*X*X*X*X*X*X*X*Xu *X*X*X*XX k h.h.h.L.T.3.K K t z.*X*X*X*X*X*X",
"*X*X*X*X*X*X*Xy # P ` w.T.`.u.b 1 , *X*X*X*Xp *X*X*X*Xu *X*X*X*X1 X n h.B.L.D.H F K y z.*X*X*X*X*X*X",
"*X*X*X*X*X*X*Xy 1.J K U L.R.E.> X X > > > 2 > > 3 3 3 > 3 w q w 2 > X n P.G.e.G F G y V.*X*X*X*X*X*X",
"*X*X*X*X*X*X*Xy 9 9.0 8 c.L.G.o *X3 *X*X*X*X3 *X*X*X*X> *X*X*X*X2 *X*Xi G.P.z @ 8 U t V.*X*X*X*X*X*X",
"*X*X*X*X*X*X*Xy 0 p < 1 n L.x *X*Xa *X*X*X*Xp *X*X*X*Xt *X*X*X*Xw *X*Xr t.L.X > 2 0 t z.*X*X*X*X*X*X",
"*X*X*X*X*X*X*Xs # 4 3 > 6 h.6 *X*X*X*X*X*X*Xp *X*X*X*Xu *X*X*X*X3 *X*X*Xo j.X X < I e V.*X*X*X*X*X*X",
"*X*X*X*X*X*X*Xd * L J J U 6 *X*X*Xa *X*X*X*Xp *X*X*X*Xu *X*X*X*X3 *X*X*Xn 8 ' L J J t C.*X*X*X*X*X*X",
"*X*X*X*X*X*X*Xp 1.] J ^ ^ X : : > : > 1 > 2 > 2 2 3 3 > 3 w w w 2 w y y q $ ^ / J ! t C.*X*X*X*X*X*X",
"*X*X*X*X*X*X*Xd 2.] J ^ ' v.*X*X*Xu *X*X*X*Xu *X*X*X*Xt *X*X*X*Xt *X*X*X*X3.L ] ^ } s C.*X*X*X*X*X*X",
"*X*X*X*X*X*X.Xe * / ^ ^ ' ).*X*X*X*X*X*X*X*X*X*X*X*X*X*X*X*X*X*XZ *X*X*X*X_ [ [ [ [ e C.*X*X*X*X*X*X",
"*X*X*X*X*X*XXXy R ( ^ ( / d.*X*X*X*X*X*X*X*X*X*X*X*X*X*X*X*X*X*X*X*X*X*X*X' } +.! o.p g.*X*X*X*X*X*X",
"*X*X*X*X*X*X{.y R ( ^ / { r.*X*X*X*X*X*X*X*X*X*X*X*X*X*X*X*X*X*X*X*X*X*X*X[ ' +.[ o.e v *X*X*X*X*X*X",
"*X*X*X*X*X*X!.y = +.[ | W a.*X*X*X*X*X*X*X*X*X*X*X*X*X*X*X*X*X*X*X*X*X*X*XY 3.4.[ O.e f *X*X*X*X*X*X",
"*X*X*X*X*X*XS.e T j < < X C *X*X*X*X*X*X*X*X*X*X*X*X*X*X*X*X*X*X*X*X*X*X*XX   e q 4.e f *X*X*X*X*X*X",
"*X*X*X*X*XXXU.p 9 e <     Z *X*X*X*X*X*X*X*X*X*X*X*X*X*X*X*X*X*X*X*X*X*X*X. 1 , < 9 e v *X*X*X*X*X*X",
"*X*X*X*XJ.C n e T = @ I _ s.*X*X*X*X*X*X*X*X*X*X*X*X*X*X*X*X*X*X*X*X*X*X*X_ Q = O | w f *X*X*X*X*X*X",
"*X*X*X*Xk.n v e 1.Y _ { +.s.*X*X*X*X*X*X*X*X*X*X*X*X*X*X*X*X*X*X*X*X*X*X*X{ { +.I ..w d *X*X*X*X*X*X",
"*X*X*X*Xk.n n e h 3 v ~ +.f.*X*X*X*X*X*X*X*X*X*X*X*X*X*X*X*X*X*X*X*X*X*X*XX.X.9 V 7 w s *X*X*X*X*X*X",
"*X*X*X*Xk.n v e h u > Y +.f.*X*X*X*X*X*X*X*X*X*X*X*X*X*X*X*X*X*X*X*X*X*X*XX.+.4 2 l w d *X*X*X*X*X*X",
"*X*X*X*X*XJ.x.e 9 8 Q T @.).*X*X*X*X*X*X*X*X*X*X*X*X*X*X*X*X*X*X*X*X*X*X*XX.@.1.+ 1.e g *X*X*X*X*X*X",
"*X*X*X*X*X*X{.e 5.9 &  .#.).*X*X*X*X*X*X*X*X*X*X*X*X*X*X*X*X*X*X*X*X*X*X*XO.#.= =  .w B *X*X*X*X*X*X",
"*X*X*X*X*X*X/.e &.+.~ @.#.(.*X*X*X*X*X*X*X*X*X*X*X*X*X*X*X*X*X*X*X*X*X*X*XO.@.+.~ @.w v *X*X*X*X*X*X",
"*X*X*X*X*X*X/.e 5.#.@.@.#.(.*X*X*X*X*X*X*X*X*X*X*X*X*X*X*X*X*X*X*X*X*X*X*XO.@.#.@.:.q v *X*X*X*X*X*X",
"*X*X*X*X*X*X/.e 1.>.-.#.%.(.*X*X*X*X*X*X*X*X*X*X*X*X*X*X*X*X*X*X*X*X*X*X*XO.@.>.#.-.q B *X*X*X*X*X*X",
"*X*X*X*X*X*XA.w 5.>.-.-.*.H.*X*X*X*X*X*X*X*X*X*X*X*X*X*X*X*X*X*X*X*X*X*X*X= =.>.#.-.q k *X*X*X*X*X*X",
"*X*X*X*X*X*XA.w 5.;.7.5   S.*X*X*X*X*X*X*X*X*X*X*X*X*X*X*X*X*X*X*X*X*X*X*X> > h 0.;.q f *X*X*X*X*X*X",
"*X*X*X*X*X*XA.w 6.x o     Z.*X*X*X*X*X*X*X*X*X*X*X*X*X*X*X*X*X*X*X*X*X*X*XX   2 q 0.q g *X*X*X*X*X*X",
"*X*X*X*X*X*XA.w 5.q < % *._.*X*X*X*X*X*X*X*X*X*X*X*X*X*X*X*X*X*X*X*X*X*X*X*.= , q j q k *X*X*X*X*X*X",
"*X*Xc.c.c.l.u.q 6.&.=.-.<._.*X*X*X*X*X*X*X*X*X*X*X*X*X*X*X*X*X*X*X*X*X*X*Xq.-.;.W =.q f *X*X*X*X*X*X",
"*X*Xh.h.h.h.y.q &.<.-.<.*.p.Q.^.~.Q.~.'.[.[.[.[.[.[.[.[.[.[.R.Q.~.~.~.Q.R.7.:.<.-.,.q s *X*X*X*X*X*X",
"*X*Xh.h.c.h.y.w &.<.*.z y.v.b.b.n.n.n.D.R.L.L.L.P.P.R.P.L.L.D.b.b.n.b.n.n.v.m 6.:.,.w d *X*X*X*X*X*X",
"*X*X*XI.I.U.S.q O a.x.Z.Z.Z.Z.Z.Z.Z.Z.F.F.I.K.K.K.F.F.F.I.I.I.U.I.K.K.K.U.K.K.K.u.8.q c *X*X*X*X*X*X",
"*X*X*X*X*X*X*X*X*X*X*X*X*X*X*X*X*X*X*X*X*X*X*X*X*X*X*X*X*X*X*X*X*X*X*X*X*X*X*X*X*X*X*X*X*X*X*X*X*X*X",
"*X*X*X*X*X*X*X*X*X*X*X*X*X*X*X*X*X*X*X*X*X*X*X*X*X*X*X*X*X*X*X*X*X*X*X*X*X*X*X*X*X*X*X*X*X*X*X*X*X*X",
"*X*X*X*X*X*X*X*X*X*X*X*X*X*X*X*X*X*X*X*X*X*X*X*X*X*X*X*X*X*X*X*X*X*X*X*X*X*X*X*X*X*X*X*X*X*X*X*X*X*X",
"*X*X*X*X*X*X*X*X*X*X*X*X*X*X*X*X*X*X*X*X*X*X*X*X*X*X*X*X*X*X*X*X*X*X*X*X*X*X*X*X*X*X*X*X*X*X*X*X*X*X"
};
