/* XPM */
static char *result[] = {
/* columns rows colors chars-per-pixel */
"50 50 212 2 ",
"   c #2E1B2E",
".  c #3A1F2E",
"X  c #331F31",
"o  c #372536",
"O  c #3D2533",
"+  c #3E2E3E",
"@  c #3B273A",
"#  c #3F313F",
"$  c #501F2C",
"%  c #5E232F",
"&  c #52212E",
"*  c #452534",
"=  c #4C2E3B",
"-  c #4B2633",
";  c #562530",
":  c #5A2631",
">  c #552C38",
",  c #4A313E",
"<  c #45343F",
"1  c #5D313D",
"2  c #63242F",
"3  c #6B232E",
"4  c #6A2632",
"5  c #6D2B36",
"6  c #652A36",
"7  c #7D2436",
"8  c #772B38",
"9  c #76353C",
"0  c #75222D",
"q  c #3F3240",
"w  c #433442",
"e  c #4C3644",
"r  c #443B45",
"t  c #4B3B45",
"y  c #4F3C49",
"u  c #5D3541",
"i  c #5D3A46",
"p  c #523B4B",
"a  c #593E4D",
"s  c #653A43",
"d  c #7C3B41",
"f  c #773445",
"g  c #763246",
"h  c #4B464C",
"j  c #4D494E",
"k  c #53434C",
"l  c #58414F",
"z  c #4E4A51",
"x  c #5A4252",
"c  c #524D54",
"v  c #564853",
"b  c #565159",
"n  c #5B525C",
"m  c #555057",
"M  c #794349",
"N  c #644B5A",
"B  c #6A4D5D",
"V  c #674556",
"C  c #754C5B",
"Z  c #5F5861",
"A  c #754F62",
"S  c #6D5364",
"D  c #625A64",
"F  c #6F5768",
"G  c #645964",
"H  c #715564",
"J  c #745B6E",
"K  c #7C5C6D",
"L  c #7D5668",
"P  c #7A5F72",
"I  c #775E70",
"U  c #6A616D",
"Y  c #7B6274",
"T  c #786976",
"R  c #777078",
"E  c #821E32",
"W  c #891D31",
"Q  c #981E31",
"!  c #94172B",
"~  c #A41426",
"^  c #AC1629",
"/  c #A31B2A",
"(  c #AB1C2C",
")  c #A71427",
"_  c #AC1729",
"`  c #9D2C2C",
"'  c #842435",
"]  c #8A2A36",
"[  c #852D3A",
"{  c #872937",
"}  c #952B38",
"|  c #8C323A",
" . c #8C3C3D",
".. c #84383E",
"X. c #94353B",
"o. c #9A353C",
"O. c #943B3C",
"+. c #9E3E3C",
"@. c #993235",
"#. c #8A2C2E",
"$. c #AE242E",
"%. c #A32A2C",
"&. c #AC2B2E",
"*. c #A7222F",
"=. c #B4232D",
"-. c #B9252F",
";. c #BB2B2F",
":. c #AC2E31",
">. c #A62831",
",. c #B32B34",
"<. c #BB2B33",
"1. c #BA2630",
"2. c #A73535",
"3. c #B43234",
"4. c #BD3431",
"5. c #B83536",
"6. c #C33532",
"7. c #C33A34",
"8. c #CB3C35",
"9. c #C1343B",
"0. c #D13F37",
"q. c #96413E",
"w. c #99423E",
"e. c #A2423D",
"r. c #AF413B",
"t. c #BB473E",
"y. c #CC4136",
"u. c #CA473A",
"i. c #C24338",
"p. c #D24339",
"a. c #D6483A",
"s. c #823A42",
"d. c #953B40",
"f. c #973A41",
"g. c #A63E45",
"h. c #88464A",
"j. c #994441",
"k. c #A84844",
"l. c #895F74",
"z. c #816374",
"x. c #856B7C",
"c. c #896B7E",
"v. c #85677A",
"b. c #88707F",
"n. c #8E6E83",
"m. c #8C7283",
"M. c #887985",
"N. c #917286",
"B. c #947589",
"V. c #957A8C",
"C. c #9A7B8E",
"Z. c #98778A",
"A. c #9C7E91",
"S. c #A07F95",
"D. c #89858A",
"F. c #9C8393",
"G. c #978D95",
"H. c #99959B",
"J. c #99818F",
"K. c #A28396",
"L. c #A58599",
"P. c #A9879A",
"I. c #A58B9B",
"U. c #AB8A9E",
"Y. c #9E9BA0",
"T. c #AE8CA1",
"R. c #B18EA4",
"E. c #AD96A5",
"W. c #B392A6",
"Q. c #B594A9",
"!. c #B399A9",
"~. c #B99DAE",
"^. c #B997AD",
"/. c #BC9DB1",
"(. c #ACA9AD",
"). c #A6A2A6",
"_. c #AFAEB1",
"`. c #B1ADB1",
"'. c #BCA9B5",
"]. c #B2B1B4",
"[. c #BDBBBE",
"{. c #BAB7BB",
"}. c #C5AABB",
"|. c #C5B0BD",
" X c #BFBEC1",
".X c #CAB2C0",
"XX c #CBBEC6",
"oX c #C0BFC2",
"OX c #D1B8C8",
"+X c #CDAFC1",
"@X c #C4C1C6",
"#X c #CBC4CB",
"$X c #CCCACE",
"%X c #D4C3CE",
"&X c #DACDD5",
"*X c #D9C9D3",
"=X c #DCD5DA",
"-X c #E1D4DC",
";X c #E3D9DF",
":X c #E4DCE1",
">X c #EADDE4",
",X c #EAE1E7",
"<X c #ECE6EA",
"1X c #EEEBED",
"2X c #E6E0E4",
"3X c #F1EBEF",
"4X c #F2EEF1",
"5X c #F4F3F4",
"6X c #F9F7F8",
"7X c #FCFCFC",
"8X c #F8F3F6",
"9X c None",
/* pixels */
"9X9X9X9X9X9X9X9X9X9X9X9X9X9X9X9X9X9X9X9X9X9X9X9X9X9X9X9X9X9X9X9X9X9X9X9X9X9X9X9X9X9X9X9X9X9X9X9X9X9X",
"9X9X9X9X9X9X9X9X9X9X9X9X9X9X9X9X9X9X9X9X9X9X9X9X9X9X9X9X9X9X9X9X9X9X9X9X9X9X9X9X9X9X9X9X9X9X9X9X9X9X",
"9X9X9X9X9X9X9X9X9X9X9X9X9X9X9X9X9X9X9X9X9X9X9X9X9X9X9X9X9X9X9X9X9X9X9X9X9X9X9X9X9X9X9X9X9X9X9X9X9X9X",
"9X9X9X9X9X9X9X9X9X9X9X9X9X9X9X9X9X9X9X9X9X9X9X9X9X9X7X9X9X9X9X9X9X9X9X9X9X9X9X9X9X9X9X9X9X9X9X9X9X9X",
"9X9X9X9X9X9X9X9X9X9X9X9X9X9X9X9X9X9X9X9X9X4X%X}.}.+X}.-X8X9X9X9X9X9X9X9X9X9X9X9X9X9X9X9X9X9X9X9X9X9X",
"9X9X9X9X9X9X9X9X9X9X9X9X9X9X9X9X9X9X9X5XXXF.N.N.P.R.T.R.OX>X7X9X9X9X9X9X9X9X9X9X9X9X9X9X9X9X9X9X9X9X",
"9X9X9X9X9X9X9X9X9X9X9X9X9X9X9X9X9X9X:XE.N.n.n.n.S.P.T.T.Q./.*X4X9X9X9X9X9X9X9X9X9X9X9X9X9X9X9X9X9X9X",
"9X9X9X9X9X9X9X9X9X9X9X9X9X9X9X9X6X&XJ.n.n.n.n.n.Z.S.T.T.R.U.R.}.>X6X9X9X9X9X9X9X9X9X9X9X9X9X9X9X9X9X",
"9X9X9X9X9X9X9X9X9X9X9X9X9X9X9X6X(.n.n.n.n.z.Y Y A H V.V.V.T.U.S.F.%X6X9X9X9X9X9X9X9X9X9X9X9X9X9X9X9X",
"9X9X9X9X9X9X9X9X9X9X9X9X9X9X6X{.P F n.n.A u b p G N y m u l.Z.n.n.A.*X6X9X9X9X9X9X9X9X9X9X9X9X9X9X9X",
"9X9X9X9X9X9X9X9X9X9X9X9X9X9X#XY J J P A ! 7 b ).4X1XG.z 0 E A n.n.n.L.:X9X9X9X9X9X9X9X9X9X9X9X9X9X9X",
"9X9X9X9X9X9X9X9X9X9X9X9X9X=Xx.J J J a W ~ 7 b oX7X7X].m W ~ W l.n.n.N.R.4X9X9X9X9X9X9X9X9X9X9X9X9X9X",
"9X9X9X9X9X9X9X9X9X9X9X9X6XF.J J J S 7 ) ) ' b  X7X7X`.m E ) ) 7 v.N.N.B..X6X9X9X9X9X9X9X9X9X9X9X9X9X",
"9X9X9X9X9X9X9X9X9X9X9X6X%XF.P J J g / ) ^ 7 c Z F U Z c E ) ) ! f n.n.Z./.=X6X9X9X9X9X9X9X9X9X9X9X9X",
"9X9X9X9X9X9X9X9X9X9X9X*XR.^.P.J V Q ^ ^ ( ' b D._._.D.c ' ^ ^ ~ Q L N.K.T./.>X9X9X9X9X9X9X9X9X9X9X9X",
"9X9X9X9X9X9X9X9X9X9X3X~.T.R.Q.C.s.( ( ( ( 7 b oX7X7X`.m ' ^ / / ^ g N.T.T.T.OX8X9X9X9X9X9X9X9X9X9X9X",
"9X9X9X9X9X9X9X9X9X9XOXR.T.T.T.Y u u u i } 8 m @X7X7X_.c { | a u u u P T.T.T./.>X9X9X9X9X9X9X9X9X9X9X",
"9X9X9X9X9X9X9X9X9X4X/.T.T.R.S.p q w w e 9 [ c H.@X@XG.c { 9 r r q q p A.T.T.T..X8X9X9X9X9X9X9X9X9X9X",
"9X9X9X9X9X9X9X9X9X&XR.R.T.T.L 4 4 5 g 0 *.[ z b D D b j ] *.5 5 5 5 6 K T.R.T.Q.>X9X9X9X9X9X9X9X9X9X",
"9X9X9X9X9X9X9X9X7XXXL.T.T.Z.f =.( -.( ( -.[ m {.4X4X(.c ] =.=.$.,.,.,.g N.T.T.R.&X7X9X9X9X9X9X9X9X9X",
"9X9X9X9X9X9X9X9X1X!.W.P.K.C ` =.=.1.=.=.-.[ m oX7X7X].z ] -.=.( ,.,.,.} B S.L.S./.5X9X9X9X9X9X9X9X9X",
"9X9X9X9X9X9X9X9X*XB.Z.L.x.1 $.=.=.1.=.=.-.[ m |.7X7X].z } -.1.,.<.,.,.,.> H n.n.K.:X9X9X9X9X9X9X9X9X",
"9X9X9X9X9X9X9X9X'.N.n.m.Y 4 1.1.=.1.-.=.1.] c G T U Z z f.<.,.$.<.,.=.=.2 N n.n.C.*X9X9X9X9X9X9X9X9X",
"9X9X9X9X9X9X9X6X!.n.N.N.B 0 <.1.1.1.=.-.6.[ c D.(.(.M.h f.9.5.,.5.$.=.1.3 a c.n.N.'.9X9X9X9X9X9X9X9X",
"9X9X9X9X9X9X9X4XI.n.n.n.a : ] X.X.o.o.o.3.| c [.7X7X_.z f.5.g.f.o.| | { ; y v.N.m.T.8X9X9X9X9X9X9X9X",
"9X9X9X9X9X9X9X<XJ.n.n.c.p X @ < w w r h s.| c @X7X7X].c f.h.z r q # w @ X e Y n.m.I.3X9X9X9X9X9X9X9X",
"9X9X9X9X9X9X:XXXJ.m.b.x.e . - = , , t t  .| c H.$X#XH.b f.d t w e = - - . , K n.m.I.#X;X9X9X9X9X9X9X",
"9X9X9X9X9X9XJ.Y Y Y Y x.a 2 %.3.:.:.:.2.5.| j n Z D Z z X.3.2.%.:.&.,.%.% y J P x.x.x.T.9X9X9X9X9X9X",
"9X9X9X9X9X9Xm.J I J J Y l 3 &.6.4.4.3.M i d c ].4X1X(.c d i M :.6.;.6.%.2 e J J J J J V.9X9X9X9X9X9X",
"9X9X9X9X9X9Xm.J J J J J p 3 &.6.6.6.o.v k s c [.7X7X_.z s v k } 6.6.6.*.2 e J J J J I M.9X9X9X9X9X9X",
"9X9X9X9X9X9XG.F F F F S e 4 %.6.6.8. .4 s M z [.7X7X].j s.s 5 O.7.7.6.%.% < S F J F F H.9X9X9X9X9X9X",
"9X9X9X9X9X9X6X<X!.N.V.N.t 2 %.8.6.8.X...d ..z U T R G h  .9 ..@.8.8.6.` % k L.T.T..X<X9X9X9X9X9X9X9X",
"9X9X9X9X9X9X9X5XU.m.n.n.x 6 %.7.8.8.7.2.4.O.j D.).).R j w.5.2.4.8.8.4.%.: N U.T.T..X6X9X9X9X9X9X9X9X",
"9X9X9X9X9X9X9X8XT.m.n.n.a 6 ` 7.8.y.8.8.y.O.z oX7X7X_.z 2.0.8.8.8.8.4.` ; V U.T.R.|.6X9X9X9X9X9X9X9X",
"9X9X9X9X9X9X<X-X!.A.A.Z.k : ` 4.8.p.y.y.y.O.j [.7X7X].j e.y.y.y.y.7.4.` ; x K.L.L.'.&X2X9X9X9X9X9X9X",
"9X9X9X9X9X4X~.R.W.W.W.^.P * % 9 w.e.t.t.p.q.j Y.$X$XG.j e.p.t.r.k.O.9 ; O B B.B.N.Z.Z.T.4X9X9X9X9X9X",
"9X9X9X9X9X1XQ.R.R.R.T.R.K o   o < < h h k.w.h m n Z m h e.k.k < w < o   o N m.n.n.n.N.F.4X9X9X9X9X9X",
"9X9X9X9X7X3XQ.U.U.U.P.P.N * ; - = < < h M q.c {.1X1X_.j w.M h < w = - $ O k c.c.n.c.n.F.4X9X9X9X9X9X",
"9X9X9X9X}.~.I.A.K.B.J.J.J 1 @.2.i.i.r.e.u.w.c @X7X7X[.j e.u.e.r.i.4.2.` ; N v.x.n.N.B.K.!.|.9X9X9X9X",
"9X9X9X-XB.n.n.n.N.P J J N 1 O.r.u.a.a.a.a.q.z {.3X3X].j e.a.a.p.a.y.` #.- v J J I n.N.m.n.C.,X9X9X9X",
"9X9X9X2XZ.n.n.N.c.J J J H z.K H C h.h.e.t.q.j B.T.U.m.h w.t.e.h.h.C H K K N J J J v.m.N.n.V.9X9X9X9X",
"9X9X9X:XF.V.C.C.C.m.T x.b.b.b.b.m.m.b.m.T T x.C.A.J.J.b.Y x.V.C.F.C.C.C.C.C.V.C.m.n.m.m.m.V.9X9X9X9X",
"9X9X9X9X9X9X9X9X9X9X9X9X9X9X9X9X9X9X9X9X9X9X9X9X9X9X9X9X9X9X9X9X9X9X9X9X9X9X9X9X9X9X9X9X9X9X9X9X9X9X",
"9X9X9X9X9X9X9X9X9X9X9X9X9X9X9X9X9X9X9X9X9X9X9X9X9X9X9X9X9X9X9X9X9X9X9X9X9X9X9X9X9X9X9X9X9X9X9X9X9X9X",
"9X9X9X9X9X9X9X9X9X9X9X9X9X9X9X9X9X9X9X9X9X9X9X9X9X9X9X9X9X9X9X9X9X9X9X9X9X9X9X9X9X9X9X9X9X9X9X9X9X9X",
"9X9X9X9X9X9X9X9X9X9X9X9X9X9X9X9X9X9X9X9X9X9X9X9X9X9X9X9X9X9X9X9X9X9X9X9X9X9X9X9X9X9X9X9X9X9X9X9X9X9X",
"9X9X9X9X9X9X9X9X9X9X9X9X9X9X9X9X9X9X9X9X9X9X9X9X9X9X9X9X9X9X9X9X9X9X9X9X9X9X9X9X9X9X9X9X9X9X9X9X9X9X",
"9X9X9X9X9X9X9X9X9X9X9X9X9X9X9X9X9X9X9X9X9X9X9X9X9X9X9X9X9X9X9X9X9X9X9X9X9X9X9X9X9X9X9X9X9X9X9X9X9X9X",
"9X9X9X9X9X9X9X9X9X9X9X9X9X9X9X9X9X9X9X9X9X9X9X9X9X9X9X9X9X9X9X9X9X9X9X9X9X9X9X9X9X9X9X9X9X9X9X9X9X9X",
"9X9X9X9X9X9X9X9X9X9X9X9X9X9X9X9X9X9X9X9X9X9X9X9X9X9X9X9X9X9X9X9X9X9X9X9X9X9X9X9X9X9X9X9X9X9X9X9X9X9X"
};
