/* XPM */
static char *result[] = {
/* columns rows colors chars-per-pixel */
"50 50 182 2 ",
"   c #0F0F0F",
".  c #141414",
"X  c #191716",
"o  c #1C1C1C",
"O  c #211D1A",
"+  c #25211C",
"@  c #2A241F",
"#  c #242423",
"$  c #282625",
"%  c #2C2925",
"&  c #2C2C2A",
"*  c #322B24",
"=  c #3A2F25",
"-  c #342F29",
";  c #34312C",
":  c #3C332B",
">  c #3E392E",
",  c #3D3B35",
"<  c #3B3B3B",
"1  c #333233",
"2  c #42362B",
"3  c #43392F",
"4  c #443C32",
"5  c #4B3E33",
"6  c #413F3E",
"7  c #603E38",
"8  c #434036",
"9  c #4E4235",
"0  c #49413B",
"q  c #534334",
"w  c #594636",
"e  c #5E4937",
"r  c #52453A",
"t  c #564A3E",
"y  c #5C4B3B",
"u  c #614237",
"i  c #67453B",
"p  c #624D3C",
"a  c #69533F",
"s  c #434442",
"d  c #4B4740",
"f  c #4C4C41",
"g  c #4C4C4B",
"h  c #544C44",
"j  c #5C4E42",
"k  c #524E4A",
"l  c #514645",
"z  c #4F504B",
"x  c #53504D",
"c  c #555553",
"v  c #595651",
"b  c #5E5952",
"n  c #5B5A5A",
"m  c #645242",
"M  c #6B5543",
"N  c #6E5846",
"B  c #675749",
"V  c #6E5D4C",
"C  c #62594A",
"Z  c #735B46",
"A  c #725D4B",
"S  c #795D4B",
"D  c #795D43",
"F  c #6B5D51",
"G  c #625F5C",
"H  c #77624F",
"J  c #7B634D",
"K  c #666057",
"L  c #6A625B",
"P  c #746252",
"I  c #7A6652",
"U  c #7E6955",
"Y  c #756758",
"T  c #7C6C5D",
"R  c #646465",
"E  c #6A6663",
"W  c #6F6F6F",
"Q  c #6D6A65",
"!  c #766B62",
"~  c #79716B",
"^  c #727473",
"/  c #787876",
"(  c #81674F",
")  c #866A4F",
"_  c #836A54",
"`  c #8B6E55",
"'  c #876E59",
"]  c #9C6357",
"[  c #8C725A",
"{  c #99775B",
"}  c #97795F",
"|  c #997A5E",
" . c #927358",
".. c #8F7760",
"X. c #8F7860",
"o. c #84776B",
"O. c #887867",
"+. c #947B64",
"@. c #9B7D63",
"#. c #907B6A",
"$. c #857E75",
"%. c #827D79",
"&. c #A07D60",
"*. c #A97C6A",
"=. c #9E8166",
"-. c #9F8169",
";. c #8F8073",
":. c #87827E",
">. c #978879",
",. c #A38265",
"<. c #A98567",
"1. c #A48569",
"2. c #A98769",
"3. c #A7896F",
"4. c #AD8B6C",
"5. c #B18C6C",
"6. c #A78A71",
"7. c #AC8C71",
"8. c #B48F70",
"9. c #A2917F",
"0. c #AE947E",
"q. c #B49172",
"w. c #B99575",
"e. c #B4957A",
"r. c #BC997A",
"t. c #C09975",
"y. c #C39D7D",
"u. c #C5A07F",
"i. c #CCA37F",
"p. c #878582",
"a. c #8A8785",
"s. c #938B83",
"d. c #908C8A",
"f. c #9F9185",
"g. c #9F968D",
"h. c #979694",
"j. c #9B9693",
"k. c #AD9681",
"l. c #AD9C8D",
"z. c #B89080",
"x. c #B59D88",
"c. c #B4958A",
"v. c #A79C92",
"b. c #BCA189",
"n. c #B8A698",
"m. c #ACACAC",
"M. c #B3ACA7",
"N. c #B9AEA4",
"B. c #BCB0A5",
"V. c #B9B8B7",
"C. c #C29B84",
"Z. c #C69B88",
"A. c #C6A282",
"S. c #CBA583",
"D. c #CEAB8B",
"F. c #D1A985",
"G. c #D4AD8B",
"H. c #D8AE8A",
"J. c #D3B08E",
"K. c #DBB28D",
"L. c #C7AF99",
"P. c #D6B495",
"I. c #DCB693",
"U. c #E0B58F",
"Y. c #E0B690",
"T. c #E6BE9A",
"R. c #E8BE99",
"E. c #E4BC97",
"W. c #CFBEAF",
"Q. c #C4B5A7",
"!. c #D4BDA9",
"~. c #DABEA8",
"^. c #DABBA0",
"/. c #C4BDB6",
"(. c #E6C09B",
"). c #EAC19C",
"_. c #D5C1AD",
"`. c #D0C1B5",
"'. c #D3C7B9",
"]. c #EBC3A0",
"[. c #F4CBA6",
"{. c None",
/* pixels */
"{.{.{.{.{.{.{.{.{.{.{.{.{.{.{.{.{.{.{.{.{.{.{.{.{.{.{.{.{.{.{.{.{.{.{.{.{.{.{.{.{.{.{.{.{.{.{.{.{.{.",
"{.{.{.{.{.{.{.{.{.{.{.{.{.{.{.{.{.{.{.{.{.{.{.{.{.n.Z.z.c.j.{.{.{.{.{.{.{.{.{.{.{.{.{.{.{.{.{.{.{.{.",
"{.{.{.{.{.{.{.{.{.{.{.{.{.{.{.{.{.{.{.{.{.{.{.{.h.Z.C.y.r.o.{.{.{.{.{.{.{.{.{.{.{.{.{.{.{.{.{.{.{.{.",
"{.{.{.{.{.{.{.{.{.{.{.{.{.{.{.{.{.{.{.{.{.{.{.{.^ >.3.[ @.Y h.{.{.{.{.{.{.{.{.{.{.{.{.{.{.{.{.{.{.{.",
"{.{.{.{.{.{.{.{.{.{.{.{.{.{.{.{.{.{.{.{.{.{.{.{.n z K X.A j $.{.{.{.{.{.{.{.{.{.{.{.{.{.{.{.{.{.{.{.",
"{.{.{.{.{.{.{.{.{.{.{.{.{.{.{.{.{.{.{.{.{.{.{.{.c < < V : B e.x.{.{.{.{.{.{.{.{.{.{.{.{.{.{.{.{.{.{.",
"{.{.{.{.{.{.{.{.{.{.{.{.{.{.{.{.{.{.{.{.{.{.{.{.c s i - B 7.S.#.a.{.{.{.{.{.{.{.{.{.{.{.{.{.{.{.{.{.",
"{.{.{.{.{.{.{.{.{.{.{.{.{.{.{.{.{.{.{.{.{.{.{.{.k i i _ A.S.' 4 F j.{.{.{.{.{.{.{.{.{.{.{.{.{.{.{.{.",
"{.{.{.{.{.{.{.{.{.{.{.{.{.{.{.{.{.{.{.{.{.{.{.{.l 7 1.S.w.Z - + % ! {.{.{.{.{.{.{.{.{.{.{.{.{.{.{.{.",
"{.{.{.{.{.{.{.{.{.{.{.{.{.{.{.{.{.{.{.{.{.{.{.{.n B e.' m j y m j t :.{.{.{.{.{.{.{.{.{.{.{.{.{.{.{.",
"{.{.{.{.{.{.{.{.{.{.{.{.{.{.{.{.{.{.{.{.{.{.{.{.j _ +.y m 5.4.A p j E {.{.{.{.{.{.{.{.{.{.{.{.{.{.{.",
"{.{.{.{.{.{.{.{.{.{.{.{.{.{.{.{.{.{.{.{.{.{.{.{.[ Z.+.r <.U.w.J J p ~ {.{.{.{.{.{.{.{.{.{.{.{.{.{.{.",
"{.{.{.{.{.{.{.{.{.{.{.{.{.{.{.{.{.{.{.{.{.{.{.{.J.r._  .r.G.q.} Z M o.{.{.{.{.{.{.{.{.{.{.{.{.{.{.{.",
"{.{.{.{.{.{.{.{.{.{.{.{.{.{.{.{.{.{.{.{.{.{.{.{.F.1.Z @.u.K.S.8._ M ! {.{.{.{.{.{.{.{.{.{.{.{.{.{.{.",
"{.{.{.{.{.{.{.{.{.{.{.{.{.{.{.{.{.{.{.{.{.{.{.{.x.i.J | i.i.r.=.Z p A {.{.{.{.{.{.{.{.{.{.{.{.{.{.{.",
"{.{.{.{.{.{.{.{.{.{.{.{.{.{.{.{.{.{.{.{.{.{.{.{.e.i.i.5.5.8.| D p p B {.{.{.{.{.{.{.{.{.{.{.{.{.{.{.",
"{.{.{.{.{.{.{.{.{.{.{.{.{.{.{.{.{.{.{.{.{.{.{.{.k.t.r.<.H H J w e e r {.{.{.{.{.{.{.{.{.{.{.{.{.{.{.",
"{.{.{.{.{.{.{.{.{.{.{.{.{.{.{.{.{.{.{.{.{.{.{.{.s.H | | b 0 > % = * x {.{.{.{.{.{.{.{.{.{.{.{.{.{.{.",
"{.{.{.{.{.{.{.{.{.{.{.{.{.{.{.{.{.{.{.{.{.{.{.{.{.;.[ O.t 8 8 % + ; {.{.{.{.{.{.{.{.{.{.{.{.{.{.{.{.",
"{.{.{.{.{.{.{.{.{.{.{.{.{.{.{.{.{.{.{.{.{.{.{.{.{.B.I.J.;.=.) : # g {.{.{.{.{.{.{.{.{.{.{.{.{.{.{.{.",
"{.{.{.{.{.{.{.{.{.{.{.{.{.{.{.{.{.{.{.{.{.{.{.{.9.).[.J.t.=.a > & # & {.{.{.{.{.{.{.{.{.{.{.{.{.{.{.",
"{.{.{.{.{.{.{.{.{.{.{.{.{.{.{.{.{.{.{.{.{.{.{.{.P.(.P.G.1.a 9 % & & o c {.{.{.{.{.{.{.{.{.{.{.{.{.{.",
"{.{.{.{.{.{.{.{.{.{.{.{.{.{.{.{.{.{.{.{.{.{.{._.).E.7.` a J y % # & # < {.{.{.{.{.{.{.{.{.{.{.{.{.{.",
"{.{.{.{.{.{.{.{.{.{.{.{.{.{.{.{.{.{.{.{.{.{.`.b.r.4.J a p ] w $ # # < < {.{.{.{.{.{.{.{.{.{.{.{.{.{.",
"{.{.{.{.{.{.{.{.{.{.{.{.{.{.{.{.{.{.{.{.{.Q.I.U.=.N ` } A *.S $ # o & {.{.{.{.{.{.{.{.{.{.{.{.{.{.{.",
"{.{.{.{.{.{.{.{.{.{.{.{.{.{.{.{.{.{.{.{.v.+.u.y.J y <.<.U =.P $ # o # {.{.{.{.{.{.{.{.{.{.{.{.{.{.{.",
"{.{.{.{.{.{.{.{.{.{.{.{.{.{.{.{.{.{.{.{.O.m B J +._ t H @.R.7.% # o # {.{.{.{.{.{.{.{.{.{.{.{.{.{.{.",
"{.{.{.{.{.{.{.{.{.{.{.{.{.{.{.{.{.{.{.{.v.3.` [ q.| > 3 G.).r.- o . o {.{.{.{.{.{.{.{.{.{.{.{.{.{.{.",
"{.{.{.{.{.{.{.{.{.{.{.{.{.{.{.{.{.{.{.{./.P.A.r.4.m : q T.R.w.: . . . {.{.{.{.{.{.{.{.{.{.{.{.{.{.{.",
"{.{.{.{.{.{.{.{.{.{.{.{.{.{.{.{.{.{.{.{.N.S.r.4.m * @ 3 I.I.8.:     o {.{.{.{.{.{.{.{.{.{.{.{.{.{.{.",
"{.{.{.{.{.{.{.{.{.{.{.{.{.{.{.{.{.{.{.V.$.+.@.` 2 . . L I.H.8.5     1 {.{.{.{.{.{.{.{.{.{.{.{.{.{.{.",
"{.{.{.{.{.{.{.{.{.{.{.{.{.{.{.{.{.{.{.p.b P ` Z 2 . R {.S.S.8.p O   < {.{.{.{.{.{.{.{.{.{.{.{.{.{.{.",
"{.{.{.{.{.{.{.{.{.{.{.{.{.{.{.{.{.{.{.L , m J 9 o W {.{.6.,.=.I w X s {.{.{.{.{.{.{.{.{.{.{.{.{.{.{.",
"{.{.{.{.{.{.{.{.{.{.{.{.{.{.{.{.{.{.{.b h F q o / {.{.{.k.{ &.4.( O g {.{.{.{.{.{.{.{.{.{.{.{.{.{.{.",
"{.{.{.{.{.{.{.{.{.{.{.{.{.{.{.{.{.{.{.Y q.+.: g {.{.{.{.M.J M  .` @ R {.{.{.{.{.{.{.{.{.{.{.{.{.{.{.",
"{.{.{.{.{.{.{.{.{.{.{.{.{.{.{.{.{.{.h.P _ J ; x {.{.{.{.{.v ; @ q 2 E {.{.{.{.{.{.{.{.{.{.{.{.{.{.{.",
"{.{.{.{.{.{.{.{.{.{.{.{.{.{.{.{.{.{.a.U ,.H ; c {.{.{.{.{.L ; @ + p 8 z m.{.{.{.{.{.{.{.{.{.{.{.{.{.",
"{.{.{.{.{.{.{.{.{.{.{.{.{.{.{.{.{.{.j.=.,.y : Q {.{.{.{.{.{.0 ; * M 0 - f v.{.{.{.{.{.{.{.{.{.{.{.{.",
"{.{.{.{.{.{.{.{.{.{.{.{.{.{.{.{.{.{._.F.q.,. .#.{.{.{.{.{.{.E $ = M e % t J k.{.{.{.{.{.{.{.{.{.{.{.",
"{.{.{.{.{.{.{.{.{.{.{.{.{.{.{.{.{.{.P.r.4. .M T {.{.{.{.{.{.{.G = w p w Z p V {.{.{.{.{.{.{.{.{.{.{.",
"{.{.{.{.{.{.{.{.{.{.{.{.{.{.{.{.{.L.y.5.@.D m {.{.{.{.{.{.{.{.{.G * q a Z m P {.{.{.{.{.{.{.{.{.{.{.",
"{.{.{.{.{.{.{.{.{.{.{.{.{.{.{.{.'.H.5.( : 5 {.{.{.{.{.{.{.{.{.{.{.{.m a a w : m.{.{.{.{.{.{.{.{.{.{.",
"{.{.{.{.{.{.{.{.{.{.{.{.{.{.{.{.P.y.,.9 . W {.{.{.{.{.{.{.{.{.{.{.{.s.M u *   n {.{.{.{.{.{.{.{.{.{.",
"{.{.{.{.{.{.{.{.{.{.{.{.^.L.n.~.S.8.T 1 $ {.{.{.{.{.{.{.{.{.{.{.{.{.{.A M w o & {.{.{.{.{.{.{.{.{.{.",
"{.{.{.{.{.{.{.{.{.{.{.0.t.4.[ r.y.[ s $ 0 {.{.{.{.{.{.{.{.{.{.{.{.{.{.e.<.| 5 > M.{.{.{.{.{.{.{.{.{.",
"{.{.{.{.{.{.{.{.{.{.{.a.y a D ) N k s r {.{.{.{.{.{.{.{.{.{.{.{.{.{.{.W.S.,.r ; / {.{.{.{.{.{.{.{.{.",
"{.{.{.{.{.{.{.{.{.{.{.{.{.{.k - + # & - {.{.{.{.{.{.{.{.{.{.{.{.{.{.Q.T.K.` ; $ d.{.{.{.{.{.{.{.{.{.",
"{.{.{.{.{.{.{.{.{.{.{.{.{.{.{.{.{.& : %.{.{.{.{.{.{.{.{.{.{.{.{.{.!.I.r.,.Z X $ {.{.{.{.{.{.{.{.{.{.",
"{.{.{.{.{.{.{.{.{.{.{.{.{.{.{.{.{.{.{.{.{.{.{.{.{.{.{.{.{.{.{.{.{.x.|  .e j {.{.{.{.{.{.{.{.{.{.{.{.",
"{.{.{.{.{.{.{.{.{.{.{.{.{.{.{.{.{.{.{.{.{.{.{.{.{.{.{.{.{.{.{.{.{.p.5 5 h {.{.{.{.{.{.{.{.{.{.{.{.{."
};
