/* XPM */
static char *result[] = {
/* columns rows colors chars-per-pixel */
"50 50 180 2 ",
"   c #0E0E0E",
".  c #14120F",
"X  c #131314",
"o  c #181514",
"O  c #1C1916",
"+  c #1C1C1B",
"@  c #211D1A",
"#  c #24221D",
"$  c #2B231C",
"%  c #30271F",
"&  c #242423",
"*  c #2C2620",
"=  c #2C2A25",
"-  c #2B2B2B",
";  c #342B23",
":  c #382B21",
">  c #342E2C",
",  c #383127",
"<  c #33322B",
"1  c #3B342C",
"2  c #2F3434",
"3  c #343533",
"4  c #3B3631",
"5  c #373830",
"6  c #3C3B33",
"7  c #3B3D3C",
"8  c #402F22",
"9  c #42362D",
"0  c #49372E",
"q  c #43392F",
"w  c #493A2D",
"e  c #5D332C",
"r  c #453B33",
"t  c #4A3D33",
"y  c #414037",
"u  c #4B4137",
"i  c #47403B",
"p  c #4B443C",
"a  c #534234",
"s  c #584636",
"d  c #574837",
"f  c #54453A",
"g  c #56493C",
"h  c #5D4A3A",
"j  c #614837",
"k  c #68453C",
"l  c #624D3B",
"z  c #66503E",
"x  c #69523F",
"c  c #454544",
"v  c #4D4A42",
"b  c #4E4E4D",
"n  c #504C42",
"m  c #5C4E41",
"M  c #524F4E",
"N  c #53514C",
"B  c #5B534A",
"V  c #4F5352",
"C  c #565656",
"Z  c #595958",
"A  c #585454",
"S  c #684B45",
"D  c #645343",
"F  c #6A5442",
"G  c #6D5846",
"H  c #6A5549",
"J  c #6A5A4B",
"K  c #705742",
"L  c #745B46",
"P  c #795E47",
"I  c #725E4B",
"U  c #7C5B49",
"Y  c #6B5F54",
"T  c #74614D",
"R  c #7B634D",
"E  c #686054",
"W  c #6C635B",
"Q  c #66615B",
"!  c #776452",
"~  c #7B6552",
"^  c #72675C",
"/  c #7C6D5E",
"(  c #646363",
")  c #696664",
"_  c #6B6866",
"`  c #6A696A",
"'  c #786E67",
"]  c #726E6A",
"[  c #77706A",
"{  c #7A7874",
"}  c #7B7C7B",
"|  c #727373",
" . c #81664E",
".. c #82684F",
"X. c #846A53",
"o. c #896D54",
"O. c #826C5A",
"+. c #886F59",
"@. c #9A6E5E",
"#. c #8F7055",
"$. c #87705C",
"%. c #8C725B",
"&. c #92745B",
"*. c #96795F",
"=. c #837263",
"-. c #85786E",
";. c #84766B",
":. c #967A62",
">. c #9B7D62",
",. c #957D6B",
"<. c #857C73",
"1. c #867E78",
"2. c #8C7E73",
"3. c #A27F62",
"4. c #9E8065",
"5. c #9B826B",
"6. c #90857C",
"7. c #A68566",
"8. c #A3866B",
"9. c #A8876A",
"0. c #A6886E",
"q. c #AA896B",
"w. c #B08A67",
"e. c #B28E6E",
"r. c #A68C77",
"t. c #AC8D71",
"y. c #A68F79",
"u. c #AC8676",
"i. c #B08C7B",
"p. c #B59273",
"a. c #BA9676",
"s. c #BF9875",
"d. c #B69579",
"f. c #BB957F",
"g. c #BB997A",
"h. c #C59E7C",
"j. c #8B8685",
"k. c #8A8885",
"l. c #848484",
"z. c #928980",
"x. c #99928C",
"c. c #8F8F90",
"v. c #8F9090",
"b. c #9D9694",
"n. c #9B9A99",
"m. c #A39588",
"M. c #AE9C8F",
"N. c #B69980",
"B. c #B09E8D",
"V. c #BB9D82",
"C. c #A19F9E",
"Z. c #AC9F9A",
"A. c #A0A09F",
"S. c #BDA998",
"D. c #B2A496",
"F. c #9E9EA0",
"G. c #B9AFA6",
"H. c #B3ACA6",
"J. c #B1B0AE",
"K. c gray",
"L. c #B7B5B3",
"P. c #CBA584",
"I. c #CCA886",
"U. c #C9A98E",
"Y. c #D0A986",
"T. c #D3AE8C",
"R. c #D8AF8A",
"E. c #D0A28B",
"W. c #D8B18C",
"Q. c #D6B496",
"!. c #E0B793",
"~. c #E5BB94",
"^. c #E4BE99",
"/. c #CEBAA9",
"(. c #D7BBA2",
"). c #D6BEAB",
"_. c #C3BEB9",
"`. c #ECC59F",
"'. c #D5C3B3",
"]. c None",
/* pixels */
"].].].].].].].].].].].].].].].].].].].C.n.].].].].].].].].].].].].].].].].].].].].].].].].].].].].].",
"].].].].].].].].].].].].].].].].].].Z.i.E.u.z.].].].].].].].].].].].].].].].].].].].].].].].].].].].",
"].].].].].].].].].].].].].].].].].n.f.t.f.J H n.].].].].].].].].].].].].].].].].].].].].].].].].].].",
"].].].].].].].].].].].].].].].].].} r.O.t.~ f ` ].].].].].].].].].].].].].].].].].].].].].].].].].].",
"].].].].].].].].].].].].].].].].].C V / 4 q 8.d.m.].].].].].].].].].].].].].].].].].].].].].].].].].",
"].].].].].].].].].].].].].].].].].Z 7 t l ,.O.,.,.n.].].].].].].].].].].].].].].].].].].].].].].].].",
"].].].].].].].].].].].].].].].].].( S 0 O.0.4 t =.2.].].].].].].].].].].].].].].].].].].].].].].].].",
"].].].].].].].].].].].].].].].].].) e *.9.q # ; u Y v.].].].].].].].].].].].].].].].].].].].].].].].",
"].].].].].].].].].].].].].].].].].A U >.f a D D H u W n.].].].].].].].].].].].].].].].].].].].].].].",
"].].].].].].].].].].].].].].].].].n.=.f %.R I h p J r -.].].].].].].].].].].].].].].].].].].].].].].",
"].].].].].].].].].].].].].].].].].].O.D s.F R +.H 4 R ! n.].].].].].].].].].].].].].].].].].].].].].",
"].].].].].].].].].].].].].].].].].j.R I t.d.4.&.I H I F 1.].].].].].].].].].].].].].].].].].].].].].",
"].].].].].].].].].].].].].].].].].].=.9.W.I.e.T D l F ! 6.].].].].].].].].].].].].].].].].].].].].].",
"].].].].].].].].].].].].].].].].].].=.9.P.a.%.F F F l L / ].].].].].].].].].].].].].].].].].].].].].",
"].].].].].].].].].].].].].].].].].].M.7.e.*.K s l l l j Y ].].].].].].].].].].].].].].].].].].].].].",
"].].].].].].].].].].].].].].].].].].].p.R o.f , w l w * ) ].].].].].].].].].].].].].].].].].].].].].",
"].].].].].].].].].].].].].].].].].].].r.&.v 5 # = ; # O 6.].].].].].].].].].].].].].].].].].].].].].",
"].].].].].].].].].].].].].].].].].].].].E 7 ; + @ O o + E ].].].].].].].].].].].].].].].].].].].].].",
"].].].].].].].].].].].].].].].].].].].].n T ~ ; # # = = B A.].].].].].].].].].].].].].].].].].].].].",
"].].].].].].].].].].].].].].].].].].].Q.0.q.G D < < = & - ` ].].].].].].].].].].].].].].].].].].].].",
"].].].].].].].].].].].].].].].].].].).T.d.X.l 0 - 3 + + & b ].].].].].].].].].].].].].].].].].].].].",
"].].].].].].].].].].].].].].].].].].U.P.>.F l 1 & 3 - + + 7 ].].].].].].].].].].].].].].].].].].].].",
"].].].].].].].].].].].].].].].].].'.T.*.x l k > & - & X + & v.].].].].].].].].].].].].].].].].].].].",
"].].].].].].].].].].].].].].].].].V.a.I F O.@.> + & X X + - } ].].].].].].].].].].].].].].].].].].].",
"].].].].].].].].].].].].].].]._.Q.W.U F H 0.+.& & + + X X V ].].].].].].].].].].].].].].].].].].].].",
"].].].].].].].].].].].].].].].5.I.s.q *.T T.:.& & & + X X ( ].].].].].].].].].].].].].].].].].].].].",
"].].].].].].].].].].].].].].m.r ..I +.q.~ `.+.@ + + + X X k.].].].].].].].].].].].].].].].].].].].].",
"].].].].].].].].].].].].].].L.-.H F :.1 o.~.I o X X X X c ].].].].].].].].].].].].].].].].].].].].].",
"].].].].].].].].].].].].].].K.2.>.>.t + +.R.D       X O ].].].].].].].].].].].].].].].].].].].].].].",
"].].].].].].].].].].].].].].k.B :.R a   +.Y.g         = ].].].].].].].].].].].].].].].].].].].].].].",
"].].].].].].].].].].].].].].{ n o.t o . +.P.h X     X X ].].].].].].].].].].].].].].].].].].].].].].",
"].].].].].].].].].].].].].].] O.w o O ' B.e.X.h X   X c ].].].].].].].].].].].].].].].].].].].].].].",
"].].].].].].].].].].].].].].z.9.l & # c H.8.a.#.@ X   | ].].].].].].].].].].].].].].].].].].].].].].",
"].].].].].].].].].].].].].].L.G T < < = ) / 7.7.* X X n.].].].].].].].].].].].].].].].].].].].].].].",
"].].].].].].].].].].].].].].].<.#.1 $ 9 5 p = #.9 X - F.].].].].].].].].].].].].].].].].].].].].].].",
"].].].].].].].].].].].].].].].].O.R 4.o.o.u # % l y = 6 y N =.Q.].].].].].].].].].].].].].].].].].].",
"].].].].].].].].].].].].].].].].G.7...X.G D 1 o z I < < 5 T 7.s.0.].].].].].].].].].].].].].].].].].",
"].].].].].].].].].].].].].].].].].:.R l h ] _ $ G R u , = o.#. .R [ ].].].].].].].].].].].].].].].].",
"].].].].].].].].].].].].].].].].].>.G ; @ ) ].].d I l l d R T x x ; Z K.].].].].].].].].].].].].].].",
"].].].].].].].].].].].].].].].].].%.a X   b ].].].W q u h x x l s O o c v.].].].].].].].].].].].].].",
"].].].].].].].].].].].].].].].].].N.~ + X - ].].].].].].].I l l O   o @ i /.].].].].].].].].].].].].",
"].].].].].].].].].].].].].].].].'.s.O.3 X p ].].].].].].].].].F a * X & f a.J J.].].].].].].].].].].",
"].].].].].].].].].].].].].].^.8.!.h.! - l ! ].].].].].].].].].].R X.t + = m # m ].].].].].].].].].].",
"].].].].].].].].].].].].].D.w. .X.X.6 7 ; 1 ].].].].].].].].].].]. .&.r 2 2 # ; ].].].].].].].].].].",
"].].].].].].].].].].].].].].B u t r - + : v ].].].].].].].].].].].m.3.3.h + X ` ].].].].].].].].].].",
"].].].].].].].].].].].].].].].].].].].) M ].].].].].].].].].].].].].Q.s.&.@ ( ].].].].].].].].].].].",
"].].].].].].].].].].].].].].].].].].].].].].].].].].].].].].].].].].^.P.q.T l.].].].].].].].].].].].",
"].].].].].].].].].].].].].].].].].].].].].].].].].].].].].].].].].S.t.%.F h ].].].].].].].].].].].].",
"].].].].].].].].].].].].].].].].].].].].].].].].].].].].].].].].].].l l 8 ].].].].].].].].].].].].].",
"].].].].].].].].].].].].].].].].].].].].].].].].].].].].].].].].].].].].].].].].].].].].].].].].].]."
};
