/* XPM */
static char *result[] = {
/* columns rows colors chars-per-pixel */
"50 50 187 2 ",
"   c #0F0E0F",
".  c #100F0F",
"X  c #12110F",
"o  c #0F0F10",
"O  c #100F10",
"+  c #131313",
"@  c #191715",
"#  c #191816",
"$  c #1C1C1B",
"%  c #201C17",
"&  c #221E1A",
"*  c #1F201D",
"=  c #25221E",
"-  c #2E251D",
";  c #252524",
":  c #2B2622",
">  c #2C2B25",
",  c #2C2D2D",
"<  c #342C24",
"1  c #3A2E25",
"2  c #332F2A",
"3  c #3A2D29",
"4  c #2F302A",
"5  c #34322C",
"6  c #3C352D",
"7  c #3D3126",
"8  c #3D3B34",
"9  c #353938",
"0  c #3C3C3D",
"q  c #383432",
"w  c #48342F",
"e  c #45392E",
"r  c #4A3B2F",
"t  c #46372B",
"y  c #593B2F",
"u  c #463C34",
"i  c #4A3E32",
"p  c #403E3D",
"a  c #503F31",
"s  c #4C4136",
"d  c #46443B",
"f  c #4B453B",
"g  c #4C483D",
"h  c #554435",
"j  c #5B4635",
"k  c #53463B",
"l  c #584739",
"z  c #5B4A3B",
"x  c #584838",
"c  c #634D3C",
"v  c #64443B",
"b  c #65503F",
"n  c #6A523E",
"m  c #454443",
"M  c #484847",
"N  c #4C4C4C",
"B  c #4A4641",
"V  c #524B43",
"C  c #534F48",
"Z  c #584941",
"A  c #56524D",
"S  c #5A5856",
"D  c #655343",
"F  c #6B5542",
"G  c #6E5846",
"H  c #6D5A4B",
"J  c #725A45",
"K  c #745D4B",
"L  c #785F49",
"P  c #7B5E47",
"I  c #6E5F59",
"U  c #655E58",
"Y  c #6F604F",
"T  c #7C634D",
"R  c #74604E",
"E  c #6D6156",
"W  c #64625F",
"Q  c #766355",
"!  c #7B6552",
"~  c #7E6955",
"^  c #77685C",
"/  c #7C6B5C",
"(  c #666766",
")  c #6D6D6D",
"_  c #6B6B66",
"`  c #706A66",
"'  c #716C68",
"]  c #7F7061",
"[  c #6F7070",
"{  c #737272",
"}  c #7B7673",
"|  c #7C7976",
" . c #7B7B7B",
".. c #854E49",
"X. c #82674F",
"o. c #846A54",
"O. c #896E56",
"+. c #846D5A",
"@. c #8D7057",
"#. c #86715D",
"$. c #8C725C",
"%. c #907156",
"&. c #93755C",
"*. c #9A7A5E",
"=. c #827265",
"-. c #8F7661",
";. c #8F7964",
":. c #82756A",
">. c #907660",
",. c #947963",
"<. c #9B7D63",
"1. c #997E68",
"2. c #857B72",
"3. c #8C7E72",
"4. c #807F7E",
"5. c #B57F6E",
"6. c #9D836D",
"7. c #94816F",
"8. c #8E8075",
"9. c #8D837B",
"0. c #91867C",
"q. c #93887F",
"w. c #9B8A7D",
"e. c #A5856A",
"r. c #AB8768",
"t. c #A7896D",
"y. c #AB8A6D",
"u. c #AD8E72",
"i. c #A48B72",
"p. c #AF9075",
"a. c #B39173",
"s. c #B89677",
"d. c #BD9877",
"f. c #B5987F",
"g. c #BC9A7C",
"h. c #C29F7F",
"j. c #C7A27F",
"k. c #848383",
"l. c #8E8280",
"z. c #8D8987",
"x. c #8C8A89",
"c. c #9A8D82",
"v. c #918D8B",
"b. c #938C86",
"n. c #9E9085",
"m. c #9C938B",
"M. c #93918D",
"N. c #939291",
"B. c #9B9593",
"V. c #9C9897",
"C. c #9B9B9B",
"Z. c #A48D84",
"A. c #AF9783",
"S. c #AE9986",
"D. c #BF9681",
"F. c #BD9D80",
"G. c #A89A93",
"H. c #B39A91",
"J. c #BBA28A",
"K. c #AAA19D",
"L. c #B1A398",
"P. c #A8A7A5",
"I. c #B4ADA8",
"U. c #B6B6B6",
"Y. c #B8B5B1",
"T. c #C29E80",
"R. c #C6A385",
"E. c #CAA483",
"W. c #CFA884",
"Q. c #CDAA8B",
"!. c #C4A488",
"~. c #D7AC87",
"^. c #D1AD8D",
"/. c #DAB18D",
"(. c #CBAE95",
"). c #D6AF91",
"_. c #DBBA99",
"`. c #E8BF99",
"'. c #CAB7A7",
"]. c #C8BEB4",
"[. c #E7C39F",
"{. c #ECC29D",
"}. c #EFC7A1",
"|. c #E5C5A7",
" X c #E1CDB6",
".X c #C4C3C3",
"XX c None",
/* pixels */
"XXXXXXXXXXXXXXXXXXXXXXXXXXXXXXXXXXXXXXXXXXXXXXXXXXB.H.Z.G.XXXXXXXXXXXXXXXXXXXXXXXXXXXXXXXXXXXXXXXXXX",
"XXXXXXXXXXXXXXXXXXXXXXXXXXXXXXXXXXXXXXXXXXXXXXXX9.! Q.f.D.G.XXXXXXXXXXXXXXXXXXXXXXXXXXXXXXXXXXXXXXXX",
"XXXXXXXXXXXXXXXXXXXXXXXXXXXXXXXXXXXXXXXXXXXXXXXXI G 1.-.u.S.C.XXXXXXXXXXXXXXXXXXXXXXXXXXXXXXXXXXXXXX",
"XXXXXXXXXXXXXXXXXXXXXXXXXXXXXXXXXXXXXXXXXXXXXXz.u D K 6.] _ 4.XXXXXXXXXXXXXXXXXXXXXXXXXXXXXXXXXXXXXX",
"XXXXXXXXXXXXXXXXXXXXXXXXXXXXXXXXXXXXXXXXXXXXV.!.1.l = K m p  .XXXXXXXXXXXXXXXXXXXXXXXXXXXXXXXXXXXXXX",
"XXXXXXXXXXXXXXXXXXXXXXXXXXXXXXXXXXXXXXXXXXXX3.,.Q.K h i q p  .XXXXXXXXXXXXXXXXXXXXXXXXXXXXXXXXXXXXXX",
"XXXXXXXXXXXXXXXXXXXXXXXXXXXXXXXXXXXXXXXXXX0.u 6 t.F.K : v Z  .XXXXXXXXXXXXXXXXXXXXXXXXXXXXXXXXXXXXXX",
"XXXXXXXXXXXXXXXXXXXXXXXXXXXXXXXXXXXXXXXX0.6 & & i ,.!.O.y v 4.XXXXXXXXXXXXXXXXXXXXXXXXXXXXXXXXXXXXXX",
"XXXXXXXXXXXXXXXXXXXXXXXXXXXXXXXXXXXXXXb.k u z r < u O.g.o.w [ XXXXXXXXXXXXXXXXXXXXXXXXXXXXXXXXXXXXXX",
"XXXXXXXXXXXXXXXXXXXXXXXXXXXXXXXXXXXXXX' H o.#.J z i e R -.k.C.XXXXXXXXXXXXXXXXXXXXXXXXXXXXXXXXXXXXXX",
"XXXXXXXXXXXXXXXXXXXXXXXXXXXXXXXXXXXXC.:.,.1.T c &.D : G R U C.XXXXXXXXXXXXXXXXXXXXXXXXXXXXXXXXXXXXXX",
"XXXXXXXXXXXXXXXXXXXXXXXXXXXXXXXXXXXXv.#.T t.f.o.*.%.= c t.D z.XXXXXXXXXXXXXXXXXXXXXXXXXXXXXXXXXXXXXX",
"XXXXXXXXXXXXXXXXXXXXXXXXXXXXXXXXXXXX0.Q +.u.h.j.a.*.: x y.A.XXXXXXXXXXXXXXXXXXXXXXXXXXXXXXXXXXXXXXXX",
"XXXXXXXXXXXXXXXXXXXXXXXXXXXXXXXXXXXX9.G K %.s.d.a.o.< u *.J.XXXXXXXXXXXXXXXXXXXXXXXXXXXXXXXXXXXXXXXX",
"XXXXXXXXXXXXXXXXXXXXXXXXXXXXXXXXXXXX3.z n P &.r.*.J 7 3 <.S.XXXXXXXXXXXXXXXXXXXXXXXXXXXXXXXXXXXXXXXX",
"XXXXXXXXXXXXXXXXXXXXXXXXXXXXXXXXXXXX} 5 u O.%.J F 7 F o.d.XXXXXXXXXXXXXXXXXXXXXXXXXXXXXXXXXXXXXXXXXX",
"XXXXXXXXXXXXXXXXXXXXXXXXXXXXXXXXXXXX( > 8 g g s - - F r.f.XXXXXXXXXXXXXXXXXXXXXXXXXXXXXXXXXXXXXXXXXX",
"XXXXXXXXXXXXXXXXXXXXXXXXXXXXXXXXXXB.E ;.g d q = = j *.@.n.XXXXXXXXXXXXXXXXXXXXXXXXXXXXXXXXXXXXXXXXXX",
"XXXXXXXXXXXXXXXXXXXXXXXXXXXXXXXXXX2.o.a./ d < q - 5 #.Q XXXXXXXXXXXXXXXXXXXXXXXXXXXXXXXXXXXXXXXXXXXX",
"XXXXXXXXXXXXXXXXXXXXXXXXXXXXXXXXXXN.H p.g.i.;.5 d u o.~ XXXXXXXXXXXXXXXXXXXXXXXXXXXXXXXXXXXXXXXXXXXX",
"XXXXXXXXXXXXXXXXXXXXXXXXXXXXXXXXXXP.H e.!.^.F.; > i <.$.(.XXXXXXXXXXXXXXXXXXXXXXXXXXXXXXXXXXXXXXXXXX",
"XXXXXXXXXXXXXXXXXXXXXXXXXXXXXXXXXXN.G &.E.Q.g., 2 +.E +.J.XXXXXXXXXXXXXXXXXXXXXXXXXXXXXXXXXXXXXXXXXX",
"XXXXXXXXXXXXXXXXXXXXXXXXXXXXXXXXXX[ b H t.p.F.: 6 P f J y.'.XXXXXXXXXXXXXXXXXXXXXXXXXXXXXXXXXXXXXXXX",
"XXXXXXXXXXXXXXXXXXXXXXXXXXXXXXXXXX0 s b T g.R.> k K o.F R 7.XXXXXXXXXXXXXXXXXXXXXXXXXXXXXXXXXXXXXXXX",
"XXXXXXXXXXXXXXXXXXXXXXXXXXXXXXXXXX, & D L a.R.2 3 ..5.n.3 q 3.XXXXXXXXXXXXXXXXXXXXXXXXXXXXXXXXXXXXXX",
"XXXXXXXXXXXXXXXXXXXXXXXXXXXXXXXXXXXXm e D K <.6 ; K ). XW @ z } XXXXXXXXXXXXXXXXXXXXXXXXXXXXXXXXXXXX",
"XXXXXXXXXXXXXXXXXXXXXXXXXXXXXXXXXXXX| = &.a.H & ; ; >.}._.k l V XXXXXXXXXXXXXXXXXXXXXXXXXXXXXXXXXXXX",
"XXXXXXXXXXXXXXXXXXXXXXXXXXXXXXXXXXXXXXl a.W.!.@ @ $ & <.[.|.3.2.XXXXXXXXXXXXXXXXXXXXXXXXXXXXXXXXXXXX",
"XXXXXXXXXXXXXXXXXXXXXXXXXXXXXXXXXXXXXXH e.d.y.@ O + + : u.`.|..XXXXXXXXXXXXXXXXXXXXXXXXXXXXXXXXXXXXX",
"XXXXXXXXXXXXXXXXXXXXXXXXXXXXXXXXXXXXXXf u G o.@ + + . . u j./.].XXXXXXXXXXXXXXXXXXXXXXXXXXXXXXXXXXXX",
"XXXXXXXXXXXXXXXXXXXXXXXXXXXXXXXXXXXXXX:.D q < @ + O     r t.W.'.XXXXXXXXXXXXXXXXXXXXXXXXXXXXXXXXXXXX",
"XXXXXXXXXXXXXXXXXXXXXXXXXXXXXXXXXXXXXXXX3.^ ] i O     . h y.~.3..XXXXXXXXXXXXXXXXXXXXXXXXXXXXXXXXXXX",
"XXXXXXXXXXXXXXXXXXXXXXXXXXXXXXXXXXXXXXXXXX0.9.| @ o o o = 6.e.V M.XXXXXXXXXXXXXXXXXXXXXXXXXXXXXXXXXX",
"XXXXXXXXXXXXXXXXXXXXXXXXXXXXXXXXXXXXXXXXXX!.K 8 8 #     # b T 1 A XXXXXXXXXXXXXXXXXXXXXXXXXXXXXXXXXX",
"XXXXXXXXXXXXXXXXXXXXXXXXXXXXXXXXXXXXXXXX6.&.%.D > 5 @ o X 7 n # C XXXXXXXXXXXXXXXXXXXXXXXXXXXXXXXXXX",
"XXXXXXXXXXXXXXXXXXXXXXXXXXXXXXXXXXXXXX_ D T X.T = r x = # h n = B XXXXXXXXXXXXXXXXXXXXXXXXXXXXXXXXXX",
"XXXXXXXXXXXXXXXXXXXXXXXXXXXXXXXXXX.X[ $ t c j c x z 5 5 * d R h S XXXXXXXXXXXXXXXXXXXXXXXXXXXXXXXXXX",
"XXXXXXXXXXXXXXXXXXXXXXXXXXXXC.U 8.w.; + X h z H 8.V 4 - > 6 R n M.XXXXXXXXXXXXXXXXXXXXXXXXXXXXXXXXXX",
"XXXXXXXXXXXXXXXXXXXXXXXXXXXX{ u s @.$ @ - z 3.Y.8.C f 4 - z b E XXXXXXXXXXXXXXXXXXXXXXXXXXXXXXXXXXXX",
"XXXXXXXXXXXXXXXXXXXXXXXXXXXX{ & = 1 ; u n =..XI.$.J J z s z s M.XXXXXXXXXXXXXXXXXXXXXXXXXXXXXXXXXXXX",
"XXXXXXXXXXXXXXXXXXXXXXXXXXXX( + $ 3 z F 8.XXXXG.n j c X.G j | XXXXXXXXXXXXXXXXXXXXXXXXXXXXXXXXXXXXXX",
"XXXXXXXXXXXXXXXXXXXXXXXXXXXXM z D H Q ] XXXXXXP.j j n L L c.XXXXXXXXXXXXXXXXXXXXXXXXXXXXXXXXXXXXXXXX",
"XXXXXXXXXXXXXXXXXXXXXXXXXXXXN J %.L.XXXXXXXXXXk.1 j c c ! XXXXXXXXXXXXXXXXXXXXXXXXXXXXXXXXXXXXXXXXXX",
"XXXXXXXXXXXXXXXXXXXXXXXXXXXXU c T XXXXXXXXXXXXM X % < c c.XXXXXXXXXXXXXXXXXXXXXXXXXXXXXXXXXXXXXXXXXX",
"XXXXXXXXXXXXXXXXXXXXXXXXXXXXP.e =.XXXXXXXXXXU.& X   7 K XXXXXXXXXXXXXXXXXXXXXXXXXXXXXXXXXXXXXXXXXXXX",
"XXXXXXXXXXXXXXXXXXXXXXXXXXXXXXXXXXXXXXXXXXXX .+ X # n y.XXXXXXXXXXXXXXXXXXXXXXXXXXXXXXXXXXXXXXXXXXXX",
"XXXXXXXXXXXXXXXXXXXXXXXXXXXXXXXXXXXXXXXXXXXXK.: @ 5 *.a.XXXXXXXXXXXXXXXXXXXXXXXXXXXXXXXXXXXXXXXXXXXX",
"XXXXXXXXXXXXXXXXXXXXXXXXXXXXXXXXXXXXXXXXXXXXc.b : 5 &.s.}.|.'.XXXXXXXXXXXXXXXXXXXXXXXXXXXXXXXXXXXXXX",
"XXXXXXXXXXXXXXXXXXXXXXXXXXXXXXXXXXXXXXXXXXXX` < q 9 l @.a.E.a._.].XXXXXXXXXXXXXXXXXXXXXXXXXXXXXXXXXX",
"XXXXXXXXXXXXXXXXXXXXXXXXXXXXXXXXXXXXXXXXXXXXz.- $ + $ F o.F @.*.L.XXXXXXXXXXXXXXXXXXXXXXXXXXXXXXXXXX"
};
