/* XPM */
static char *result[] = {
/* columns rows colors chars-per-pixel */
"50 50 185 2 ",
"   c gray6",
".  c #131313",
"X  c #1A1817",
"o  c #1C1C1C",
"O  c #241F19",
"+  c #25211D",
"@  c #2C241C",
"#  c #262522",
"$  c #2C2622",
"%  c #2C2A25",
"&  c #292A29",
"*  c #352C24",
"=  c #312E2A",
"-  c #392C23",
";  c #3E3126",
":  c #36322D",
">  c #3C332A",
",  c #2D3232",
"<  c #353433",
"1  c #3C3932",
"2  c #3D3E3E",
"3  c #43372B",
"4  c #44382E",
"5  c #493A2D",
"6  c #513E2E",
"7  c #433B33",
"8  c #4A3E33",
"9  c #443F38",
"0  c #473632",
"q  c #503F32",
"w  c #5C3D30",
"e  c #603F3B",
"r  c #46443C",
"t  c #4B443D",
"y  c #524235",
"u  c #594736",
"i  c #5E4837",
"p  c #574739",
"a  c #52493C",
"s  c #5C4B3B",
"d  c #634D3C",
"f  c #65503E",
"g  c #6B533C",
"h  c #3F4040",
"j  c #454443",
"k  c #4E4A42",
"l  c #4A4B4A",
"z  c #544B43",
"x  c #5F4F41",
"c  c #554644",
"v  c #5C5145",
"b  c #5C534B",
"n  c #624F40",
"m  c #704C40",
"M  c #645344",
"N  c #6B5643",
"B  c #64574A",
"V  c #6B5748",
"C  c #6B5A49",
"Z  c #6C5846",
"A  c #715A46",
"S  c #745D49",
"D  c #785E49",
"F  c #635E5B",
"G  c #685D54",
"H  c #7B624D",
"J  c #76604C",
"K  c #6F6257",
"L  c #69645F",
"P  c #756353",
"I  c #7C6754",
"U  c #7B6858",
"Y  c #656464",
"T  c #6C6D6D",
"R  c #756E66",
"E  c #7C6E62",
"W  c #6F716D",
"Q  c #76736E",
"!  c #717171",
"~  c #7D7A77",
"^  c #797A7A",
"/  c #82664D",
"(  c #826750",
")  c #836954",
"_  c #8A6D55",
"`  c #896F59",
"'  c #836E5B",
"]  c #8E7157",
"[  c #8D715A",
"{  c #92755C",
"}  c #95785F",
"|  c #9C7B5E",
" . c #A5695E",
".. c #8F7760",
"X. c #8A7867",
"o. c #89776E",
"O. c #84786E",
"+. c #907761",
"@. c #937A63",
"#. c #9B7D63",
"$. c #9C7F68",
"%. c #877C73",
"&. c #A27D63",
"*. c #9E8168",
"=. c #8C847C",
"-. c #9A8675",
";. c #998A7E",
":. c #A48366",
">. c #A3866C",
",. c #A88668",
"<. c #A7896E",
"1. c #AB896C",
"2. c #B18E6E",
"3. c #AE8E72",
"4. c #A68F7B",
"5. c #B08F73",
"6. c #BB8A73",
"7. c #B49274",
"8. c #BB9675",
"9. c #B49579",
"0. c #B69A7F",
"q. c #BB9879",
"w. c #C08B75",
"e. c #C49D7B",
"r. c #C89E7A",
"t. c #C1927E",
"y. c #C5A07E",
"u. c #858584",
"i. c #8D8B8B",
"p. c #8B8785",
"a. c #948B84",
"s. c #988E86",
"d. c #928D8A",
"f. c #93908D",
"g. c #9D948B",
"h. c #949392",
"j. c #989797",
"k. c #959897",
"l. c #9A9896",
"z. c #9D9D9D",
"x. c #A29081",
"c. c #AA9B8E",
"v. c #B59E8C",
"b. c #A29896",
"n. c #A49E99",
"m. c #B09D96",
"M. c #B8A28C",
"N. c #A8A29D",
"B. c #B7A697",
"V. c #A5A4A3",
"C. c #A9A9A9",
"Z. c #B1ACA8",
"A. c #BFB4AA",
"S. c #C69E84",
"D. c #C5A384",
"F. c #CBA583",
"G. c #CFA987",
"H. c #CAA789",
"J. c #CDA989",
"K. c #C4A488",
"L. c #D3AA85",
"P. c #D3AC8B",
"I. c #D9B18C",
"U. c #C8AE95",
"Y. c #C2AF9E",
"T. c #C6AC94",
"R. c #CBB097",
"E. c #DDB692",
"W. c #D5B394",
"Q. c #E3B995",
"!. c #C7B7A9",
"~. c #C8B7AA",
"^. c #C6B9AD",
"/. c #DABBA0",
"(. c #C6BCB4",
"). c #C5BDB8",
"_. c #EFC59D",
"`. c #D6C5B5",
"'. c #E6C7A2",
"]. c #EFC7A0",
"[. c #EFCBA5",
"{. c #F5C9A2",
"}. c #C0C0C0",
"|. c #C9C9C7",
" X c None",
/* pixels */
" X X X X X X X X X X X X X X X X X X X Xn.b.b. X X X X X X X X X X X X X X X X X X X X X X X X X X X",
" X X X X X X X X X X X X X X X X X X Xm.S.D.P.o. X X X X X X X X X X X X X X X X X X X X X X X X X X",
" X X X X X X X X X X X X X X X X X Xk.v.9.*.#.V d. X X X X X X X X X X X X X X X X X X X X X X X X X",
" X X X X X X X X X X X X X X X X X XT Q o.<.[ V F  X X X X X X X X X X X X X X X X X X X X X X X X X",
" X X X X X X X X X X X X X X X X X XT j l P # n 0.v. X X X X X X X X X X X X X X X X X X X X X X X X",
" X X X X X X X X X X X X X X X X X X! j 7 8 s *.K.U s. X X X X X X X X X X X X X X X X X X X X X X X",
" X X X X X X X X X X X X X X X X X X! c m ; +.D.I : p g. X X X X X X X X X X X X X X X X X X X X X X",
" X X X X X X X X X X X X X X X X X X^ e w 3.D.H * O + z f. X X X X X X X X X X X X X X X X X X X X X",
" X X X X X X X X X X X X X X X X X XT 0 *.7.D 7 5 M s M b j. X X X X X X X X X X X X X X X X X X X X",
" X X X X X X X X X X X X X X X X X Xz.u.@.s * s u D D M k i. X X X X X X X X X X X X X X X X X X X X",
" X X X X X X X X X X X X X X X X X Xz.G ` n ; #.` / { +.v a. X X X X X X X X X X X X X X X X X X X X",
" X X X X X X X X X X X X X X X X X Xp.I 3.p 4 2.( 3.>.` ) =. X X X X X X X X X X X X X X X X X X X X",
" X X X X X X X X X X X X X X X X X X XM.:.y 8 7.G.F.7.` S Q  X X X X X X X X X X X X X X X X X X X X",
" X X X X X X X X X X X X X X X X X X XM.} 4 8 2.F.y.:.H V U  X X X X X X X X X X X X X X X X X X X X",
" X X X X X X X X X X X X X X X X X X Xc.e.N f | 2.:./ d s d p. X X X X X X X X X X X X X X X X X X X",
" X X X X X X X X X X X X X X X X X X X X8.e.{ N D &.` y * 3 d. X X X X X X X X X X X X X X X X X X X",
" X X X X X X X X X X X X X X X X X X X X4.:.&.{ 4 a r 1 + <  X X X X X X X X X X X X X X X X X X X X",
" X X X X X X X X X X X X X X X X X X X Xf.P { P : 1 r 1 a L  X X X X X X X X X X X X X X X X X X X X",
" X X X X X X X X X X X X X X X X X X X X XO.[ V r r r v *.I k. X X X X X X X X X X X X X X X X X X X",
" X X X X X X X X X X X X X X X X X X X X X<.,.I > 0.@.>.{ v h V. X X X X X X X X X X X X X X X X X X",
" X X X X X X X X X X X X X X X X X X X XZ.>.>.P @.E.D.7.) y & u. X X X X X X X X X X X X X X X X X X",
" X X X X X X X X X X X X X X X X X X X XT.' % M } E.D.7.J 4 o Y  X X X X X X X X X X X X X X X X X X",
" X X X X X X X X X X X X X X X X X X X XJ.&.B { <.G.<.@.f % X ,  X X X X X X X X X X X X X X X X X X",
" X X X X X X X X X X X X X X X X X X X X$.6.t. .w.G.5.Z y . o &  X X X X X X X X X X X X X X X X X X",
" X X X X X X X X X X X X X X X X X X X XG +.q.H.G.e.:.N $ . j  X X X X X X X X X X X X X X X X X X X",
" X X X X X X X X X X X X X X X X X X X X3.3.'.].1.@.A 8 . . T  X X X X X X X X X X X X X X X X X X X",
" X X X X X X X X X X X X X X X X X X X`.G.[.].P.Q.F.` o . .  X X X X X X X X X X X X X X X X X X X X",
" X X X X X X X X X X X X X X X X X X XK.E.{.L.5.y.q.J . . 2  X X X X X X X X X X X X X X X X X X X X",
" X X X X X X X X X X X X X X X X X X(.G._.Q.#.8 y y * . &  X X X X X X X X X X X X X X X X X X X X X",
" X X X X X X X X X X X X X X X X X X^.G.I.S._ d n 8 O $  X X X X X X X X X X X X X X X X X X X X X X",
" X X X X X X X X X X X X X X X X X Xg.1.r.8.D 3 .   . ~  X X X X X X X X X X X X X X X X X X X X X X",
" X X X X X X X X X X X X X X X X X XR { r.G.{ +     h  X X X X X X X X X X X X X X X X X X X X X X X",
" X X X X X X X X X X X X X X X X XV.k z C q.H o   o  X X X X X X X X X X X X X X X X X X X X X X X X",
" X X X X X X X X X X X X X X X X X Xr t 1 [ p .   Y  X X X X X X X X X X X X X X X X X X X X X X X X",
" X X X X X X X X X X X X X X X X X Xb r + i 3 . # W  X X X X X X X X X X X X X X X X X X X X X X X X",
" X X X X X X X X X X X X X X X X X Xs.z + 3 N % < : k @.R. X X X X X X X X X X X X X X X X X X X X X",
" X X X X X X X X X X X X X X X X X X Xr + d D 1 # = C ] _ ;. X X X X X X X X X X X X X X X X X X X X",
" X X X X X X X X X X X X X X X X X X X~ 3 8 A d y : J A d P  X X X X X X X X X X X X X X X X X X X X",
" X X X X X X X X X X X X X X X X X X X X%.d 5 u i g g g g y k }. X X X X X X X X X X X X X X X X X X",
" X X X X X X X X X X X X X X X X X X X X).#.N * ; d g d u + . l C. X X X X X X X X X X X X X X X X X",
" X X X X X X X X X X X X X X X X X X X X X4.{ d @ > M d -   . o E ). X X X X X X X X X X X X X X X X",
" X X X X X X X X X X X X X X X X X X X X Xx.H + . % n.Z d 3 o o H I j. X X X X X X X X X X X X X X X",
" X X X X X X X X X X X X X X X X X X X X X!.#.4 . X h.Z./ ( y o 7 % v  X X X X X X X X X X X X X X X",
" X X X X X X X X X X X X X X X X X X X X X~.,.b & X f.|.-.( ` 7 , + :  X X X X X X X X X X X X X X X",
" X X X X X X X X X X X X X X X X X X`.U.W.E.8.z % i g. X X-.| / + o ^  X X X X X X X X X X X X X X X",
" X X X X X X X X X X X X X X X X X XL.3.} 1.[ l 2 3 R  X X/.e.| 4 !  X X X X X X X X X X X X X X X X",
" X X X X X X X X X X X X X X X X X X/ / g g ; o # @ i. X XJ.L.,.A V. X X X X X X X X X X X X X X X X",
" X X X X X X X X X X X X X X X X X Xi.Y Y ! p.! : t  X X~.L.{ S b  X X X X X X X X X X X X X X X X X",
" X X X X X X X X X X X X X X X X X X X X X X X X X X X XY.:.H 6 ~  X X X X X X X X X X X X X X X X X",
" X X X X X X X X X X X X X X X X X X X X X X X X X X X X XK - L  X X X X X X X X X X X X X X X X X X"
};
