/* XPM */
static char *result[] = {
/* columns rows colors chars-per-pixel */
"50 50 182 2 ",
"   c #0F0F0F",
".  c #141414",
"X  c #191716",
"o  c #1C1C1C",
"O  c #211D1A",
"+  c #25211C",
"@  c #2A241F",
"#  c #242423",
"$  c #282625",
"%  c #2C2925",
"&  c #2C2C2A",
"*  c #322B24",
"=  c #3A2F25",
"-  c #342F29",
";  c #34312C",
":  c #3C332B",
">  c #3E392E",
",  c #3D3B35",
"<  c #3B3B3B",
"1  c #333233",
"2  c #42362B",
"3  c #43392F",
"4  c #443C32",
"5  c #4B3E33",
"6  c #413F3E",
"7  c #603E38",
"8  c #434036",
"9  c #4E4235",
"0  c #49413B",
"q  c #534334",
"w  c #594636",
"e  c #5E4937",
"r  c #52453A",
"t  c #564A3E",
"y  c #5C4B3B",
"u  c #614237",
"i  c #67453B",
"p  c #624D3C",
"a  c #69533F",
"s  c #434442",
"d  c #4B4740",
"f  c #4C4C41",
"g  c #4C4C4B",
"h  c #544C44",
"j  c #5C4E42",
"k  c #524E4A",
"l  c #514645",
"z  c #4F504B",
"x  c #53504D",
"c  c #555553",
"v  c #595651",
"b  c #5E5952",
"n  c #5B5A5A",
"m  c #645242",
"M  c #6B5543",
"N  c #6E5846",
"B  c #675749",
"V  c #6E5D4C",
"C  c #62594A",
"Z  c #735B46",
"A  c #725D4B",
"S  c #795D4B",
"D  c #795D43",
"F  c #6B5D51",
"G  c #625F5C",
"H  c #77624F",
"J  c #7B634D",
"K  c #666057",
"L  c #6A625B",
"P  c #746252",
"I  c #7A6652",
"U  c #7E6955",
"Y  c #756758",
"T  c #7C6C5D",
"R  c #646465",
"E  c #6A6663",
"W  c #6F6F6F",
"Q  c #6D6A65",
"!  c #766B62",
"~  c #79716B",
"^  c #727473",
"/  c #787876",
"(  c #81674F",
")  c #866A4F",
"_  c #836A54",
"`  c #8B6E55",
"'  c #876E59",
"]  c #9C6357",
"[  c #8C725A",
"{  c #99775B",
"}  c #97795F",
"|  c #997A5E",
" . c #927358",
".. c #8F7760",
"X. c #8F7860",
"o. c #84776B",
"O. c #887867",
"+. c #947B64",
"@. c #9B7D63",
"#. c #907B6A",
"$. c #857E75",
"%. c #827D79",
"&. c #A07D60",
"*. c #A97C6A",
"=. c #9E8166",
"-. c #9F8169",
";. c #8F8073",
":. c #87827E",
">. c #978879",
",. c #A38265",
"<. c #A98567",
"1. c #A48569",
"2. c #A98769",
"3. c #A7896F",
"4. c #AD8B6C",
"5. c #B18C6C",
"6. c #A78A71",
"7. c #AC8C71",
"8. c #B48F70",
"9. c #A2917F",
"0. c #AE947E",
"q. c #B49172",
"w. c #B99575",
"e. c #B4957A",
"r. c #BC997A",
"t. c #C09975",
"y. c #C39D7D",
"u. c #C5A07F",
"i. c #CCA37F",
"p. c #878582",
"a. c #8A8785",
"s. c #938B83",
"d. c #908C8A",
"f. c #9F9185",
"g. c #9F968D",
"h. c #979694",
"j. c #9B9693",
"k. c #AD9681",
"l. c #AD9C8D",
"z. c #B89080",
"x. c #B59D88",
"c. c #B4958A",
"v. c #A79C92",
"b. c #BCA189",
"n. c #B8A698",
"m. c #ACACAC",
"M. c #B3ACA7",
"N. c #B9AEA4",
"B. c #BCB0A5",
"V. c #B9B8B7",
"C. c #C29B84",
"Z. c #C69B88",
"A. c #C6A282",
"S. c #CBA583",
"D. c #CEAB8B",
"F. c #D1A985",
"G. c #D4AD8B",
"H. c #D8AE8A",
"J. c #D3B08E",
"K. c #DBB28D",
"L. c #C7AF99",
"P. c #D6B495",
"I. c #DCB693",
"U. c #E0B58F",
"Y. c #E0B690",
"T. c #E6BE9A",
"R. c #E8BE99",
"E. c #E4BC97",
"W. c #CFBEAF",
"Q. c #C4B5A7",
"!. c #D4BDA9",
"~. c #DABEA8",
"^. c #DABBA0",
"/. c #C4BDB6",
"(. c #E6C09B",
"). c #EAC19C",
"_. c #D5C1AD",
"`. c #D0C1B5",
"'. c #D3C7B9",
"]. c #EBC3A0",
"[. c #F4CBA6",
"{. c None",
/* pixels */
"{.{.{.{.{.{.{.{.{.{.{.{.{.{.{.{.{.{.{.{.{.{.{.{.{.{.{.{.{.{.{.{.{.{.{.{.{.{.{.{.{.{.{.{.{.{.{.{.{.{.",
"{.{.{.{.{.{.{.{.{.{.{.{.{.{.{.{.{.{.{.{.j.c.z.Z.n.{.{.{.{.{.{.{.{.{.{.{.{.{.{.{.{.{.{.{.{.{.{.{.{.{.",
"{.{.{.{.{.{.{.{.{.{.{.{.{.{.{.{.{.{.{.{.o.r.C.r.Z.h.{.{.{.{.{.{.{.{.{.{.{.{.{.{.{.{.{.{.{.{.{.{.{.{.",
"{.{.{.{.{.{.{.{.{.{.{.{.{.{.{.{.{.{.{.h.Y @.[ 3.>.^ {.{.{.{.{.{.{.{.{.{.{.{.{.{.{.{.{.{.{.{.{.{.{.{.",
"{.{.{.{.{.{.{.{.{.{.{.{.{.{.{.{.{.{.{.$.j A ..K z n {.{.{.{.{.{.{.{.{.{.{.{.{.{.{.{.{.{.{.{.{.{.{.{.",
"{.{.{.{.{.{.{.{.{.{.{.{.{.{.{.{.{.{.v.r.N : V < 6 c {.{.{.{.{.{.{.{.{.{.{.{.{.{.{.{.{.{.{.{.{.{.{.{.",
"{.{.{.{.{.{.{.{.{.{.{.{.{.{.{.{.{.s...A.7.B - i s c {.{.{.{.{.{.{.{.{.{.{.{.{.{.{.{.{.{.{.{.{.{.{.{.",
"{.{.{.{.{.{.{.{.{.{.{.{.{.{.{.{.j.F 4 ' S.A._ i j k {.{.{.{.{.{.{.{.{.{.{.{.{.{.{.{.{.{.{.{.{.{.{.{.",
"{.{.{.{.{.{.{.{.{.{.{.{.{.{.{.{.! % + - Z r.S.1.7 l {.{.{.{.{.{.{.{.{.{.{.{.{.{.{.{.{.{.{.{.{.{.{.{.",
"{.{.{.{.{.{.{.{.{.{.{.{.{.{.{.:.t p M y j m ' e.M G {.{.{.{.{.{.{.{.{.{.{.{.{.{.{.{.{.{.{.{.{.{.{.{.",
"{.{.{.{.{.{.{.{.{.{.{.{.{.{.{.E j m A 4.8.m t +._ j {.{.{.{.{.{.{.{.{.{.{.{.{.{.{.{.{.{.{.{.{.{.{.{.",
"{.{.{.{.{.{.{.{.{.{.{.{.{.{.{.~ p Z S w.U.,.q ..Z.' {.{.{.{.{.{.{.{.{.{.{.{.{.{.{.{.{.{.{.{.{.{.{.{.",
"{.{.{.{.{.{.{.{.{.{.{.{.{.{.{.o.B Z } q.F.r. ._ y.P.{.{.{.{.{.{.{.{.{.{.{.{.{.{.{.{.{.{.{.{.{.{.{.{.",
"{.{.{.{.{.{.{.{.{.{.{.{.{.{.{.! M _ 8.S.U.i.@.Z 1.S.{.{.{.{.{.{.{.{.{.{.{.{.{.{.{.{.{.{.{.{.{.{.{.{.",
"{.{.{.{.{.{.{.{.{.{.{.{.{.{.{.V p Z =.w.F.i.| H i.x.{.{.{.{.{.{.{.{.{.{.{.{.{.{.{.{.{.{.{.{.{.{.{.{.",
"{.{.{.{.{.{.{.{.{.{.{.{.{.{.{.M p p D &.5.5.5.i.i.e.{.{.{.{.{.{.{.{.{.{.{.{.{.{.{.{.{.{.{.{.{.{.{.{.",
"{.{.{.{.{.{.{.{.{.{.{.{.{.{.{.r e e q J H V 2.w.t.0.{.{.{.{.{.{.{.{.{.{.{.{.{.{.{.{.{.{.{.{.{.{.{.{.",
"{.{.{.{.{.{.{.{.{.{.{.{.{.{.{.c * = * , f C =.} H s.{.{.{.{.{.{.{.{.{.{.{.{.{.{.{.{.{.{.{.{.{.{.{.{.",
"{.{.{.{.{.{.{.{.{.{.{.{.{.{.{.{.; + @ 8 8 f O.[ ;.{.{.{.{.{.{.{.{.{.{.{.{.{.{.{.{.{.{.{.{.{.{.{.{.{.",
"{.{.{.{.{.{.{.{.{.{.{.{.{.{.{.{.f + > _ 1.[ D.I.B.{.{.{.{.{.{.{.{.{.{.{.{.{.{.{.{.{.{.{.{.{.{.{.{.{.",
"{.{.{.{.{.{.{.{.{.{.{.{.{.{.{.$ & & 3 M =.y.G.[.(.k.{.{.{.{.{.{.{.{.{.{.{.{.{.{.{.{.{.{.{.{.{.{.{.{.",
"{.{.{.{.{.{.{.{.{.{.{.{.{.{.c o & & # q M 1.G.I.(.P.{.{.{.{.{.{.{.{.{.{.{.{.{.{.{.{.{.{.{.{.{.{.{.{.",
"{.{.{.{.{.{.{.{.{.{.{.{.{.{.< # & # $ t S N _ 7.I.]._.{.{.{.{.{.{.{.{.{.{.{.{.{.{.{.{.{.{.{.{.{.{.{.",
"{.{.{.{.{.{.{.{.{.{.{.{.{.{.< < # # $ w ] p M J 7.r.b.`.{.{.{.{.{.{.{.{.{.{.{.{.{.{.{.{.{.{.{.{.{.{.",
"{.{.{.{.{.{.{.{.{.{.{.{.{.{.{.& o # $ S *.A } ` N =.I.I.Q.{.{.{.{.{.{.{.{.{.{.{.{.{.{.{.{.{.{.{.{.{.",
"{.{.{.{.{.{.{.{.{.{.{.{.{.{.{.# o # $ P ,.I 2.2.y I u.u.@.g.{.{.{.{.{.{.{.{.{.{.{.{.{.{.{.{.{.{.{.{.",
"{.{.{.{.{.{.{.{.{.{.{.{.{.{.{.# o # % 7.).+.A y _ | H N m #.{.{.{.{.{.{.{.{.{.{.{.{.{.{.{.{.{.{.{.{.",
"{.{.{.{.{.{.{.{.{.{.{.{.{.{.{.o . o - r.].G.3 > | q.[ ` 3.v.{.{.{.{.{.{.{.{.{.{.{.{.{.{.{.{.{.{.{.{.",
"{.{.{.{.{.{.{.{.{.{.{.{.{.{.{.X   . : e.R.T.q : M 4.w.A.P./.{.{.{.{.{.{.{.{.{.{.{.{.{.{.{.{.{.{.{.{.",
"{.{.{.{.{.{.{.{.{.{.{.{.{.{.{.o     2 8.I.Y.4 @ % m 4.r.A.N.{.{.{.{.{.{.{.{.{.{.{.{.{.{.{.{.{.{.{.{.",
"{.{.{.{.{.{.{.{.{.{.{.{.{.{.{.1     4 8.H.J.Y . . 2 [ +.+.%.V.{.{.{.{.{.{.{.{.{.{.{.{.{.{.{.{.{.{.{.",
"{.{.{.{.{.{.{.{.{.{.{.{.{.{.{.<   O p 8.F.S.{.R . : Z [ I C p.{.{.{.{.{.{.{.{.{.{.{.{.{.{.{.{.{.{.{.",
"{.{.{.{.{.{.{.{.{.{.{.{.{.{.{.s . w J ,.,.3.{.{.^ o 5 ( m , L {.{.{.{.{.{.{.{.{.{.{.{.{.{.{.{.{.{.{.",
"{.{.{.{.{.{.{.{.{.{.{.{.{.{.{.g + ( 4.,.{ k.{.{.{./ O 5 V h v {.{.{.{.{.{.{.{.{.{.{.{.{.{.{.{.{.{.{.",
"{.{.{.{.{.{.{.{.{.{.{.{.{.{.{.R @ `  .M H M.{.{.{.{.g : } q.Y {.{.{.{.{.{.{.{.{.{.{.{.{.{.{.{.{.{.{.",
"{.{.{.{.{.{.{.{.{.{.{.{.{.{.{.E 2 q @ ; v {.{.{.{.{.c ; H _ P h.{.{.{.{.{.{.{.{.{.{.{.{.{.{.{.{.{.{.",
"{.{.{.{.{.{.{.{.{.{.{.{.{.m.g 4 p + + ; G {.{.{.{.{.c ; H ,.U a.{.{.{.{.{.{.{.{.{.{.{.{.{.{.{.{.{.{.",
"{.{.{.{.{.{.{.{.{.{.{.{.v.f - 0 M * : 0 {.{.{.{.{.{.Q : y ,.=.g.{.{.{.{.{.{.{.{.{.{.{.{.{.{.{.{.{.{.",
"{.{.{.{.{.{.{.{.{.{.{.f.J t % y M = @ E {.{.{.{.{.{.#. .,.q.F._.{.{.{.{.{.{.{.{.{.{.{.{.{.{.{.{.{.{.",
"{.{.{.{.{.{.{.{.{.{.{.Z p H w p w - G {.{.{.{.{.{.{.T M  .4.r.P.{.{.{.{.{.{.{.{.{.{.{.{.{.{.{.{.{.{.",
"{.{.{.{.{.{.{.{.{.{.{.P M Z a q * G {.{.{.{.{.{.{.{.{.M S @.5.y.L.{.{.{.{.{.{.{.{.{.{.{.{.{.{.{.{.{.",
"{.{.{.{.{.{.{.{.{.{.m.: w p a M {.{.{.{.{.{.{.{.{.{.{.{.4 = _ 4.H.'.{.{.{.{.{.{.{.{.{.{.{.{.{.{.{.{.",
"{.{.{.{.{.{.{.{.{.{.n . * p a s.{.{.{.{.{.{.{.{.{.{.{.{.W X 9 ,.y.I.{.{.{.{.{.{.{.{.{.{.{.{.{.{.{.{.",
"{.{.{.{.{.{.{.{.{.{.& o w M A {.{.{.{.{.{.{.{.{.{.{.{.{.{.# ; T w.S._.n.L.^.{.{.{.{.{.{.{.{.{.{.{.{.",
"{.{.{.{.{.{.{.{.{.M.: 5 { <.e.{.{.{.{.{.{.{.{.{.{.{.{.{.{.6 $ s [ y.w.[ 4.r.0.{.{.{.{.{.{.{.{.{.{.{.",
"{.{.{.{.{.{.{.{.{.%.; r ,.i.W.{.{.{.{.{.{.{.{.{.{.{.{.{.{.{.q s k N ` D a j p.{.{.{.{.{.{.{.{.{.{.{.",
"{.{.{.{.{.{.{.{.{.d.$ - ` K.T.Q.{.{.{.{.{.{.{.{.{.{.{.{.{.{.; & # + - k {.{.{.{.{.{.{.{.{.{.{.{.{.{.",
"{.{.{.{.{.{.{.{.{.{.# X Z 1.e.I.!.{.{.{.{.{.{.{.{.{.{.{.{.{.%.: & {.{.{.{.{.{.{.{.{.{.{.{.{.{.{.{.{.",
"{.{.{.{.{.{.{.{.{.{.{.{.j e  .@.x.{.{.{.{.{.{.{.{.{.{.{.{.{.{.{.{.{.{.{.{.{.{.{.{.{.{.{.{.{.{.{.{.{.",
"{.{.{.{.{.{.{.{.{.{.{.{.{.h 5 5 :.{.{.{.{.{.{.{.{.{.{.{.{.{.{.{.{.{.{.{.{.{.{.{.{.{.{.{.{.{.{.{.{.{."
};
