/* XPM */
static char *result[] = {
/* columns rows colors chars-per-pixel */
"50 50 187 2 ",
"   c #0F0E0F",
".  c #100F0F",
"X  c #12110F",
"o  c #0F0F10",
"O  c #100F10",
"+  c #131313",
"@  c #191715",
"#  c #191816",
"$  c #1C1C1B",
"%  c #201C17",
"&  c #221E1A",
"*  c #1F201D",
"=  c #25221E",
"-  c #2E251D",
";  c #252524",
":  c #2B2622",
">  c #2C2B25",
",  c #2C2D2D",
"<  c #342C24",
"1  c #3A2E25",
"2  c #332F2A",
"3  c #3A2D29",
"4  c #2F302A",
"5  c #34322C",
"6  c #3C352D",
"7  c #3D3126",
"8  c #3D3B34",
"9  c #353938",
"0  c #3C3C3D",
"q  c #383432",
"w  c #48342F",
"e  c #45392E",
"r  c #4A3B2F",
"t  c #46372B",
"y  c #593B2F",
"u  c #463C34",
"i  c #4A3E32",
"p  c #403E3D",
"a  c #503F31",
"s  c #4C4136",
"d  c #46443B",
"f  c #4B453B",
"g  c #4C483D",
"h  c #554435",
"j  c #5B4635",
"k  c #53463B",
"l  c #584739",
"z  c #5B4A3B",
"x  c #584838",
"c  c #634D3C",
"v  c #64443B",
"b  c #65503F",
"n  c #6A523E",
"m  c #454443",
"M  c #484847",
"N  c #4C4C4C",
"B  c #4A4641",
"V  c #524B43",
"C  c #534F48",
"Z  c #584941",
"A  c #56524D",
"S  c #5A5856",
"D  c #655343",
"F  c #6B5542",
"G  c #6E5846",
"H  c #6D5A4B",
"J  c #725A45",
"K  c #745D4B",
"L  c #785F49",
"P  c #7B5E47",
"I  c #6E5F59",
"U  c #655E58",
"Y  c #6F604F",
"T  c #7C634D",
"R  c #74604E",
"E  c #6D6156",
"W  c #64625F",
"Q  c #766355",
"!  c #7B6552",
"~  c #7E6955",
"^  c #77685C",
"/  c #7C6B5C",
"(  c #666766",
")  c #6D6D6D",
"_  c #6B6B66",
"`  c #706A66",
"'  c #716C68",
"]  c #7F7061",
"[  c #6F7070",
"{  c #737272",
"}  c #7B7673",
"|  c #7C7976",
" . c #7B7B7B",
".. c #854E49",
"X. c #82674F",
"o. c #846A54",
"O. c #896E56",
"+. c #846D5A",
"@. c #8D7057",
"#. c #86715D",
"$. c #8C725C",
"%. c #907156",
"&. c #93755C",
"*. c #9A7A5E",
"=. c #827265",
"-. c #8F7661",
";. c #8F7964",
":. c #82756A",
">. c #907660",
",. c #947963",
"<. c #9B7D63",
"1. c #997E68",
"2. c #857B72",
"3. c #8C7E72",
"4. c #807F7E",
"5. c #B57F6E",
"6. c #9D836D",
"7. c #94816F",
"8. c #8E8075",
"9. c #8D837B",
"0. c #91867C",
"q. c #93887F",
"w. c #9B8A7D",
"e. c #A5856A",
"r. c #AB8768",
"t. c #A7896D",
"y. c #AB8A6D",
"u. c #AD8E72",
"i. c #A48B72",
"p. c #AF9075",
"a. c #B39173",
"s. c #B89677",
"d. c #BD9877",
"f. c #B5987F",
"g. c #BC9A7C",
"h. c #C29F7F",
"j. c #C7A27F",
"k. c #848383",
"l. c #8E8280",
"z. c #8D8987",
"x. c #8C8A89",
"c. c #9A8D82",
"v. c #918D8B",
"b. c #938C86",
"n. c #9E9085",
"m. c #9C938B",
"M. c #93918D",
"N. c #939291",
"B. c #9B9593",
"V. c #9C9897",
"C. c #9B9B9B",
"Z. c #A48D84",
"A. c #AF9783",
"S. c #AE9986",
"D. c #BF9681",
"F. c #BD9D80",
"G. c #A89A93",
"H. c #B39A91",
"J. c #BBA28A",
"K. c #AAA19D",
"L. c #B1A398",
"P. c #A8A7A5",
"I. c #B4ADA8",
"U. c #B6B6B6",
"Y. c #B8B5B1",
"T. c #C29E80",
"R. c #C6A385",
"E. c #CAA483",
"W. c #CFA884",
"Q. c #CDAA8B",
"!. c #C4A488",
"~. c #D7AC87",
"^. c #D1AD8D",
"/. c #DAB18D",
"(. c #CBAE95",
"). c #D6AF91",
"_. c #DBBA99",
"`. c #E8BF99",
"'. c #CAB7A7",
"]. c #C8BEB4",
"[. c #E7C39F",
"{. c #ECC29D",
"}. c #EFC7A1",
"|. c #E5C5A7",
" X c #E1CDB6",
".X c #C4C3C3",
"XX c None",
/* pixels */
"XXXXXXXXXXXXXXXXXXXXXXXXXXXXXXXXXXXXXXXXXXP.Z.H.m.XXXXXXXXXXXXXXXXXXXXXXXXXXXXXXXXXXXXXXXXXXXXXXXXXX",
"XXXXXXXXXXXXXXXXXXXXXXXXXXXXXXXXXXXXXXXXG.D.g.Q.Q l.XXXXXXXXXXXXXXXXXXXXXXXXXXXXXXXXXXXXXXXXXXXXXXXX",
"XXXXXXXXXXXXXXXXXXXXXXXXXXXXXXXXXXXXXXV.S.u.-.1.F I XXXXXXXXXXXXXXXXXXXXXXXXXXXXXXXXXXXXXXXXXXXXXXXX",
"XXXXXXXXXXXXXXXXXXXXXXXXXXXXXXXXXXXXXX ._ ] 6.H D u v.XXXXXXXXXXXXXXXXXXXXXXXXXXXXXXXXXXXXXXXXXXXXXX",
"XXXXXXXXXXXXXXXXXXXXXXXXXXXXXXXXXXXXXX .0 m K & l 1.R.V.XXXXXXXXXXXXXXXXXXXXXXXXXXXXXXXXXXXXXXXXXXXX",
"XXXXXXXXXXXXXXXXXXXXXXXXXXXXXXXXXXXXXX .p 6 u h K Q.,.3.XXXXXXXXXXXXXXXXXXXXXXXXXXXXXXXXXXXXXXXXXXXX",
"XXXXXXXXXXXXXXXXXXXXXXXXXXXXXXXXXXXXXX .Z v < K F.t.6 u 8.XXXXXXXXXXXXXXXXXXXXXXXXXXXXXXXXXXXXXXXXXX",
"XXXXXXXXXXXXXXXXXXXXXXXXXXXXXXXXXXXXXXk.v y O.R.,.u = & 6 q.XXXXXXXXXXXXXXXXXXXXXXXXXXXXXXXXXXXXXXXX",
"XXXXXXXXXXXXXXXXXXXXXXXXXXXXXXXXXXXXXX{ w o.d.O.i 1 i z u k v.XXXXXXXXXXXXXXXXXXXXXXXXXXXXXXXXXXXXXX",
"XXXXXXXXXXXXXXXXXXXXXXXXXXXXXXXXXXXXXXV.k.;.R u i z G @.o.H ' XXXXXXXXXXXXXXXXXXXXXXXXXXXXXXXXXXXXXX",
"XXXXXXXXXXXXXXXXXXXXXXXXXXXXXXXXXXXXXXC.U R F : F &.c ! 1.,.=.C.XXXXXXXXXXXXXXXXXXXXXXXXXXXXXXXXXXXX",
"XXXXXXXXXXXXXXXXXXXXXXXXXXXXXXXXXXXXXXz.c t.c = $.*.o.s.t.X.#.v.XXXXXXXXXXXXXXXXXXXXXXXXXXXXXXXXXXXX",
"XXXXXXXXXXXXXXXXXXXXXXXXXXXXXXXXXXXXXXXXA.y.h : *.a.j.h.u.+.K l.XXXXXXXXXXXXXXXXXXXXXXXXXXXXXXXXXXXX",
"XXXXXXXXXXXXXXXXXXXXXXXXXXXXXXXXXXXXXXXXJ.,.i < O.a.d.d.$.K K 9.XXXXXXXXXXXXXXXXXXXXXXXXXXXXXXXXXXXX",
"XXXXXXXXXXXXXXXXXXXXXXXXXXXXXXXXXXXXXXXXS.<.7 7 J *.e.&.P b z 2.XXXXXXXXXXXXXXXXXXXXXXXXXXXXXXXXXXXX",
"XXXXXXXXXXXXXXXXXXXXXXXXXXXXXXXXXXXXXXXXXXd.o.n 7 F J %.X.s 5 } XXXXXXXXXXXXXXXXXXXXXXXXXXXXXXXXXXXX",
"XXXXXXXXXXXXXXXXXXXXXXXXXXXXXXXXXXXXXXXXXXf.r.G - - a k g 8 > _ XXXXXXXXXXXXXXXXXXXXXXXXXXXXXXXXXXXX",
"XXXXXXXXXXXXXXXXXXXXXXXXXXXXXXXXXXXXXXXXXXm.%.*.l % = q d f ;.E V.XXXXXXXXXXXXXXXXXXXXXXXXXXXXXXXXXX",
"XXXXXXXXXXXXXXXXXXXXXXXXXXXXXXXXXXXXXXXXXXXXQ +.6 : 6 > d ~ a.~ 2.XXXXXXXXXXXXXXXXXXXXXXXXXXXXXXXXXX",
"XXXXXXXXXXXXXXXXXXXXXXXXXXXXXXXXXXXXXXXXXXXX~ O.u d 5 ;.i.g.u.Y B.XXXXXXXXXXXXXXXXXXXXXXXXXXXXXXXXXX",
"XXXXXXXXXXXXXXXXXXXXXXXXXXXXXXXXXXXXXXXXXX(.-.,.r > ; F.^.R.e.H P.XXXXXXXXXXXXXXXXXXXXXXXXXXXXXXXXXX",
"XXXXXXXXXXXXXXXXXXXXXXXXXXXXXXXXXXXXXXXXXXF.+.I O.5 , g.^.R.&.H N.XXXXXXXXXXXXXXXXXXXXXXXXXXXXXXXXXX",
"XXXXXXXXXXXXXXXXXXXXXXXXXXXXXXXXXXXXXXXX'.y.G f R 6 > F.p.t.Y z ) XXXXXXXXXXXXXXXXXXXXXXXXXXXXXXXXXX",
"XXXXXXXXXXXXXXXXXXXXXXXXXXXXXXXXXXXXXXXX7.R F o.K h > R.s.T n s 0 XXXXXXXXXXXXXXXXXXXXXXXXXXXXXXXXXX",
"XXXXXXXXXXXXXXXXXXXXXXXXXXXXXXXXXXXXXX3.6 1 c.5...3 3 T.a.L D & , XXXXXXXXXXXXXXXXXXXXXXXXXXXXXXXXXX",
"XXXXXXXXXXXXXXXXXXXXXXXXXXXXXXXXXXXX} z @ (  X).K ; q <.K D w m XXXXXXXXXXXXXXXXXXXXXXXXXXXXXXXXXXXX",
"XXXXXXXXXXXXXXXXXXXXXXXXXXXXXXXXXXXXV l V _.}.>.& ; * R a.,.= } XXXXXXXXXXXXXXXXXXXXXXXXXXXXXXXXXXXX",
"XXXXXXXXXXXXXXXXXXXXXXXXXXXXXXXXXXXX2.3.|.`.<.& * # $ T.W.a.l XXXXXXXXXXXXXXXXXXXXXXXXXXXXXXXXXXXXXX",
"XXXXXXXXXXXXXXXXXXXXXXXXXXXXXXXXXXXX.X|.`.y.< + + + + u.d.e.H XXXXXXXXXXXXXXXXXXXXXXXXXXXXXXXXXXXXXX",
"XXXXXXXXXXXXXXXXXXXXXXXXXXXXXXXXXXXX]./.h.u . . O + + o.G u s XXXXXXXXXXXXXXXXXXXXXXXXXXXXXXXXXXXXXX",
"XXXXXXXXXXXXXXXXXXXXXXXXXXXXXXXXXXXX'.W.r.u     O + + 1 6 D :.XXXXXXXXXXXXXXXXXXXXXXXXXXXXXXXXXXXXXX",
"XXXXXXXXXXXXXXXXXXXXXXXXXXXXXXXXXX.X3.~.y.h   o o O u ] ^ 9.XXXXXXXXXXXXXXXXXXXXXXXXXXXXXXXXXXXXXXXX",
"XXXXXXXXXXXXXXXXXXXXXXXXXXXXXXXXXXM.C e.*.- .     # | 9.9.XXXXXXXXXXXXXXXXXXXXXXXXXXXXXXXXXXXXXXXXXX",
"XXXXXXXXXXXXXXXXXXXXXXXXXXXXXXXXXXA 5 X.F +   . # u q Y !.XXXXXXXXXXXXXXXXXXXXXXXXXXXXXXXXXXXXXXXXXX",
"XXXXXXXXXXXXXXXXXXXXXXXXXXXXXXXXXXC $ G 2 + . # 5 > D @.&.6.XXXXXXXXXXXXXXXXXXXXXXXXXXXXXXXXXXXXXXXX",
"XXXXXXXXXXXXXXXXXXXXXXXXXXXXXXXXXXg % F i # = h s = T X.T F ) XXXXXXXXXXXXXXXXXXXXXXXXXXXXXXXXXXXXXX",
"XXXXXXXXXXXXXXXXXXXXXXXXXXXXXXXXXXA l K u * 4 6 c h b h z t * [ .XXXXXXXXXXXXXXXXXXXXXXXXXXXXXXXXXXX",
"XXXXXXXXXXXXXXXXXXXXXXXXXXXXXXXXXXv.G K 8 > > 4 g 8.H j j X + = w.3.W V.XXXXXXXXXXXXXXXXXXXXXXXXXXXX",
"XXXXXXXXXXXXXXXXXXXXXXXXXXXXXXXXXXXXE F x - > f z 9.Y.8.j < + $ &.s e { XXXXXXXXXXXXXXXXXXXXXXXXXXXX",
"XXXXXXXXXXXXXXXXXXXXXXXXXXXXXXXXXXXXM.e b e z J Y &.I..X=.n s ; < = % { XXXXXXXXXXXXXXXXXXXXXXXXXXXX",
"XXXXXXXXXXXXXXXXXXXXXXXXXXXXXXXXXXXXXX4.j J X.z j F G.XXXX8.F z 2 $ + ( XXXXXXXXXXXXXXXXXXXXXXXXXXXX",
"XXXXXXXXXXXXXXXXXXXXXXXXXXXXXXXXXXXXXXXXq.L P n j j P.XXXXXX=.R F D l N XXXXXXXXXXXXXXXXXXXXXXXXXXXX",
"XXXXXXXXXXXXXXXXXXXXXXXXXXXXXXXXXXXXXXXXXX~ c c j 1 k.XXXXXXXXXXK.$.J C XXXXXXXXXXXXXXXXXXXXXXXXXXXX",
"XXXXXXXXXXXXXXXXXXXXXXXXXXXXXXXXXXXXXXXXXXc.c < % X M XXXXXXXXXXXXX.n S XXXXXXXXXXXXXXXXXXXXXXXXXXXX",
"XXXXXXXXXXXXXXXXXXXXXXXXXXXXXXXXXXXXXXXXXXXXP 1   X % U.XXXXXXXXXX=.t P.XXXXXXXXXXXXXXXXXXXXXXXXXXXX",
"XXXXXXXXXXXXXXXXXXXXXXXXXXXXXXXXXXXXXXXXXXXXr.G # + + 4.XXXXXXXXXXXXXXXXXXXXXXXXXXXXXXXXXXXXXXXXXXXX",
"XXXXXXXXXXXXXXXXXXXXXXXXXXXXXXXXXXXXXXXXXXXXa.*.5 # : K.XXXXXXXXXXXXXXXXXXXXXXXXXXXXXXXXXXXXXXXXXXXX",
"XXXXXXXXXXXXXXXXXXXXXXXXXXXXXXXXXXXXXX'.|.{.a.&.5 ; F c.XXXXXXXXXXXXXXXXXXXXXXXXXXXXXXXXXXXXXXXXXXXX",
"XXXXXXXXXXXXXXXXXXXXXXXXXXXXXXXXXX]./.s.R.a.O.z 9 q : ` XXXXXXXXXXXXXXXXXXXXXXXXXXXXXXXXXXXXXXXXXXXX",
"XXXXXXXXXXXXXXXXXXXXXXXXXXXXXXXXXXL.*.@.G o.n $ # % - x.XXXXXXXXXXXXXXXXXXXXXXXXXXXXXXXXXXXXXXXXXXXX"
};
