/* XPM */
static char *result[] = {
/* columns rows colors chars-per-pixel */
"50 50 188 2 ",
"   c #0F0F0F",
".  c #100F0E",
"X  c #12100F",
"o  c #0F0F10",
"O  c #121212",
"+  c #171817",
"@  c #1D1A15",
"#  c #1C1B1B",
"$  c #191714",
"%  c #221E1A",
"&  c #211C16",
"*  c #1F201D",
"=  c #27231D",
"-  c #2B241E",
";  c #1F1F20",
":  c #252423",
">  c #2A2622",
",  c #2B2A24",
"<  c #262829",
"1  c #2A2B2A",
"2  c #312720",
"3  c #342C26",
"4  c #392F26",
"5  c #322E29",
"6  c #34322E",
"7  c #3C342B",
"8  c #3D3025",
"9  c #353532",
"0  c #373834",
"q  c #3C3933",
"w  c #3B3A3B",
"e  c #43362B",
"r  c #45392D",
"t  c #4C3C2E",
"y  c #4D312B",
"u  c #433B33",
"i  c #4B3D32",
"p  c #433E3A",
"a  c #3F4037",
"s  c #424036",
"d  c #4D4135",
"f  c #45423A",
"g  c #4F443A",
"h  c #4B483D",
"j  c #554334",
"k  c #5A4333",
"l  c #5D4837",
"z  c #54453A",
"x  c #5C4A3A",
"c  c #564A3C",
"v  c #614935",
"b  c #6F413D",
"n  c #624E3C",
"m  c #694A3F",
"M  c #65413A",
"N  c #65503E",
"B  c #68513E",
"V  c #444443",
"C  c #4A4640",
"Z  c #4C4A42",
"A  c #524A43",
"S  c #574A42",
"D  c #5E5449",
"F  c #585249",
"G  c #535352",
"H  c #5D5C58",
"J  c #635242",
"K  c #6B5542",
"L  c #6F5847",
"P  c #675749",
"I  c #66584E",
"U  c #6C5B4B",
"Y  c #725A45",
"T  c #745D4A",
"R  c #795F4A",
"E  c #605953",
"W  c #635F5C",
"Q  c #7B624D",
"!  c #66615B",
"~  c #6E6156",
"^  c #716354",
"/  c #7D6652",
"(  c #74695E",
")  c #7F6C59",
"_  c #72665C",
"`  c #666566",
"'  c #696663",
"]  c #6F6D69",
"[  c #716F6D",
"{  c #796C61",
"}  c #70706F",
"|  c #7C736B",
" . c #737372",
".. c #7D7D7B",
"X. c #82674F",
"o. c #86684F",
"O. c #806750",
"+. c #836A54",
"@. c #8B6E55",
"#. c #846E5A",
"$. c #86705D",
"%. c #8B725B",
"&. c #977457",
"*. c #93745A",
"=. c #96785D",
"-. c #987A5E",
";. c #837265",
":. c #8C7A6E",
">. c #947A64",
",. c #9C7D61",
"<. c #827A74",
"1. c #8C7F73",
"2. c #827B76",
"3. c #AC7264",
"4. c #9E8066",
"5. c #95806F",
"6. c #9C826B",
"7. c #878076",
"8. c #8C8076",
"9. c #8E8379",
"0. c #948375",
"q. c #90867F",
"w. c #96897E",
"e. c #A18164",
"r. c #A4866B",
"t. c #AB8B6D",
"y. c #B18D6E",
"u. c #A38871",
"i. c #AD8E73",
"p. c #AF9175",
"a. c #B49274",
"s. c #B99576",
"d. c #B29479",
"f. c #B7987C",
"g. c #BC9A7B",
"h. c #BA977A",
"j. c #C29D7D",
"k. c #8F8E8C",
"l. c #938A83",
"z. c #908D8A",
"x. c #9E9085",
"c. c #9A918A",
"v. c #8F8F91",
"b. c #949493",
"n. c #9B9693",
"m. c #9E9B99",
"M. c #A38B87",
"N. c #A79584",
"B. c #B79D84",
"V. c #BD9E83",
"C. c #BF9888",
"Z. c #B69B8A",
"A. c #A19993",
"S. c #A89D9C",
"D. c #A4A1A0",
"F. c #ADABA8",
"G. c #B3AEA9",
"H. c #BBB1A9",
"J. c #BDB7B0",
"K. c #C19D82",
"L. c #C4A182",
"P. c #CBA582",
"I. c #CAA788",
"U. c #C9A68A",
"Y. c #D6AF8B",
"T. c #D2AA87",
"R. c #D8B28F",
"E. c #C8A990",
"W. c #C7AF9B",
"Q. c #D3AC90",
"!. c #C7B09D",
"~. c #CFB399",
"^. c #CCB095",
"/. c #D2B090",
"(. c #DDB491",
"). c #D2B59D",
"_. c #E7BF9A",
"`. c #E9BE9A",
"'. c #C4B9AF",
"]. c #C6B3A3",
"[. c #C0BBB4",
"{. c #DAC2AE",
"}. c #F3CBA5",
"|. c #FAD3AC",
" X c #E5CCB3",
".X c #E3D0B8",
"XX c #F1D5B6",
"oX c None",
/* pixels */
"oXoXoXoXoXoXoXoXoXoXoXoXoXoXoXoXoXoXoXoXoXoXoXoXoXoXn.:.Y.C.C.S.oXoXoXoXoXoXoXoXoXoXoXoXoXoXoXoXoXoX",
"oXoXoXoXoXoXoXoXoXoXoXoXoXoXoXoXoXoXoXoXoXoXoXoXoXoX<.P ,.d.d.Z.oXoXoXoXoXoXoXoXoXoXoXoXoXoXoXoXoXoX",
"oXoXoXoXoXoXoXoXoXoXoXoXoXoXoXoXoXoXoXoXoXoXoXoXoXb.Z T >.6.:.1...oXoXoXoXoXoXoXoXoXoXoXoXoXoXoXoXoX",
"oXoXoXoXoXoXoXoXoXoXoXoXoXoXoXoXoXoXoXoXoXoXoXoXoXN.S x > I H V  .oXoXoXoXoXoXoXoXoXoXoXoXoXoXoXoXoX",
"oXoXoXoXoXoXoXoXoXoXoXoXoXoXoXoXoXoXoXoXoXoXoXm.0.U.,.L d J 6 V  .oXoXoXoXoXoXoXoXoXoXoXoXoXoXoXoXoX",
"oXoXoXoXoXoXoXoXoXoXoXoXoXoXoXoXoXoXoXoXoXoXoX;.u #.L.4.j > m A  .oXoXoXoXoXoXoXoXoXoXoXoXoXoXoXoXoX",
"oXoXoXoXoXoXoXoXoXoXoXoXoXoXoXoXoXoXoXoXoXoX8.5 % 7 / K.i.K t b  .oXoXoXoXoXoXoXoXoXoXoXoXoXoXoXoXoX",
"oXoXoXoXoXoXoXoXoXoXoXoXoXoXoXoXoXoXoXoXoXl.P i z r e L a.d.K y ' oXoXoXoXoXoXoXoXoXoXoXoXoXoXoXoXoX",
"oXoXoXoXoXoXoXoXoXoXoXoXoXoXoXoXoXoXoXoXoX:.6.4.Q i x 7 z i.$.] b.oXoXoXoXoXoXoXoXoXoXoXoXoXoXoXoXoX",
"oXoXoXoXoXoXoXoXoXoXoXoXoXoXoXoXoXoXoXoX6.%.r./ n Q K 3 d %.n H m.oXoXoXoXoXoXoXoXoXoXoXoXoXoXoXoXoX",
"oXoXoXoXoXoXoXoXoXoXoXoXoXoXoXoXoXoXoXl./ +.i.L.+.Q @.u 7 %.a.J oXoXoXoXoXoXoXoXoXoXoXoXoXoXoXoXoXoX",
"oXoXoXoXoXoXoXoXoXoXoXoXoXoXoXoXoXoXoX7.T #.t.s.s.4.Q L 3 Q g.B.oXoXoXoXoXoXoXoXoXoXoXoXoXoXoXoXoXoX",
"oXoXoXoXoXoXoXoXoXoXoXoXoXoXoXoXoXoXoX;.N K @.t.y.-.K x - L t.L.oXoXoXoXoXoXoXoXoXoXoXoXoXoXoXoXoXoX",
"oXoXoXoXoXoXoXoXoXoXoXoXoXoXoXoXoXoXoX' r N Y @.&.R l n 3 u t.B.oXoXoXoXoXoXoXoXoXoXoXoXoXoXoXoXoXoX",
"oXoXoXoXoXoXoXoXoXoXoXoXoXoXoXoXoXoXk.p 0 d o.K m 8 & e Q *.j.N.oXoXoXoXoXoXoXoXoXoXoXoXoXoXoXoXoXoX",
"oXoXoXoXoXoXoXoXoXoXoXoXoXoXoXoXoXc.6.u.s s s j t @ @ 2 R y.j.A.oXoXoXoXoXoXoXoXoXoXoXoXoXoXoXoXoXoX",
"oXoXoXoXoXoXoXoXoXoXoXoXoXoXoXoXoXw.r.f.h s 6 8 e @ @ x *.*.) k.oXoXoXoXoXoXoXoXoXoXoXoXoXoXoXoXoXoX",
"oXoXoXoXoXoXoXoXoXoXoXoXoXoXoXoXoX;.t.L.^ f @ @ = 6 > 7 %.J , D oXoXoXoXoXoXoXoXoXoXoXoXoXoXoXoXoXoX",
"oXoXoXoXoXoXoXoXoXoXoXoXoXoXoXoXn.%.f.L.I.f.: # @ 6 h a Q s , P /.oXoXoXoXoXoXoXoXoXoXoXoXoXoXoXoXoX",
"oXoXoXoXoXoXoXoXoXoXoXoXoXoXoXoXw.#.a.f.j.#.1 6 5 = , 7 &.^ c Q p.E.oXoXoXoXoXoXoXoXoXoXoXoXoXoXoXoX",
"oXoXoXoXoXoXoXoXoXoXoXoXoXoXoXoX0.T %.e.p.u # : 9 1 : U ) 9.9.N Q p.~.oXoXoXoXoXoXoXoXoXoXoXoXoXoXoX",
"oXoXoXoXoXoXoXoXoXoXoXoXoXoXoXoX1.T 4.t.#.; # : 9 > , K P | oXoXP L %.c.oXoXoXoXoXoXoXoXoXoXoXoXoXoX",
"oXoXoXoXoXoXoXoXoXoXoXoXoXoXoXoX1.Q >.t.J + O < 1 : q Y #.M.oXoXoX~ % d 0.oXoXoXoXoXoXoXoXoXoXoXoXoX",
"oXoXoXoXoXoXoXoXoXoXoXoXoXoXoXoX| n n =.5 # O ; 1 ; > b 3.{.oXoXoXoXw $ z oXoXoXoXoXoXoXoXoXoXoXoXoX",
"oXoXoXoXoXoXoXoXoXoXoXoXoXoXoXoXd.s.P.M.` + o + # # : 5 d.}.XXoXoXoXoXw u oXoXoXoXoXoXoXoXoXoXoXoXoX",
"oXoXoXoXoXoXoXoXoXoXoXoXoXoXoXG.u.s.P.].oX6 O O O + ; : = >.`.|..XoXoXoXoXoXoXoXoXoXoXoXoXoXoXoXoXoX",
"oXoXoXoXoXoXoXoXoXoXoXoXoXoXoX{ J e.t.oXoXoXO o o O O + # % #.(.}.oXoXoXoXoXoXoXoXoXoXoXoXoXoXoXoXoX",
"oXoXoXoXoXoXoXoXoXoXoXoXoXoXoX1.i 4 J oXoXoXf O o o o O o O # +.Y.(.oXoXoXoXoXoXoXoXoXoXoXoXoXoXoXoX",
"oXoXoXoXoXoXoXoXoXoXoXoXoXoXoXoX{ J E oXoXoX( % o . o O O o o K g.Y.].oXoXoXoXoXoXoXoXoXoXoXoXoXoXoX",
"oXoXoXoXoXoXoXoXoXoXoXoXoXoXoXoXoX( oXoXoXoXoXO . O @ O O O O n a.T._ oXoXoXoXoXoXoXoXoXoXoXoXoXoXoX",
"oXoXoXoXoXoXoXoXoXoXoXoXoXoXoXoXoXoXoXoXoXoXoX; o O % O . o o > *.t.h W oXoXoXoXoXoXoXoXoXoXoXoXoXoX",
"oXoXoXoXoXoXoXoXoXoXoXoXoXoXoXoXoXoXoXoXoXoXoXoXX o 4 n > o o O i -.3 p b.oXoXoXoXoXoXoXoXoXoXoXoXoX",
"oXoXoXoXoXoXoXoXoXoXoXoXoXoXoXoXoXoXoXoXoXoXoXoXr O r Q ^ V O . # Q 4 3 7.oXoXoXoXoXoXoXoXoXoXoXoXoX",
"oXoXoXoXoXoXoXoXoXoXoXoXoXoXoXoXoXoXoXoXJ.[ Z q , O 4 K oXoXoXw 4 K x 7 ] oXoXoXoXoXoXoXoXoXoXoXoXoX",
"oXoXoXoXoXoXoXoXoXoXoXoXoXoXoXoXoXoXoXW.j.D 6 a 6 < z z oXoXoXV * g +.Y <.oXoXoXoXoXoXoXoXoXoXoXoXoX",
"oXoXoXoXoXoXoXoXoXoXoXoXoXoXoXoXoXoXG.6.&.&.K = u x K oXoXoX ., , 7 L @.z.oXoXoXoXoXoXoXoXoXoXoXoXoX",
"oXoXoXoXoXoXoXoXoXoXoXoXoXoXoXoXoXoXW J o.@.+.i n c oXoXoXoXG > = r N J oXoXoXoXoXoXoXoXoXoXoXoXoXoX",
"oXoXoXoXoXoXoXoXoXoXoXoXoXoXoXoXoX .; e v v B ^ oXoXoXoXoXD.g c s s Q D oXoXoXoXoXoXoXoXoXoXoXoXoXoX",
"oXoXoXoXoXoXoXoXoXoXoXoXoXoXoXoX` # O X r n oXoXoXoXoXoXoX0.K K X./ o.w.oXoXoXoXoXoXoXoXoXoXoXoXoXoX",
"oXoXoXoXoXoXoXoXoXoXoXoXoXoXoXoX6 @ O - i oXoXoXoXoXoXoXoX;.v k Q &.e.H.oXoXoXoXoXoXoXoXoXoXoXoXoXoX",
"oXoXoXoXoXoXoXoXoXoXoXoXoXoXoXu.n ; 0 Q oXoXoXoXoXoXoXoXoXA.j v Y X.e.'.oXoXoXoXoXoXoXoXoXoXoXoXoXoX",
"oXoXoXoXoXoXoXoXoXoXoXoXoXoX} i t 1 U r.oXoXoXoXoXoXoXoXoXoXA k j B =.G.oXoXoXoXoXoXoXoXoXoXoXoXoXoX",
"oXoXoXoXoXoXoXoXoXoXoXoXoXoXW - : 9 =.P.^.oXoXoXoXoXoXoXoXoXp o X r *.'.oXoXoXoXoXoXoXoXoXoXoXoXoXoX",
"oXoXoXoXoXoXoXoXoXoXoXoXoXoX .4 # % T %.a.g.oXoXoXoXoXoXoXoXG . X r e.!.oXoXoXoXoXoXoXoXoXoXoXoXoXoX",
"oXoXoXoXoXoXoXoXoXoXoXoXoXoXoXoXoXoXr v K oXoXoXoXoXoXoXoXoXw O # 7 t.B.oXoXoXoXoXoXoXoXoXoXoXoXoXoX",
"oXoXoXoXoXoXoXoXoXoXoXoXoXoXoXoXoXoXoXoXoXoXoXoXoXoXoXoXoXoXl.3 $ 3 +.j. XoXoXoXoXoXoXoXoXoXoXoXoXoX",
"oXoXoXoXoXoXoXoXoXoXoXoXoXoXoXoXoXoXoXoXoXoXoXoXoXoXoXoXoXoX1.n 5 9 Q e.R.`.).oXoXoXoXoXoXoXoXoXoXoX",
"oXoXoXoXoXoXoXoXoXoXoXoXoXoXoXoXoXoXoXoXoXoXoXoXoXoXoXoXoXoXW @ < 1 7 Q 4.t.>.L.oXoXoXoXoXoXoXoXoXoX",
"oXoXoXoXoXoXoXoXoXoXoXoXoXoXoXoXoXoXoXoXoXoXoXoXoXoXoXoXoXoXF.t % O + x T J T @.A.oXoXoXoXoXoXoXoXoX",
"oXoXoXoXoXoXoXoXoXoXoXoXoXoXoXoXoXoXoXoXoXoXoXoXoXoXoXoXoXoXoX..G 7.b...! u 4 p S.oXoXoXoXoXoXoXoXoX"
};
