/* XPM */
static char *result[] = {
/* columns rows colors chars-per-pixel */
"50 50 188 2 ",
"   c #0F0F0F",
".  c #100F0E",
"X  c #12100F",
"o  c #0F0F10",
"O  c #121212",
"+  c #171817",
"@  c #1D1A15",
"#  c #1C1B1B",
"$  c #191714",
"%  c #221E1A",
"&  c #211C16",
"*  c #1F201D",
"=  c #27231D",
"-  c #2B241E",
";  c #1F1F20",
":  c #252423",
">  c #2A2622",
",  c #2B2A24",
"<  c #262829",
"1  c #2A2B2A",
"2  c #312720",
"3  c #342C26",
"4  c #392F26",
"5  c #322E29",
"6  c #34322E",
"7  c #3C342B",
"8  c #3D3025",
"9  c #353532",
"0  c #373834",
"q  c #3C3933",
"w  c #3B3A3B",
"e  c #43362B",
"r  c #45392D",
"t  c #4C3C2E",
"y  c #4D312B",
"u  c #433B33",
"i  c #4B3D32",
"p  c #433E3A",
"a  c #3F4037",
"s  c #424036",
"d  c #4D4135",
"f  c #45423A",
"g  c #4F443A",
"h  c #4B483D",
"j  c #554334",
"k  c #5A4333",
"l  c #5D4837",
"z  c #54453A",
"x  c #5C4A3A",
"c  c #564A3C",
"v  c #614935",
"b  c #6F413D",
"n  c #624E3C",
"m  c #694A3F",
"M  c #65413A",
"N  c #65503E",
"B  c #68513E",
"V  c #444443",
"C  c #4A4640",
"Z  c #4C4A42",
"A  c #524A43",
"S  c #574A42",
"D  c #5E5449",
"F  c #585249",
"G  c #535352",
"H  c #5D5C58",
"J  c #635242",
"K  c #6B5542",
"L  c #6F5847",
"P  c #675749",
"I  c #66584E",
"U  c #6C5B4B",
"Y  c #725A45",
"T  c #745D4A",
"R  c #795F4A",
"E  c #605953",
"W  c #635F5C",
"Q  c #7B624D",
"!  c #66615B",
"~  c #6E6156",
"^  c #716354",
"/  c #7D6652",
"(  c #74695E",
")  c #7F6C59",
"_  c #72665C",
"`  c #666566",
"'  c #696663",
"]  c #6F6D69",
"[  c #716F6D",
"{  c #796C61",
"}  c #70706F",
"|  c #7C736B",
" . c #737372",
".. c #7D7D7B",
"X. c #82674F",
"o. c #86684F",
"O. c #806750",
"+. c #836A54",
"@. c #8B6E55",
"#. c #846E5A",
"$. c #86705D",
"%. c #8B725B",
"&. c #977457",
"*. c #93745A",
"=. c #96785D",
"-. c #987A5E",
";. c #837265",
":. c #8C7A6E",
">. c #947A64",
",. c #9C7D61",
"<. c #827A74",
"1. c #8C7F73",
"2. c #827B76",
"3. c #AC7264",
"4. c #9E8066",
"5. c #95806F",
"6. c #9C826B",
"7. c #878076",
"8. c #8C8076",
"9. c #8E8379",
"0. c #948375",
"q. c #90867F",
"w. c #96897E",
"e. c #A18164",
"r. c #A4866B",
"t. c #AB8B6D",
"y. c #B18D6E",
"u. c #A38871",
"i. c #AD8E73",
"p. c #AF9175",
"a. c #B49274",
"s. c #B99576",
"d. c #B29479",
"f. c #B7987C",
"g. c #BC9A7B",
"h. c #BA977A",
"j. c #C29D7D",
"k. c #8F8E8C",
"l. c #938A83",
"z. c #908D8A",
"x. c #9E9085",
"c. c #9A918A",
"v. c #8F8F91",
"b. c #949493",
"n. c #9B9693",
"m. c #9E9B99",
"M. c #A38B87",
"N. c #A79584",
"B. c #B79D84",
"V. c #BD9E83",
"C. c #BF9888",
"Z. c #B69B8A",
"A. c #A19993",
"S. c #A89D9C",
"D. c #A4A1A0",
"F. c #ADABA8",
"G. c #B3AEA9",
"H. c #BBB1A9",
"J. c #BDB7B0",
"K. c #C19D82",
"L. c #C4A182",
"P. c #CBA582",
"I. c #CAA788",
"U. c #C9A68A",
"Y. c #D6AF8B",
"T. c #D2AA87",
"R. c #D8B28F",
"E. c #C8A990",
"W. c #C7AF9B",
"Q. c #D3AC90",
"!. c #C7B09D",
"~. c #CFB399",
"^. c #CCB095",
"/. c #D2B090",
"(. c #DDB491",
"). c #D2B59D",
"_. c #E7BF9A",
"`. c #E9BE9A",
"'. c #C4B9AF",
"]. c #C6B3A3",
"[. c #C0BBB4",
"{. c #DAC2AE",
"}. c #F3CBA5",
"|. c #FAD3AC",
" X c #E5CCB3",
".X c #E3D0B8",
"XX c #F1D5B6",
"oX c None",
/* pixels */
"oXoXoXoXoXoXoXoXoXoXoXoXoXoXoXoXoXoXS.C.C./.:.n.oXoXoXoXoXoXoXoXoXoXoXoXoXoXoXoXoXoXoXoXoXoXoXoXoXoX",
"oXoXoXoXoXoXoXoXoXoXoXoXoXoXoXoXoXoXZ.d.p.r.K <.oXoXoXoXoXoXoXoXoXoXoXoXoXoXoXoXoXoXoXoXoXoXoXoXoXoX",
"oXoXoXoXoXoXoXoXoXoXoXoXoXoXoXoXoX..7.>.>.>.T A b.oXoXoXoXoXoXoXoXoXoXoXoXoXoXoXoXoXoXoXoXoXoXoXoXoX",
"oXoXoXoXoXoXoXoXoXoXoXoXoXoXoXoXoX .V H U > c F N.oXoXoXoXoXoXoXoXoXoXoXoXoXoXoXoXoXoXoXoXoXoXoXoXoX",
"oXoXoXoXoXoXoXoXoXoXoXoXoXoXoXoXoX} V 5 J i K 4.I.1.m.oXoXoXoXoXoXoXoXoXoXoXoXoXoXoXoXoXoXoXoXoXoXoX",
"oXoXoXoXoXoXoXoXoXoXoXoXoXoXoXoXoX .A m > z 4.L.#.u ;.oXoXoXoXoXoXoXoXoXoXoXoXoXoXoXoXoXoXoXoXoXoXoX",
"oXoXoXoXoXoXoXoXoXoXoXoXoXoXoXoXoX .M k m i.K.+.7 % 5 1.oXoXoXoXoXoXoXoXoXoXoXoXoXoXoXoXoXoXoXoXoXoX",
"oXoXoXoXoXoXoXoXoXoXoXoXoXoXoXoXoX` y K d.a.Y 7 r z i I l.oXoXoXoXoXoXoXoXoXoXoXoXoXoXoXoXoXoXoXoXoX",
"oXoXoXoXoXoXoXoXoXoXoXoXoXoXoXoXoXv.[ #.i.d 7 x i Q 4.4.:.oXoXoXoXoXoXoXoXoXoXoXoXoXoXoXoXoXoXoXoXoX",
"oXoXoXoXoXoXoXoXoXoXoXoXoXoXoXoXoXm.E J %.d 3 K Q m O.r.%.6.oXoXoXoXoXoXoXoXoXoXoXoXoXoXoXoXoXoXoXoX",
"oXoXoXoXoXoXoXoXoXoXoXoXoXoXoXoXoXoXJ a.%.7 u @.Q +.L.i.+./ z.oXoXoXoXoXoXoXoXoXoXoXoXoXoXoXoXoXoXoX",
"oXoXoXoXoXoXoXoXoXoXoXoXoXoXoXoXoXoXB.g.Q 3 L Q e.s.s.t.#.T 8.oXoXoXoXoXoXoXoXoXoXoXoXoXoXoXoXoXoXoX",
"oXoXoXoXoXoXoXoXoXoXoXoXoXoXoXoXoXoXU.r.Y - x K -.y.t.@.K N ;.oXoXoXoXoXoXoXoXoXoXoXoXoXoXoXoXoXoXoX",
"oXoXoXoXoXoXoXoXoXoXoXoXoXoXoXoXoXoXB.t.u 2 n l R *.@.Y n u ' oXoXoXoXoXoXoXoXoXoXoXoXoXoXoXoXoXoXoX",
"oXoXoXoXoXoXoXoXoXoXoXoXoXoXoXoXoXoXN.j.*.Q e & 8 B K o.d 0 p k.oXoXoXoXoXoXoXoXoXoXoXoXoXoXoXoXoXoX",
"oXoXoXoXoXoXoXoXoXoXoXoXoXoXoXoXoXoXA.j.y.Q 2 @ @ t j s a s u.6.c.oXoXoXoXoXoXoXoXoXoXoXoXoXoXoXoXoX",
"oXoXoXoXoXoXoXoXoXoXoXoXoXoXoXoXoXoXk.#.%.=.l @ @ e 7 5 a h g.r.w.oXoXoXoXoXoXoXoXoXoXoXoXoXoXoXoXoX",
"oXoXoXoXoXoXoXoXoXoXoXoXoXoXoXoXoXoXD , K $.7 = 6 % $ * s ^ j.t.;.oXoXoXoXoXoXoXoXoXoXoXoXoXoXoXoXoX",
"oXoXoXoXoXoXoXoXoXoXoXoXoXoXoXoXoX/.P , r Q p C 6 @ * = f.I.L.f.%.A.oXoXoXoXoXoXoXoXoXoXoXoXoXoXoXoX",
"oXoXoXoXoXoXoXoXoXoXoXoXoXoXoXoXE.a.T x ^ =.7 , = 6 6 , $.j.g.d.#.l.oXoXoXoXoXoXoXoXoXoXoXoXoXoXoXoX",
"oXoXoXoXoXoXoXoXoXoXoXoXoXoXoX).p.Q K 9.8.#.L : 1 9 : # q p.4.%.T 8.oXoXoXoXoXoXoXoXoXoXoXoXoXoXoXoX",
"oXoXoXoXoXoXoXoXoXoXoXoXoXoXc.%.L K oXoX..P K > < 9 : # = $.t.4.T 1.oXoXoXoXoXoXoXoXoXoXoXoXoXoXoXoX",
"oXoXoXoXoXoXoXoXoXoXoXoXoX0.d % ~ oXoXoXM.+.L q : 1 < O + J t.-.R :.oXoXoXoXoXoXoXoXoXoXoXoXoXoXoXoX",
"oXoXoXoXoXoXoXoXoXoXoXoXoXz O w oXoXoXoX{.3.b > ; 1 * O + 5 =.N K | oXoXoXoXoXoXoXoXoXoXoXoXoXoXoXoX",
"oXoXoXoXoXoXoXoXoXoXoXoXoXu w oXoXoXoXXX}.a.5 : # # + o + ` x.L.s.N.oXoXoXoXoXoXoXoXoXoXoXoXoXoXoXoX",
"oXoXoXoXoXoXoXoXoXoXoXoXoXoXoXoXoX.X|.`.>.: ; ; + O O O 9 oX].P.a.i.G.oXoXoXoXoXoXoXoXoXoXoXoXoXoXoX",
"oXoXoXoXoXoXoXoXoXoXoXoXoXoXoXoXoX}.R.#.% # + O O o o O oXoXoXy.e.J { oXoXoXoXoXoXoXoXoXoXoXoXoXoXoX",
"oXoXoXoXoXoXoXoXoXoXoXoXoXoXoXoX(.Y.#.# O o O O o o o f oXoXoXJ 4 i 2.oXoXoXoXoXoXoXoXoXoXoXoXoXoXoX",
"oXoXoXoXoXoXoXoXoXoXoXoXoXoXoX].Y.h.B O X O O X   o % _ oXoXoXU J { oXoXoXoXoXoXoXoXoXoXoXoXoXoXoXoX",
"oXoXoXoXoXoXoXoXoXoXoXoXoXoXoX( T.a.B O X O O + O o $ oXoXoXoXoX( oXoXoXoXoXoXoXoXoXoXoXoXoXoXoXoXoX",
"oXoXoXoXoXoXoXoXoXoXoXoXoXoX! h t.%.> .     X = O   : oXoXoXoXoXoXoXoXoXoXoXoXoXoXoXoXoXoXoXoXoXoXoX",
"oXoXoXoXoXoXoXoXoXoXoXoXoXb.p 3 -.i O     = J 4 X X oXoXoXoXoXoXoXoXoXoXoXoXoXoXoXoXoXoXoXoXoXoXoXoX",
"oXoXoXoXoXoXoXoXoXoXoXoXoX2.3 3 Q % X O V U Q r X e oXoXoXoXoXoXoXoXoXoXoXoXoXoXoXoXoXoXoXoXoXoXoXoX",
"oXoXoXoXoXoXoXoXoXoXoXoXoX[ 7 x K 3 w oXoXoXJ 4 O 3 0 Z ] J.oXoXoXoXoXoXoXoXoXoXoXoXoXoXoXoXoXoXoXoX",
"oXoXoXoXoXoXoXoXoXoXoXoXoX..Y O.h * Z oXoXoXz z < 6 a 6 D j.W.oXoXoXoXoXoXoXoXoXoXoXoXoXoXoXoXoXoXoX",
"oXoXoXoXoXoXoXoXoXoXoXoXoXl.%.L 7 , ,  .oXoXoXL x u = K &.=.6.G.oXoXoXoXoXoXoXoXoXoXoXoXoXoXoXoXoXoX",
"oXoXoXoXoXoXoXoXoXoXoXoXoXoXJ K r = , G oXoXoXoXc N i o.@.o.N ! oXoXoXoXoXoXoXoXoXoXoXoXoXoXoXoXoXoX",
"oXoXoXoXoXoXoXoXoXoXoXoXoXoXD T i s c h D.oXoXoXoXoX^ K v x e #  .oXoXoXoXoXoXoXoXoXoXoXoXoXoXoXoXoX",
"oXoXoXoXoXoXoXoXoXoXoXoXoXoXl.o.o.Q B K 0.oXoXoXoXoXoXoXn e X $ # ` oXoXoXoXoXoXoXoXoXoXoXoXoXoXoXoX",
"oXoXoXoXoXoXoXoXoXoXoXoXoXoXH.e.&.Q k x ;.oXoXoXoXoXoXoXoXd - X $ 6 oXoXoXoXoXoXoXoXoXoXoXoXoXoXoXoX",
"oXoXoXoXoXoXoXoXoXoXoXoXoXoX[.e.X.Y v k A.oXoXoXoXoXoXoXoXoXR 0 : n u.oXoXoXoXoXoXoXoXoXoXoXoXoXoXoX",
"oXoXoXoXoXoXoXoXoXoXoXoXoXoXG.=.K j k A oXoXoXoXoXoXoXoXoXoXr.U 1 i i [ oXoXoXoXoXoXoXoXoXoXoXoXoXoX",
"oXoXoXoXoXoXoXoXoXoXoXoXoXoX'.@.r O o p oXoXoXoXoXoXoXoXoX^.P.=.9 : > W oXoXoXoXoXoXoXoXoXoXoXoXoXoX",
"oXoXoXoXoXoXoXoXoXoXoXoXoXoX!.3.r o o G oXoXoXoXoXoXoXoXg.a.%.T % + 4  .oXoXoXoXoXoXoXoXoXoXoXoXoXoX",
"oXoXoXoXoXoXoXoXoXoXoXoXoXoXV.t.7 # X w oXoXoXoXoXoXoXoXoXB v r oXoXoXoXoXoXoXoXoXoXoXoXoXoXoXoXoXoX",
"oXoXoXoXoXoXoXoXoXoXoXoXoX.Xj.o.5 + 3 l.oXoXoXoXoXoXoXoXoXoXoXoXoXoXoXoXoXoXoXoXoXoXoXoXoXoXoXoXoXoX",
"oXoXoXoXoXoXoXoXoXoXoX).`.(.e./ 9 5 J 1.oXoXoXoXoXoXoXoXoXoXoXoXoXoXoXoXoXoXoXoXoXoXoXoXoXoXoXoXoXoX",
"oXoXoXoXoXoXoXoXoXoXL.>.y.-.Q 7 1 < @ W oXoXoXoXoXoXoXoXoXoXoXoXoXoXoXoXoXoXoXoXoXoXoXoXoXoXoXoXoXoX",
"oXoXoXoXoXoXoXoXoXN.@.Q N T l O O % e F.oXoXoXoXoXoXoXoXoXoXoXoXoXoXoXoXoXoXoXoXoXoXoXoXoXoXoXoXoXoX",
"oXoXoXoXoXoXoXoXoXD.f 3 u ! ..b.l.G ..oXoXoXoXoXoXoXoXoXoXoXoXoXoXoXoXoXoXoXoXoXoXoXoXoXoXoXoXoXoXoX"
};
