/* XPM */
static char *result[] = {
/* columns rows colors chars-per-pixel */
"50 50 193 2 ",
"   c #0F0F0F",
".  c #100F0F",
"X  c #0F0F10",
"o  c #121212",
"O  c #181716",
"+  c #1C1A16",
"@  c #171818",
"#  c #1B1B1A",
"$  c #211B16",
"%  c #221F1B",
"&  c #24221E",
"*  c #2C241D",
"=  c #242423",
"-  c #2B2622",
";  c #272825",
":  c #2D2924",
">  c #232828",
",  c #2E2D2C",
"<  c #332C24",
"1  c #332E2A",
"2  c #3A2D2B",
"3  c #2F302B",
"4  c #373027",
"5  c #3F3227",
"6  c #33322B",
"7  c #3C322A",
"8  c #343432",
"9  c #3B3932",
"0  c #3C3E3D",
"q  c #43362A",
"w  c #44392D",
"e  c #4C3C2E",
"r  c #5E362D",
"t  c #433D35",
"y  c #4B3D33",
"u  c #433E3B",
"i  c #56402F",
"p  c #4D4136",
"a  c #444239",
"s  c #4C443D",
"d  c #49463B",
"f  c #534335",
"g  c #594637",
"h  c #5E4936",
"j  c #54473A",
"k  c #5C4A3A",
"l  c #624D3D",
"z  c #61473A",
"x  c #66503E",
"c  c #6B533F",
"v  c #434442",
"b  c #4E4E4C",
"n  c #554E45",
"m  c #5D4E41",
"M  c #584C4B",
"N  c #5D554D",
"B  c #55544C",
"V  c #5D5953",
"C  c #5B5C5B",
"Z  c #604F40",
"A  c #6C4A44",
"S  c #645444",
"D  c #6B5543",
"F  c #655847",
"G  c #6E5946",
"H  c #6A5748",
"J  c #6D5B4B",
"K  c #705742",
"L  c #735B47",
"P  c #725D4B",
"I  c #795F49",
"U  c #6D5F53",
"Y  c #675F59",
"T  c #655A51",
"R  c #5F6159",
"E  c #77614F",
"W  c #7B634D",
"Q  c #6F6155",
"!  c #746252",
"~  c #7E6651",
"^  c #7F6855",
"/  c #7B6A5B",
"(  c #72645A",
")  c #6B6965",
"_  c #6D6D6C",
"`  c #7F7166",
"'  c #77726F",
"]  c #7D756D",
"[  c #757474",
"{  c #7A7A79",
"}  c #86524A",
"|  c #82664F",
" . c #83684F",
".. c #8B694E",
"X. c #806751",
"o. c #836A53",
"O. c #8B6D54",
"+. c #856E5A",
"@. c #886E59",
"#. c #9A6B5B",
"$. c #8E7156",
"%. c #85715E",
"&. c #8D735B",
"*. c #907257",
"=. c #92745A",
"-. c #9B7A5E",
";. c #857465",
":. c #83756B",
">. c #8A7B6E",
",. c #937963",
"<. c #9B7C62",
"1. c #9A7765",
"2. c #897D73",
"3. c #837E79",
"4. c #877C74",
"5. c #A07F61",
"6. c #AC7E6A",
"7. c #97806D",
"8. c #9F846D",
"9. c #9B8066",
"0. c #81807F",
"q. c #8C827B",
"w. c #9F8670",
"e. c #948577",
"r. c #A38266",
"t. c #A3856A",
"y. c #AA8769",
"u. c #A7886D",
"i. c #AD8B6C",
"p. c #B18E6E",
"a. c #AD8E73",
"s. c #A58A70",
"d. c #B28C73",
"f. c #B58071",
"g. c #AF9176",
"h. c #AC9279",
"j. c #B59273",
"k. c #BB9575",
"l. c #BD9A7B",
"z. c #B7947B",
"x. c #C29E7D",
"c. c #C19975",
"v. c #C6A07E",
"b. c #8E8781",
"n. c #8F8D8B",
"m. c #818282",
"M. c #938E89",
"N. c #94918E",
"B. c #98928E",
"V. c #9B9691",
"C. c #9C9A99",
"Z. c #959390",
"A. c #AD9783",
"S. c #A5978A",
"D. c #B29E8D",
"F. c #BB9C82",
"G. c #A09890",
"H. c #A89C92",
"J. c #BCA28C",
"K. c #A9A19A",
"L. c #B5A69A",
"P. c #ABA7A3",
"I. c #B4A9A0",
"U. c #BEB1A6",
"Y. c #BDBBBA",
"T. c #BBB5B0",
"R. c #C4A182",
"E. c #CDA682",
"W. c #C8A08F",
"Q. c #C8A789",
"!. c #D6AC87",
"~. c #D8AE89",
"^. c #DAB28D",
"/. c #CDAD91",
"(. c #D1AF90",
"). c #D5B496",
"_. c #DAB291",
"`. c #DEBC9B",
"'. c #E6BB96",
"]. c #E6BE9A",
"[. c #ECBF9A",
"{. c #CBB9A9",
"}. c #EAC39E",
"|. c #D5C1AD",
" X c #C5C2BF",
".X c #DCCBBB",
"XX c #E9C9A9",
"oX c #F4C9A2",
"OX c #EFD0AF",
"+X c #F6D6B3",
"@X c #C5C5C4",
"#X c #CCC7C2",
"$X c None",
/* pixels */
"$X$X$X$X$X$X$X$X$X$X$X$X$X$X$X$X$X$XC.W.d._.z.3.$X$X$X$X$X$X$X$X$X$X$X$X$X$X$X$X$X$X$X$X$X$X$X$X$X$X",
"$X$X$X$X$X$X$X$X$X$X$X$X$X$X$X$X$X$XB.F.8.g.+.( $X$X$X$X$X$X$X$X$X$X$X$X$X$X$X$X$X$X$X$X$X$X$X$X$X$X",
"$X$X$X$X$X$X$X$X$X$X$X$X$X$X$X$X$X$XC ] %.s.P m m.$X$X$X$X$X$X$X$X$X$X$X$X$X$X$X$X$X$X$X$X$X$X$X$X$X",
"$X$X$X$X$X$X$X$X$X$X$X$X$X$X$X$X$X$Xb v N S % G / D.H.$X$X$X$X$X$X$X$X$X$X$X$X$X$X$X$X$X$X$X$X$X$X$X",
"$X$X$X$X$X$X$X$X$X$X$X$X$X$X$X$X$X$XC v q y k P a.R./ V.$X$X$X$X$X$X$X$X$X$X$X$X$X$X$X$X$X$X$X$X$X$X",
"$X$X$X$X$X$X$X$X$X$X$X$X$X$X$X$X$X$Xb A z 2 ~ R.l.E 2 ( $X$X$X$X$X$X$X$X$X$X$X$X$X$X$X$X$X$X$X$X$X$X",
"$X$X$X$X$X$X$X$X$X$X$X$X$X$X$X$X$X$XM r l =.R.d.S < % : 4.$X$X$X$X$X$X$X$X$X$X$X$X$X$X$X$X$X$X$X$X$X",
"$X$X$X$X$X$X$X$X$X$X$X$X$X$X$X$X$X$Xu y ,.l.&.k w p k Z S V.$X$X$X$X$X$X$X$X$X$X$X$X$X$X$X$X$X$X$X$X",
"$X$X$X$X$X$X$X$X$X$X$X$X$X$X$X$X$X$Xn.6 m w.j : Z g =.y.t.:.$X$X$X$X$X$X$X$X$X$X$X$X$X$X$X$X$X$X$X$X",
"$X$X$X$X$X$X$X$X$X$X$X$X$X$X$X$X$X$XQ x d.%.p 4 L W c ,.a.+.q.$X$X$X$X$X$X$X$X$X$X$X$X$X$X$X$X$X$X$X",
"$X$X$X$X$X$X$X$X$X$X$X$X$X$X$X$X$X$X;.k.l.o.7 l *.W r.R.j.&./ $X$X$X$X$X$X$X$X$X$X$X$X$X$X$X$X$X$X$X",
"$X$X$X$X$X$X$X$X$X$X$X$X$X$X$X$X$X$Xh.^.9.^ - D X.y.l.l.8.X.P V.$X$X$X$X$X$X$X$X$X$X$X$X$X$X$X$X$X$X",
"$X$X$X$X$X$X$X$X$X$X$X$X$X$X$X$X$XS.i.E.9.g & l W -.p.i.O.D g N.$X$X$X$X$X$X$X$X$X$X$X$X$X$X$X$X$X$X",
"$X$X$X$X$X$X$X$X$X$X$X$X$X$X$X$X$XD.<.c.v.L x g q L $.$...x 9 { $X$X$X$X$X$X$X$X$X$X$X$X$X$X$X$X$X$X",
"$X$X$X$X$X$X$X$X$X$X$X$X$X$X$X$X$XV.! g.v.k.*.* $ 5 x z G 9 6 a N.$X$X$X$X$X$X$X$X$X$X$X$X$X$X$X$X$X",
"$X$X$X$X$X$X$X$X$X$X$X$X$X$X$X$X$XC.B -.p.r.=.z $ + p w 9 a a a.,.B.$X$X$X$X$X$X$X$X$X$X$X$X$X$X$X$X",
"$X$X$X$X$X$X$X$X$X$X$X$X$X$X$X$X$XR 6 < S @.u.j % < & $ - a d l.&.M.$X$X$X$X$X$X$X$X$X$X$X$X$X$X$X$X",
"$X$X$X$X$X$X$X$X$X$X$X$X$X$X$X$X).F & + / P U 9 u t + + v / &.v.&.2.$X$X$X$X$X$X$X$X$X$X$X$X$X$X$X$X",
"$X$X$X$X$X$X$X$X$X$X$X$X$X$X$XXXQ.F 9 n K.y.*.6 6 = : 6 9 ^.J.v.r./ $X$X$X$X$X$X$X$X$X$X$X$X$X$X$X$X",
"$X$X$X$X$X$X$X$X$X$X$X$X$X$X|.R.t.G U N.A.y.X.j ; = 9 = # 8.x.j.<.! $X$X$X$X$X$X$X$X$X$X$X$X$X$X$X$X",
"$X$X$X$X$X$X$X$X$X$X$X$X$X$XQ.t.L J $X$X%.s n o.; = 8 ; & m j.<.~ P $X$X$X$X$X$X$X$X$X$X$X$X$X$X$X$X",
"$X$X$X$X$X$X$X$X$X$X$X$X$Xb.H S :.$X$X$X1.a ! P t % , , @ : j.u.o.P $X$X$X$X$X$X$X$X$X$X$X$X$X$X$X$X",
"$X$X$X$X$X$X$X$X$X$X$X$XS.j O ) $X$X$X$Xf.u.#.} 2 = ; ; O # i.u.X.! $X$X$X$X$X$X$X$X$X$X$X$X$X$X$X$X",
"$X$X$X$X$X$X$X$X$X$X$XP.m O @ $X$X$X$X$X{.R.d.6.= = @ # o = >.+.&.;.$X$X$X$X$X$X$X$X$X$X$X$X$X$X$X$X",
"$X$X$X$X$X$X$X$X$X$X$X[ p 1 _ $X$X$X$X$X$XXXXXD = = @ o o b {.'.x.j. X$X$X$X$X$X$X$X$X$X$X$X$X$X$X$X",
"$X$X$X$X$X$X$X$X$X$X$X3.[ $X$X$X$X$X$X$X+XoXy.& = @ o o o m.1.F.l.r.P.$X$X$X$X$X$X$X$X$X$X$X$X$X$X$X",
"$X$X$X$X$X$X$X$X$X$X$X$X$X$X$X$X$X$X$XOXoXE.7 @ o o o o 8 $X/ ;.D p V.$X$X$X$X$X$X$X$X$X$X$X$X$X$X$X",
"$X$X$X$X$X$X$X$X$X$X$X$X$X$X$X$X$X$X{.oX^.~ o . X o o @ $X$X:.y y ! $X$X$X$X$X$X$X$X$X$X$X$X$X$X$X$X",
"$X$X$X$X$X$X$X$X$X$X$X$X$X$X$X$X$X$X_.^.k.1 .   X o o $X$X$X$X! >.$X$X$X$X$X$X$X$X$X$X$X$X$X$X$X$X$X",
"$X$X$X$X$X$X$X$X$X$X$X$X$X$X$X$X$X$Xx.E.y.h o   X o 1 $X$X$X$X$X$X$X$X$X$X$X$X$X$X$X$X$X$X$X$X$X$X$X",
"$X$X$X$X$X$X$X$X$X$X$X$X$X$X$X$X$X$X9.!.j.x o   X X [ $X$X$X$X$X$X$X$X$X$X$X$X$X$X$X$X$X$X$X$X$X$X$X",
"$X$X$X$X$X$X$X$X$X$X$X$X$X$X$X$X$XZ.n <.p.7 X X X - $X$X$X$X$X$X$X$X$X$X$X$X$X$X$X$X$X$X$X$X$X$X$X$X",
"$X$X$X$X$X$X$X$X$X$X$X$X$X$X$X$X$XB t g =.#     o U $X$X$X$X$X$X$X$X$X$X$X$X$X$X$X$X$X$X$X$X$X$X$X$X",
"$X$X$X$X$X$X$X$X$X$X$X$X$X$X$X$X$XV : 7 L + . + O V $X$X$X$X$X$X$X$X$X$X$X$X$X$X$X$X$X$X$X$X$X$X$X$X",
"$X$X$X$X$X$X$X$X$X$X$X$X$X$X$X$X$Xd * q P q ! 6 > 3 ) $X$X$X$X$X$X$X$X$X$X$X$X$X$X$X$X$X$X$X$X$X$X$X",
"$X$X$X$X$X$X$X$X$X$X$X$X$X$X$X$X$Xa D o.D = | G 6 9 8 n.$X$X$X$X$X$X$X$X$X$X$X$X$X$X$X$X$X$X$X$X$X$X",
"$X$X$X$X$X$X$X$X$X$X$X$X$X$X$X$X$XS <.W a ; p L k = p S L.$X$X$X$X$X$X$X$X$X$X$X$X$X$X$X$X$X$X$X$X$X",
"$X$X$X$X$X$X$X$X$X$X$X$X$X$X$X$X$Xd =.S 4 * 6 D L S r...%.$X$X$X$X$X$X$X$X$X$X$X$X$X$X$X$X$X$X$X$X$X",
"$X$X$X$X$X$X$X$X$X$X$X$X$X$X$X$X$Xa -.x : 6 _ q.$.<.W  .E $X$X$X$X$X$X$X$X$X$X$X$X$X$X$X$X$X$X$X$X$X",
"$X$X$X$X$X$X$X$X$X$X$X$X$X$X$X$X$Xk -.E F D :.@X8.O.K z F $X$X$X$X$X$X$X$X$X$X$X$X$X$X$X$X$X$X$X$X$X",
"$X$X$X$X$X$X$X$X$X$X$X$X$X$X$X$X$Xr.j.=.=.c D Y.L. .G * @ Y.$X$X$X$X$X$X$X$X$X$X$X$X$X$X$X$X$X$X$X$X",
"$X$X$X$X$X$X$X$X$X$X$X$X$X$X$X$X$Xk.p.-.*.i h Y.T.| y o o { $X$X$X$X$X$X$X$X$X$X$X$X$X$X$X$X$X$X$X$X",
"$X$X$X$X$X$X$X$X$X$X$X$X$X$X$X$X{.j.9. .x h :.@X@Xj.O.# o 8 $X$X$X$X$X$X$X$X$X$X$X$X$X$X$X$X$X$X$X$X",
"$X$X$X$X$X$X$X$X$X$X$X$X$X$X$X$XJ.r.W 5 q J  X#X.Xl.r.v @ T $X$X$X$X$X$X$X$X$X$X$X$X$X$X$X$X$X$X$X$X",
"$X$X$X$X$X$X$X$X$X$X$X$X$X$X$X$X!.r.c o   e.`.s.'.v.-.0 w J $X$X$X$X$X$X$X$X$X$X$X$X$X$X$X$X$X$X$X$X",
"$X$X$X$X$X$X$X$X$X$X$X$X$X$X$X).~.y.q . + A.c.&.$.$.p 0 : < $X$X$X$X$X$X$X$X$X$X$X$X$X$X$X$X$X$X$X$X",
"$X$X$X$X$X$X$X$X$X$X$X$X$X$X$X/.j.r.1 o , 3.l g p y , @ < T $X$X$X$X$X$X$X$X$X$X$X$X$X$X$X$X$X$X$X$X",
"$X$X$X$X$X$X$X$X$X$X$X{.J.].[.x.t.k # + [ $X$X$X$X$X$X$X$X$X$X$X$X$X$X$X$X$X$X$X$X$X$X$X$X$X$X$X$X$X",
"$X$X$X$X$X$X$X$X$X$X).}.r.v.r.W D 6 & g $X$X$X$X$X$X$X$X$X$X$X$X$X$X$X$X$X$X$X$X$X$X$X$X$X$X$X$X$X$X",
"$X$X$X$X$X$X$X$X$X$X<.<.D D D g & > = 7 $X$X$X$X$X$X$X$X$X$X$X$X$X$X$X$X$X$X$X$X$X$X$X$X$X$X$X$X$X$X"
};
