/* XPM */
static char *result[] = {
/* columns rows colors chars-per-pixel */
"50 50 193 2 ",
"   c #0F0F0F",
".  c #100F0F",
"X  c #0F0F10",
"o  c #121212",
"O  c #181716",
"+  c #1C1A16",
"@  c #171818",
"#  c #1B1B1A",
"$  c #211B16",
"%  c #221F1B",
"&  c #24221E",
"*  c #2C241D",
"=  c #242423",
"-  c #2B2622",
";  c #272825",
":  c #2D2924",
">  c #232828",
",  c #2E2D2C",
"<  c #332C24",
"1  c #332E2A",
"2  c #3A2D2B",
"3  c #2F302B",
"4  c #373027",
"5  c #3F3227",
"6  c #33322B",
"7  c #3C322A",
"8  c #343432",
"9  c #3B3932",
"0  c #3C3E3D",
"q  c #43362A",
"w  c #44392D",
"e  c #4C3C2E",
"r  c #5E362D",
"t  c #433D35",
"y  c #4B3D33",
"u  c #433E3B",
"i  c #56402F",
"p  c #4D4136",
"a  c #444239",
"s  c #4C443D",
"d  c #49463B",
"f  c #534335",
"g  c #594637",
"h  c #5E4936",
"j  c #54473A",
"k  c #5C4A3A",
"l  c #624D3D",
"z  c #61473A",
"x  c #66503E",
"c  c #6B533F",
"v  c #434442",
"b  c #4E4E4C",
"n  c #554E45",
"m  c #5D4E41",
"M  c #584C4B",
"N  c #5D554D",
"B  c #55544C",
"V  c #5D5953",
"C  c #5B5C5B",
"Z  c #604F40",
"A  c #6C4A44",
"S  c #645444",
"D  c #6B5543",
"F  c #655847",
"G  c #6E5946",
"H  c #6A5748",
"J  c #6D5B4B",
"K  c #705742",
"L  c #735B47",
"P  c #725D4B",
"I  c #795F49",
"U  c #6D5F53",
"Y  c #675F59",
"T  c #655A51",
"R  c #5F6159",
"E  c #77614F",
"W  c #7B634D",
"Q  c #6F6155",
"!  c #746252",
"~  c #7E6651",
"^  c #7F6855",
"/  c #7B6A5B",
"(  c #72645A",
")  c #6B6965",
"_  c #6D6D6C",
"`  c #7F7166",
"'  c #77726F",
"]  c #7D756D",
"[  c #757474",
"{  c #7A7A79",
"}  c #86524A",
"|  c #82664F",
" . c #83684F",
".. c #8B694E",
"X. c #806751",
"o. c #836A53",
"O. c #8B6D54",
"+. c #856E5A",
"@. c #886E59",
"#. c #9A6B5B",
"$. c #8E7156",
"%. c #85715E",
"&. c #8D735B",
"*. c #907257",
"=. c #92745A",
"-. c #9B7A5E",
";. c #857465",
":. c #83756B",
">. c #8A7B6E",
",. c #937963",
"<. c #9B7C62",
"1. c #9A7765",
"2. c #897D73",
"3. c #837E79",
"4. c #877C74",
"5. c #A07F61",
"6. c #AC7E6A",
"7. c #97806D",
"8. c #9F846D",
"9. c #9B8066",
"0. c #81807F",
"q. c #8C827B",
"w. c #9F8670",
"e. c #948577",
"r. c #A38266",
"t. c #A3856A",
"y. c #AA8769",
"u. c #A7886D",
"i. c #AD8B6C",
"p. c #B18E6E",
"a. c #AD8E73",
"s. c #A58A70",
"d. c #B28C73",
"f. c #B58071",
"g. c #AF9176",
"h. c #AC9279",
"j. c #B59273",
"k. c #BB9575",
"l. c #BD9A7B",
"z. c #B7947B",
"x. c #C29E7D",
"c. c #C19975",
"v. c #C6A07E",
"b. c #8E8781",
"n. c #8F8D8B",
"m. c #818282",
"M. c #938E89",
"N. c #94918E",
"B. c #98928E",
"V. c #9B9691",
"C. c #9C9A99",
"Z. c #959390",
"A. c #AD9783",
"S. c #A5978A",
"D. c #B29E8D",
"F. c #BB9C82",
"G. c #A09890",
"H. c #A89C92",
"J. c #BCA28C",
"K. c #A9A19A",
"L. c #B5A69A",
"P. c #ABA7A3",
"I. c #B4A9A0",
"U. c #BEB1A6",
"Y. c #BDBBBA",
"T. c #BBB5B0",
"R. c #C4A182",
"E. c #CDA682",
"W. c #C8A08F",
"Q. c #C8A789",
"!. c #D6AC87",
"~. c #D8AE89",
"^. c #DAB28D",
"/. c #CDAD91",
"(. c #D1AF90",
"). c #D5B496",
"_. c #DAB291",
"`. c #DEBC9B",
"'. c #E6BB96",
"]. c #E6BE9A",
"[. c #ECBF9A",
"{. c #CBB9A9",
"}. c #EAC39E",
"|. c #D5C1AD",
" X c #C5C2BF",
".X c #DCCBBB",
"XX c #E9C9A9",
"oX c #F4C9A2",
"OX c #EFD0AF",
"+X c #F6D6B3",
"@X c #C5C5C4",
"#X c #CCC7C2",
"$X c None",
/* pixels */
"$X$X$X$X$X$X$X$X$X$X$X$X$X$X$X$X$X$X$X$X$X$X$X$X$X$Xq.z._.d.W.C.$X$X$X$X$X$X$X$X$X$X$X$X$X$X$X$X$X$X",
"$X$X$X$X$X$X$X$X$X$X$X$X$X$X$X$X$X$X$X$X$X$X$X$X$X$X( @.g.t.F.Z.$X$X$X$X$X$X$X$X$X$X$X$X$X$X$X$X$X$X",
"$X$X$X$X$X$X$X$X$X$X$X$X$X$X$X$X$X$X$X$X$X$X$X$X$Xm.m P s.%.] C $X$X$X$X$X$X$X$X$X$X$X$X$X$X$X$X$X$X",
"$X$X$X$X$X$X$X$X$X$X$X$X$X$X$X$X$X$X$X$X$X$X$XH.D./ J % m N v b $X$X$X$X$X$X$X$X$X$X$X$X$X$X$X$X$X$X",
"$X$X$X$X$X$X$X$X$X$X$X$X$X$X$X$X$X$X$X$X$X$XV.o.R.a.L k f q v C $X$X$X$X$X$X$X$X$X$X$X$X$X$X$X$X$X$X",
"$X$X$X$X$X$X$X$X$X$X$X$X$X$X$X$X$X$X$X$X$X$X( 4 W F.R.X.: z A b $X$X$X$X$X$X$X$X$X$X$X$X$X$X$X$X$X$X",
"$X$X$X$X$X$X$X$X$X$X$X$X$X$X$X$X$X$X$X$X$X4.- % : A d.R.&.Z r M $X$X$X$X$X$X$X$X$X$X$X$X$X$X$X$X$X$X",
"$X$X$X$X$X$X$X$X$X$X$X$X$X$X$X$X$X$X$X$XB.S S j p t k @.F.1.y u $X$X$X$X$X$X$X$X$X$X$X$X$X$X$X$X$X$X",
"$X$X$X$X$X$X$X$X$X$X$X$X$X$X$X$X$X$X$X$X:.8.u.*.g l < j t.k 7 n.$X$X$X$X$X$X$X$X$X$X$X$X$X$X$X$X$X$X",
"$X$X$X$X$X$X$X$X$X$X$X$X$X$X$X$X$X$X$Xq.+.d.,.K W L 4 y ;.a.l Y $X$X$X$X$X$X$X$X$X$X$X$X$X$X$X$X$X$X",
"$X$X$X$X$X$X$X$X$X$X$X$X$X$X$X$X$X$X$X/ $.g.x.r.W *.Z 5 o.F.k.;.$X$X$X$X$X$X$X$X$X$X$X$X$X$X$X$X$X$X",
"$X$X$X$X$X$X$X$X$X$X$X$X$X$X$X$X$X$XZ.E ~ r.l.l.t.| H - o.<.^.h.$X$X$X$X$X$X$X$X$X$X$X$X$X$X$X$X$X$X",
"$X$X$X$X$X$X$X$X$X$X$X$X$X$X$X$X$X$XN.k c O.i.j.-.I l & j ,.E.u.H.$X$X$X$X$X$X$X$X$X$X$X$X$X$X$X$X$X",
"$X$X$X$X$X$X$X$X$X$X$X$X$X$X$X$X$X$X{ 9 x ..$.O.I q g l H E.c.<.D.$X$X$X$X$X$X$X$X$X$X$X$X$X$X$X$X$X",
"$X$X$X$X$X$X$X$X$X$X$X$X$X$X$X$X$XN.t 6 a G z l q $ * *.k.E.j.! G.$X$X$X$X$X$X$X$X$X$X$X$X$X$X$X$X$X",
"$X$X$X$X$X$X$X$X$X$X$X$X$X$X$X$XN.,.a.a a 9 q e $ + l =.5.p.,.B C.$X$X$X$X$X$X$X$X$X$X$X$X$X$X$X$X$X",
"$X$X$X$X$X$X$X$X$X$X$X$X$X$X$X$XM.&.l.j a & $ * : & j u.O.F 1 6 Q $X$X$X$X$X$X$X$X$X$X$X$X$X$X$X$X$X",
"$X$X$X$X$X$X$X$X$X$X$X$X$X$X$X$X>.&.v.;./ v + + t a 9 J J / + & F ).$X$X$X$X$X$X$X$X$X$X$X$X$X$X$X$X",
"$X$X$X$X$X$X$X$X$X$X$X$X$X$X$X$X/ r.J.v._.0 6 : & 6 6 $.y.K.b w F Q.XX$X$X$X$X$X$X$X$X$X$X$X$X$X$X$X",
"$X$X$X$X$X$X$X$X$X$X$X$X$X$X$X$XE 9.j.l.t.# = 8 ; ; j ^ u.A.N.J G r.J.|.$X$X$X$X$X$X$X$X$X$X$X$X$X$X",
"$X$X$X$X$X$X$X$X$X$X$X$X$X$X$X$XJ W -.j.m & ; 8 = : o.n s %.$X$XP P t.R.$X$X$X$X$X$X$X$X$X$X$X$X$X$X",
"$X$X$X$X$X$X$X$X$X$X$X$X$X$X$X$XE O.y.j.: o , , % t L ! a 1.$X$X$X:.S J b.$X$X$X$X$X$X$X$X$X$X$X$X$X",
"$X$X$X$X$X$X$X$X$X$X$X$X$X$X$X$X! X.u.i.% o > ; = 2 } #.u.f.$X$X$X$X) o j S.$X$X$X$X$X$X$X$X$X$X$X$X",
"$X$X$X$X$X$X$X$X$X$X$X$X$X$X$X$X` $.%.>.> o # @ = - 6.d.R.{.$X$X$X$X$X@ @ m P.$X$X$X$X$X$X$X$X$X$X$X",
"$X$X$X$X$X$X$X$X$X$X$X$X$X$X$X@Xg.x.'.{.b o X @ = = H }.OX$X$X$X$X$X$X_ , s ] $X$X$X$X$X$X$X$X$X$X$X",
"$X$X$X$X$X$X$X$X$X$X$X$X$X$X$XP.r.z.l.w.m.X o @ @ = % u.oX+X$X$X$X$X$X$X$X' 3.$X$X$X$X$X$X$X$X$X$X$X",
"$X$X$X$X$X$X$X$X$X$X$X$X$X$X$XV.f S &./ $X8 o o X @ @ q R.oXOX$X$X$X$X$X$X$X$X$X$X$X$X$X$X$X$X$X$X$X",
"$X$X$X$X$X$X$X$X$X$X$X$X$X$X$X$X! y y ] $X$X@ X X X X o ~ _.oX|.$X$X$X$X$X$X$X$X$X$X$X$X$X$X$X$X$X$X",
"$X$X$X$X$X$X$X$X$X$X$X$X$X$X$X$X$X>.! $X$X$X$Xo .       4 k.^.(.$X$X$X$X$X$X$X$X$X$X$X$X$X$X$X$X$X$X",
"$X$X$X$X$X$X$X$X$X$X$X$X$X$X$X$X$X$X$X$X$X$X$X6 o     o h u.E.x.$X$X$X$X$X$X$X$X$X$X$X$X$X$X$X$X$X$X",
"$X$X$X$X$X$X$X$X$X$X$X$X$X$X$X$X$X$X$X$X$X$X$X[ . .   o x j.!.<.$X$X$X$X$X$X$X$X$X$X$X$X$X$X$X$X$X$X",
"$X$X$X$X$X$X$X$X$X$X$X$X$X$X$X$X$X$X$X$X$X$X$X$X- .   o 7 d.<.M Z.$X$X$X$X$X$X$X$X$X$X$X$X$X$X$X$X$X",
"$X$X$X$X$X$X$X$X$X$X$X$X$X$X$X$X$X$X$X$X$X$X$X$XQ .     + $.k a B $X$X$X$X$X$X$X$X$X$X$X$X$X$X$X$X$X",
"$X$X$X$X$X$X$X$X$X$X$X$X$X$X$X$X$X$X$X$X$X$X$X$XC @ O o O L 4 : V $X$X$X$X$X$X$X$X$X$X$X$X$X$X$X$X$X",
"$X$X$X$X$X$X$X$X$X$X$X$X$X$X$X$X$X$X$X$X$X$X$X) 6 = 6 ~ 5 W q * d $X$X$X$X$X$X$X$X$X$X$X$X$X$X$X$X$X",
"$X$X$X$X$X$X$X$X$X$X$X$X$X$X$X$X$X$X$X$X$X$Xn.8 9 6 H ~ * F ~ c a $X$X$X$X$X$X$X$X$X$X$X$X$X$X$X$X$X",
"$X$X$X$X$X$X$X$X$X$X$X$X$X$X$X$X$X$X$X$X$XL.S p = k L p & a W 9.S $X$X$X$X$X$X$X$X$X$X$X$X$X$X$X$X$X",
"$X$X$X$X$X$X$X$X$X$X$X$X$X$X$X$X$X$X$X$X$X%...5.m L D 6 * 4 x =.s $X$X$X$X$X$X$X$X$X$X$X$X$X$X$X$X$X",
"$X$X$X$X$X$X$X$X$X$X$X$X$X$X$X$X$X$X$X$X$X! o.| -.&.q._ 3 6 x -.t $X$X$X$X$X$X$X$X$X$X$X$X$X$X$X$X$X",
"$X$X$X$X$X$X$X$X$X$X$X$X$X$X$X$X$X$X$X$X$XS h K $.8.@X` G F E -.m $X$X$X$X$X$X$X$X$X$X$X$X$X$X$X$X$X",
"$X$X$X$X$X$X$X$X$X$X$X$X$X$X$X$X$X$X$X$XY.@ * D  .L.Y.D x =.=.j.t.$X$X$X$X$X$X$X$X$X$X$X$X$X$X$X$X$X",
"$X$X$X$X$X$X$X$X$X$X$X$X$X$X$X$X$X$X$X$X{ o o y  .T.Y.k i *.5.p.k.$X$X$X$X$X$X$X$X$X$X$X$X$X$X$X$X$X",
"$X$X$X$X$X$X$X$X$X$X$X$X$X$X$X$X$X$X$X$X8 o % O.j.@X#X:.z x | <.k.{.$X$X$X$X$X$X$X$X$X$X$X$X$X$X$X$X",
"$X$X$X$X$X$X$X$X$X$X$X$X$X$X$X$X$X$X$X$XT @ v r.l..X#X XF q 5 W r.D.$X$X$X$X$X$X$X$X$X$X$X$X$X$X$X$X",
"$X$X$X$X$X$X$X$X$X$X$X$X$X$X$X$X$X$X$X$XJ q u ,.v.'.u.`.e.. o c r.!.$X$X$X$X$X$X$X$X$X$X$X$X$X$X$X$X",
"$X$X$X$X$X$X$X$X$X$X$X$X$X$X$X$X$X$X$X$X< , 0 p $.$.&.k.A.@ . q y.~.).$X$X$X$X$X$X$X$X$X$X$X$X$X$X$X",
"$X$X$X$X$X$X$X$X$X$X$X$X$X$X$X$X$X$X$X$XN < # , y f h l 3., @ 1 r.j.(.$X$X$X$X$X$X$X$X$X$X$X$X$X$X$X",
"$X$X$X$X$X$X$X$X$X$X$X$X$X$X$X$X$X$X$X$X$X$X$X$X$X$X$X$X$X[ @ # h r.x.[.].J.{.$X$X$X$X$X$X$X$X$X$X$X",
"$X$X$X$X$X$X$X$X$X$X$X$X$X$X$X$X$X$X$X$X$X$X$X$X$X$X$X$X$X$Xh % 8 K W r.v.r.].).$X$X$X$X$X$X$X$X$X$X",
"$X$X$X$X$X$X$X$X$X$X$X$X$X$X$X$X$X$X$X$X$X$X$X$X$X$X$X$X$X$X4 > > & g D D D <.<.$X$X$X$X$X$X$X$X$X$X"
};
