/* XPM */
static char *result[] = {
/* columns rows colors chars-per-pixel */
"50 50 168 2 ",
"   c #2C1E1D",
".  c #29221C",
"X  c #2E1F20",
"o  c #272B2F",
"O  c #272D31",
"+  c #2D3435",
"@  c #293839",
"#  c #2B343A",
"$  c #313B3F",
"%  c #2B3E44",
"&  c #223D41",
"*  c #1F515E",
"=  c #2B434A",
"-  c #38464A",
";  c #35494E",
":  c #29485B",
">  c #2D4956",
",  c #364E57",
"<  c #304E5D",
"1  c #2C515E",
"2  c #3A565F",
"3  c #1F5761",
"4  c #1A5B78",
"5  c #2D5363",
"6  c #245E63",
"7  c #2E576C",
"8  c #235A68",
"9  c #2B596C",
"0  c #305661",
"q  c #1B6176",
"w  c #20616A",
"e  c #25686E",
"r  c #3F686C",
"t  c #2B6176",
"y  c #226C76",
"u  c #2E637C",
"i  c #3A6870",
"p  c #425B5E",
"a  c #446468",
"s  c #41777E",
"d  c #43797D",
"f  c #19718B",
"g  c #1F7A84",
"h  c #1A7D97",
"j  c #2F6987",
"k  c #2B7788",
"l  c #327C8E",
"z  c #2F7596",
"x  c #1479A7",
"c  c #507B81",
"v  c #1C8990",
"b  c #188698",
"n  c #1C9099",
"m  c #2A8795",
"M  c #308499",
"N  c #338093",
"B  c #1287A5",
"V  c #1184AE",
"C  c #1B96A4",
"Z  c #1092AA",
"A  c #1399AB",
"S  c #0F83BD",
"D  c #3791A0",
"F  c #3A9BA6",
"G  c #18ACB3",
"H  c #12AEBE",
"J  c #13A5BE",
"K  c #17B7BE",
"L  c #28A6AF",
"P  c #25B6BC",
"I  c #33B2BA",
"U  c #5B888D",
"Y  c #64979A",
"T  c #58BDBE",
"R  c #6CAFB0",
"E  c #6CB4B8",
"W  c #0A9BC6",
"Q  c #12BAC1",
"!  c #07BDDE",
"~  c #0AB2DE",
"^  c #27B8C2",
"/  c #20A8DC",
"(  c #03BEEB",
")  c #02BBFA",
"_  c #06B1F9",
"`  c #10B1FA",
"'  c #12B9FB",
"]  c #45BAC2",
"[  c #0CC8CE",
"{  c #08CCDF",
"}  c #0ED6D6",
"|  c #08D7DE",
" . c #1AD6D8",
".. c #26D3D8",
"X. c #0FC1E5",
"o. c #06CAEA",
"O. c #02CAF7",
"+. c #04C2F9",
"@. c #08C9FA",
"#. c #18C1FA",
"$. c #05D4F6",
"%. c #08DBF8",
"&. c #15D5F7",
"*. c #13D2FA",
"=. c #2FCDFB",
"-. c #3BCBF9",
";. c #2FD4FA",
":. c #30D8F8",
">. c #3ED4F9",
",. c #07EDE8",
"<. c #0CEFED",
"1. c #06F4EE",
"2. c #0BE4F5",
"3. c #0DEEF4",
"4. c #05F6F4",
"5. c #06FCF3",
"6. c #0DFEF5",
"7. c #19FDF5",
"8. c #25EBF6",
"9. c #24FCF4",
"0. c #2DFDF7",
"q. c #3BF7F1",
"w. c #34FCF5",
"e. c #33F6F1",
"r. c #4CC2C5",
"t. c #58D1D3",
"y. c #6CC1C3",
"u. c #70C8C8",
"i. c #4BC6F8",
"p. c #47DEF7",
"a. c #4ADEFA",
"s. c #56E2E3",
"d. c #4BEBF9",
"f. c #5FE9FA",
"g. c #42FDF7",
"h. c #4DFEF7",
"j. c #4BFDF8",
"k. c #4CF5F8",
"l. c #53FDFA",
"z. c #5BFEFA",
"x. c #66E7FA",
"c. c #77EEF9",
"v. c #7AEEFB",
"b. c #67F5F4",
"n. c #66FCF9",
"m. c #6AFDFB",
"M. c #6DF3F9",
"N. c #7EF8F7",
"B. c #73FEFB",
"V. c #7CFDFC",
"C. c #7DF3FA",
"Z. c #89EEEF",
"A. c #86EBEC",
"S. c #8FF0EF",
"D. c #88EFFC",
"F. c #98EAFA",
"G. c #84FEFB",
"H. c #8CFEFC",
"J. c #8EF1F2",
"K. c #95F5FC",
"L. c #9CF5FD",
"P. c #94FDFC",
"I. c #9BFDFD",
"U. c #90F2F2",
"Y. c #A9F2FE",
"T. c #A2FEFD",
"R. c #A5F2FD",
"E. c None",
/* pixels */
"E.E.E.E.E.E.E.E.E.E.E.E.E.E.E.E.E.E.E.E.E.E.E.E.E.E.E.E.E.E.E.E.E.E.E.E.E.E.E.E.E.E.E.E.E.E.E.E.E.E.",
"E.E.E.E.E.E.E.E.E.E.E.E.E.E.E.E.E.E.E.E.E.E.E.E.E.E.E.E.E.E.E.E.E.E.E.E.E.E.E.E.E.E.E.E.E.E.E.E.E.E.",
"E.E.E.E.E.E.E.E.E.E.E.E.E.E.E.E.E.E.E.E.E.E.E.E.E.E.E.E.E.E.E.E.E.E.E.E.E.E.E.E.E.E.E.E.E.E.E.E.E.E.",
"E.E.E.E.E.E.E.E.E.E.E.E.E.E.E.E.E.E.E.E.E.E.E.E.E.E.E.E.E.E.E.E.E.E.E.E.E.E.E.E.E.E.E.E.E.E.E.E.E.E.",
"E.E.E.E.E.E.E.E.E.E.E.E.E.E.E.E.E.E.E.E.E.E.E.E.E.E.E.E.E.E.E.E.E.E.E.E.E.E.E.E.E.E.E.E.E.E.E.E.E.E.",
"E.E.E.E.E.E.E.E.E.E.E.E.E.E.E.E.E.E.E.E.E.E.E.E.E.E.E.E.E.E.E.E.E.E.E.E.E.E.E.E.E.E.E.E.E.E.E.E.E.E.",
"E.E.E.E.E.E.E.E.E.E.E.E.E.E.E.E.E.E.E.E.E.E.E.E.E.E.E.E.E.E.E.E.E.E.E.E.E.E.E.E.E.E.E.E.E.E.E.E.E.E.",
"E.E.E.E.E.E.E.E.E.E.E.E.E.E.E.E.E.E.E.E.E.E.E.E.E.E.E.E.E.E.E.E.E.E.E.E.E.E.E.E.E.E.E.E.E.E.E.E.E.E.",
"E.E.E.E.E.E.E.E.E.E.E.E.E.E.E.E.E.E.E.E.E.E.E.E.E.E.E.E.E.E.E.E.E.E.E.E.E.E.E.E.E.E.E.E.E.E.E.E.E.E.",
"E.E.E.E.E.E.E.E.E.E.E.E.E.E.E.E.E.E.E.E.E.E.E.E.E.E.E.E.E.E.E.E.E.E.E.E.E.E.E.E.E.E.E.E.E.E.E.E.E.E.",
"E.E.E.E.E.E.E.E.E.E.E.E.E.E.E.E.E.E.E.E.E.E.E.E.X S x   E.E.E.E.E.E.E.E.E.E.E.E.E.E.E.E.E.E.E.E.E.E.",
"E.E.E.E.E.E.E.E.E.E.E.E.E.E.E.E.E.E.E.E.E.E.E.. x ` i.4 E.E.E.E.E.E.E.E.E.E.E.E.E.E.E.E.E.E.E.E.E.E.",
"E.E.E.E.E.E.E.E.E.E.E.E.E.E.E.E.E.E.E.E.E.E.O V _ ' F./ O E.E.E.E.E.E.E.E.E.E.E.E.E.E.E.E.E.E.E.E.E.",
"E.E.E.E.E.E.E.E.E.E.E.E.E.E.E.E.E.E.E.E.E.@ W ) ) #.Y.-.q E.E.E.E.E.E.E.E.E.E.E.E.E.E.E.E.E.E.E.E.E.",
"E.E.E.E.E.E.E.E.E.E.E.E.E.E.E.E.E.E.E.E.8 ~ +.) +.=.Y.>.B E.E.E.E.E.E.E.E.E.E.E.E.E.E.E.E.E.E.E.E.E.",
"E.E.E.E.E.E.E.E.E.E.E.E.E.E.E.E.E.E.E.3 X.a.@.O.O.x.R.;.Z E.E.E.E.E.E.E.E.E.E.E.E.E.E.E.E.E.E.E.E.E.",
"E.E.E.E.E.E.E.E.E.E.E.E.E.E.E.E.E.E.@ ! p.D.*.$.:.L.L.&.b E.E.E.E.E.E.E.E.E.E.E.E.E.E.E.E.E.E.E.E.E.",
"E.E.E.E.E.E.E.E.E.E.E.E.E.E.E.E.E.E.y %.c.L.x.x.K.L.v.$.3 E.E.E.E.E.E.E.E.E.E.E.E.E.E.E.E.E.E.E.E.E.",
"E.E.E.E.E.E.E.E.E.E.E.E.E.E.E.E.E.# g 2.C.K.K.K.K.K.d.{ = @ E.E.E.E.E.E.E.E.E.E.E.E.E.E.E.E.E.E.E.E.",
"E.E.E.E.E.E.E.E.E.E.E.E.E.E.E.E.f : y 2.M.K.H.K.K.H.8.H = y 6 E.E.E.E.E.E.E.E.E.E.E.E.E.E.E.E.E.E.E.",
"E.E.E.E.E.E.E.E.E.E.E.E.E.E.E.8 ( h 0 | k.K.H.H.H.N.3.n > v [ % E.E.E.E.E.E.E.E.E.E.E.E.E.E.E.E.E.E.",
"E.E.E.E.E.E.E.E.E.E.E.E.E.E.E.A o.J 7 Q 9.G.D.G.H.n.4.C 9 K 1.w E.E.E.E.E.E.E.E.E.E.E.E.E.E.E.E.E.E.",
"E.E.E.E.E.E.E.E.E.E.E.E.E.E.E.C b t t G 6.B.G.G.G.j.5.,.} 1.1.e E.E.E.E.E.E.E.E.E.E.E.E.E.E.E.E.E.E.",
"E.E.E.E.E.E.E.E.E.E.E.E.E.E.E.9 k t j K 6.m.G.G.G.l.5.6.6.9.<.6 E.E.E.E.E.E.E.E.E.E.E.E.E.E.E.E.E.E.",
"E.E.E.E.E.E.E.E.E.E.E.E.E.E.E.1 t j z  .7.m.V.G.G.B.9.9.h.h. .1 E.E.E.E.E.E.E.E.E.E.E.E.E.E.E.E.E.E.",
"E.E.E.E.E.E.E.E.E.E.E.E.E.E.E.E.P ^ ..7.w.V.G.G.G.G.G.V.G.g.L 1 E.E.E.E.E.E.E.E.E.E.E.E.E.E.E.E.E.E.",
"E.E.E.E.E.E.E.E.E.E.E.E.E.E.E.E...w.0.w.B.G.G.G.G.G.G.G.V.w.m 5 E.E.E.E.E.E.E.E.E.E.E.E.E.E.E.E.E.E.",
"E.E.E.E.E.E.E.E.E.E.E.E.E.E.E.E.I m.V.G.G.H.H.G.G.G.G.H.B.e.k 5 E.E.E.E.E.E.E.E.E.E.E.E.E.E.E.E.E.E.",
"E.E.E.E.E.E.E.E.E.E.E.E.E.E.E.7 m z.H.H.H.H.H.G.H.G.H.H.n.q.l 5 E.E.E.E.E.E.E.E.E.E.E.E.E.E.E.E.E.E.",
"E.E.E.E.E.E.E.E.E.E.E.E.E.E.E.7 l z.H.H.H.H.H.H.H.H.H.H.n.j.D 1 E.E.E.E.E.E.E.E.E.E.E.E.E.E.E.E.E.E.",
"E.E.E.E.E.E.E.E.E.E.E.E.E.E.E.5 F m.P.H.H.H.H.H.H.H.H.H.V.l.] : E.E.E.E.E.E.E.E.E.E.E.E.E.E.E.E.E.E.",
"E.E.E.E.E.E.E.E.E.E.E.E.E.E.E.E.r.V.P.P.P.P.P.P.P.P.P.P.H.m.s.0 E.E.E.E.E.E.E.E.E.E.E.E.E.E.E.E.E.E.",
"E.E.E.E.E.E.E.E.E.E.E.E.E.E.E.E.t.H.I.I.I.P.I.P.P.I.P.P.P.G.b.i E.E.E.E.E.E.E.E.E.E.E.E.E.E.E.E.E.E.",
"E.E.E.E.E.E.E.E.E.E.E.E.E.E.E.E.] V.I.I.I.I.I.I.I.I.I.I.I.P.B.d E.E.E.E.E.E.E.E.E.E.E.E.E.E.E.E.E.E.",
"E.E.E.E.E.E.E.E.E.E.E.E.E.E.E.E.c B.I.T.I.T.T.T.T.T.T.T.T.H.N.a E.E.E.E.E.E.E.E.E.E.E.E.E.E.E.E.E.E.",
"E.E.E.E.E.E.E.E.E.E.E.E.E.E.E.E.% y.H.I.T.T.T.I.P.T.T.T.T.H.u.$ E.E.E.E.E.E.E.E.E.E.E.E.E.E.E.E.E.E.",
"E.E.E.E.E.E.E.E.E.E.E.E.E.E.E.E.E.; E S.I.T.K.Z.A.U.I.I.S.R - E.E.E.E.E.E.E.E.E.E.E.E.E.E.E.E.E.E.E.",
"E.E.E.E.E.E.E.E.E.E.E.E.E.E.E.E.E.E.$ a Y Y d 2 , a U U p + E.E.E.E.E.E.E.E.E.E.E.E.E.E.E.E.E.E.E.E.",
"E.E.E.E.E.E.E.E.E.E.E.E.E.E.E.E.E.E.E.E.E.E.E.E.E.E.E.E.E.E.E.E.E.E.E.E.E.E.E.E.E.E.E.E.E.E.E.E.E.E.",
"E.E.E.E.E.E.E.E.E.E.E.E.E.E.E.E.E.E.E.E.E.E.E.E.E.E.E.E.E.E.E.E.E.E.E.E.E.E.E.E.E.E.E.E.E.E.E.E.E.E.",
"E.E.E.E.E.E.E.E.E.E.E.E.E.E.E.E.E.E.E.E.E.E.E.E.E.E.E.E.E.E.E.E.E.E.E.E.E.E.E.E.E.E.E.E.E.E.E.E.E.E.",
"E.E.E.E.E.E.E.E.E.E.E.E.E.E.E.E.E.E.E.E.E.E.E.E.E.E.E.E.E.E.E.E.E.E.E.E.E.E.E.E.E.E.E.E.E.E.E.E.E.E.",
"E.E.E.E.E.E.E.E.E.E.E.E.E.E.E.E.E.E.E.E.E.E.E.E.E.E.E.E.E.E.E.E.E.E.E.E.E.E.E.E.E.E.E.E.E.E.E.E.E.E.",
"E.E.E.E.E.E.E.E.E.E.E.E.E.E.E.E.E.E.E.E.E.E.E.E.E.E.E.E.E.E.E.E.E.E.E.E.E.E.E.E.E.E.E.E.E.E.E.E.E.E.",
"E.E.E.E.E.E.E.E.E.E.E.E.E.E.E.E.E.E.E.E.E.E.E.E.E.E.E.E.E.E.E.E.E.E.E.E.E.E.E.E.E.E.E.E.E.E.E.E.E.E.",
"E.E.E.E.E.E.E.E.E.E.E.E.E.E.E.E.E.E.E.E.E.E.E.E.E.E.E.E.E.E.E.E.E.E.E.E.E.E.E.E.E.E.E.E.E.E.E.E.E.E.",
"E.E.E.E.E.E.E.E.E.E.E.E.E.E.E.E.E.E.E.E.E.E.E.E.E.E.E.E.E.E.E.E.E.E.E.E.E.E.E.E.E.E.E.E.E.E.E.E.E.E.",
"E.E.E.E.E.E.E.E.E.E.E.E.E.E.E.E.E.E.E.E.E.E.E.E.E.E.E.E.E.E.E.E.E.E.E.E.E.E.E.E.E.E.E.E.E.E.E.E.E.E.",
"E.E.E.E.E.E.E.E.E.E.E.E.E.E.E.E.E.E.E.E.E.E.E.E.E.E.E.E.E.E.E.E.E.E.E.E.E.E.E.E.E.E.E.E.E.E.E.E.E.E.",
"E.E.E.E.E.E.E.E.E.E.E.E.E.E.E.E.E.E.E.E.E.E.E.E.E.E.E.E.E.E.E.E.E.E.E.E.E.E.E.E.E.E.E.E.E.E.E.E.E.E."
};
