/* XPM */
static char *result[] = {
/* columns rows colors chars-per-pixel */
"50 50 149 2 ",
"   c #2C2122",
".  c #282827",
"X  c #2D2B29",
"o  c #2D2E30",
"O  c #2B3135",
"+  c #2D383D",
"@  c #31393C",
"#  c #233C45",
"$  c #2D3A43",
"%  c #333F44",
"&  c #2E454F",
"*  c #324148",
"=  c #34484F",
"-  c #2D4652",
";  c #2B4953",
":  c #2C4958",
">  c #324C54",
",  c #22515E",
"<  c #2A525F",
"1  c #38525B",
"2  c #1E5D6B",
"3  c #275060",
"4  c #2D5366",
"5  c #255A67",
"6  c #2B5863",
"7  c #2F5769",
"8  c #2C586B",
"9  c #1F6571",
"0  c #1D6C7D",
"q  c #38666F",
"w  c #236875",
"e  c #2D607C",
"r  c #226C7C",
"t  c #306374",
"y  c #34717D",
"u  c #4E7175",
"i  c #1C7F98",
"p  c #2F6E8D",
"a  c #2B6D84",
"s  c #2C7487",
"d  c #2C728F",
"f  c #207D8E",
"g  c #127CAC",
"h  c #517F82",
"j  c #1C929E",
"k  c #26828D",
"l  c #199FA5",
"z  c #1D9BAE",
"x  c #0C89BE",
"c  c #118AB2",
"v  c #1391BA",
"b  c #2282A0",
"n  c #16ABBE",
"m  c #1DA8B9",
"M  c #14ADB4",
"N  c #2FA4B7",
"B  c #27AFB4",
"V  c #28A2B9",
"C  c #24A8BA",
"Z  c #52868B",
"A  c #548C93",
"S  c #559CA1",
"D  c #639EA1",
"F  c #68A5A9",
"G  c #6CADAF",
"H  c #69B4B5",
"J  c #71B0B1",
"K  c #74BABB",
"L  c #0E83C1",
"P  c #11ABD3",
"I  c #06ADFA",
"U  c #06B5F2",
"Y  c #18BEF8",
"T  c #17C3CC",
"R  c #1AC8CF",
"E  c #0AC7DD",
"W  c #30C5C9",
"Q  c #2FD6DC",
"!  c #34D0D0",
"~  c #3ADDDA",
"^  c #09C5E1",
"/  c #05D1EF",
"(  c #09C4F9",
")  c #0ACCFB",
"_  c #06D0F4",
"`  c #06DCF8",
"'  c #23C8EC",
"]  c #34CDFA",
"[  c #0AE2E4",
"{  c #12E4E3",
"}  c #04E4F5",
"|  c #09E4F1",
" . c #15EAF6",
".. c #03F1F5",
"X. c #05FCF5",
"o. c #14FDF5",
"O. c #1DFCF4",
"+. c #2BE4E6",
"@. c #3FE8E8",
"#. c #3EEEF3",
"$. c #39E6F8",
"%. c #21FDF6",
"&. c #28FBF5",
"*. c #32FCF5",
"=. c #3CFCF7",
"-. c #36FEF8",
";. c #57C2C1",
":. c #4AD7D3",
">. c #47DEDE",
",. c #76CACA",
"<. c #75D5D6",
"1. c #43CDFB",
"2. c #71DFE1",
"3. c #4AEFF6",
"4. c #52E8FA",
"5. c #45FEF5",
"6. c #48FDF7",
"7. c #47FEFA",
"8. c #59F6F7",
"9. c #55FCF6",
"0. c #5DFEFB",
"q. c #5CF4F9",
"w. c #63E8FB",
"e. c #7CE7F9",
"r. c #68F2F2",
"t. c #61FDF6",
"y. c #6BF9F6",
"u. c #6AFDF8",
"i. c #77F4F5",
"p. c #7BF5F3",
"a. c #79F7F8",
"s. c #74FEFC",
"d. c #7AFDFB",
"f. c #89E7FB",
"g. c #8EE9FA",
"h. c #81EBFA",
"j. c #84F7FA",
"k. c #84FDFB",
"l. c #8BFDFB",
"z. c #92F6F6",
"x. c #9CF4F6",
"c. c #93F9F5",
"v. c #94FDFB",
"b. c #9CFCFC",
"n. c #A3F6FD",
"m. c #ABF5FC",
"M. c #A2FCFC",
"N. c #A8FEFE",
"B. c None",
/* pixels */
"B.B.B.B.B.B.B.B.B.B.B.B.B.B.B.B.B.B.B.B.B.B.B.B.B.B.B.B.B.B.B.B.B.B.B.B.B.B.B.B.B.B.B.B.B.B.B.B.B.B.",
"B.B.B.B.B.B.B.B.B.B.B.B.B.B.B.B.B.B.B.B.B.B.B.B.B.B.B.B.B.B.B.B.B.B.B.B.B.B.B.B.B.B.B.B.B.B.B.B.B.B.",
"B.B.B.B.B.B.B.B.B.B.B.B.B.B.B.B.B.B.B.B.B.B.B.B.B.B.B.B.B.B.B.B.B.B.B.B.B.B.B.B.B.B.B.B.B.B.B.B.B.B.",
"B.B.B.B.B.B.B.B.B.B.B.B.B.B.B.B.B.B.B.B.B.B.B.B.B.B.B.B.B.B.B.B.B.B.B.B.B.B.B.B.B.B.B.B.B.B.B.B.B.B.",
"B.B.B.B.B.B.B.B.B.B.B.B.B.B.B.B.B.B.B.B.B.B.B.B.B.B.B.B.B.B.B.B.B.B.B.B.B.B.B.B.B.B.B.B.B.B.B.B.B.B.",
"B.B.B.B.B.B.B.B.B.B.B.B.B.B.B.B.B.B.B.B.B.B.B.B.B.B.B.B.B.B.B.B.B.B.B.B.B.B.B.B.B.B.B.B.B.B.B.B.B.B.",
"B.B.B.B.B.B.B.B.B.B.B.B.B.B.B.B.B.B.B.B.B.B.B.B.B.B.B.B.B.B.B.B.B.B.B.B.B.B.B.B.B.B.B.B.B.B.B.B.B.B.",
"B.B.B.B.B.B.B.B.B.B.B.B.B.B.B.B.B.B.B.B.B.B.B.B.B.B.B.B.B.B.B.B.B.B.B.B.B.B.B.B.B.B.B.B.B.B.B.B.B.B.",
"B.B.B.B.B.B.B.B.B.B.B.B.B.B.B.B.B.B.B.B.B.B.B.B.B.B.B.B.B.B.B.B.B.B.B.B.B.B.B.B.B.B.B.B.B.B.B.B.B.B.",
"B.B.B.B.B.B.B.B.B.B.B.B.B.B.B.B.B.B.B.B.B.B.B.B.B.B.B.B.B.B.B.B.B.B.B.B.B.B.B.B.B.B.B.B.B.B.B.B.B.B.",
"B.B.B.B.B.B.B.B.B.B.B.B.B.B.B.B.B.B.B.B.B.B.B.B.B.B.B.B.B.B.B.B.B.B.B.B.B.B.B.B.B.B.B.B.B.B.B.B.B.B.",
"B.B.B.B.B.B.B.B.B.B.B.B.B.B.B.B.B.B.B.B.B.B.B.B.B.B.B.B.B.B.B.B.B.B.B.B.B.B.B.B.B.B.B.B.B.B.B.B.B.B.",
"B.B.B.B.B.B.B.B.B.B.B.B.B.B.B.B.B.B.B.B.B.B.B.B.B.B.B.B.B.B.B.B.B.B.B.B.B.B.B.B.B.B.B.B.B.B.B.B.B.B.",
"B.B.B.B.B.B.B.B.B.B.B.B.B.B.B.B.B.B.B.B.B.B.B.B.B.B.B.B.B.B.B.B.B.B.B.B.B.B.B.B.B.B.B.B.B.B.B.B.B.B.",
"B.B.B.B.B.B.B.B.B.B.B.B.B.B.B.B.B.B.B.B.B.B.B.B.B.B.B.B.B.B.B.B.B.B.B.B.B.B.B.B.B.B.B.B.B.B.B.B.B.B.",
"B.B.B.B.B.B.B.B.B.B.B.B.B.B.B.B.B.B.B.B.B.B.B.B.B.B.B.B.B.B.B.B.B.B.B.B.B.B.B.B.B.B.B.B.B.B.B.B.B.B.",
"B.B.B.B.B.B.B.B.B.B.B.B.B.B.B.B.B.B.B.B.B.B.B.B.B.X L # B.B.B.B.B.B.B.B.B.B.B.B.B.B.B.B.B.B.B.B.B.B.",
"B.B.B.B.B.B.B.B.B.B.B.B.B.B.B.B.B.B.B.B.B.B.B.B.  g I x B.B.B.B.B.B.B.B.B.B.B.B.B.B.B.B.B.B.B.B.B.B.",
"B.B.B.B.B.B.B.B.B.B.B.B.B.B.B.B.B.B.B.B.B.B.B.o c Y 1.U # B.B.B.B.B.B.B.B.B.B.B.B.B.B.B.B.B.B.B.B.B.",
"B.B.B.B.B.B.B.B.B.B.B.B.B.B.B.B.B.B.B.B.B.X 3 P ] f.f.( 2 B.B.B.B.B.B.B.B.B.B.B.B.B.B.B.B.B.B.B.B.B.",
"B.B.B.B.B.B.B.B.B.B.B.B.B.B.B.B.B.B.B.B.O 0 ' e.m.m.h.) 9 X B.B.B.B.B.B.B.B.B.B.B.B.B.B.B.B.B.B.B.B.",
"B.B.B.B.B.B.B.B.B.B.B.B.B.B.B.B.B.B.O + r / w.m.m.m.w._ 5 $ B.B.B.B.B.B.B.B.B.B.B.B.B.B.B.B.B.B.B.B.",
"B.B.B.B.B.B.B.B.B.B.B.B.B.B.B.B.B.B.$ ; ^ ` 4.b.n.n.$.E < & B.B.B.B.B.B.B.B.B.B.B.B.B.B.B.B.B.B.B.B.",
"B.B.B.B.B.B.B.B.B.B.B.B.B.B.B.B.B.$ 3 w | } 3.b.v.j. .n 8 4 ; B.B.B.B.B.B.B.B.B.B.B.B.B.B.B.B.B.B.B.",
"B.B.B.B.B.B.B.B.B.B.B.B.B.B.B.B.B.< v r #.q.k.v.v.q...z e M 4 - B.B.B.B.B.B.B.B.B.B.B.B.B.B.B.B.B.B.",
"B.B.B.B.B.B.B.B.B.B.B.B.B.B.B.B.B.i ^ a +.l.l.l.k.&.X.m d [ l : B.B.B.B.B.B.B.B.B.B.B.B.B.B.B.B.B.B.",
"B.B.B.B.B.B.B.B.B.B.B.B.B.B.B.B.B.f ` b R s.k.l.d.o.X.{ T O.{ 7 B.B.B.B.B.B.B.B.B.B.B.B.B.B.B.B.B.B.",
"B.B.B.B.B.B.B.B.B.B.B.B.B.B.B.B.- 6 j d C 7.l.k.d.%.o.o.o.6.*.k B.B.B.B.B.B.B.B.B.B.B.B.B.B.B.B.B.B.",
"B.B.B.B.B.B.B.B.B.B.B.B.B.B.B.B.- 4 s p V *.l.k.k.6.O.%.O.u.9.B B.B.B.B.B.B.B.B.B.B.B.B.B.B.B.B.B.B.",
"B.B.B.B.B.B.B.B.B.B.B.B.B.B.B.B.- 7 W N Q -.k.l.l.k.9.5.t.j.y.! B.B.B.B.B.B.B.B.B.B.B.B.B.B.B.B.B.B.",
"B.B.B.B.B.B.B.B.B.B.B.B.B.B.B.B.- t @.=.=.5.l.l.l.l.l.l.l.l.a.~ B.B.B.B.B.B.B.B.B.B.B.B.B.B.B.B.B.B.",
"B.B.B.B.B.B.B.B.B.B.B.B.B.B.B.B.B.y r.u.0.d.l.l.l.v.l.l.v.v.j.>.B.B.B.B.B.B.B.B.B.B.B.B.B.B.B.B.B.B.",
"B.B.B.B.B.B.B.B.B.B.B.B.B.B.B.B.B.y a.v.l.v.v.v.l.l.v.v.v.v.j.:.B.B.B.B.B.B.B.B.B.B.B.B.B.B.B.B.B.B.",
"B.B.B.B.B.B.B.B.B.B.B.B.B.B.B.B.B.q p.b.v.v.b.v.b.v.v.b.b.c.p.;.B.B.B.B.B.B.B.B.B.B.B.B.B.B.B.B.B.B.",
"B.B.B.B.B.B.B.B.B.B.B.B.B.B.B.B.B.> 2.v.M.b.b.b.b.v.b.M.N.b.d.A B.B.B.B.B.B.B.B.B.B.B.B.B.B.B.B.B.B.",
"B.B.B.B.B.B.B.B.B.B.B.B.B.B.B.B.B.@ S v.N.M.M.M.M.M.b.M.N.v.<.= B.B.B.B.B.B.B.B.B.B.B.B.B.B.B.B.B.B.",
"B.B.B.B.B.B.B.B.B.B.B.B.B.B.B.B.B.B.* H x.N.N.M.b.b.M.b.z.,.1 B.B.B.B.B.B.B.B.B.B.B.B.B.B.B.B.B.B.B.",
"B.B.B.B.B.B.B.B.B.B.B.B.B.B.B.B.B.B.B.@ u J K D Z Z F G h % B.B.B.B.B.B.B.B.B.B.B.B.B.B.B.B.B.B.B.B.",
"B.B.B.B.B.B.B.B.B.B.B.B.B.B.B.B.B.B.B.B.B.B.B.B.B.B.B.B.B.B.B.B.B.B.B.B.B.B.B.B.B.B.B.B.B.B.B.B.B.B.",
"B.B.B.B.B.B.B.B.B.B.B.B.B.B.B.B.B.B.B.B.B.B.B.B.B.B.B.B.B.B.B.B.B.B.B.B.B.B.B.B.B.B.B.B.B.B.B.B.B.B.",
"B.B.B.B.B.B.B.B.B.B.B.B.B.B.B.B.B.B.B.B.B.B.B.B.B.B.B.B.B.B.B.B.B.B.B.B.B.B.B.B.B.B.B.B.B.B.B.B.B.B.",
"B.B.B.B.B.B.B.B.B.B.B.B.B.B.B.B.B.B.B.B.B.B.B.B.B.B.B.B.B.B.B.B.B.B.B.B.B.B.B.B.B.B.B.B.B.B.B.B.B.B.",
"B.B.B.B.B.B.B.B.B.B.B.B.B.B.B.B.B.B.B.B.B.B.B.B.B.B.B.B.B.B.B.B.B.B.B.B.B.B.B.B.B.B.B.B.B.B.B.B.B.B.",
"B.B.B.B.B.B.B.B.B.B.B.B.B.B.B.B.B.B.B.B.B.B.B.B.B.B.B.B.B.B.B.B.B.B.B.B.B.B.B.B.B.B.B.B.B.B.B.B.B.B.",
"B.B.B.B.B.B.B.B.B.B.B.B.B.B.B.B.B.B.B.B.B.B.B.B.B.B.B.B.B.B.B.B.B.B.B.B.B.B.B.B.B.B.B.B.B.B.B.B.B.B.",
"B.B.B.B.B.B.B.B.B.B.B.B.B.B.B.B.B.B.B.B.B.B.B.B.B.B.B.B.B.B.B.B.B.B.B.B.B.B.B.B.B.B.B.B.B.B.B.B.B.B.",
"B.B.B.B.B.B.B.B.B.B.B.B.B.B.B.B.B.B.B.B.B.B.B.B.B.B.B.B.B.B.B.B.B.B.B.B.B.B.B.B.B.B.B.B.B.B.B.B.B.B.",
"B.B.B.B.B.B.B.B.B.B.B.B.B.B.B.B.B.B.B.B.B.B.B.B.B.B.B.B.B.B.B.B.B.B.B.B.B.B.B.B.B.B.B.B.B.B.B.B.B.B.",
"B.B.B.B.B.B.B.B.B.B.B.B.B.B.B.B.B.B.B.B.B.B.B.B.B.B.B.B.B.B.B.B.B.B.B.B.B.B.B.B.B.B.B.B.B.B.B.B.B.B.",
"B.B.B.B.B.B.B.B.B.B.B.B.B.B.B.B.B.B.B.B.B.B.B.B.B.B.B.B.B.B.B.B.B.B.B.B.B.B.B.B.B.B.B.B.B.B.B.B.B.B."
};
