/* XPM */
static char *result[] = {
/* columns rows colors chars-per-pixel */
"50 50 204 2 ",
"   c #292626",
".  c #2A3434",
"X  c #26313B",
"o  c #2A3638",
"O  c #2E3F47",
"+  c #303E41",
"@  c #2C434A",
"#  c #224549",
"$  c #304247",
"%  c #2A4A54",
"&  c #364C53",
"*  c #25565B",
"=  c #3B555C",
"-  c #1C526D",
";  c #1D5869",
":  c #1B5D75",
">  c #2E4F62",
",  c #2F5B6D",
"<  c #2B5765",
"1  c #365A63",
"2  c #1F676D",
"3  c #1D787F",
"4  c #38616D",
"5  c #2E647D",
"6  c #276976",
"7  c #3A6978",
"8  c #3B737B",
"9  c #485D60",
"0  c #456C75",
"q  c #1A5F82",
"w  c #166B89",
"e  c #18778B",
"r  c #157998",
"t  c #2C6D84",
"y  c #277687",
"u  c #387B89",
"i  c #2B7B90",
"p  c #2D7E9A",
"a  c #2E7490",
"s  c #307B9C",
"d  c #487781",
"f  c #517C84",
"g  c #1A8489",
"h  c #1A8E95",
"j  c #1E8490",
"k  c #1C939C",
"l  c #179199",
"z  c #3D858D",
"x  c #2D819C",
"c  c #2F8093",
"v  c #3E8B96",
"b  c #378C9D",
"n  c #1B99A5",
"m  c #1184B1",
"M  c #2E85A4",
"N  c #2C8DA4",
"B  c #2D8DAD",
"V  c #2699AE",
"C  c #3191AC",
"Z  c #2C8EB0",
"A  c #2B92B2",
"S  c #2E9ABA",
"D  c #16A5A8",
"F  c #12B5B8",
"G  c #25ABAD",
"H  c #24ABBE",
"J  c #20A2B0",
"K  c #34A2B9",
"L  c #498489",
"P  c #598F97",
"I  c #5D939A",
"U  c #60898E",
"Y  c #66989A",
"T  c #509DA2",
"R  c #69A6AA",
"E  c #74B7B9",
"W  c #0C99C6",
"Q  c #079DDD",
"!  c #09AECB",
"~  c #0BB9C7",
"^  c #0AA2D3",
"/  c #09B1DE",
"(  c #2BA9C5",
")  c #36BFD2",
"_  c #089FE0",
"`  c #069DEB",
"'  c #06BAEF",
"]  c #03ABFC",
"[  c #05A5F1",
"{  c #03B4FB",
"}  c #03BBFB",
"|  c #06B8F7",
" . c #5DBFC2",
".. c #09C3DB",
"X. c #13C9D2",
"o. c #0DD7D4",
"O. c #1ADBDE",
"+. c #28C8D2",
"@. c #35CBD7",
"#. c #27D0D0",
"$. c #3AD4DB",
"%. c #06C9E8",
"&. c #06DAEC",
"*. c #14DEE4",
"=. c #1ADDE4",
"-. c #03C6F5",
";. c #01CFF7",
":. c #03C3FA",
">. c #03CAF9",
",. c #1EC2FC",
"<. c #02D9F6",
"1. c #02D3F8",
"2. c #08DCF8",
"3. c #16D7F8",
"4. c #26CEFB",
"5. c #2BD6FA",
"6. c #04E5ED",
"7. c #18EAEA",
"8. c #17E4E2",
"9. c #05F2EE",
"0. c #0CF1EC",
"q. c #05E5F6",
"w. c #0EE5F7",
"e. c #04EDF5",
"r. c #09E6F8",
"t. c #1AE4F7",
"y. c #03F4F5",
"u. c #03FBF3",
"i. c #0BFDF4",
"p. c #0BF2F5",
"a. c #15FCF5",
"s. c #1BFDF5",
"d. c #1AF6F5",
"f. c #2DE2E4",
"g. c #24EAE9",
"h. c #32ECED",
"j. c #36E2E6",
"k. c #2DF3EF",
"l. c #29E3F9",
"z. c #3AEAF9",
"x. c #2BF3F4",
"c. c #25FDF5",
"v. c #2AFDF4",
"b. c #23FCF8",
"n. c #28FEF9",
"m. c #36FCF5",
"M. c #3DFCF5",
"N. c #3AFBF4",
"B. c #48D4D9",
"V. c #5AD5D8",
"C. c #65C7CA",
"Z. c #70CDCE",
"A. c #78D6D6",
"S. c #49DDE0",
"D. c #4EDCFC",
"F. c #50D3FB",
"G. c #61DCFC",
"H. c #4CEBE9",
"J. c #50E1E4",
"K. c #4DEDF6",
"L. c #54E3FA",
"P. c #5CEFF6",
"I. c #46F4F5",
"U. c #48F7F3",
"Y. c #43FCF5",
"T. c #4BFCF6",
"R. c #43FDF8",
"E. c #4CFDF9",
"W. c #4EF5FA",
"Q. c #53FCF6",
"!. c #53FDF9",
"~. c #5CFEF9",
"^. c #57F6F2",
"/. c #6FEAE9",
"(. c #6BE3FC",
"). c #6CEDFB",
"_. c #60EEF8",
"`. c #74ECFA",
"'. c #7AE6FB",
"]. c #61F9F6",
"[. c #64FDFA",
"{. c #6DFEFB",
"}. c #6AF6F5",
"|. c #7DF9F6",
" X c #75FDFB",
".X c #7BFDFB",
"XX c #78F5FA",
"oX c #80DEDF",
"OX c #8BE8EA",
"+X c #82E2E2",
"@X c #91E9E9",
"#X c #8CEDFC",
"$X c #84EEFC",
"%X c #9AEEFC",
"&X c #83F7FA",
"*X c #84FDFB",
"=X c #8BFDFB",
"-X c #92F4F5",
";X c #93FCFB",
":X c #9CFCFA",
">X c #96F7F7",
",X c #A3FCFC",
"<X c #ABFDFD",
"1X c None",
/* pixels */
"1X1X1X1X1X1X1X1X1X1X1X1X1X1X1X1X1X1X1X1X1X1X1X1X1X1X1X1X1X1X1X1X1X1X1X1X1X1X1X1X1X1X1X1X1X1X1X1X1X1X",
"1X1X1X1X1X1X1X1X1X1X1X1X1X1X1X1X1X1X1X1X1X1X1X1X1X- 1X1X1X1X1X1X1X1X1X1X1X1X1X1X1X1X1X1X1X1X1X1X1X1X",
"1X1X1X1X1X1X1X1X1X1X1X1X1X1X1X1X1X1X1X1X1X1X1X1XX ` q 1X1X1X1X1X1X1X1X1X1X1X1X1X1X1X1X1X1X1X1X1X1X1X",
"1X1X1X1X1X1X1X1X1X1X1X1X1X1X1X1X1X1X1X1X1X1X1X1X: ] [ - 1X1X1X1X1X1X1X1X1X1X1X1X1X1X1X1X1X1X1X1X1X1X",
"1X1X1X1X1X1X1X1X1X1X1X1X1X1X1X1X1X1X1X1X1X1X1X  Q ] ] _ X 1X1X1X1X1X1X1X1X1X1X1X1X1X1X1X1X1X1X1X1X1X",
"1X1X1X1X1X1X1X1X1X1X1X1X1X1X1X1X1X1X1X1X1X1X1Xm { { { { w 1X1X1X1X1X1X1X1X1X1X1X1X1X1X1X1X1X1X1X1X1X",
"1X1X1X1X1X1X1X1X1X1X1X1X1X1X1X1X1X1X1X1X1X1Xe { { { { { W 1X1X1X1X1X1X1X1X1X1X1X1X1X1X1X1X1X1X1X1X1X",
"1X1X1X1X1X1X1X1X1X1X1X1X1X1X1X1X1X1X1X1X1Xw | } { 4.F.} ^ 1X1X1X1X1X1X1X1X1X1X1X1X1X1X1X1X1X1X1X1X1X",
"1X1X1X1X1X1X1X1X1X1X1X1X1X1X1X1X1X1X1X1X; ' } :.} G.'.} W 1X1X1X1X1X1X1X1X1X1X1X1X1X1X1X1X1X1X1X1X1X",
"1X1X1X1X1X1X1X1X1X1X1X1X1X1X1X1X1X1X1Xo ' :.:.:.4.%X(.:.h 1X1X1X1X1X1X1X1X1X1X1X1X1X1X1X1X1X1X1X1X1X",
"1X1X1X1X1X1X1X1X1X1X1X1X1X1X1X1X1X1X1Xe -.-.:.>.(.%XD.>.: 1X1X1X1X1X1X1X1X1X1X1X1X1X1X1X1X1X1X1X1X1X",
"1X1X1X1X1X1X1X1X1X1X1X1X1X1X1X1X1X1X1X! ;.;.;.5.#X#X5.-.# 1X1X1X1X1X1X1X1X1X1X1X1X1X1X1X1X1X1X1X1X1X",
"1X1X1X1X1X1X1X1X1X1X1X1X1X1X1X1X1X1X1X%.1.1.1.L.$XXX3.%.. 1X1X1X1X1X1X1X1X1X1X1X1X1X1X1X1X1X1X1X1X1X",
"1X1X1X1X1X1X1X1X1X1X1X1X1X1X1X1X1X1X1X%.1.<.1.L.`.`.3./ . 1X1X1X1X1X1X1X1X1X1X1X1X1X1X1X1X1X1X1X1X1X",
"1X1X1X1X1X1X1X1X1X1X1X1X1X1X1X1X1X1X1X%.2.2.<.l.`.).3...o 1X1X1X1X1X1X1X1X1X1X1X1X1X1X1X1X1X1X1X1X1X",
"1X1X1X1X1X1X1X1X1X1X1X1X1X1X1X1X1X1X1X~ 5.K.w.2.z._.z.&.* 1X1X1X1X1X1X1X1X1X1X1X1X1X1X1X1X1X1X1X1X1X",
"1X1X1X1X1X1X1X1X1X1X1X1X1X1X1X1X1X1X1Xg r.XX_.t.q.t.l.w.k o 1X1X2 1X1X1X1X1X1X1X1X1X1X1X1X1X1X1X1X1X",
"1X1X1X1X1X1X1X1X1X1X1X1X1X1X1X1X1X1X1X@ ..I.;X&Xz.r.e.q.6.l * y &.* 1X1X1X1X1X1X1X1X1X1X1X1X1X1X1X1X",
"1X1X1X1X1X1X1X1X1X1X1X1X1X1X1X1X1X1X1X1X6 8.}.#X;XXXx.r.e.e.6.y.e.h 1X1X1X1X1X1X1X1X1X1X1X1X1X1X1X1X",
"1X1X1X1X1X1X1X1X1X1X1X1X1X1X1X1X1X1X1X1X% j 7.XX=X=X&XW.p.y.y.y.y.D 1X1X1X1X1X1X1X1X1X1X1X1X1X1X1X1X",
"1X1X1X1X1X1X1X1X1X1X1X1X1X1X1X1X1X1Xj F > < n d.XX*X=X*XI.y.u.y.y.g 1X1X1X1X1X1X1X1X1X1X1X1X1X1X1X1X",
"1X1X1X1X1X1X1X1X1X1X1X1X1X1X1X1X1X1XD 9.y 5 t X.c.*X*X*X.Xa.u.u.9.* 1X1X1X1X1X1X1X1X1X1X1X1X1X1X1X1X",
"1X1X1X1X1X1X1X1X1X1X1X1X1X1X1X1X1X* o.u.n t a J u.!.*X*X*Xc.u.u.F @ 1X1X1X1X1X1X1X1X1X1X1X1X1X1X1X1X",
"1X1X1X1X1X1X1X1X1X1X1X1X1X1X1X1X1Xn i.i.( p M A i.v..X*X Xa.i.9.6 % 1X1X1X1X1X1X1X1X1X1X1X1X1X1X1X1X",
"1X1X1X1X1X1X1X1X1X1X1X1X1X1X1X1Xy 0.i.i.*.Z Z +.i.a..X*X~.i.i.J 4 > 1X1X1X1X1X1X1X1X1X1X1X1X1X1X1X1X",
"1X1X1X1X1X1X1X1X1X1X1X1X1X1X1X* 8.a.v.n.a.7.*.a.a.a. X*Xm.a.O.i 5 , 1X1X1X1X1X1X1X1X1X1X1X1X1X1X1X1X",
"1X1X1X1X1X1X1X1X1X1X1X1X1X1X1XG s.s.!.!.s.s.s.s.s.v..X Xs.a.H s i t 1X1X1X1X1X1X1X1X1X1X1X1X1X1X1X1X",
"1X1X1X1X1X1X1X1X1X1X1X1X1X1X1Xg.s.c.[.*XM.s.s.b.c.~.*X!.c.k.S M M #.6 1X1X1X1X1X1X1X1X1X1X1X1X1X1X1X",
"1X1X1X1X1X1X1X1X1X1X1X1X1X1X1Xc.v.n.~.*X*X~.R.E.{.*X*XY.c.g.S B V x.G 1X1X1X1X1X1X1X1X1X1X1X1X1X1X1X",
"1X1X1X1X1X1X1X1X1X1X1X1X1X1X1Xk.f.f.M..X*X=X*X=X*X*X.Xm.v.k.( B @.v.@.1X1X1X1X1X1X1X1X1X1X1X1X1X1X1X",
"1X1X1X1X1X1X1X1X1X1X1X1X1X1X1X@.N C h.R. X*X=X*X=X*X.XN.m.N.h.j.R.M.B.1X1X1X1X1X1X1X1X1X1X1X1X1X1X1X",
"1X1X1X1X1X1X1X1X1X1X1X1X1X1X1Xc x B @.M.Y..X*X=X=X*X|.M.N.N.Y.N.R.M.B., 1X1X1X1X1X1X1X1X1X1X1X1X1X1X",
"1X1X1X1X1X1X1X1X1X1X1X1X1X1X1Xy p Z ) R.R. X=X=X=X=X=X!.Y.E.T.Y.T.T.B.4 1X1X1X1X1X1X1X1X1X1X1X1X1X1X",
"1X1X1X1X1X1X1X1X1X1X1X1X1X1X1Xt p Z ) R.E.*X=X=X=X=X=X.X~.Q.U.U.U.U.J.t 1X1X1X1X1X1X1X1X1X1X1X1X1X1X",
"1X1X1X1X1X1X1X1X1X1X1X1X1X1X1Xt p Z S.E.~.=X=X;X;X=X=X;X;X*X|.].!.Q.H.u 1X1X1X1X1X1X1X1X1X1X1X1X1X1X",
"1X1X1X1X1X1X1X1X1X1X1X1X1X1X1Xb p K K.!..X;X;X=X=X=X;X=X;X;X:X;X[.[.^.u 1X1X1X1X1X1X1X1X1X1X1X1X1X1X",
"1X1X1X1X1X1X1X1X1X1X1X1X1X1X1XV.J.P.!.[.=X;X;X;X;X;X;X=X;X:X;X;X|.~.].v 1X1X1X1X1X1X1X1X1X1X1X1X1X1X",
"1X1X1X1X1X1X1X1X1X1X1X1X1X1X1XV.[.[.[.*X:X;X;X;X;X>X;X;X;X;X;X-X;X{.].v 1X1X1X1X1X1X1X1X1X1X1X1X1X1X",
"1X1X1X1X1X1X1X1X1X1X1X1X1X1X1XV.[.[. X;X;X;X>X>X;X;X;X>X-X;X>X:X:X X}.z 1X1X1X1X1X1X1X1X1X1X1X1X1X1X",
"1X1X1X1X1X1X1X1X1X1X1X1X1X1X1XV.{. X*X:X:X:X:X>X:X,X:X:X;X>X:X:X:X X}.8 1X1X1X1X1X1X1X1X1X1X1X1X1X1X",
"1X1X1X1X1X1X1X1X1X1X1X1X1X1X1XC. X X;X:X,X:X:X,X,X,X,X,X:X:X:X:X:X X/.1 1X1X1X1X1X1X1X1X1X1X1X1X1X1X",
"1X1X1X1X1X1X1X1X1X1X1X1X1X1X1XT .X|.:X:X,X:X:X,X,X,X,X,X,X:X:X:X;X XC.@ 1X1X1X1X1X1X1X1X1X1X1X1X1X1X",
"1X1X1X1X1X1X1X1X1X1X1X1X1X1X1X7 |.*X;X,X,X:X:X<X,X<X,X,X,X,X,X,X*X&XL 1X1X1X1X1X1X1X1X1X1X1X1X1X1X1X",
"1X1X1X1X1X1X1X1X1X1X1X1X1X1X1X$ A.=X=X,X,X<X<X,X<X,X;X:X,X,X,X;X*XZ.$ 1X1X1X1X1X1X1X1X1X1X1X1X1X1X1X",
"1X1X1X1X1X1X1X1X1X1X1X1X1X1X1X1X0 :X;X:X<X<X<X,X;X;X;X;X=X;X;X=XoX1 1X1X1X1X1X1X1X1X1X1X1X1X1X1X1X1X",
"1X1X1X1X1X1X1X1X1X1X1X1X1X1X1X1Xo U @X,X:X>X,X:XOX+XOX-X;X;X-XE = 1X1X1X1X1X1X1X1X1X1X1X1X1X1X1X1X1X",
"1X1X1X1X1X1X1X1X1X1X1X1X1X1X1X1X1X1X9 Y E R P f 0 , 4 d Y Y 0 + 1X1X1X1X1X1X1X1X1X1X1X1X1X1X1X1X1X1X",
"1X1X1X1X1X1X1X1X1X1X1X1X1X1X1X1X1X1X1X1X1X1X1X& & @ 1X1X1X1X1X1X1X1X1X1X1X1X1X1X1X1X1X1X1X1X1X1X1X1X",
"1X1X1X1X1X1X1X1X1X1X1X1X1X1X1X1X1X1X1X1X1X1X1X1X1X1X1X1X1X1X1X1X1X1X1X1X1X1X1X1X1X1X1X1X1X1X1X1X1X1X",
"1X1X1X1X1X1X1X1X1X1X1X1X1X1X1X1X1X1X1X1X1X1X1X1X1X1X1X1X1X1X1X1X1X1X1X1X1X1X1X1X1X1X1X1X1X1X1X1X1X1X"
};
