/* XPM */
static char *result[] = {
/* columns rows colors chars-per-pixel */
"50 50 178 2 ",
"   c #2B1E1D",
".  c #2A231F",
"X  c #2A2623",
"o  c #292826",
"O  c #2B282C",
"+  c #26332F",
"@  c #262F31",
"#  c #263334",
"$  c #2A3533",
"%  c #2E3438",
"&  c #313B3E",
"*  c #293D47",
"=  c #303941",
"-  c #22464D",
";  c #3D4548",
":  c #3C494B",
">  c #32444B",
",  c #2C4D5D",
"<  c #214A55",
"1  c #334B52",
"2  c #225656",
"3  c #215159",
"4  c #235859",
"5  c #3F595F",
"6  c #39565B",
"7  c #18586C",
"8  c #1C5666",
"9  c #2B5463",
"0  c #1F7A7F",
"q  c #1C7273",
"w  c #236E75",
"e  c #316674",
"r  c #22747D",
"t  c #4C6F71",
"y  c #52787B",
"u  c #17648D",
"i  c #177888",
"p  c #157B93",
"a  c #2D6982",
"s  c #326F89",
"d  c #277887",
"f  c #0F7BB0",
"g  c #597D80",
"h  c #1A8C94",
"j  c #218087",
"k  c #37838C",
"l  c #288295",
"z  c #2F889C",
"x  c #238D9A",
"c  c #398691",
"v  c #1182AD",
"b  c #119EA5",
"n  c #1185B3",
"m  c #0F92B7",
"M  c #3690A0",
"N  c #15A4AB",
"B  c #11B0B6",
"V  c #11B7BE",
"C  c #3FA1A7",
"Z  c #458288",
"A  c #5D8789",
"S  c #5C8C8D",
"D  c #4B8F91",
"F  c #619597",
"G  c #659899",
"H  c #629FA5",
"J  c #44AEB3",
"K  c #53AEB2",
"L  c #49B2B6",
"P  c #52B5B8",
"I  c #62ABAB",
"U  c #71BBBF",
"Y  c #0C9BC9",
"T  c #0993D1",
"R  c #0CA5C1",
"E  c #07B6D8",
"W  c #06BDDC",
"Q  c #079EE2",
"!  c #06B0E1",
"~  c #04ABFB",
"^  c #04A5F9",
"/  c #01B4FB",
"(  c #02BCFA",
")  c #04B8F2",
"_  c #0EC6C8",
"`  c #1BC6C5",
"'  c #09C8D3",
"]  c #0DD2D2",
"[  c #09D2DB",
"{  c #18D6D6",
"}  c #2DC5C9",
"|  c #31C3C7",
" . c #3BC1CA",
".. c #2ECBD0",
"X. c #26DCDB",
"o. c #3CDDDF",
"O. c #08E1DC",
"+. c #05C7E9",
"@. c #05D0E4",
"#. c #04D7EE",
"$. c #03C9F4",
"%. c #09C8F7",
"&. c #01C4FA",
"*. c #01CBF9",
"=. c #0ACEF9",
"-. c #19C7FB",
";. c #04D5F7",
":. c #03DBF6",
">. c #03D3F9",
",. c #39DFE1",
"<. c #3DD8FC",
"1. c #06E3EA",
"2. c #05EFED",
"3. c #16E9E5",
"4. c #1DECEA",
"5. c #12E4E1",
"6. c #09F3ED",
"7. c #02E3F6",
"8. c #04ECF4",
"9. c #03E5F9",
"0. c #01EFF8",
"q. c #1FE0F9",
"w. c #02F4F4",
"e. c #05FBF4",
"r. c #0CFDF5",
"t. c #15FCF5",
"y. c #1EFDF4",
"u. c #1BF8F5",
"i. c #26F2ED",
"p. c #2CEDF7",
"a. c #2CF7F7",
"s. c #25FDF5",
"d. c #2DFEF6",
"f. c #35FEF5",
"g. c #3DFDF7",
"h. c #34FDF9",
"j. c #3AF8F6",
"k. c #4DC1C4",
"l. c #53C2C4",
"z. c #45D8DD",
"x. c #75C1C3",
"c. c #7ACACC",
"v. c #41D4F8",
"b. c #52E6EA",
"n. c #42E3F9",
"m. c #5AEFF6",
"M. c #5FEFFA",
"N. c #42FEF6",
"B. c #4BFEFA",
"V. c #47FBF6",
"C. c #53FDFA",
"Z. c #5DFEFA",
"A. c #55F9F4",
"S. c #74EDEC",
"D. c #68E7FA",
"F. c #7CEFFD",
"G. c #65FEFA",
"H. c #6DFDFA",
"J. c #62F8F8",
"K. c #73FDFA",
"L. c #7BFDFB",
"P. c #78F4F8",
"I. c #84DADD",
"U. c #8BE7E6",
"Y. c #8FEDEF",
"T. c #84E3E2",
"R. c #93EDFC",
"E. c #84FDFB",
"W. c #8CFEFC",
"Q. c #92F6F7",
"!. c #93FEFC",
"~. c #9BFEFD",
"^. c #95F6FA",
"/. c #A5F7FD",
"(. c #ADF7FC",
"). c #A2FDFE",
"_. c #B2F5FB",
"`. c None",
/* pixels */
"`.`.`.`.`.`.`.`.`.`.`.`.`.`.`.`.`.`.`.`.`.`.`.`.`.`.`.`.`.`.`.`.`.`.`.`.`.`.`.`.`.`.`.`.`.`.`.`.`.`.",
"`.`.`.`.`.`.`.`.`.`.`.`.`.`.`.`.`.`.`.`.`.`.`.`.`.`.`.`.`.`.`.`.`.`.`.`.`.`.`.`.`.`.`.`.`.`.`.`.`.`.",
"`.`.`.`.`.`.`.`.`.`.`.`.`.`.`.`.`.`.`.`.`.`.`.`.`.`.`.`.`.`.`.`.`.`.`.`.`.`.`.`.`.`.`.`.`.`.`.`.`.`.",
"`.`.`.`.`.`.`.`.`.`.`.`.`.`.`.`.`.`.`.`.`.`.`.`.`.`.`.`.`.`.`.`.`.`.`.`.`.`.`.`.`.`.`.`.`.`.`.`.`.`.",
"`.`.`.`.`.`.`.`.`.`.`.`.`.`.`.`.`.`.`.`.`.`.`.`.`.`.`.`.`.`.`.`.`.`.`.`.`.`.`.`.`.`.`.`.`.`.`.`.`.`.",
"`.`.`.`.`.`.`.`.`.`.`.`.`.`.`.`.`.`.`.`.`.`.`.`.`.`.`.`.`.`.`.`.`.`.`.`.`.`.`.`.`.`.`.`.`.`.`.`.`.`.",
"`.`.`.`.`.`.`.`.`.`.`.`.`.`.`.`.`.`.`.`.`.`.`.* f O `.`.`.`.`.`.`.`.`.`.`.`.`.`.`.`.`.`.`.`.`.`.`.`.",
"`.`.`.`.`.`.`.`.`.`.`.`.`.`.`.`.`.`.`.`.`.`.`.u ^ T # `.`.`.`.`.`.`.`.`.`.`.`.`.`.`.`.`.`.`.`.`.`.`.",
"`.`.`.`.`.`.`.`.`.`.`.`.`.`.`.`.`.`.`.`.`.`.@ Q ~ ~ T @ `.`.`.`.`.`.`.`.`.`.`.`.`.`.`.`.`.`.`.`.`.`.",
"`.`.`.`.`.`.`.`.`.`.`.`.`.`.`.`.`.`.`.`.`.X n / / ~ / v   `.`.`.`.`.`.`.`.`.`.`.`.`.`.`.`.`.`.`.`.`.",
"`.`.`.`.`.`.`.`.`.`.`.`.`.`.`.`.`.`.`.`.o v ( / / / / / 8 `.`.`.`.`.`.`.`.`.`.`.`.`.`.`.`.`.`.`.`.`.",
"`.`.`.`.`.`.`.`.`.`.`.`.`.`.`.`.`.`.`.O m ( ( / ( ( &.( Y X `.`.`.`.`.`.`.`.`.`.`.`.`.`.`.`.`.`.`.`.",
"`.`.`.`.`.`.`.`.`.`.`.`.`.`.`.`.`.`.X m &.&.&.&.-.-.&.&.) < `.`.`.`.`.`.`.`.`.`.`.`.`.`.`.`.`.`.`.`.",
"`.`.`.`.`.`.`.`.`.`.`.`.`.`.`.`.`.`.p %.&.*.&.&.v.R.%.*.*.p `.`.`.`.`.`.`.`.`.`.`.`.`.`.`.`.`.`.`.`.",
"`.`.`.`.`.`.`.`.`.`.`.`.`.`.`.`.`.+ +.*.*.*.*.=.R._.v.*.*.R `.`.`.`.`.`.`.`.`.`.`.`.`.`.`.`.`.`.`.`.",
"`.`.`.`.`.`.`.`.`.`.`.`.`.`.`.7 - 3 >.>.*.>.>.D._._.D.>.>.W `.`.`.`.`.`.`.`.`.`.`.`.`.`.`.`.`.`.`.`.",
"`.`.`.`.`.`.`.`.`.`.`.`.`.`.# E p - :.:.>.:.n././.(.F.:.>.+.`.`.`.`.`.`.`.`.`.`.`.`.`.`.`.`.`.`.`.`.",
"`.`.`.`.`.`.`.`.`.`.`.`.`.`.i $.E # @.:.:.q.^./././.F.:.:.@.`.`.`.`.`.`.`.`.`.`.`.`.`.`.`.`.`.`.`.`.",
"`.`.`.`.`.`.`.`.`.`.`.`.`.`.h :.#.$ b 7.7.M././././.m.:.9.@.`.`.`.`.`.`.`.`.`.`.`.`.`.`.`.`.`.`.`.`.",
"`.`.`.`.`.`.`.`.`.`.`.`.`.`.2 8.[ `.3 1.8.M./.~.~.~.p.9.8.' `.`.`.`.`.`.`.`.`.`.`.`.`.`.`.`.`.`.`.`.",
"`.`.`.`.`.`.`.`.`.`.`.`.`.`.`.q 4 `.`.V 0.j.^.~.~.P.8.w.0.B `.`.`.`.`.`.`.`.`.`.`.`.`.`.`.`.`.`.`.`.",
"`.`.`.`.`.`.`.`.`.`.`.`.`.`.`.`.`.`.`.N w.u.W.^.!.a.w.1._ 0 `.`.`.`.`.`.`.`.`.`.`.`.`.`.`.`.`.`.`.`.",
"`.`.`.`.`.`.`.`.`.`.`.`.`.`.`.`.`.`.`.] w.t.E.!.L.e.2.r `.`.`.`.`.`.`.`.`.`.`.`.`.`.`.`.`.`.`.`.`.`.",
"`.`.`.`.`.`.`.`.`.`.`.`.`.`.`.`.`.w ] e.e.s.E.W.A.e.O.`.`.`.`.`.`.`.`.`.`.`.`.`.`.`.`.`.`.`.`.`.`.`.",
"`.`.`.`.`.`.`.`.`.`.`.`.`.`.`.`.j 6.r.r.t.G.W.W.N.r.6.d `.`.`.x w `.`.`.`.`.`.`.`.`.`.`.`.`.`.`.`.`.",
"`.`.`.`.`.`.`.`.`.`.`.`.`.`.`.`.5.r.r.s.H.W.W.W.V.t.r.{ l `.x 3.` `.`.`.`.`.`.`.`.`.`.`.`.`.`.`.`.`.",
"`.`.`.`.`.`.`.`.`.`.`.`.`.`.`.`.t.t.f.E.W.W.W.W.G.t.t.t.u.3.t.t.3.`.`.`.`.`.`.`.`.`.`.`.`.`.`.`.`.`.",
"`.`.`.`.`.`.`.`.`.`.`.`.`.`.`.`.y.y.Z.W.W.E.E.W.E.d.s.y.y.y.y.s.4.`.`.`.`.`.`.`.`.`.`.`.`.`.`.`.`.`.",
"`.`.`.`.`.`.`.`.`.`.`.`.`.`.`.`.i.s.Z.W.W.W.W.W.W.K.f.s.s.s.s.s.X.`.`.`.`.`.`.`.`.`.`.`.`.`.`.`.`.`.",
"`.`.`.`.`.`.`.`.`.`.`.`.`.`.`.`...d.A.W.W.W.W.W.W.W.E.H.Z.g.a.h.} , `.`.`.`.`.`.`.`.`.`.`.`.`.`.`.`.",
"`.`.`.`.`.`.`.`.`.`.`.`.`.`.`.`.z f.g.E.W.W.W.E.W.W.W.W.W.L.g.g.| , `.`.`.`.`.`.`.`.`.`.`.`.`.`.`.`.",
"`.`.`.`.`.`.`.`.`.`.`.`.`.`.`.`.a ,.g.L.W.W.W.W.W.W.W.W.W.W.G.g.,.9 `.`.`.`.`.`.`.`.`.`.`.`.`.`.`.`.",
"`.`.`.`.`.`.`.`.`.`.`.`.`.`.`.`.a  .B.K.W.W.W.W.W.W.W.W.W.W.L.B.V.e `.`.`.`.`.`.`.`.`.`.`.`.`.`.`.`.",
"`.`.`.`.`.`.`.`.`.`.`.`.`.`.k M s z.B.L.!.!.W.W.!.!.W.!.!.W.W.Z.B.c `.`.`.`.`.`.`.`.`.`.`.`.`.`.`.`.",
"`.`.`.`.`.`.`.`.`.`.`.`.`.`.C A.b.C.G.!.!.!.!.!.!.!.!.!.!.!.!.G.C.J `.`.`.`.`.`.`.`.`.`.`.`.`.`.`.`.",
"`.`.`.`.`.`.`.`.`.`.`.`.`.`.L Z.G.K.W.!.!.!.!.!.!.!.!.!.!.!.!.H.Z.k.`.`.`.`.`.`.`.`.`.`.`.`.`.`.`.`.",
"`.`.`.`.`.`.`.`.`.`.`.`.`.`.P G.L.!.~.!.~.!.!.!.!.~.!.~.!.~.!.K.G.l.`.`.`.`.`.`.`.`.`.`.`.`.`.`.`.`.",
"`.`.`.`.`.`.`.`.`.`.`.`.`.`.K H.W.~.~.~.~.~.~.~.!.~.~.~.!.~.!.K.H.K `.`.`.`.`.`.`.`.`.`.`.`.`.`.`.`.",
"`.`.`.`.`.`.`.`.`.`.`.`.`.`.D K.W.~.~.~.~.~.~.~.~.~.~.~.~.~.!.K.K.Z `.`.`.`.`.`.`.`.`.`.`.`.`.`.`.`.",
"`.`.`.`.`.`.`.`.`.`.`.`.`.`.6 P.E.~.).).).~.).).).~.).).).~.E.L.S.1 `.`.`.`.`.`.`.`.`.`.`.`.`.`.`.`.",
"`.`.`.`.`.`.`.`.`.`.`.`.`.`.$ I E.W.).).).).).W.W.W.!.~.~.W.E.E.I % `.`.`.`.`.`.`.`.`.`.`.`.`.`.`.`.",
"`.`.`.`.`.`.`.`.`.`.`.`.`.`.`.& x.W.!.~.).~.!.!.W.W.W.W.W.W.Q.x.; `.`.`.`.`.`.`.`.`.`.`.`.`.`.`.`.`.",
"`.`.`.`.`.`.`.`.`.`.`.`.`.`.`.`.& F U.!.!.!.Y.c.U I.Q.!.Q.T.F ; `.`.`.`.`.`.`.`.`.`.`.`.`.`.`.`.`.`.",
"`.`.`.`.`.`.`.`.`.`.`.`.`.`.`.`.`.`.: g G A 5 * = > t S y ; `.`.`.`.`.`.`.`.`.`.`.`.`.`.`.`.`.`.`.`.",
"`.`.`.`.`.`.`.`.`.`.`.`.`.`.`.`.`.`.`.`.`.`.`.`.`.`.`.`.`.`.`.`.`.`.`.`.`.`.`.`.`.`.`.`.`.`.`.`.`.`.",
"`.`.`.`.`.`.`.`.`.`.`.`.`.`.`.`.`.`.`.`.`.`.`.`.`.`.`.`.`.`.`.`.`.`.`.`.`.`.`.`.`.`.`.`.`.`.`.`.`.`.",
"`.`.`.`.`.`.`.`.`.`.`.`.`.`.`.`.`.`.`.`.`.`.`.`.`.`.`.`.`.`.`.`.`.`.`.`.`.`.`.`.`.`.`.`.`.`.`.`.`.`.",
"`.`.`.`.`.`.`.`.`.`.`.`.`.`.`.`.`.`.`.`.`.`.`.`.`.`.`.`.`.`.`.`.`.`.`.`.`.`.`.`.`.`.`.`.`.`.`.`.`.`.",
"`.`.`.`.`.`.`.`.`.`.`.`.`.`.`.`.`.`.`.`.`.`.`.`.`.`.`.`.`.`.`.`.`.`.`.`.`.`.`.`.`.`.`.`.`.`.`.`.`.`.",
"`.`.`.`.`.`.`.`.`.`.`.`.`.`.`.`.`.`.`.`.`.`.`.`.`.`.`.`.`.`.`.`.`.`.`.`.`.`.`.`.`.`.`.`.`.`.`.`.`.`."
};
