/* XPM */
static char *result[] = {
/* columns rows colors chars-per-pixel */
"50 50 208 2 ",
"   c #2D2D2F",
".  c #2B2423",
"X  c #2B322B",
"o  c #2E3639",
"O  c #2C383C",
"+  c #2B3532",
"@  c #2C433C",
"#  c #2D3C44",
"$  c #303C43",
"%  c #2D4344",
"&  c #2E4B46",
"*  c #2D454B",
"=  c #2A4848",
"-  c #31494F",
";  c #304143",
":  c #2C4B53",
">  c #2C4C5C",
",  c #2D4755",
"<  c #2C5453",
"1  c #2D555C",
"2  c #2E5C5D",
"3  c #26585A",
"4  c #36555A",
"5  c #2A635E",
"6  c #2C5364",
"7  c #2D5C63",
"8  c #28596B",
"9  c #3D5C61",
"0  c #235B70",
"q  c #1D636F",
"w  c #2C6463",
"e  c #2D636A",
"r  c #2E6D6D",
"t  c #21676E",
"y  c #34626A",
"u  c #38676E",
"i  c #28706B",
"p  c #2D6475",
"a  c #2C6E71",
"s  c #2C6E79",
"d  c #2C667E",
"f  c #306E77",
"g  c #2D7373",
"h  c #2D727C",
"j  c #267979",
"k  c #39757D",
"l  c #187C89",
"z  c #167B97",
"x  c #1D729B",
"c  c #2D6984",
"v  c #2E7681",
"b  c #2E7D81",
"n  c #29708D",
"m  c #3E7D83",
"M  c #2A7695",
"N  c #2E7B9E",
"B  c #1A78A6",
"V  c #457E82",
"C  c #1E8285",
"Z  c #198499",
"A  c #1B9C9C",
"S  c #2E8D8D",
"D  c #268586",
"F  c #34828B",
"G  c #2D8592",
"H  c #2D8D95",
"J  c #2E8D9A",
"K  c #398B95",
"L  c #249C9C",
"P  c #2D9B9D",
"I  c #27979D",
"U  c #24A09F",
"Y  c #1F8DBF",
"T  c #2888A7",
"R  c #2D9AA2",
"E  c #339CAA",
"W  c #268EBD",
"Q  c #1EA7A5",
"!  c #0FA9BD",
"~  c #1EAFB0",
"^  c #17BCBC",
"/  c #16B1B7",
"(  c #2CA1A6",
")  c #2EA4AC",
"_  c #29AAAE",
"`  c #32A2AC",
"'  c #2DA8B7",
"]  c #2CB2B9",
"[  c #3FB1B8",
"{  c #498388",
"}  c #568D8E",
"|  c #44949D",
" . c #5A9598",
".. c #46AAB1",
"X. c #45B2B8",
"o. c #63ABAE",
"O. c #67A7AA",
"+. c #6FB3B6",
"@. c #1588C8",
"#. c #0EB9CA",
"$. c #19BDC4",
"%. c #0CA2D3",
"&. c #0AB6DA",
"*. c #08BAD9",
"=. c #0DA7C9",
"-. c #0A9EEB",
";. c #0BABEB",
":. c #0FACE4",
">. c #03BBEE",
",. c #04A9F7",
"<. c #03B3FA",
"1. c #03BCFA",
"2. c #0BB6FB",
"3. c #13BCFA",
"4. c #18CBCB",
"5. c #0EC8DA",
"6. c #08D0DF",
"7. c #12D7D5",
"8. c #1BD3D2",
"9. c #20C1C1",
"0. c #3DC4CA",
"q. c #3AC9D0",
"w. c #23D7D7",
"e. c #3AD3D9",
"r. c #04CBEC",
"t. c #06C4E8",
"y. c #07DBE8",
"u. c #00CAF7",
"i. c #03C4FA",
"p. c #03CCF9",
"a. c #10C5FC",
"s. c #02D4F6",
"d. c #02DAF6",
"f. c #03D4F9",
"g. c #02DCF8",
"h. c #0DDAF8",
"j. c #0CDDF5",
"k. c #16D6F9",
"l. c #3DDFE3",
"z. c #23C5FC",
"x. c #2CD3FA",
"c. c #31D7F9",
"v. c #09EBEB",
"b. c #12E6E2",
"n. c #1EE2E0",
"m. c #08F1EC",
"M. c #02E4F6",
"N. c #02EBF5",
"B. c #02E2F9",
"V. c #1CE4F6",
"C. c #15E9F6",
"Z. c #04F3F3",
"A. c #05FBF4",
"S. c #0CFCF4",
"D. c #14FBF4",
"F. c #1BFEF4",
"G. c #13F7F5",
"H. c #2EE6E5",
"J. c #2AEFEC",
"K. c #36E8E8",
"L. c #2BF4EF",
"P. c #27ECF7",
"I. c #22FEF5",
"U. c #2BFEF6",
"Y. c #2CFEF8",
"T. c #33FDF6",
"R. c #39FEF6",
"E. c #33FEF9",
"W. c #3EFEF9",
"Q. c #67CACC",
"!. c #72CACD",
"~. c #69D1D3",
"^. c #7CD6D9",
"/. c #41DFFB",
"(. c #5AD7FC",
"). c #67DBFB",
"_. c #44FCF6",
"`. c #4EFEF6",
"'. c #45FDF8",
"]. c #4BFDF9",
"[. c #4CF5F5",
"{. c #54F3F5",
"}. c #52FEF6",
"|. c #55FDF9",
" X c #5CFDFA",
".X c #47E4ED",
"XX c #70EDED",
"oX c #67E6FA",
"OX c #65FDFA",
"+X c #6BFDFA",
"@X c #6CF5F5",
"#X c #72FDFB",
"$X c #7DFDFB",
"%X c #71F3F2",
"&X c #86E5E6",
"*X c #88E7E7",
"=X c #84EBFB",
"-X c #94EDFC",
";X c #81F5F5",
":X c #84FEFC",
">X c #8CFDFC",
",X c #95FEFC",
"<X c #9BFEFC",
"1X c #91F6F8",
"2X c #A2FEFE",
"3X c #ADFCFD",
"4X c #A9F1FD",
"5X c None",
/* pixels */
"5X5X5X5X5X5X5X5X5X5X5X5X5X5X5X5X5X5X5X5X5X5X5X5X5X5X5X5X5X5X5X5X5X5X5X5X5X5X5X5X5X5X5X5X5X5X5X5X5X5X",
"5X5X5X5X5X5X5X5X5X5X5X5X5X5X5X5X5X5X5X5X5X5X5X5X5X5X5X5X5X5X5X5X5X5X5X5X5X5X5X5X5X5X5X5X5X5X5X5X5X5X",
"5X5X5X5X5X5X5X5X5X5X5X5X5X5X5X5X5X5X5X5X5X# 5X5X5X5X5X5X5X5X5X5X5X5X5X5X5X5X5X5X5X5X5X5X5X5X5X5X5X5X",
"5X5X5X5X5X5X5X5X5X5X5X5X5X5X5X5X5X5X5X5X. %.8 X   5X5X5X5X5X5X5X5X5X5X5X5X5X5X5X5X5X5X5X5X5X5X5X5X5X",
"5X5X5X5X5X5X5X5X5X5X5X5X5X5X5X5X5X5X5X5Xq t.=.$ # O 5X5X5X5X5X5X5X5X5X5X5X5X5X5X5X5X5X5X5X5X5X5X5X5X",
"5X5X5X5X5X5X5X5X5X5X5X5X5X5X5X5X5X5X5X5X! f.t.6 6 > # 5X5X5X5X5X5X5X5X5X5X5X5X5X5X5X5X5X5X5X5X5X5X5X",
"5X5X5X5X5X5X5X5X5X5X5X5X5X5X5X5X5X5X5XO #.N.5.p @.B > % 5X5X5X5X5X5X5X5X5X5X5X5X5X5X5X5X5X5X5X5X5X5X",
"5X5X5X5X5X5X5X5X5X5X5X5X5X5X5X5X5X5X5X% Z y.T M -.,.B > o 5X5X5X5X5X5X5X5X5X5X5X5X5X5X5X5X5X5X5X5X5X",
"5X5X5X5X5X5X5X5X5X5X5X5X5X5X5X5X5X5Xo , y M N Y ,.,.,.x # 5X5X5X5X5X5X5X5X5X5X5X5X5X5X5X5X5X5X5X5X5X",
"5X5X5X5X5X5X5X5X5X5X5X5X5X5X5X5X5X5X$ > c N W ;.,.2.<.;.0   5X5X5X5X5X5X5X5X5X5X5X5X5X5X5X5X5X5X5X5X",
"5X5X5X5X5X5X5X5X5X5X5X5X5X5X5X5X5X5X# 6 c T ;.<.2.).3.<.%.# 5X5X5X5X5X5X5X5X5X5X5X5X5X5X5X5X5X5X5X5X",
"5X5X5X5X5X5X5X5X5X5X5X5X5X5X5X5X5X5X# 6 n :.1.1.z.4X(.1.1.z 5X5X5X5X5X5X5X5X5X5X5X5X5X5X5X5X5X5X5X5X",
"5X5X5X5X5X5X5X5X5X5X5X5X5X5X5X5X5X5X$ 6 %.i.i.i.).4X-Xa.1.>.+ 5X5X5X5X5X5X5X5X5X5X5X5X5X5X5X5X5X5X5X",
"5X5X5X5X5X5X5X5X5X5X5X5X5X5X5X5X5X5X# Z i.i.i.c.-X-X-Xx.i.u.l 5X5X5X5X5X5X5X5X5X5X5X5X5X5X5X5X5X5X5X",
"5X5X5X5X5X5X5X5X5X5X5X5X5X5X5X5X5X5X, &.u.u.p.oX=X=X=Xx.u.u.&.5X5X5X5X5X5X5X5X5X5X5X5X5X5X5X5X5X5X5X",
"5X5X5X5X5X5X5X5X5X5X5X5X5X5X5X5X5X5X> r.f.p.k.oX/.c.oXk.f.f.p.= 5X5X5X5X5X5X5X5X5X5X5X5X5X5X5X5X5X5X",
"5X5X5X5X5X5X5X5X5X5X5X5X5X5X5X5X5XX 3 r.s.s.d./.k.d.k.f.s.s.g.t 5X5X5X5X5X5X5X5X5X5X5X5X5X5X5X5X5X5X",
"5X5X5X5X5X5X5X5X5X5X5X5X5X5X5X5X5Xo @ #.g.g.g.j.j.d.g.g.g.g.d.l 5X5X5X5X5X5X5X5X5X5X5X5X5X5X5X5X5X5X",
"5X5X5X5X5X5X5X5X5X5X5X5X5X5X5X5X@ @ & j y.B.B.V.V.B.M.M.M.M.M.D 5X5X5X5X5X5X5X5X5X5X5X5X5X5X5X5X5X5X",
"5X5X5X5X5X5X5X5X5X5X5X5X5X5X5Xz Z & < 2 / N.M.P.1XC.N.M.M.N.M.j 5X5X5X5X5X5X5X5X5X5X5X5X5X5X5X5X5X5X",
"5X5X5X5X5X5X5X5X5X5X5X5X5X5X5Xt.*.2 w r D m.N.P.3X{.N.N.N.N.v.5 & 5X5X5X5X5X5X5X5X5X5X5X5X5X5X5X5X5X",
"5X5X5X5X5X5X5X5X5X5X5X5X5X5X3 M.r.i i j S v.Z.[.3X@XA.N.$.^ ^ 5 < 5X5X5X5X5X5X5X5X5X5X5X5X5X5X5X5X5X",
"5X5X5X5X5X5X5X5X5X5X5X5X5X5X@ / A D L S ~ A.G.>X3X+XA.7.P S D g w 5X5X5X5X5X5X5X5X5X5X5X5X5X5X5X5X5X",
"5X5X5X5X5X5X5X5X5X5X5X5X5X5X@ 2 i 4.v.7.m.S.OX2X2X+XA.w.) R S D g 2 5X5X5X5X5X5X5X5X5X5X5X5X5X5X5X5X",
"5X5X5X5X5X5X5X5X5X5X5X5X5X5X: w Q A.S.A.A.}.<X<X2X+XA.b.] ) P P A e 5X5X5X5X5X5X5X5X5X5X5X5X5X5X5X5X",
"5X5X5X5X5X5X5X5X5X5X5X5X5X5X2 D b.S.S.S.}.<X2X<X<X:XD.S.w.' ) 4.b.b w 5X5X5X5X5X5X5X5X5X5X5X5X5X5X5X",
"5X5X5X5X5X5X5X5X5X5X5X5X5X5Xw $.D.D.D._.<X<X<X<X<X<X`.D.D.n.n.D.G.U e 5X5X5X5X5X5X5X5X5X5X5X5X5X5X5X",
"5X5X5X5X5X5X5X5X5X5X5X5X5X5Xa H.F.F.F.$X<X<X<X<X,X<X>X].F.F.F.F.F._ r 5X5X5X5X5X5X5X5X5X5X5X5X5X5X5X",
"5X5X5X5X5X5X5X5X5X5X5X5X5X5Xg w.F.I.U.:X$X:X<X,X<X,X}.I.F.I.I.I.I.R g 7 5X5X5X5X5X5X5X5X5X5X5X5X5X5X",
"5X5X5X5X5X5X5X5X5X5X5X5X5X5Xs ( L.Y.Y.T.U.U.:X,X,X:XU.U.U.U.U.U.L.J h w 5X5X5X5X5X5X5X5X5X5X5X5X5X5X",
"5X5X5X5X5X5X5X5X5X5X5X5X5X5Xs G ' H.E.U.U.T.+X,X,X:XT.T.E.T.T.T.H.H h e 5X5X5X5X5X5X5X5X5X5X5X5X5X5X",
"5X5X5X5X5X5X5X5X5X5X5X5X5X7 s G R ' K.R.R.R.$X,X,X,X`.E.R.R.R.R.K.J v e 5X5X5X5X5X5X5X5X5X5X5X5X5X5X",
"5X5X5X5X5X5X5X5X5X5X5X5X5X7 h G E ' e.'.W.].,X,X,X,X:X}._.+X}._.R.` h e 5X5X5X5X5X5X5X5X5X5X5X5X5X5X",
"5X5X5X5X5X5X5X5X5X5X5X5X5X7 s K q.' l.'.].$X<X,X,X,X<X,X,X,X:X_.].0.h e 5X5X5X5X5X5X5X5X5X5X5X5X5X5X",
"5X5X5X5X5X5X5X5X5X5X5X5X5X1 s E [.e.[.].+X,X<X,X,X,X,X,X,X,X,X|.}..Xv 7 5X5X5X5X5X5X5X5X5X5X5X5X5X5X",
"5X5X5X5X5X5X5X5X5X5X5X5X5X1 p X.|.|. X X>X,X<X,X<X<X,X<X<X,X<X+X}.{.F 7 5X5X5X5X5X5X5X5X5X5X5X5X5X5X",
"5X5X5X5X5X5X5X5X5X5X5X5X5X5Xe X. XOX X$X<X,X<X<X,X<X,X<X<X,X<X:X X XK < 5X5X5X5X5X5X5X5X5X5X5X5X5X5X",
"5X5X5X5X5X5X5X5X5X5X5X5X5X5X7 ..OX+X+X,X<X<X<X<X<X<X<X<X<X<X<X:XOX@X| : 5X5X5X5X5X5X5X5X5X5X5X5X5X5X",
"5X5X5X5X5X5X5X5X5X5X5X5X5X5X1 | +X+X:X<X<X<X<X<X<X<X<X<X<X<X2X>X+X@Xm * 5X5X5X5X5X5X5X5X5X5X5X5X5X5X",
"5X5X5X5X5X5X5X5X5X5X5X5X5X5X: m %X#X:X<X2X<X2X2X2X<X2X2X2X<X2X:X#XXXy # 5X5X5X5X5X5X5X5X5X5X5X5X5X5X",
"5X5X5X5X5X5X5X5X5X5X5X5X5X5X5X1 ~.$X:X2X2X2X2X2X2X2X2X2X2X2X<X:X$XQ.- 5X5X5X5X5X5X5X5X5X5X5X5X5X5X5X",
"5X5X5X5X5X5X5X5X5X5X5X5X5X5X5X- { ;X:X,X2X2X2X2X<X>X,X<X2X2X,X:X;XV O 5X5X5X5X5X5X5X5X5X5X5X5X5X5X5X",
"5X5X5X5X5X5X5X5X5X5X5X5X5X5X5X5X- o.>X>X<X<X2X,X>X>X>X>X,X,X>X>Xo.$ 5X5X5X5X5X5X5X5X5X5X5X5X5X5X5X5X",
"5X5X5X5X5X5X5X5X5X5X5X5X5X5X5X5X5X-  .*X,X,X,X1X^.!.&X,X,X,X&X .; 5X5X5X5X5X5X5X5X5X5X5X5X5X5X5X5X5X",
"5X5X5X5X5X5X5X5X5X5X5X5X5X5X5X5X5X5X# 9  .+.o.V y 7 u  .O.} 4 o 5X5X5X5X5X5X5X5X5X5X5X5X5X5X5X5X5X5X",
"5X5X5X5X5X5X5X5X5X5X5X5X5X5X5X5X5X5X5X5X5X5X5X5X5X5X5X5X5X5X5X5X5X5X5X5X5X5X5X5X5X5X5X5X5X5X5X5X5X5X",
"5X5X5X5X5X5X5X5X5X5X5X5X5X5X5X5X5X5X5X5X5X5X5X5X5X5X5X5X5X5X5X5X5X5X5X5X5X5X5X5X5X5X5X5X5X5X5X5X5X5X",
"5X5X5X5X5X5X5X5X5X5X5X5X5X5X5X5X5X5X5X5X5X5X5X5X5X5X5X5X5X5X5X5X5X5X5X5X5X5X5X5X5X5X5X5X5X5X5X5X5X5X",
"5X5X5X5X5X5X5X5X5X5X5X5X5X5X5X5X5X5X5X5X5X5X5X5X5X5X5X5X5X5X5X5X5X5X5X5X5X5X5X5X5X5X5X5X5X5X5X5X5X5X",
"5X5X5X5X5X5X5X5X5X5X5X5X5X5X5X5X5X5X5X5X5X5X5X5X5X5X5X5X5X5X5X5X5X5X5X5X5X5X5X5X5X5X5X5X5X5X5X5X5X5X"
};
