/* XPM */
static char *result[] = {
/* columns rows colors chars-per-pixel */
"50 50 197 2 ",
"   c #2A251F",
".  c #292B2B",
"X  c #273535",
"o  c #263C3E",
"O  c #26373A",
"+  c #223F48",
"@  c #294449",
"#  c #234749",
"$  c #374A4A",
"%  c #38514F",
"&  c #224654",
"*  c #234B54",
"=  c #2D4F5C",
"-  c #1E4A63",
";  c #2D5665",
":  c #235F62",
">  c #2D596A",
",  c #285E66",
"<  c #2D5E70",
"1  c #1E6366",
"2  c #1B626C",
"3  c #1D696B",
"4  c #1B6574",
"5  c #196A77",
"6  c #29616A",
"7  c #2C697C",
"8  c #2D657A",
"9  c #386C75",
"0  c #207679",
"q  c #456568",
"w  c #196B83",
"e  c #176B94",
"r  c #2D6E85",
"t  c #207E80",
"y  c #2B758E",
"u  c #347F8C",
"i  c #2E7A96",
"p  c #2E7790",
"a  c #497A81",
"s  c #188F8E",
"d  c #168C96",
"f  c #2B8696",
"g  c #30859A",
"h  c #3B999F",
"j  c #0E85AF",
"k  c #1080AD",
"l  c #118BA6",
"z  c #0E90A8",
"x  c #1296A5",
"c  c #108BB8",
"v  c #2E83A1",
"b  c #2E8DAD",
"n  c #2E88A7",
"m  c #2A95A2",
"M  c #299AA9",
"N  c #3896A7",
"B  c #2C8FB0",
"V  c #2D95B6",
"C  c #2E9BBD",
"Z  c #19A5A8",
"A  c #0FA6BD",
"S  c #12ABB1",
"D  c #1FA8B0",
"F  c #15B2B4",
"G  c #10B8BA",
"H  c #2EA0BE",
"J  c #38AEBD",
"K  c #35B3BA",
"L  c #4C8A89",
"P  c #4B9499",
"I  c #56A9AB",
"U  c #48A9B0",
"Y  c #4FB2B7",
"T  c #5AB9BB",
"R  c #63A5A9",
"E  c #0DC1BE",
"W  c #43C1BF",
"Q  c #0993D3",
"!  c #0895DB",
"~  c #2D9FC2",
"^  c #0AA3C7",
"/  c #0CB5C8",
"(  c #1CBDC3",
")  c #06A3DF",
"_  c #08ACD9",
"`  c #2CA3C6",
"'  c #2DA7CB",
"]  c #2BACC6",
"[  c #2CACD1",
"{  c #2EBBDB",
"}  c #2CB0D4",
"|  c #30BFD9",
" . c #05A6EF",
".. c #05BCEC",
"X. c #03AEF9",
"o. c #04A5F3",
"O. c #04B4F1",
"+. c #03BCF5",
"@. c #03B4FC",
"#. c #02BBFB",
"$. c #0BCACB",
"%. c #17CDCB",
"&. c #0CD1CF",
"*. c #08C8D8",
"=. c #0DD3D6",
"-. c #1DD6D6",
";. c #22C8CF",
":. c #38C4CB",
">. c #2DCADC",
",. c #36CBD4",
"<. c #29DDDE",
"1. c #37DBDF",
"2. c #06C2E4",
"3. c #04C0EB",
"4. c #05CAE9",
"5. c #03D3EF",
"6. c #05D5E6",
"7. c #01C2FA",
"8. c #01CBF9",
"9. c #06CDF4",
"0. c #03D3F5",
"q. c #03DBF5",
"w. c #04D3F9",
"e. c #02DCF8",
"r. c #0DD5F7",
"t. c #32C8E2",
"y. c #24DFE4",
"u. c #28DDF9",
"i. c #3AD9FA",
"p. c #0DEEEA",
"a. c #05E3EA",
"s. c #10EDEA",
"d. c #09F7EE",
"f. c #02E4F4",
"g. c #04EBF5",
"h. c #08E4F8",
"j. c #15E7F2",
"k. c #03F4F5",
"l. c #08F5F1",
"z. c #04FCF4",
"x. c #0CFCF5",
"c. c #10F0F7",
"v. c #18F7F1",
"b. c #13FCF4",
"n. c #1AFDF5",
"m. c #3AF1EF",
"M. c #27E6F8",
"N. c #37E7F9",
"B. c #2DF3F0",
"V. c #23FEF6",
"C. c #2BFDF4",
"Z. c #2DF7F8",
"A. c #3CF5F5",
"S. c #35FEF5",
"D. c #3CFEF7",
"F. c #33FEF9",
"G. c #39F7F6",
"H. c #4DD8DA",
"J. c #5DD4D3",
"K. c #6DCCD0",
"L. c #78D9DA",
"P. c #56E0DE",
"I. c #45EBEF",
"U. c #5EE0E0",
"Y. c #44F0EE",
"T. c #45E9F7",
"R. c #59E4FA",
"E. c #49F4F5",
"W. c #44FCF6",
"Q. c #4BFEF7",
"!. c #44FDF9",
"~. c #4BFDF9",
"^. c #54FEF9",
"/. c #5CFEF9",
"(. c #5AF7F6",
"). c #75E9E9",
"_. c #60E5FB",
"`. c #63FEFA",
"'. c #6BFDFB",
"]. c #6DF7FA",
"[. c #7AF3FB",
"{. c #74FDFB",
"}. c #7DFEFB",
"|. c #76F3F6",
" X c #85DEDE",
".X c #86E8E8",
"XX c #86F7FC",
"oX c #8CF5FC",
"OX c #83FEFB",
"+X c #8CFEFC",
"@X c #84F4F4",
"#X c #91F7F7",
"$X c #94FEFD",
"%X c #9BFEFD",
"&X c #92F3FA",
"*X c #A2FEFE",
"=X c None",
/* pixels */
"=X=X=X=X=X=X=X=X=X=X=X=X=X=X=X=X=X=X=X=X=X=X=X=X=X=X- - =X=X=X=X=X=X=X=X=X=X=X=X=X=X=X=X=X=X=X=X=X=X",
"=X=X=X=X=X=X=X=X=X=X=X=X=X=X=X=X=X=X=X=X=X=X=X=X=X=X+ ! e =X=X=X=X=X=X=X=X=X=X=X=X=X=X=X=X=X=X=X=X=X",
"=X=X=X=X=X=X=X=X=X=X=X=X=X=X=X=X=X=X=X=X=X=X=X=X=X=X=XQ o.e =X=X=X=X=X=X=X=X=X=X=X=X=X=X=X=X=X=X=X=X",
"=X=X=X=X=X=X=X=X=X=X=X=X=X=X=X=X=X=X=X=X=X=X=X=X=X=X=XQ X. .& =X=X=X=X=X=X=X=X=X=X=X=X=X=X=X=X=X=X=X",
"=X=X=X=X=X=X=X=X=X=X=X=X=X=X=X=X=X=X=X=X=X=X=X=X=X=X=X) X.X.k =X=X=X=X=X=X=X=X=X=X=X=X=X=X=X=X=X=X=X",
"=X=X=X=X=X=X=X=X=X=X=X=X=X=X=X=X=X=X=X=X=X=X=X=X=X=X- O.@.@. .. =X=X=X=X=X=X=X=X=X=X=X=X=X=X=X=X=X=X",
"=X=X=X=X=X=X=X=X=X=X=X=X=X=X=X=X=X=X=X=X=X=X=X=X=X=Xc #.@.#.O.+ =X=X=X=X=X=X=X=X=X=X=X=X=X=X=X=X=X=X",
"=X=X=X=X=X=X=X=X=X=X=X=X=X=X=X=X=X=X=X=X=X=X=X=X=Xw +.#.#.+.+.* =X=X=X=X=X=X=X=X=X=X=X=X=X=X=X=X=X=X",
"=X=X=X=X=X=X=X=X=X=X=X=X=X=X=X=X=X=X=X=X=X=X=X=X4 ..7.7.7.7.+.& =X=X=X=X=X=X=X=X=X=X=X=X=X=X=X=X=X=X",
"=X=X=X=X=X=X=X=X=X=X=X=X=X=X=X=X=X=X=X=X=X=X=X4 ..7.7.7.7.7...o =X=X=X=X=X=X=X=X=X=X=X=X=X=X=X=X=X=X",
"=X=X=X=X=X=X=X=X=X=X=X=X=X=X=X=X=X=X=X=X=X=X2 3.8.7.8.7.8.8._ . =X=X=X=X=X=X=X=X=X=X=X=X=X=X=X=X=X=X",
"=X=X=X=X=X=X=X=X=X=X=X=X=X=X=X=X=X=X=X=X=X* 2.8.r.i.r.8.8.8.x =X=X=X=X=X=X=X=X=X=X=X=X=X=X=X=X=X=X=X",
"=X=X=X=X=X=X=X=X=X=X=X=X=X=X=X=X=X=X=X=X  A w.9.R._.w.w.0.8.4 =X=X=X=X=X=X=X=X=X=X=X=X=X=X=X=X=X=X=X",
"=X=X=X=X=X=X=X=X=X=X=X=X=X=X=X=X=X=X=X=X* 5.w.T.&XN.0.w.0.*.X =X=X=X=X=X=X=X=X=X=X=X=X=X=X=X=X=X=X=X",
"=X=X=X=X=X=X=X=X=X=X=X=X=X=X=X=X=X=X=X=X5 q.r.[.&Xu.e.q.e.x =X=X=X=X=X=X=X=X=X=X=X=X=X=X=X=X=X=X=X=X",
"=X=X=X=X=X=X=X=X=X=X=X=X=X=X# j =X=X=X=X1 e.M.oX&Xu.e.e.q.1 =X=X=X=X=X=X=X=X=X=X=X=X=X=X=X=X=X=X=X=X",
"=X=X=X=X=X=X=X=X=X=X=X=X=XO ^ ) X =X=X=Xo 6.M.XXoXT.h.f.q.# =X=X=X=X=X=X=X=X=X=X=X=X=X=X=X=X=X=X=X=X",
"=X=X=X=X=X=X=X=X=X=X=X=X=Xz 3...5 =X=X=X=XS M.+XXX|.h.f.f.1 =X=X=X=X=X=X=X=X=X=X=X=X=X=X=X=X=X=X=X=X",
"=X=X=X=X=X=X=X=X=X=X=X=X@ 2.5.4.^ =X=X=X=X4 j.[.XXXXG.g.k.x =X=X=X=X=X=X=X=X=X=X=X=X=X=X=X=X=X=X=X=X",
"=X=X=X=X=X=X=X=X=X=X=X=X2 5.5.4./ =X=X=X=X@ =.(.+XXX].c.k.a.6 =X=X=X=X=X=X=X=X=X=X=X=X=X=X=X=X=X=X=X",
"=X=X=X=X=X=X=X=X=X=X=X=X3 q.d O * =X=X=X=X=XG Z.[.OXOXm.k.k.$.@ =X=X=X=X=X=X=X=X=X=X=X=X=X=X=X=X=X=X",
"=X=X=X=X=X=X=X=X=X=X=X=X# &.X =X=X=X=X=X=X=XZ x.'.OXOX'.b.k.k.S =X=X=X=X=X=X=X=X=X=X=X=X=X=X=X=X=X=X",
"=X=X=X=X=X=X=X=X=X=X=X=X=Xs =X=X=X=X=X=X=X=XF z.W.OX}.OXW.z.z.d.t =X=X=X=X=X=X=X=X=X=X=X=X=X=X=X=X=X",
"=X=X=X=X=X=X=X=X=X=X=X=X=X=X=X=XE , =X=X=X=X=.x.C.{.}.}.{.b.z.z.&.=X=X=X=X=X=X=X=X=X=X=X=X=X=X=X=X=X",
"=X=X=X=X=X=X=X=X=X=X=X=X=X=X=X0 l.F =X=X=XM d.d.n.{.}.}.}.Q.d.z.p.6 =X=X=X=X=X=X=X=X=X=X=X=X=X=X=X=X",
"=X=X=X=X=X=X=X=X=X=X=X=X=X=X=XZ x.d.%.D ( p.x.x.V.{.}.}.{.`.b.x.s.6 =X=X=X=X=X=X=X=X=X=X=X=X=X=X=X=X",
"=X=X=X=X=X=X=X=X=X=X=X=X=X=X=XD b.b.b.b.b.b.b.b.C.}.}.}.}.`.b.b.%.> =X=X=X=X=X=X=X=X=X=X=X=X=X=X=X=X",
"=X=X=X=X=X=X=X=X=X=X=X=X=X=X=Xf n.!.C.n.b.b.n.n.^.OX}.}.}.D.b.v.M > ; =X=X=X=X=X=X=X=X=X=X=X=X=X=X=X",
"=X=X=X=X=X=X=X=X=X=X=X=X=X=X=X6 -.W.`.V.V.n.n.D.{.}.}.}.`.V.n.;.p 8 > =X=X=X=X=X=X=X=X=X=X=X=X=X=X=X",
"=X=X=X=X=X=X=X=X=X=X=X=X=X=X=X=Xm B.{.{.^.Q.'.}.OX}.OX}.S.V.y.b i r > =X=X=X=X=X=X=X=X=X=X=X=X=X=X=X",
"=X=X=X=X=X=X=X=X=X=X=X=X=X=X=X=X=X<.Q.OX}.OXOX}.OX}.OX^.C.B.] b v y 7 > =X=X=X=X=X=X=X=X=X=X=X=X=X=X",
"=X=X=X=X=X=X=X=X=X=X=X=X=X=X=X=X=X,.F.`.OXOXOXOXOXOX{.S.C.>.` V n i g 7 =X=X=X=X=X=X=X=X=X=X=X=X=X=X",
"=X=X=X=X=X=X=X=X=X=X=X=X=X=X=X=X=X1.F.!.}.OXOXOXOXOX/.S.G.{ ' C B i H K = =X=X=X=X=X=X=X=X=X=X=X=X=X",
"=X=X=X=X=X=X=X=X=X=X=X=X=X=X=X=Xb A.D.!.}.OX+XOXOXOXQ.D.A.{ [ ~ B v K m.f =X=X=X=X=X=X=X=X=X=X=X=X=X",
"=X=X=X=X=X=X=X=X=X=X=X=X=X=X=X=X:.!.D./.OXOX+XOXOXOX^.!.D.t.} ' V b 1.W.:.= =X=X=X=X=X=X=X=X=X=X=X=X",
"=X=X=X=X=X=X=X=X=X=X=X=X=X=X=Xg I.!.Q.{.+X+XOX+X+XOX/.W.!.I.| ' H ,.E.!.Y.9 =X=X=X=X=X=X=X=X=X=X=X=X",
"=X=X=X=X=X=X=X=X=X=X=X=X=X=X=XJ Q.Q./.+X+X+X+X+X+X+X{.Q.Q.^.E.I.T.~.Q.Q.~.h =X=X=X=X=X=X=X=X=X=X=X=X",
"=X=X=X=X=X=X=X=X=X=X=X=X=X=X=XH.^.^.OX+X+X+X+X$X+X+XOX/.^.^.^.^.^.^.^.^.^.W =X=X=X=X=X=X=X=X=X=X=X=X",
"=X=X=X=X=X=X=X=X=X=X=X=X=X=Xu (.^.'.+X+X+X+X+X+X$X+X+X}./.^./.^./.^.`.{./.H.=X=X=X=X=X=X=X=X=X=X=X=X",
"=X=X=X=X=X=X=X=X=X=X=X=X=X=Xh /./.OX$X$X$X$X+X$X$X+X$X$X}.`./././.'.OX+X/.H.=X=X=X=X=X=X=X=X=X=X=X=X",
"=X=X=X=X=X=X=X=X=X=X=X=X=X=XU '.'.+X$X$X$X$X$X$X$X$X$X$X$X$XOXOXOX+X$X+X'.U.=X=X=X=X=X=X=X=X=X=X=X=X",
"=X=X=X=X=X=X=X=X=X=X=X=X=X=XY '.}.$X%X$X$X$X%X$X$X$X%X$X$X$X$X$X$X$X$X+X'.J.=X=X=X=X=X=X=X=X=X=X=X=X",
"=X=X=X=X=X=X=X=X=X=X=X=X=X=XY {.OX$X$X%X%X%X$X%X%X%X%X$X%X$X%X$X%X%X%XOX{.T =X=X=X=X=X=X=X=X=X=X=X=X",
"=X=X=X=X=X=X=X=X=X=X=X=X=X=XP {.OX%X%X%X%X%X%X%X%X%X%X%X%X%X%X%X%X%X%XOX{.L =X=X=X=X=X=X=X=X=X=X=X=X",
"=X=X=X=X=X=X=X=X=X=X=X=X=X=X9 |.OX%X%X%X%X*X%X%X%X%X*X%X*X%X*X%X%X%X$X}.).% =X=X=X=X=X=X=X=X=X=X=X=X",
"=X=X=X=X=X=X=X=X=X=X=X=X=X=X=XK.OX+X*X*X*X*X*X*X%X$X%X*X*X*X*X*X*X%XOXOXR =X=X=X=X=X=X=X=X=X=X=X=X=X",
"=X=X=X=X=X=X=X=X=X=X=X=X=X=X=Xa @X+X$X*X*X*X%X$X+XOX+X$X*X*X*X*X$X+XXXL.$ =X=X=X=X=X=X=X=X=X=X=X=X=X",
"=X=X=X=X=X=X=X=X=X=X=X=X=X=X=X=XR oX+X$X$X%X$X$X+X+X+X+X+X$X$X+X+X+X.Xq =X=X=X=X=X=X=X=X=X=X=X=X=X=X",
"=X=X=X=X=X=X=X=X=X=X=X=X=X=X=X=X=XR #X%X$X$X$X$X$X$X&X$X$X$X$X$X$X Xq =X=X=X=X=X=X=X=X=X=X=X=X=X=X=X",
"=X=X=X=X=X=X=X=X=X=X=X=X=X=X=X=X=X=X=X=X=X=X=X=X=X=X=X=X=X=X=X=X=X=X=X=X=X=X=X=X=X=X=X=X=X=X=X=X=X=X"
};
