/* XPM */
static char *a5e899d5a47948efe8e3ab06037f55e3g3kn3FMrMo9eLp6e[] = {
/* columns rows colors chars-per-pixel */
"50 50 160 2 ",
"   c None",
".  c #2B2425",
"X  c #2C2823",
"o  c #2D2D2D",
"O  c #2D2D2F",
"+  c #2C2F2F",
"@  c #2E2E2F",
"#  c #282F30",
"$  c #2E3031",
"%  c #2E3134",
"&  c #2C3235",
"*  c #23373E",
"=  c #2F3238",
"-  c #2D3638",
";  c #2D343A",
":  c #2D373A",
">  c #2F373B",
",  c #2D363C",
"<  c #2B383C",
"1  c #2C3A3C",
"2  c #2C393E",
"3  c #2E393E",
"4  c #2E393F",
"5  c #2D3940",
"6  c #2D3A40",
"7  c #2D3A41",
"8  c #2D3B43",
"9  c #2C3C42",
"0  c #2C3D42",
"q  c #2D3D43",
"w  c #2B3F46",
"e  c #2D3C45",
"r  c #2D3D45",
"t  c #2D3F47",
"y  c #2D3F48",
"u  c #2C4049",
"i  c #2D424B",
"p  c #2F414D",
"a  c #2D444E",
"s  c #2D444F",
"d  c #2E4751",
"f  c #2E4752",
"g  c #2D4755",
"h  c #2F4754",
"j  c #2B4A57",
"k  c #244258",
"l  c #2E4A59",
"z  c #2C4A5A",
"x  c #2D4A5A",
"c  c #314C5A",
"v  c #344E59",
"b  c #29525B",
"n  c #2D505D",
"m  c #1C536C",
"M  c #2E5566",
"N  c #255D67",
"B  c #2B5868",
"V  c #2B5B6A",
"C  c #325C67",
"Z  c #1E6070",
"A  c #1A6875",
"S  c #1E7276",
"D  c #336978",
"F  c #396D7B",
"G  c #3B717C",
"H  c #1B7286",
"J  c #297D85",
"K  c #1E9298",
"L  c #22828D",
"P  c #228599",
"I  c #258598",
"U  c #189DA8",
"Y  c #298FAD",
"T  c #2A9AA2",
"R  c #229EB4",
"E  c #1AB3BA",
"W  c #33A4A9",
"Q  c #3EB1B4",
"!  c #429DA4",
"~  c #5A9EA4",
"^  c #5FAFB3",
"/  c #63ACB0",
"(  c #60B2BB",
")  c #09A7DE",
"_  c #0AB7D1",
"`  c #08A1E3",
"'  c #05B9F5",
"]  c #0FD6D7",
"[  c #1DD2D3",
"{  c #26DFDD",
"}  c #3BDCDD",
"|  c #1BCEFB",
" . c #31DDED",
".. c #23CEF4",
"X. c #07F0EC",
"o. c #19E6F6",
"O. c #26E3E7",
"+. c #28E8E9",
"@. c #2DF6F2",
"#. c #2CFBF4",
"$. c #3CFDF8",
"%. c #6DC2C7",
"&. c #7BD2D6",
"*. c #7DD6DA",
"=. c #4BE2F9",
"-. c #58E4FB",
";. c #4AF6F5",
":. c #45FAF6",
">. c #47FAF6",
",. c #46FDF7",
"<. c #5FF5F3",
"1. c #59F7F5",
"2. c #51FEF8",
"3. c #79ECEC",
"4. c #6FFDFB",
"5. c #79F4F4",
"6. c #78F9F7",
"7. c #76F6F9",
"8. c #71FDFB",
"9. c #78FCFB",
"0. c #7CFDFA",
"q. c #83DBE0",
"w. c #88DFE4",
"e. c #80FAFA",
"r. c #83FCF8",
"t. c #85FCFB",
"y. c #84FDFC",
"u. c #84FEFC",
"i. c #87FEFC",
"p. c #88FBFB",
"a. c #8AFEFA",
"s. c #8AFEFB",
"d. c #8BFEFB",
"f. c #8DFDFA",
"g. c #8DFEFB",
"h. c #8BFDFD",
"j. c #88FEFC",
"k. c #8BFEFC",
"l. c #8BFEFD",
"z. c #8DFDFC",
"x. c #8DFDFD",
"c. c #8FFDFC",
"v. c #8EFEFD",
"b. c #92F6FA",
"n. c #90FDFB",
"m. c #92FEFA",
"M. c #93FEFB",
"N. c #96FCFB",
"B. c #90FDFC",
"V. c #92FEFC",
"C. c #93FEFC",
"Z. c #93FEFD",
"A. c #95FDFD",
"S. c #97FCFC",
"D. c #96FDFC",
"F. c #98FDFC",
"G. c #99FDFC",
"H. c #9BFDFC",
"J. c #99FEFD",
"K. c #9BFEFD",
/* pixels */
"                                                                                                    ",
"                                                                                                    ",
"                                                                                                    ",
"                                                                                                    ",
"                                                                                                    ",
"                                                                                                    ",
"                                                                                                    ",
"                                                                                                    ",
"                                                                                                    ",
"                                                                                                    ",
"                                                                                                    ",
"                                                                                                    ",
"                                                                                                    ",
"                                                                                                    ",
"                                                                                                    ",
"                                                                                                    ",
"                                                                                                    ",
"                                                                                                    ",
"                                                                                                    ",
"                                                                                                    ",
"                                                                                                    ",
"                                            k                                                       ",
"                                          m ` .                                                     ",
"                                        # ) ' *                                                     ",
"                                        Z ..| A                                                     ",
"                                        H =.-._ X                                                   ",
"                                    = 1 N  .b.o.S O                                                 ",
"                                O 6 b U B E e.7.] s %                                               ",
"                                6 f L X.I P ;.n.>.K 0 O                                             ",
"                              % s B [ #.R Y @.k.r.{ n <                                             ",
"                              1 l T >.4.+.O.$.k.s.1.J e                                             ",
"                              6 M } 0.u.2.,.8.v.s.9.W y                                             ",
"                              w D <.f.Z.s.k.v.v.f.u.Q i                                             ",
"                              0 F 6.n.Z.Z.Z.Z.Z.n.t.! e                                             ",
"                              > C 3.H.H.H.S.H.H.S.5.G 0                                             ",
"                              $ p ^ N.S.k.u.k.v.p.( f >                                             ",
"                                > v / w.*.%.&.q.~ c 1 O                                             ",
"                                  > e g j l l g i 1 O                                               ",
"                                            6 ,                                                     ",
"                                                                                                    ",
"                                                                                                    ",
"                                                                                                    ",
"                                                                                                    ",
"                                                                                                    ",
"                                                                                                    ",
"                                                                                                    ",
"                                                                                                    ",
"                                                                                                    ",
"                                                                                                    ",
"                                                                                                    "
};
