/* XPM */
static char *_b127d85598647bfbdd7810b7de5ffacjiRX5lpXcigUhZPF[] = {
/* columns rows colors chars-per-pixel */
"50 50 196 2 ",
"   c #1C1708",
".  c #1D1908",
"X  c #231D0B",
"o  c #342912",
"O  c #382F18",
"+  c #353015",
"@  c #3C3416",
"#  c #3F3A17",
"$  c #3D3418",
"%  c #443518",
"&  c #463419",
"*  c #443B1B",
"=  c #4C3A1C",
"-  c #503619",
";  c #593F18",
":  c #4C3F21",
">  c #45411A",
",  c #4B431C",
"<  c #4F4A1E",
"1  c #51431F",
"2  c #544C1E",
"3  c #55521C",
"4  c #58531F",
"5  c #5F5B1F",
"6  c #61471F",
"7  c #64651E",
"8  c #4E4222",
"9  c #534324",
"0  c #5C4422",
"q  c #544D23",
"w  c #5B4D24",
"e  c #56472A",
"r  c #564B2A",
"t  c #5C4D2B",
"y  c #565323",
"u  c #5B5425",
"i  c #5D5A23",
"p  c #5D5529",
"a  c #5E5A2A",
"s  c #614420",
"d  c #644923",
"f  c #684C25",
"g  c #634D29",
"h  c #6B4D29",
"j  c #615425",
"k  c #625D26",
"l  c #695C26",
"z  c #63552A",
"x  c #6B522B",
"c  c #645C2B",
"v  c #6B5C2C",
"b  c #73552C",
"n  c #79572D",
"m  c #725B2E",
"M  c #795B2D",
"N  c #645C30",
"B  c #6C5C31",
"V  c #755630",
"C  c #735D32",
"Z  c #7C5D32",
"A  c #656324",
"S  c #6A6327",
"D  c #676923",
"F  c #6C6A26",
"G  c #65622A",
"H  c #6B632C",
"J  c #6D692B",
"K  c #716B26",
"L  c #71642E",
"P  c #736B2E",
"I  c #717026",
"U  c #6C6332",
"Y  c #696437",
"T  c #736333",
"R  c #7C6435",
"E  c #756B33",
"W  c #7C6B35",
"Q  c #766339",
"!  c #7C6539",
"~  c #736D3A",
"^  c #7D6B3A",
"/  c #777035",
"(  c #7B7234",
")  c #7D713D",
"_  c #7D7939",
"`  c #815D32",
"'  c #836335",
"]  c #8A6735",
"[  c #836B36",
"{  c #886B37",
"}  c #836639",
"|  c #89663A",
" . c #846B3B",
".. c #8A6C3C",
"X. c #926E3D",
"o. c #817335",
"O. c #877738",
"+. c #85723D",
"@. c #8C733D",
"#. c #8B7A3D",
"$. c #92743F",
"%. c #99773E",
"&. c #947A3D",
"*. c #856F40",
"=. c #8B6F41",
"-. c #867341",
";. c #8C7342",
":. c #8E7944",
">. c #8E7449",
",. c #8F7949",
"<. c #937542",
"1. c #9A7543",
"2. c #947A44",
"3. c #9B7C45",
"4. c #93774B",
"5. c #9F7548",
"6. c #947B4A",
"7. c #9B7C48",
"8. c #9A7D4A",
"9. c #977A50",
"0. c #A17A44",
"q. c #A37D45",
"w. c #A27D46",
"e. c #A27D49",
"r. c #95803F",
"t. c #948243",
"y. c #9D8245",
"u. c #96804B",
"i. c #9D824B",
"p. c #9E884C",
"a. c #9D8351",
"s. c #A48346",
"d. c #A3824D",
"f. c #A5814E",
"g. c #A3844C",
"h. c #AA854D",
"j. c #A6894D",
"k. c #AB8B4D",
"l. c #B2864D",
"z. c #B28C4E",
"x. c #AF904F",
"c. c #B4904F",
"v. c #A48552",
"b. c #AA8653",
"n. c #A68A53",
"m. c #AC8C54",
"M. c #A88759",
"N. c #A48B5A",
"B. c #AC8D5A",
"V. c #B08750",
"C. c #B38D53",
"Z. c #B98E54",
"A. c #B28E59",
"S. c #AE9155",
"D. c #AE905A",
"F. c #B49254",
"G. c #BA9355",
"H. c #B69855",
"J. c #BA9A57",
"K. c #B4935B",
"L. c #BB955B",
"P. c #B6995A",
"I. c #BC9A5C",
"U. c #AD9064",
"Y. c #B59561",
"T. c #B79866",
"R. c #BC9A62",
"E. c #C09857",
"W. c #C3975B",
"Q. c #C39B5D",
"!. c #C39D62",
"~. c #C99E61",
"^. c #C49F6B",
"/. c #C5A264",
"(. c #CAA365",
"). c #CBA962",
"_. c #C5A06A",
"`. c #CBA369",
"'. c #CDA86B",
"]. c #D0A366",
"[. c #D0AD66",
"{. c #D0A768",
"}. c #D3AB6D",
"|. c #D9AF6F",
" X c #DBB16F",
".X c #C7A670",
"XX c #D5AE71",
"oX c #CBB670",
"OX c #D6B071",
"+X c #DBB272",
"@X c #DCBC7E",
"#X c #E0B46F",
"$X c #E1B779",
"%X c #E5BB7C",
"&X c #DDC489",
"*X c #EBC080",
/* pixels */
"V g n ] X.3.{ R k w b ' | <.$.| ' w.X...C Z R x % + f f d - = g b x 6 d % h G ;.0.b M 1.Z ` ; h d f ",
"V f d d ' M { <.i 9 v Z 0.h.l.0...<.1.$.%.X.} } , @ } ..b V x d s h h n ' | k <.V.1.e.b f ` ' <.] Z ",
"b M } M ..{ { R 3 9 C { w.C.Z.1...<.3.3.s.7.....1 $ ....M M ' ' ' Z Z ..1.A.i { Z.1.3.Z Z @.h.w.w.' ",
"Z ....<.2.3.<.} i z ..w.V.G.C.1.} <.<.h.h.7.@.@.j 2 ..<.Z R { ' ' | | 5.e.<.u ^ b.3.3.} <.<.e.3.f...",
"<.2.3.<.v.7.s.R k l W W [ C.k.7.<.<.2.g.f.d.3.<.j F w m } | <.} | | | f.m.<.@ 7.Z.e.h.;.7.<.v.2.s.2.",
"@.@.;...<.<.} j i i c H E +.E ....<...$.3.<...R u A S { { { ..R Z b Z v.2.^ * >.d.=.<.T }  .2.@.<. .",
"a k q @ > < i k J c y u y i p p y q q i A i 5 i 2 i 4 4 u k k c 2 @ u k i k a o # @ $ X . + X     X ",
"2.2. .} @.7.<.P J E ;...v.B.7.<.@.$.<.v / O...} $.3.<...{ +.[ +.H P @.[ ;.;.m.m.@.@.;.E A k 2.;.} T ",
"m.n.7.7.h.s.7.l J r.e.h.].}.W.k.h.s.h.} J F.h.1.f.C.f.3.1.e.f.3.c [ h.s.v.d.'.`.h.m.h.2.J @.7.7.d.7.",
"7.7.<.@.a.<...c J o.i.@.j.m.7.s.7.<.@.m u k.1.=.7.1.<.<...<.b.7.u <.h.7.2.>.6.K.h.m.7.,.u O.<.@... .",
"! R { <.x <.B U P o.i.2.O.( m.=.x V.L.k.s.y.[ L P 2.<.v 7.e.f.b.7.M.7.<.! S H ~ <.v.i.i.2.>.:.W T c ",
"v ..;.[ c W B ) H W 2.2...7.3.C g Y.v.7.@.E J A D S k a R ^ ^ ;.-. .;.;.! U c U L } ;.} C T ^ ..! j ",
"y G c G H H a N p c c u j g 0 % % g 0 1 H G S i A S G k G G c a k G a c a c p c 9 = * = = = w k i i ",
"T m L G S G c ! v R @...<.f.1.x x s.1.{ E W L m  .;.L J F k v ^ +.^ T T B H k U R C C R v C C c k y ",
"<.<...c G J } 1.i.s.s.e.e.C.C.Z R Z.l.h.1.w.0.3.7.f.7.H L c v h.m.m.v.7.<.B k P W } !  .C R { } ! p ",
"m.7.3...H [ 1.m.k.g.j.C.V.Q.L.' R G.W.Z.z.k.k.h.s.h.1.J 3.v.h.V.K.f.m.7.2.T c P  .! ! { ! }  .@.@.j ",
"3.3.s.3.H O.s.g.F.m.k.Q.G.Q.W.| R G.Q.E.G.z.G.C.h.V.s.F 7.b.L.G.C.m.v.v.7.>.c H <.R ....}  ...<.<.c ",
"h.<.f.g.S @.h.3.m.C.k.~.G.~.(.<.! Q.Q.W.Z.Z.G.z.f.C.s.F &.m.L.G.G.C.M.M.7.v.z l 2.! ;.@.;. ...<.;.p ",
"K.j.f.s.H ;.z.s.I.F.z.C.C.~.~.@.T Q.W.Q.G.E.Q.Z.m.C.i.k $.K.!.G.L.A.h.C.v.v.T c @.! ..<.<.....<.;.j ",
"F.k.C.k.H 2.Z.j.G.F.k.F.Z.~.W.[ C Q.Q.W.G.G.`.Q.C.C.h.j k.n.L.h.m.d.B.R.K.n.^ H @...2.3.3...;.<.;.z ",
"F.j.G.k.U W F.k.G.G.m.L.C.Q.Q.} x I.~.Q.I.F.~.Q.L.Z.h.w K.i.h.h.K.v.v.7.B.i.;.k } ;.<.3.i.;.<.<.@.u ",
"k.s.F.k.U o.G.Z.k.C.C.Q.Q.].W.@.w F.W.Q.C.e.e.m.L.C.g.w R.n.K.L.^.A.C.7.D.7.^ H @.7.7.v.2.<.<.2.@.w ",
"j.j.k.k.H P 3.z.h.F.x.F.I.(.Q. .k [ u.b.V.F.L.'.L.F.p.u Q.m.G.~.!.L.m.m.v.6.H G ..i.g.s.i.2.2.2.<.p ",
"k.s.k.k.J E 1.k.@.G.Z.k.Q.Q.2.a W oX{.W.Q.I.C.!.L.C.2.j L.K.R._.!.!.n.K.m.7.H k 7.! i.h.i.2.2.2.<.j ",
"m.0.C.C.P ( C.c.i.F.F.K.I.[.OXP / }.Q.Q.W.Q.F.!.G.F.2.c '.m.L.!.Q.L.A.m.K.7.B G g.3.7.3.i.2.6.2.;.j ",
"s.s.s.s.L o.G.G.G.G.H.k.).#X|.O._ (.(.Q.Q.Q.F.L.I.L.d.U !.A.L.!.!.K.C.n.v.;.U H h.d.m.g.[ i.7.2.<.z ",
"1.s.h.h.l y.z.F.G.I.F./.(. X{.#.#.|.+X(.!.Q.L.L.G.L.n.L L.m.L.(.Q.I.F.K.v.i.U / h.g.Y.K.n.<.7.d.7.N ",
"3.k.k.F.v g.j.G.F.h.k.I.L.Q.Q.@.t.+X+X{.(.(.Q.K.K.C.m.E !.K./._.`.Q.I.F.m.n.T W k.n.L.R.K.K.g.v.7.c ",
"y.g.k.F.j y.k.z.z.F.g.F.C.Q.Q.i.#. X%X%X|.I.(.L.L.L.n.L !.L./.(.XX'.Q.L.m.n.E E k.m.K.!././.K.m.7.c ",
"g.k.F.J.c 7.G.z.P.&Xg.z.H.G.L.2.#.$X*X$X+XQ.Q.L.I.m.2.H !._./.}.OXXX`.L.K.j.T E S.F.P./._.R.D.m.2.p ",
"k.F.H.H.v @.&.J.(.@Xk.F.H.F.C.&.( |.+X}.(.(.J.I.K.>.4.x R.L.!.}.XX(./.K.m.m.E E j.F.P.P.R.L.n.g.2.z ",
"m.!./.I.j j.H.z.F.I.j.F.L.C.C.&.P '.(.!./.Q.I.K.~.(.K.B !.L.Q.OXXX!.P.m.Y.S.U J S.F.F.K.P.K.n.i.;.i ",
"R.I.Q.J.L k.J.F.c.F.H.F.L.k.m.@.K H.F.G.I.I.Q.L.!.(.m.z K.m.K._._.!.b.R.m.m.L S m.m.S.S.F.m.i.7.>.c ",
"B.S.K.S.E 2.F.F.j.j.m.K.F.n.m.;.J s.!.!.Q.F.F.Q./.'.R.u D.m.K.m.K.C.7.K.v.K.T H g.n.m.d.n.i.7.2.R k ",
"g.n.n.7.P #.H.k.m.k.k.F.F.n.m...P @.L.K.F.F.K.I.Q.F.C.w n.m.m.m.m.<.Y.K.n.B.T E g.g.g.i.7.7.2.[ k u ",
"2.7.7. .H +.&.s.y.h.k.k.k.7.;.T S H m.j.C.m.K.C.K.K.i.w n.g.v.v.7.a.R.B.v.B.E P 7.i.2.2.2.;.2.v k i ",
" .<.;.T U P O.&.3.<.1.y.s.m.v.W E k L  .d.h.m.K.K.m.+.i ;.<. .c T m.n. .6.^ k E ^ ^ T  .R C ^ w k a ",
"B B U U U c v R R R } [ @.[ E H P A S G T v T ^ ;.=.Q , T ^ N c T -.*.c 6.H A J G G G G k i 4 i p q ",
"v T U ^ ~ E B x v g x v B C W ( _ O./ / E J E J ) ~ J E E Y w B U Y c c H J S / J P J J H J S G H $ ",
"&.x.k.m.v s.s.7.g.k.H.H.k.p.p.T ) G.j.h.k.7.t.i.L.K.a.H .XD.m.R.K.K.R.m.u.n.B E 2.p.p.2.;.+.U z @.t ",
"c H U U G H j c B T U U k S k N c v i i H v 8 : 9 e 9 * t r r t j U Y B c H z c L S c N y c w 9 9 * ",
"2.2.6.2.p.y.@.r w 2.#.@.y.2.2.j.k.k.i.C H :.2.i.g.n.i.n.B.n.a.u.v U 6.;.;.2.;.u.2.#.+.z G H L ^ ..;.",
"7.1.i.j.P.F.i., 2.j.g.j.Q.F.n.(.F.m.g.v ^ m.g.v.m.n.B.P.K.m.m.K.c E K.D.K.K.D.R.S.n.n.v L 6.;.;.4.4.",
"W R ..,.2.@.W , +.;.6.2.n.3.,.n.3.1.} @ J ^ ^ -.:.+.@.+.W U ^ -.y i ^ M.Y.T.N.Y.n.v.2.i H c k c c c ",
"7 u r 8 q u H ~ a y u , , 2 c H p q u p U U H H J J I D A k N p G k i Y a p y , * $ , < u u u y p q ",
"[ 2.m.j.j.y.g. .a C -.E j.P.D.*.j.$.j.i.t.r , :.i.p.y.p.p.u.p.i.p.i.6.a.c H ,.n.a.i.u.6.i.B.7.>.;...",
"6.3.y.j.3.i.i.^ q T :.2.m.K.B.>.2.m.h.n.m.8 O 7.m.Y.K.K.Y.D.m.B.S.K.D.n.p c B._.m.m.B.v.i.M.i.6.<.;.",
"<.@.>.7.n.3.$.T i v 2.7.g.D.T.4.S.h.3.g.@.: $ 2.n.D.K.L.K.m.m.v.m.D.m.B.j c U.^.K.B.B.v.6.7.7.>.;. .",
"7.6.;.6.4.;...B 3 v >.@.@.v.M.N.g.3.7.2.c $ @ 1.n.n.@.7.6.v.B.i.n.K.m.B.u k a.B.T.v.v.a.4.7.7.;.;.} ",
"6.4. .!  .} =.B > B 4. ...6.;.N.v.M.v.^ G + o <.v.Y.v.B.6.M.M.7.7.v.B.6., k T l k 4.4.4.;.9.6.7.>.! "
};
