/* XPM */
static char *result[] = {
/* columns rows colors chars-per-pixel */
"50 50 176 2 ",
"   c #1E1A16",
".  c #1C1B1B",
"X  c #321E0E",
"o  c #231C16",
"O  c #2C1E14",
"+  c #231C1A",
"@  c #2B1D1C",
"#  c #321F12",
"$  c #311F18",
"%  c #34200E",
"&  c #3C220E",
"*  c #242117",
"=  c #2D2014",
"-  c #26211C",
";  c #2C221C",
":  c #332114",
">  c #3B2413",
",  c #3E2917",
"<  c #34251B",
"1  c #3A271C",
"2  c #3E2A1D",
"3  c #1D1724",
"4  c #1E1A22",
"5  c #231A25",
"6  c #232221",
"7  c #2B2421",
"8  c #332521",
"9  c #3E2526",
"0  c #362A22",
"q  c #3A2B21",
"w  c #4E2506",
"e  c #4C2A07",
"r  c #44250C",
"t  c #4C260A",
"y  c #44280B",
"u  c #4C2A0A",
"i  c #522505",
"p  c #5B2705",
"a  c #532B07",
"s  c #5B2A05",
"d  c #522409",
"f  c #582708",
"g  c #542B0A",
"h  c #5D2D0A",
"j  c #54300D",
"k  c #5E310A",
"l  c #432612",
"z  c #442913",
"x  c #4B2C13",
"c  c #452B1B",
"v  c #4B2D1A",
"b  c #562F13",
"n  c #44311F",
"m  c #4E321E",
"M  c #553113",
"N  c #5C3412",
"B  c #52321B",
"V  c #5C371E",
"C  c #602603",
"Z  c #602A07",
"A  c #622E09",
"S  c #692F09",
"D  c #633207",
"F  c #64330B",
"G  c #6A350C",
"H  c #6D380F",
"J  c #71350B",
"K  c #743A0D",
"L  c #7C3D0E",
"P  c #643512",
"I  c #643913",
"U  c #6C3A12",
"Y  c #63371E",
"T  c #6F361A",
"R  c #65391E",
"E  c #6A3C1C",
"W  c #753C12",
"Q  c #7C3E11",
"!  c #743E1C",
"~  c #7B3D1C",
"^  c #422721",
"/  c #412B20",
"(  c #4D2B21",
")  c #542F23",
"_  c #433025",
"`  c #4F3321",
"'  c #533521",
"]  c #5C3225",
"[  c #5C3820",
"{  c #5B3229",
"}  c #603620",
"|  c #623B21",
" . c #693F23",
".. c #703D22",
"X. c #6F401C",
"o. c #774117",
"O. c #7D4113",
"+. c #75421D",
"@. c #7C441C",
"#. c #654023",
"$. c #6C4120",
"%. c #714122",
"&. c #7A4521",
"*. c #7F4925",
"=. c #823E0E",
"-. c #813F11",
";. c #86420F",
":. c #8E460F",
">. c #91460F",
",. c #854414",
"<. c #8E4613",
"1. c #874817",
"2. c #8E4914",
"3. c #82451B",
"4. c #8B471A",
"5. c #86491E",
"6. c #8C4A1A",
"7. c #914614",
"8. c #944913",
"9. c #9D4E15",
"0. c #93461B",
"q. c #924C1B",
"w. c #9E4D19",
"e. c #9F5016",
"r. c #A24E16",
"t. c #A14E18",
"y. c #A45216",
"u. c #AA5416",
"i. c #AE5817",
"p. c #A3541D",
"a. c #AC5519",
"s. c #AD581A",
"d. c #BD5D17",
"f. c #B2571D",
"g. c #B9561A",
"h. c #B45A1A",
"j. c #BD5E19",
"k. c #BC601E",
"l. c #8A4624",
"z. c #834A23",
"x. c #8A4C21",
"c. c #964D25",
"v. c #984D26",
"b. c #974C28",
"n. c #9D5422",
"m. c #9F5927",
"M. c #99512C",
"N. c #A35423",
"B. c #AC5A22",
"V. c #B45B24",
"C. c #BE5D23",
"Z. c #B55928",
"A. c #BE6021",
"S. c #C15E1E",
"D. c #C5621C",
"F. c #CA641A",
"G. c #D2691D",
"H. c #D96C1E",
"J. c #C15F23",
"K. c #C46124",
"L. c #CA6622",
"P. c #C76825",
"I. c #CE6A22",
"U. c #C36028",
"Y. c #CB6A28",
"T. c #D26720",
"R. c #D36B23",
"E. c #DB6E22",
"W. c #D47026",
"Q. c #DC7222",
"!. c #E47324",
"~. c #EB7624",
"^. c #EC7826",
"/. c #E4762A",
"(. c #E57828",
"). c #F17925",
/* pixels */
"] { { c 7 m E [ { ] { { ] c + c E Y { ] { { ] ( ; q E } ] ] { ] ] ) O + E E ] ] ] ] { ] # 5 E E [ { ",
"f.f.V.Q # B.T.j.h.h.f.f.f.=.l 6.E.j.f.f.f.h.f.8.t  .!.j.f.f.f.f.V.t.i c ~.J.f.h.f.f.V.f.h < ^.F.f.f.",
"<.<.2.S : N.a.<.<.>.<.2.q.J r 5.j.<.:.:.>.<.0.O.r R F.<.<.7.7.7.<.,.w 2 E.<.7.7.<.<.<.2.h + !.7.:.>.",
"O.3.O.D O O.<.Q L L O.3.-.G & T 7.L Q L O.O.O.J r v 9.Q O.L L L ,.W w < r.L L Q L Q O.,.p + u.L O.L ",
"z r r r O X r r y r z y r r X : r r r & z x r r # O r r r & y z r r & o r r r r r y z y r . r r & r ",
"m Y B B B B B B > * c Y B B B B B B , = 2 V [ B b B B B z = < | [ B b m B B x * - [ [ B M B B B B = ",
"V.Q.D.d.d.d.d.d.O.< 5.!.F.d.d.S.d.d.<.z X.!.F.d.d.d.d.k.y.z v (.T.d.d.d.S.d.i.b 7 ~.T.d.d.d.d.d.d.h ",
"s.y.2.7.7.2.0.q.I : 3.h.<.7.<.7.<.<.W <  .D.<.<.7.7.7.7.3.z c I.7.<.7.7.7.<.,.v + Q.<.2.7.7.7.2.q.B ",
"5.<.O.Q -.-.3.O.N @ E 7.,.Q -.Q -.O.G < ) 9.-.-.,.Q ,.@.U l < t.Q -.-.O.-.-.W u 4 a.L ,.Q ,.Q ,.@.g ",
"& r y r r r y y l # : l r r y y y y r : O r r r y r y y z > + y y r r y y y l r   r r r r y y x y z ",
"9 ^ ^ 5 . 1 c c 9 9 9 ^ 9 8 6 0 c c 9 9 9 9 9 8 . @ c c 9 9 ^ 9 9 9 + 6 z c ^ 9 9 9 9 9 @ . z v 9 9 ",
"J.J.J.=.X B.!.L.J.C.J.C.C.<.z c.!.T.k.C.U.C.C.9.t E ~.G.C.J.J.J.C.f.h n ).E.C.J.A.C.U.C.C + ).E.K.D.",
"<.<.0.G % p.f.:.<.>.7.<.7.L & 6.j.:.<.:.7.7.2.L y | F.<.<.>.7.7.<.1.d 2 !.:.7.<.<.<.<.<.s + ^.>.:.:.",
"1.4.1.G : 6.8.1.;.,.,.1.1.G & ! y.,.,.,.,.1.1.W t B u.<.;.,.;.,.1.3.w < h.;.,.,.,.<.1.1.s + d.,.,.,.",
"x d w w O > d t t u g b i w % > d t w t x g d t & O d t t t t g g w r + i t t u u u g i t + d d w u ",
"= 8 ; < = ; ; ; + + 7 < ; < = ; ; = * + ; < 7 = < = ; ; * + - 0 8 ; : ; = < ; + . q 8 ; : ; ; ; ; o ",
"V.^.G.F.F.F.F.F.=.> 6.~.H.F.F.F.F.F.8.c E ^.E.F.F.F.F.F.u.z B ^.!.F.F.F.F.F.j.u + ^.~.F.F.F.F.F.F.s ",
"B.u.<.<.7.7.7.7.G : z.j.<.7.2.7.7.0.o.> E D.7.7.7.7.7.<.O.z c R.7.<.7.7.7.7.<.x + !.>.<.<.<.<.<.<.N ",
"q.w.<.<.<.-.<.3.F ;  .r.<.<.<.<.4.6.U < V a.<.<.<.<.<.,.o.> 9 h.,.<.<.<.<.6.*.u 4 j.<.<.<.<.<.<.3.g ",
"& u u u g d u u u = : w u u e e u u u % = t t e u u u u u y o w u u u y w j u u   e e e u u u w u u ",
"5 5 5 5 4 7 * + 5 5 5 5 5 5 4 . O + 5 5 5 5 5 5 4 6 O + 5 5 5 5 5 5 4 . O @ 5 5 5 5 5 5 4 4 = o 5 5 ",
"K.U.U.-.> B.(.T.J.K.J.J.J.7.r 5.~.W.K.K.J.J.K.w.t #.!.E.J.K.J.J.U.h.i c ~.!.K.K.U.U.K.U.s ; ~.(.F.K.",
"<.<.7.K : B.s.<.>.7.8.7.7.K > 6.j.7.>.<.7.7.<.O.z R G.<.>.7.8.7.<.;.w 2 Q.:.>.>.<.7.:.<.h 7 ^.7.7.7.",
"7.q.q.G : q.y.7.2.<.0.7.q.K & 3.a.6.2.2.7.7.q.O.y V j.2.<.7.7.8.2.1.a 1 D.<.<.7.2.2.2.q.h o G.<.<.2.",
"g k s a X r p g g a h N s a > > s s g d h j h a r # h f a d a h s s u o s h a a a a k s d + s g a a ",
"7 . .     . . . . + . + . o . . . . .   + 6 +     . . . .   . 6 5 .   . .   . . . 6 6 . o . . . + . ",
"V.~.G.F.F.F.F.D.O.> x.(.G.F.F.F.F.D.7.l %.(.Q.F.F.F.F.F.y.y m (.(.F.F.F.D.F.j.t = /.~.D.F.F.F.F.D.s ",
"B.i.8.8.8.8.7.8.E : z.d.8.8.7.8.8.8.W > E L.8.7.7.8.7.8.;.v c Q.8.8.8.7.7.8.<.x * /.8.8.8.7.8.8.7.M ",
"w.r.7.<.0.7.7.6.F = ..a.7.2.7.0.7.2.U < [ g.7.7.7.7.7.0.@.> q S.7.7.7.<.7.2.1.y 5 F.<.7.7.7.7.7.6.M ",
"y a d a g a g j a # > a a a g d g a e & : g a d g a d j j y * a a w g g g a d t . a g g a d g j M a ",
"3 3 3 5 .   + . 3 3 3 3 3 . + 6 o . 4 3 3 3 3 + . . o   4 3 3 5 3 5 4 + o   4 3 3 3 3 3 . . o + 5 4 ",
"Z.Z.Z.K # n.R.K.V.Z.Z.Z.Z.3.l z.T.L.V.Z.Z.Z.Z.0.y V R.L.V.V.Z.Z.Z.N.w q W.R.V.V.Z.Z.Z.V.f O R.R.V.V.",
"8.8.8.K # B.h.9.8.8.7.8.8.O.> q.D.8.8.8.8.8.8.=.y R G.9.8.8.8.8.8.<.g _ ~.8.8.8.8.8.8.8.s * ).w.8.8.",
"8.6.q.H : w.y.7.7.7.2.2.0.K & 5.h.2.7.7.>.8.6.O.t V j.<.2.2.8.7.7.<.g 1 F.<.<.8.8.>.<.6.s + G.7.7.7.",
"k G D s # g S h h D h F S s > l G Z h D D D G h r > D A A A h k D A u @ J Z h h k A D G g   J A h h ",
"+ + o o . . o + o o ; ; + o o . o + o o o ; + o o   + o o o + ; ; o o . o o o * o * ; + o . o o o + ",
"n.L.h.i.i.s.s.i.W : &.L.k.i.s.s.i.s.O.: | P.k.s.u.a.s.s.8.& c Y.K.i.i.i.s.s.y.r + P.P.s.i.s.i.s.s.u ",
"A.j.e.w.e.e.w.9.H : 5.D.e.e.9.9.9.e.O., X.G.y.w.e.w.9.r.,.y m E.y.9.w.w.e.9.7.x * !.y.e.r.9.9.w.e.g ",
"n.r.7.7.<.7.8.<.P @ @.a.7.7.7.7.7.6.+.> | g.7.7.7.7.7.7.o.& q F.<.<.7.7.7.7.5.M 5 F.7.7.7.7.7.7.6.g ",
"M k k k k k D k g = z F k k k k k I j % < G k k k k k k k r * H k k k D k k N u . H k k k k D k k d ",
"@ @ @ @ - < = O @ + + @ @ @ * O = = @ + 5 @ @ = = * = O @ @ . @ @ @ = * O # @ @ 3 @ @ @ O * @ @ @ @ ",
"b.b.b.P $ z.B.N.b.b.c.b.b.T # X.s.N.M.b.c.b.v.~ > ' B.B.b.v.b.b.b.l.r < V.B.v.v.v.b.b.b.t + M.b.c.v.",
"t.t.e.W , B.D.r.r.y.w.y.w.L & c.F.y.e.y.r.r.w.;.x  .H.y.w.r.y.r.w.8.w , ~.y.r.r.t.y.w.w.s 7 L.t.y.r.",
"<.<.0.G O n.a.7.<.7.>.<.2.L > 3.h.<.>.<.<.7.<.O.z Y D.<.<.<.>.7.<.4.a 1 G.<.7.>.7.<.2.2.A 7 F.6.<.<.",
"G H K h O P J G G G G H H A & M K G G G G G W F r l L G G G G S G G t # =.G G G G G G K a o =.G G G ",
": < O X o O # O O = = < : X O + # O O # = : < # O o $ O = % O < , O # . # O O O X = > < X . O # = = ",
"z.n.q.2.6.6.6.6.N = #.N.q.6.4.6.6.6.I : ' N.w.5.4.1.<.6.o.: 1 N.n.6.2.5.1.6.@.& . m.N.5.<.6.6.6.6.r ",
"V.D.s.u.u.u.u.y.W , 5.I.i.u.u.u.a.u.=.> $.R.i.u.u.a.a.u.7.z ` !.h.u.u.a.u.u.y.u ; (.h.y.a.a.u.a.a.g ",
"p.y.2.<.7.2.4.0.U = &.f.<.7.<.<.7.<.U : | j.<.<.<.2.2.<.@.c / L.7.<.<.7.2.<.1.r 4 G.<.<.7.7.7.2.2.M ",
"I H G G G G G U j = m K H G G G G H k : z O.G G G H G U I r * O.G G G G G G P u . O.G G G G G I I j "
};
