/* XPM */
static char *cd8a9043022a4471dce5eef53f561146VBv4GVRXJ47cteUz[] = {
/* columns rows colors chars-per-pixel */
"50 50 236 2 ",
"   c None",
".  c #381C07",
"X  c #3D2402",
"o  c #392506",
"O  c #3A281B",
"+  c #3D341E",
"@  c #3E320A",
"#  c #372C25",
"$  c #3E3635",
"%  c #352F29",
"&  c #471C06",
"*  c #461E14",
"=  c #412203",
"-  c #432C0E",
";  c #4C2D0A",
":  c #492705",
">  c #532A0B",
",  c #582809",
"<  c #483503",
"1  c #553609",
"2  c #4A2519",
"3  c #492915",
"4  c #5A2A14",
"5  c #542E1A",
"6  c #5B2D1B",
"7  c #532714",
"8  c #43341B",
"9  c #493818",
"0  c #54321D",
"q  c #5C351B",
"w  c #573B1B",
"e  c #5D3B1C",
"r  c #573712",
"t  c #622D0D",
"y  c #622008",
"u  c #67330B",
"i  c #7B3807",
"p  c #672D17",
"a  c #643316",
"s  c #6B3314",
"d  c #643319",
"f  c #6D331B",
"g  c #6A3C17",
"h  c #743314",
"j  c #743A1C",
"k  c #793815",
"l  c #7D2E07",
"z  c #562C22",
"x  c #453526",
"c  c #4C3A21",
"v  c #4E3E2C",
"b  c #493328",
"n  c #523322",
"m  c #543A24",
"M  c #533C2D",
"N  c #5B3B27",
"B  c #483C34",
"V  c #5E3E34",
"C  c #563F33",
"Z  c #633423",
"A  c #6C3B25",
"S  c #663827",
"D  c #763E26",
"F  c #663729",
"G  c #574207",
"H  c #54411C",
"J  c #5C4717",
"K  c #7C4600",
"L  c #664C10",
"P  c #6D4319",
"I  c #654619",
"U  c #784617",
"Y  c #6A551A",
"T  c #735B1D",
"R  c #714C07",
"E  c #75621B",
"W  c #494429",
"Q  c #53432B",
"!  c #5B4B2C",
"~  c #594627",
"^  c #5D542D",
"/  c #474433",
"(  c #4F4533",
")  c #4B453C",
"_  c #4D4B3B",
"`  c #494838",
"'  c #534334",
"]  c #5C4333",
"[  c #50433A",
"{  c #524D3C",
"}  c #5C4A3C",
"|  c #574C35",
" . c #595539",
".. c #634D22",
"X. c #6D422D",
"o. c #6B4B26",
"O. c #744C2B",
"+. c #784829",
"@. c #695528",
"#. c #735425",
"$. c #775A29",
"%. c #624335",
"&. c #6C4A3B",
"*. c #684939",
"=. c #764836",
"-. c #6B5333",
";. c #665838",
":. c #765738",
">. c #7A652B",
",. c #6E6339",
"<. c #7B6737",
"1. c #4E4945",
"2. c #4A4445",
"3. c #544D43",
"4. c #524A47",
"5. c #5A5847",
"6. c #595A52",
"7. c #644F45",
"8. c #665B48",
"9. c #745946",
"0. c #6B644E",
"q. c #656148",
"w. c #7A6A43",
"e. c #776747",
"r. c #7A724A",
"t. c #6B6452",
"y. c #786959",
"u. c #7C7453",
"i. c #79765C",
"p. c #777662",
"a. c #813E1B",
"s. c #8C3500",
"d. c #8A3E2E",
"f. c #814A06",
"g. c #89481A",
"h. c #944B19",
"j. c #8A581C",
"k. c #99510F",
"l. c #A85C05",
"z. c #A75015",
"x. c #B36804",
"c. c #BB6918",
"v. c #AD6713",
"b. c #8D4D25",
"n. c #844826",
"m. c #974B26",
"M. c #82552D",
"N. c #885A28",
"B. c #985927",
"V. c #874630",
"C. c #855D38",
"Z. c #945634",
"A. c #9F4F36",
"S. c #A25624",
"D. c #A45A34",
"F. c #A34C2C",
"G. c #8B602E",
"H. c #84682A",
"J. c #9C6426",
"K. c #87722B",
"L. c #82633C",
"P. c #896838",
"I. c #986A3B",
"U. c #8A763A",
"Y. c #94793B",
"T. c #A27B32",
"R. c #B27333",
"E. c #A96A2E",
"W. c #C77512",
"Q. c #C77928",
"!. c #D67F2E",
"~. c #DB7D3D",
"^. c #805E42",
"/. c #876A46",
"(. c #847344",
"). c #82744D",
"_. c #897748",
"`. c #937643",
"'. c #947C42",
"]. c #987B48",
"[. c #886754",
"{. c #8B7952",
"}. c #8B7658",
"|. c #937C51",
" X c #9B7E56",
".X c #926A4E",
"XX c #A67B48",
"oX c #8B7B66",
"OX c #896F64",
"+X c #A5853A",
"@X c #DA8A2B",
"#X c #D09136",
"$X c #9B8548",
"%X c #958354",
"&X c #978557",
"*X c #A78A49",
"=X c #A78957",
"-X c #AC9355",
";X c #A69259",
":X c #B08F54",
">X c #B8A45E",
",X c #9A8867",
"<X c #8B8A74",
"1X c #959172",
"2X c #A68D65",
"3X c #B28B63",
"4X c #AB9766",
"5X c #B79666",
"6X c #A59675",
"7X c #BA9D7B",
"8X c #BFA464",
"9X c #B5A467",
"0X c #BAA571",
"qX c #BDA77C",
"wX c #C4A258",
"eX c #C3A968",
"rX c #C8B26B",
"tX c #C6AC74",
"yX c #CCAF74",
"uX c #CDAF7B",
"iX c #CAB577",
"pX c #D2B57C",
"aX c #D4BB7D",
"sX c #D8BA7B",
"dX c #D2BA76",
"fX c #D2B16A",
"gX c #D4C27D",
"hX c #E0C57E",
"jX c #9B9781",
"kX c #B79B85",
"lX c #B3A78C",
"zX c #C8B784",
"xX c #D5BA84",
"cX c #D8BB83",
"vX c #DAC386",
"bX c #DDD0A3",
/* pixels */
"                                                                                                    ",
"                                                        x                                           ",
"                                                        -.-.                                        ",
"                                                7.    L.G.N.                                        ",
"                                        V N : u u g u j.E.R.N.                                      ",
"                                      z 6 a u g.B.S.i #X@X#XE.                                      ",
"                                    z f t h b.D.S.s.z.@X@X@X#X                                      ",
"                                    6 s h h a.D.m.k.~.!.W.x.#XT.                                    ",
"                                  | e s j j j b.l z.c.Q.@Xl.c.j.                                    ",
"                                  c q s D A t u g.h.v.l.x.c.Q.U                                     ",
"                                  3 Z d & > g M.G.U K k.l.l.R.Z.e.    1.                            ",
"                                  5 Z 7 X.:.C.#.#.].eXT.f.f.N.P e.0.4.$ ) )              .          ",
"                                  F 7 7 A O.; = o @ o <.fXwX-X$.;.0.$ % ) t.5.        ;.zXr.        ",
"                                  Z S 4 > o.3X].r o @ @ < X o G ,.( % 4.1.5. .    8.;.(.;XiX&X      ",
"                    8.y.    ] :.X.& f f 4 P U j.T.*XrXE < *X]...^ + B 4.4.{ 8.q.Q }.|.<.E gXU.      ",
"                    9.kX&.. N :.O.> f s s t U J.J.K +XG < *X1   ~ + [ 1.{ | u.u.u.w.(.U.K.rX>X      ",
"                    w 3XP M.+.g o.& 4 a d j , Z.B.f.*X: E K.G.  N O ( 0.Q e.r.u.).w.(.U.K.eXrX      ",
"                  M e P U g +.r o.> & q > D f y g.U *XX $XT g   %.O x 8 W r.u.r.r.).w.<.U.gX8X      ",
"                  8 r 1 U 3X5XL.L.= 7 * N 7 6 Z p f =X& -XG     M b [     q.q.i.y.u.}.).<.zX9X      ",
"                [ 8 r : #.I.5Xr o.^.& * 2 z 2 4 p p =X1 >.      b 7.        ) ) 3.( | Q ;.6X&X      ",
"                y.Q : #.I.pXtX$.e .X0 5 . o 3 > 7 g XXP.@.    B B [         2.1.4._ 3.{ t.lXu.      ",
"                ;.~ L.I 5XcX'.%X@.o.C.: 0 3 . X : > /.$.      B v           $ 1.1.) _ _ <Xp.        ",
"               .e.<.$.=XyXY.Y.vX$XI $. X- . . o ; q = 9       W v         B 4.` ` { / p.<X          ",
"              ;.%XxXzXpX;X>.gXiXiX=XL J <.:.~ w I qX9.        9 8       / _ / _ _ / i.p._           ",
"            u.{.0XxXcXpXY.$XgX>XrXaX8X$X<.Y $.'.dXvXe.        - c   v t.8.` / { 5.6Xi.W             ",
"            }.4X;XyXcXyXT rXdXdX8XdXaXvXaX-XdXvXhX;XoX        w c   ' lXjX<XjX<X<Xq.                ",
"            e.zXdXY.*XY.U.eXiXiXrXdXxXqX%X0XcXuX].}.        %.N C     3._ 8.q.{                     ",
"          0.).uXaXsXH.L H.*X-X*X*XH.L.-.<.<.`.#.].          n &.                                    ",
"          8.r.4XpXsXsXG L >.-XeX*X5X7X-.{.%X>.Y <.          2 %.                                    ",
"            e.=X=XsXsXT L T `.P.`.`.e ,XlXbX;XJ 0X/.      ;.&.9.                                    ",
"            ;._.=XeXdX-XL 1 I I #.L.J ).6X,X^ @.&X&X_.>.{.9 9.                                      ",
"              @.%XtXaXdXpXuXP.: I ..o.m c 9 ^ ~ ,.%X;X@.<.- :.                                      ",
"                ,.9XpXdXcXyX].G.1 -.-.&.] ! ! ! 9 2Xw.w H |./.                                      ",
"                  _.zXtX'.aXeXtX..H Q ] m v v Q ;.~ 9 @.../.2X                                      ",
"                  w.(.4X0XiXzX%X~ c ' { # O # x H r @...|.2X}.                                      ",
"                    ;.).qXzX_.@.! 9.    6.% # O ; 1 $.`.=X,X                                        ",
"                    ;.e.{.(.J r :./.      4.x . 1 M.XXY 2X                                          ",
"                      e.e.; ; 1 u C.oX      O q N.j.XXC.                                            ",
"                        X.a +.b.I.M.[.    M 7 U B.j.M.}.                                            ",
"                    ' n A p D.m.b.U     ] 0 t k g.B..X                                              ",
"                    N S p k m.m.b.C.  9.5 , k k g.I.[.                                              ",
"                  V F p k m.h.D..X    9.q , u k U +.OX                                              ",
"                  Z Z j k g.h.n.      7.3 d , +.+.S                                                 ",
"                *.Z f h b.B.B.s       ] m 7 Z A A *.y.                                              ",
"                V X.D h a.b.g.+.      } m 0 7 =.A 5 *.                                              ",
"                V : d s k k k h :.    M - n 2 2 S +.=.&.&.                                          ",
"                ' - : & n.m.A.A.Z.O.    o . 2 6 j j V.=.&.                                          ",
"                v 8 3 e d D d.V.n.O.    b 8 2 0 4 t d Z n                                           ",
"                  } } } %.V F F %.%.        b M m ] *.*.                                            ",
"                                                                                                    "
};
