/* XPM */
static char *result[] = {
/* columns rows colors chars-per-pixel */
"50 50 241 2 ",
"   c #1A0100",
".  c #050000",
"X  c #391E02",
"o  c #2D1500",
"O  c #382400",
"+  c #3D2B00",
"@  c #392616",
"#  c #3D3018",
"$  c #372A27",
"%  c #3A3627",
"&  c #3C3230",
"*  c #441C07",
"=  c #4B1D03",
"-  c #551900",
";  c #442D00",
":  c #46230D",
">  c #4C240C",
",  c #432A0A",
"<  c #4B2C0C",
"1  c #4B2903",
"2  c #58270A",
"3  c #4B3703",
"4  c #573609",
"5  c #442512",
"6  c #4B2B14",
"7  c #4E2C19",
"8  c #492918",
"9  c #522B13",
"0  c #5A2B14",
"q  c #562D1B",
"w  c #5C2C1B",
"e  c #542414",
"r  c #4A371B",
"t  c #573419",
"y  c #65270A",
"u  c #6C320C",
"i  c #65380C",
"p  c #77340A",
"a  c #632D13",
"s  c #6A2C11",
"d  c #662A1B",
"f  c #6C3411",
"g  c #62311B",
"h  c #6A3618",
"j  c #733312",
"k  c #743B1B",
"l  c #783A16",
"z  c #702D03",
"x  c #4E2D23",
"c  c #432F22",
"v  c #493628",
"b  c #5D3322",
"n  c #533A2C",
"m  c #563728",
"M  c #463D35",
"N  c #5A3E34",
"B  c #582921",
"V  c #6B3C24",
"C  c #683825",
"Z  c #733A24",
"A  c #693B31",
"S  c #584304",
"D  c #53421D",
"F  c #5A451D",
"G  c #594313",
"H  c #4F411C",
"J  c #7B4405",
"K  c #6B550B",
"L  c #664918",
"P  c #774716",
"I  c #75561C",
"U  c #6D4F0F",
"Y  c #73671F",
"T  c #48472F",
"R  c #554525",
"E  c #5A492B",
"W  c #5B5129",
"Q  c #4A4633",
"!  c #4D4B3C",
"~  c #494836",
"^  c #544C32",
"/  c #534B3C",
"(  c #5B4738",
")  c #5C5437",
"_  c #4E513C",
"`  c #684727",
"'  c #744323",
"]  c #74432B",
"[  c #7A432B",
"{  c #7A4926",
"}  c #66522D",
"|  c #675A2A",
" . c #725424",
".. c #755B2D",
"X. c #7C5B29",
"o. c #6B4B33",
"O. c #684937",
"+. c #794D39",
"@. c #62523B",
"#. c #685536",
"$. c #765736",
"%. c #78652A",
"&. c #7B6838",
"*. c #7E733A",
"=. c #71662E",
"-. c #4E4943",
";. c #554C43",
":. c #5B5945",
">. c #5F5D51",
",. c #684B43",
"<. c #685946",
"1. c #75594A",
"2. c #745F56",
"3. c #6E5D53",
"4. c #6D644C",
"5. c #75644B",
"6. c #776646",
"7. c #7E744A",
"8. c #6F6A5C",
"9. c #7C6C54",
"0. c #796755",
"q. c #777259",
"w. c #7C7B63",
"e. c #757863",
"r. c #736E66",
"t. c #853D12",
"y. c #8F3B0A",
"u. c #813E21",
"i. c #8A481B",
"p. c #93491E",
"a. c #9E5A17",
"s. c #8D5316",
"d. c #A65817",
"f. c #A75600",
"g. c #806612",
"h. c #B36918",
"j. c #884827",
"k. c #944C28",
"l. c #86582B",
"z. c #9D542D",
"x. c #975527",
"c. c #875A35",
"v. c #975638",
"b. c #A65D39",
"n. c #85672A",
"m. c #96692D",
"M. c #8C6F3B",
"N. c #856835",
"B. c #9A6637",
"V. c #887638",
"C. c #937738",
"Z. c #A86A2B",
"A. c #B87B35",
"S. c #AC782C",
"D. c #C16908",
"F. c #CF7A31",
"G. c #875843",
"H. c #856E4C",
"J. c #876B45",
"K. c #9A6745",
"L. c #887548",
"P. c #997B47",
"I. c #836E54",
"U. c #816D5D",
"Y. c #946D55",
"T. c #847553",
"R. c #8A7758",
"E. c #967A55",
"W. c #A5794B",
"Q. c #857967",
"!. c #937668",
"~. c #867D79",
"^. c #A97E6D",
"/. c #9A853F",
"(. c #87853A",
"). c #A88430",
"_. c #D78625",
"`. c #DD8537",
"'. c #CB8F37",
"]. c #E99032",
"[. c #9B874A",
"{. c #958355",
"}. c #8E8952",
"|. c #A3854D",
" X c #A48B4B",
".X c #AB8B49",
"XX c #A4934C",
"oX c #A58857",
"OX c #AA9356",
"+X c #B79759",
"@X c #B0854E",
"#X c #BBA65E",
"$X c #B9B65C",
"%X c #A4A554",
"&X c #888469",
"*X c #988768",
"=X c #898C75",
"-X c #988875",
";X c #949276",
":X c #8E947A",
">X c #A68864",
",X c #A99768",
"<X c #B29564",
"1X c #A58C78",
"2X c #B68F6C",
"3X c #B6A76A",
"4X c #B8A974",
"5X c #B4B471",
"6X c #C5A45F",
"7X c #E0A142",
"8X c #CC9E60",
"9X c #C6A868",
"0X c #C9B36C",
"qX c #C8AB79",
"wX c #CCB573",
"eX c #CBBB7A",
"rX c #C9B778",
"tX c #D4BB7B",
"yX c #D5BA77",
"uX c #D0BB6C",
"iX c #D7C278",
"pX c #C4C172",
"aX c #E1C67F",
"sX c #979C85",
"dX c #A89885",
"fX c #B39C87",
"gX c #A39892",
"hX c #B4AC89",
"jX c #A6A98E",
"kX c #BBB6A7",
"lX c #C9B685",
"zX c #D6B984",
"xX c #C9B594",
"cX c #C6BBA8",
"vX c #C6BFB4",
"bX c #D7CD8A",
"nX c #E4C58F",
"mX c #DFE398",
"MX c #E6D0A9",
"NX c #D1C7C5",
"BX c None",
/* pixels */
"BXBXBXBXBXBXBXBXBXBXBXBXBXBXBXBXBXBXBXBXBXBXBXBXBXBXBXBXBXBXBXBXBXBXBXBXBXBXBXBXBXBXBXBXBXBXBXBXBXBX",
"BXBXBXBXBXBXBXBXBXBXBXBXBXBXBXBXBXBXBXBXBX. BXBXBXBXBXBXBXBXBXBXBXBXBXBXBXBXBXBXBXBXBXBXBXBXBXBXBXBX",
"BXBXBXBXBXBXBXBXBXBXBXBXBXBXBXBXBXBXBXBX6 ) BXBXBXBXBXBXBXBXBXBXBXBXBXBXBXBXBXBXBXBXBXBXBXBXBXBXBXBX",
"BXBXBXBXBXBXBXBXBXBXBXBXBXBXBXBXBXBXBXBX .N.Y.BXBXBXBXBXBXBXBXBXBXBXBXBXBXBXBXBXBXBXBXBXBXBXBXBXBXBX",
"BXBXBXBXBXBXBXBXBXBXBXBXBXBXBXBXBXBXBXl.).h.a.z p f 0 e O.BXBXBXBXBXBXBXBXBXBXBXBXBXBXBXBXBXBXBXBXBX",
"BXBXBXBXBXBXBXBXBXBXBXBXBXBXBXBXBXBXBXB._._.`.y.p.b.j.Z g q   BXBXBXBXBXBXBXBXBXBXBXBXBXBXBXBXBXBXBX",
"BXBXBXBXBXBXBXBXBXBXBXBXBXBXBXBXBXBXBX'._.].F.d.y.z.b.j.j d b   BXBXBXBXBXBXBXBXBXBXBXBXBXBXBXBXBXBX",
"BXBXBXBXBXBXBXBXBXBXBXBXBXBXBXBXBXBXS.7XD.D.`.`.t.b.b.p t.j w N BXBXBXBXBXBXBXBXBXBXBXBXBXBXBXBXBXBX",
"BXBXBXBXBXBXBXBXBXBXBXBXBXBXBXBXBXBXm.A.f.`._.d.p.p k.j l P d b BXBXBXBXBXBXBXBXBXBXBXBXBXBXBXBXBXBX",
"BXBXBXBXBXBXBXBXBXBXBXBXBXBXBXBXBXBXs.A.h.h.d.Z.s.i.u j u k g N $ BXBXBXBXBXBXBXBXBXBXBXBXBXBXBXBXBX",
"BXBXBXBXBXBXBXBXBXBXBXBXBXBXBXBXBXE.N.A.a.d.a.p P N.l.i 2 > b n $ BXBXBXBXBXBXBXBXBXBXBXBXBXBXBXBXBX",
"BXBXBXBXBX6.BXBXBXBXBXBXBX% & 8.1.6.U s.p s.S.8XW.l.P n.$.A 5 n v BXBXBXBXBXBXBXBXBXBXBXBXBXBXBXBXBX",
"BXBXBXBX}.bX6.BXBXBXBX:.) T % $ 4.5.&.|.6X0XM.O + X ; ; ` ` 9 x n BXBXBXBXBXBXBXBXBXBXBXBXBXBXBXBXBX",
"BXBXBX3X5X{.J.6.9.&XBX) 4._ -.& M 1.3 O + 4 ; ; O t L.<XL 0 q b x BXBXBXBXBXBXBXBXBXBXBXBXBXBXBXBXBX",
"BXBXBX(.bXY V.H.T.} #.#.^ ^ -.M @ 4.| L.XXO g.0X@X|.l.P k 2 a ' w ] o.BXBXBXv BXBXBXBXBXBXBXBXBXBXBX",
"BXBXBX%X$X%.L.L.H.H.L.7.^ ~ ;.~ % q.3XS .X3 S ).P B.B.l f u k a = $.] t > 1.fXn BXBXBXBXBXBXBXBXBXBX",
"BXBXmX$X$XV.J.I.L.L.*.7.9.T :.~ % ) BX%.(.K ; .XJ B.k.y d Z w 9 = V h { c.] ^.o.BXBXBXBXBXBXBXBXBXBX",
"BXBXmXpXpX*.T.I.7.L.6.7.q.8.T % $ <.BXI K XX; .XP k y d Z d 0 : 9 $.4 P P { V b m BXBXBXBXBXBXBXBXBX",
"BXBXBX%X5X7.9.w.9.9.7.4.:.BXr.M M ^ BXBXS XXO  Xk Z d C 0 w * 5 1 X.n.+X@XP 4 t r BXBXBXBXBXBXBXBXBX",
"BXBXBX7.5XW / / ) ^ ^ / ~.BXBXBX;.c BXBX=.%.3 oX0 g e e w * 6 : $. .i +XN.P 1 4 6 ,.BXBXBXBXBXBXBXBX",
"BXBXBX=XjX4.~ ! / Q ! M BXBXBXBX0.v 6.BXBX| %. XC e q q * 9 > < R.m  .qXzXM.` < n U.BXBXBXBXBXBXBXBX",
"BXBXBXBXw.=X_ ! -.:.-.& BXBXBXBX3.n O.BXBX| =.N.t e * O 5 > 1 J.} } oXM.zX9XL &.R 4.BXBXBXBXBXBXBXBX",
"BXBXBXBXsX=Xe.~ T ~ -.! >.BXBXBXBXN n BXBXBXR , 9 1 : o @ : {...L }.rX Xm.0XoX..&.6.4.BXBXBXBXBXBXBX",
"BXBXBXBXBXsX=Xe.T _ ~ _ Q :.&XBXBX8 E BXBXBXBX6.qXL D R $.1.L L [.eXwXiXX..XzXeXlXT.4.w.BXBXBXBXBXBX",
"BXBXBXBXBXBX=X:XsX:._ ! ~ ) jX9.BXO.7 BXBXBXBXH.nXtX}.| | %.|.9XyX0X3XtX XC.tXtXeX4XR.;XBXBXBXBXBXBX",
"BXBXBXBXBXBXBXBXe.jXjX:X;X;XjXR.BX#.m BXBXBXBXH.OXzXrXlX3XlXtXzXuX3XyXuXwX .tXtX0XOX,XQ.BXBXBXBXBXBX",
"BXBXBXBXBXBXBXBXBXBXe.w.8.w.w.BXBX0.N 1.BXBXBXBXP.C.eXeX3XL.lXlXtXwXzXzXqXJ.N.OX[.eXhX6.kXBXBXBXBXBX",
"BXBXBXBXBXBXBXBXBXBXBXBXBXBXBXBXBXBX,.x BXBXBXBXBXM.%.V.J.&. .&.%..X|.<XW.J.U n.iX0XlXT.gXBXBXBXBXBX",
"BXBXBXBXBXBXBXBXBXBXBXBXBXBXBXBXBXBXO.7 BXBXBXBXBXV.L &.{.M.| 4X+X/.9X+X .U U uXiXuX,X4.gXBXBXBXBXBX",
"BXBXBXBXBXBXBXBXBXBXBXBXBXBXBXBXBXBXH.` 6.BXBXBXL.%XG OXMXxX*XG C.C.n.C.X.S U iXuX[.>X4.NXBXBXBXBXBX",
"BXBXBXBXBXBXBXBXBXBXBXBXBXBXBXBXBXBXBX.., {.6.T.{.>X| } *X1X5.F N. . .4 4 I OXyX#XOX}.>.BXBXBXBXBXBX",
"BXBXBXBXBXBXBXBXBXBXBXBXBXBXBXBXBXBXBX .1 6.#.1X{.=.t } n v ^ E L L 1 J.qXtXyXtX0X{.) vXBXBXBXBXBXBX",
"BXBXBXBXBXBXBXBXBXBXBXBXBXBXBXBXBXBXBXL.[.D r 9.*XD W F @.( <.#.} 3 n.W.0XyXyXtX,X7.cXBXBXBXBXBXBXBX",
"BXBXBXBXBXBXBXBXBXBXBXBXBXBXBXBXBXBXBX>XN.L #.D W #.H R c R v ( R W 9X9X0X X0XqXT.cXBXBXBXBXBXBXBXBX",
"BXBXBXBXBXBXBXBXBXBXBXBXBXBXBXBXBXBXBX1X,X{.L ` G r # # # @ :.n % R R.lXlX5X>XL.;XBXBXBXBXBXBXBXBXBX",
"BXBXBXBXBXBXBXBXBXBXBXBXBXBXBXBXBXBXBXBX1XoXC.X.4 r # # @ r.BXBX!.@.$.T.hX4XT.) BXBXBXBXBXBXBXBXBXBX",
"BXBXBXBXBXBXBXBXBXBXBXBXBXBXBXBXBXBXBXBXfXoXI .XX.6 @ @ <.BXBXBXU.o.t } <.&XT.-XBXBXBXBXBXBXBXBXBXBX",
"BXBXBXBXBXBXBXBXBXBXBXBXBXBXBXBXBXBXBXBXBXBXl.B.l.G.x c cXBXBXgX$.' 2 9 t 6.Q.BXBXBXBXBXBXBXBXBXBXBX",
"BXBXBXBXBXBXBXBXBXBXBXBXBXBXBXBXBXBXBXBXBXBX2Xc.c.c.o.x N BXBXfXc.z.x.P t $.R.BXBXBXBXBXBXBXBXBXBXBX",
"BXBXBXBXBXBXBXBXBXBXBXBXBXBXBXBXBXBXBXBXBXBXBXJ.c.l.C w x ,.BXBX{ p.z.z.u h C ,.BXBXBXBXBXBXBXBXBXBX",
"BXBXBXBXBXBXBXBXBXBXBXBXBXBXBXBXBXBXBXBXBXBXBX1XK.j.k C B x -XBXW.k.p.i.p j h C <.BXBXBXBXBXBXBXBXBX",
"BXBXBXBXBXBXBXBXBXBXBXBXBXBXBXBXBXBXBXBXBXBXBXdX+.{ l s d m U.BXBXb.b.z.z.z y Z O.BXBXBXBXBXBXBXBXBX",
"BXBXBXBXBXBXBXBXBXBXBXBXBXBXBXBXBXBXBXBXBXBXBX-X` Z j.y d B O.BXBXY.[ j.p.p l s B BXBXBXBXBXBXBXBXBX",
"BXBXBXBXBXBXBXBXBXBXBXBXBXBXBXBXBXBXBXBXBXBXBX!.` ' k y a 9 O.BXBXBXA k.k.k.t.j V 1.BXBXBXBXBXBXBXBX",
"BXBXBXBXBXBXBXBXBXBXBXBXBXBXBXBXBXBXBXBXBXBXBXo.q C [ a C t ,.BXBXBXG.v.j.l p k C ( BXBXBXBXBXBXBXBX",
"BXBXBXBXBXBXBXBXBXBXBXBXBXBXBXBXBXBXBXBXBXBX$.+.A Z 0 > > e 0.BXBX+.Z s j j.j d > 1.BXBXBXBXBXBXBXBX",
"BXBXBXBXBXBXBXBXBXBXBXBXBXBXBXBXBXBXBXBXBX+.' ' [ g w : @ @ 2.BXZ K.k.v.z.j.- e e n BXBXBXBXBXBXBXBX",
"BXBXBXBXBXBXBXBXBXBXBXBXBXBXBXBXBXBXBXBXBX` h f a q q 8 8 v ,.BXZ u.k.j.Z h C e x M BXBXBXBXBXBXBXBX",
"BXBXBXBXBXBXBXBXBXBXBXBXBXBXBXBXBXBXBXBXBXBXBX2X>XY.!.0.2.BXBXBXA d d d A N x n v BXBXBXBXBXBXBXBXBX",
"BXBXBXBXBXBXBXBXBXBXBXBXBXBXBXBXBXBXBXBXBXBXBXBXBXBXBXBXBXBXBXBXBXBXBXBXBXBXBXBXBXBXBXBXBXBXBXBXBXBX"
};
