/* XPM */
static char *result[] = {
/* columns rows colors chars-per-pixel */
"50 50 94 2 ",
"   c #070808",
".  c gray3",
"X  c #080908",
"o  c #080909",
"O  c #090909",
"+  c #090A09",
"@  c gray4",
"#  c #0A0B0A",
"$  c #0B0B0B",
"%  c #0B0C0B",
"&  c #0C0C0C",
"*  c #0C0D0C",
"=  c #0C0D0D",
"-  c gray5",
";  c #0D0E0D",
":  c #0D0E0E",
">  c #0E0E0E",
",  c #0E0F0E",
"<  c #0E0F0F",
"1  c gray6",
"2  c #0F100F",
"3  c #0F110F",
"4  c #0F1010",
"5  c #101010",
"6  c #101110",
"7  c #111110",
"8  c #101111",
"9  c #111111",
"0  c #111211",
"q  c #121211",
"w  c #111212",
"e  c gray7",
"r  c #121312",
"t  c #131312",
"y  c #131213",
"u  c #121313",
"i  c #131313",
"p  c #131413",
"a  c #131513",
"s  c #131414",
"d  c gray8",
"f  c #141514",
"g  c #141515",
"h  c #151515",
"j  c #151615",
"k  c #151616",
"l  c #161616",
"z  c #161716",
"x  c #171617",
"c  c gray9",
"v  c #171817",
"b  c #181818",
"n  c #181918",
"m  c #181919",
"M  c #191919",
"N  c #191A19",
"B  c gray10",
"V  c #1A1B1A",
"C  c #1A1B1B",
"Z  c #1B1B1B",
"A  c #1B1C1B",
"S  c #1C1C1B",
"D  c #1B1C1C",
"F  c gray11",
"G  c #1C1D1C",
"H  c #1D1C1D",
"J  c #1C1D1D",
"K  c #1D1D1D",
"L  c #1D1E1D",
"P  c #1E1D1E",
"I  c #1E1E1E",
"U  c #1E1F1E",
"Y  c gray12",
"T  c #1F201F",
"R  c #202020",
"E  c #202120",
"W  c #212021",
"Q  c gray13",
"!  c #222222",
"~  c #232323",
"^  c gray14",
"/  c #252525",
"(  c gray15",
")  c #272727",
"_  c #282828",
"`  c gray16",
"'  c #2A2A2A",
"]  c gray17",
"[  c #2C2C2C",
"{  c #2D2D2D",
"}  c gray18",
"|  c #2F2F2F",
" . c #313131",
".. c #323232",
/* pixels */
"h p d +   % < 6 9 , , 6 0 p p 2 1 j V 6 ; + + 1 p j h h p r 5 ; 2 , , l v 2 & ; < 2 5 0 p g : , w 2 ",
"6 6 ; + + 2 8 e 6 4 r 9 p r 0 e G K z 2 * * < 2 , r l h p i 2 * , p c v p , ; ; 2 0 e q j p r i f r ",
"; , ; + # * 6 2 , 2 p d c h r n K M 8 9 , , e r 9 r 0 r 0 6 ; , , e v 0 2 , , < 2 6 r l j 0 0 2 t b ",
"* * ; $ @ + * ; , i f 6 d 0 v F Z e 6 i f l B f 2 6 , 2 , * ; 5 6 i f 0 2 6 5 7 e i p l j 0 2 0 c K ",
"* ; : - + . % ; e c f 0 f B F I h 1 8 j l Z I i * > 2 r 0 ; = 2 0 6 0 6 4 r e 0 6 6 r l i < e v R R ",
"# ; < , # @ % * 2 r i f b R B l 5 , p l B F v r 2 6 r 0 i 6 2 0 f 9 , 2 0 6 , < i i i h i 2 b Y Y M ",
"& * & * # $ % * , , 2 d M M c c 6 r f Z F M b i 2 2 2 6 i u 0 6 i 0 , 6 j d 9 p B z h b b p z I Z M ",
"; * O o + , * X ; 2 0 l i c B M j f N F B l l r 3 9 0 h f 2 2 0 i d 6 > f b l b N v B F j p z K K M ",
"5 # + O X * $ O ; ; , d l v c v Z K Z M z b n z p p c K B 9 0 p i p 5 d j b l l M B F M l l K K B B ",
", , , ; $ ; ; ; , * $ < h c l c B K M l h h r r e d Z D f r 4 w f f i h h p j c n z v h i 0 f i p d ",
", 0 e f 0 9 r 9 6 * ; 6 p d p x M l p d d l 6 p n F M l c d 0 h b B z b l d n M j h h r , 6 6 j l h ",
"2 r d j h d N F r * , w p h p l b l e 6 e 0 c R Y B f p d d j M b c b I ! l z K Z r 0 r 6 h b n f p ",
"r p h h j M A M i f l f j p p r l h 0 6 d d B K I B c p M c l b F n Z M b n F Y Q B c F Z M c r 6 2 ",
"e p c f M Z n j f M N v j h c M B v h p f b R I F Z l c Y Z B K I Z B B v b B R I Z c M M F Z M h 6 ",
"6 0 z B Y A z j z b B d p j c Z I F Z b Z Q ! K N R K I R Q Y Q Q F h h M R ! R K Y c b j l K Y M i ",
"; 0 j F F l l h j n l j s 0 l b B K F F Q Q B l M Y R Z b c B A Z K F F ~ ) ) Q M M p l l b Y Z I F ",
"> e b h p s i p B M c Z b h c l B K G ~ R B b c B Z b v l b M F ! { ` Y Y ( ~ M f z c G F h I F Y K ",
"d c l 6 p 0 2 e b b b b M c N Z Z I ! Y v n b Z b c c l b Z b I ^ _ ^ / ~ R b l g z B I b f A M Z Z ",
"c i 6 r r 9 5 0 d l v j d c K I N D ~ M c R I Z M h r f c c M K I Y / / Q K F F B b p F Z j v j M B ",
"i , , 6 2 2 d c j c z j z I K K B F K Z B K b b B F h f h l B Q Q ( ! Y Q ~ ~ ( ^ K N B n h c l z j ",
"- 5 , < 2 2 d z z j c c d B F Z B B F I A F l b f c b b 0 i c Q { ' W Y I Q R Q ~ Y M c c f c b c f ",
"* 1 , 2 6 2 2 j l h r p j e d j n M K ~ Z B B Z y d B b z v U ~ ^ Q Q F K ! F v B K N r d e i h c j ",
"< 6 2 9 6 2 r h h f d l b w u r A B M Y V B F Z B M l M Y ! _ _ I F Y Y Y F M b K I Y h , , ; d i 1 ",
"2 , r l f 2 p j j c B b z i p f b M B Z n b I B b c B I Q Q / / K b ~ T b M F M b b f i 6 ; 6 0 , - ",
"d e e 6 d d l h c z M I b 1 0 d c b i j j i M b Z B R Q ^ ) / Y R K ( Q M M M B j c j r r i l c ; % ",
"6 ; $ 6 p d i i d N Y B h i c n v l f f p f z c v B R ~ ! R K J c j h l M a p i u h d p N A r p 2 - ",
"p 0 0 r r c M z Z I E l j c M l l i b M B F c b A I R ~ Y I K b j n i 2 i j a p 0 f M B v Z p * % r ",
"d e j l h l M B F F v Z M B M c z j M F Y K M K ) ( Y K Y I F K Y Y j l f p v b r N I S f p 8 2 M R ",
"0 6 9 p c l j z B r f R I B f 2 d l l b M c B / ..` _ ` ( ^ ( I Z Z B b 0 p p j c / ^ M d f l F Q I ",
", 2 2 0 h b I b r p B I Z b d 2 e h c Z B r N )  .} | _ ~ ( ' ! I Y Z b i i l h B ~ Y j 0 d c K F F ",
"6 5 2 2 l H F b l F I Y M l f e e v M l n Z ^ [ } [ { ^ ^ ^ ^ Y R ! F M F f m K V B M 5 6 c B b c b ",
"; = ; 2 d b v l M Z K Z b B M p w f d j R ) / ~ / ] _ ^ ` R Y Y Y Q K Z K N N K B M d 2 h j M n j i ",
"; * 2 v l , 9 h l j l d b b b n p w p c ^ ^ R I / ] / I K Y R Y K Y ~ I ~ F Z M f v r c j l B h h p ",
"* h M n 6 : 5 r i d h z z f c M f l Z ! Q K B N R ! F Z Z F K K F I B M ^ ~ I M l d d l l c b j j z ",
"- k v 0 6 e , 0 e h l b c h z h v Q ( ~ Y I I b j b d f n N B Y Y b M R ! I M l c l l c b l f j b b ",
"; * 2 , 0 6 0 j h b l M l i p h F / ` Q K Y Z M M f 0 j B Z B Z M f z R I c b v b l p l M c h r p f ",
"0 % ; e c c 6 9 l v z M d r j R ^ ^ ~ G B Y K B b l b Z I B j f h h d n K V B f h 9 0 B Z B s q d 0 ",
"0 * ; 0 B V d 1 e b b j r l I ~ ! I K Z V V B l l M z M b Z j 0 j e 6 f n b p p 6 2 6 i l f r r j z ",
"2 ; 6 f n M f p n l i r d Z ~ ~ I M j b c h j f h l d b M b j r 6 e j M Z v l d 6 9 p b b p d c l b ",
"; , 2 h z p i j d 6 r i N K ! ! ~ Y b M j r h c c M B h h z h V B l d Z b l v p 2 0 z Z b d l b c s ",
"r r 2 0 r h B 9 ; 6 6 j x I Q Y ^ ~ b d i 0 6 c b Z z 0 r h Z Y I b b b h c b d j j M Z b i d e 5 i ",
"d d r h p p M e 2 0 i c Z / Q I ' / K b h f z l f b h h K F Y Q Z h c h c Z z i h f B Z b e h r 0 h ",
"r f p 0 2 9 e 8 0 0 p i B ! I R ! R v c B Z R Z c h f M K B V M B h b M B B r z c M M c j p h r B K ",
"2 9 d f p 6 , i 0 2 i e j Z Y R K l j n Z N Z Z V n K I Z M B Z M j F Q B h d h c l c l b h 0 0 z z ",
", 9 j 0 , > 0 K F f p 6 l I I M h 0 d v v d p b K R R F b M Y ^ z l ! I d e b M c j z v b c 0 ; 6 c ",
"2 8 , ; ; i f n B j s 0 B P B l r e p r l d h F F F b F Z v A I l Z K b l z K F V Z M h d M M r r 9 ",
"% * - , * l N z p r v b Y Z B j r 0 2 s M b F ( K V M F B F F B B K I h c Q Y K G Y N i z B Z l r 6 ",
", 9 0 2 d K n 1 $ 1 f M B z l d r 0 0 v c K ! ~ I L Z B F G z b Z I B p Y Q Q ! ~ Y B M j d h h d i ",
"e 6 , 0 V M > % # ; i d d p 0 p f d h l c I K Z K Y F c b b l F R Z M C F F I ^ R Z b b b r 6 5 6 6 ",
"6 4 0 n B f 6 < 2 * ; 0 r e r h B M M B U Y b d B B f d Z M l l Z I Y F Z ! ^ ! c l r j b 8 2 ; * 6 "
};
