/* XPM */
static char *_9683f3ec3fe49a2dfcde8ed1db6e40aF0w3luZB5K1CBrS4[] = {
/* columns rows colors chars-per-pixel */
"50 50 244 2 ",
"   c #2E1D13",
".  c #2A261B",
"X  c #37281D",
"o  c #352D25",
"O  c #3A2C22",
"+  c #3D342B",
"@  c #462E1F",
"#  c #57321D",
"$  c #422E24",
"%  c #453325",
"&  c #4D3523",
"*  c #4A362C",
"=  c #47382C",
"-  c #563A28",
";  c #453D37",
":  c #4D3C32",
">  c #523E31",
",  c #613D2C",
"<  c #53412C",
"1  c #5A422C",
"2  c #4C433B",
"3  c #544233",
"4  c #5B4433",
"5  c #58483B",
"6  c #69442A",
"7  c #78482A",
"8  c #7E512F",
"9  c #694734",
"0  c #644B35",
"q  c #634B3C",
"w  c #6A4D3A",
"e  c #734D34",
"r  c #7B4D32",
"t  c #68523C",
"y  c #74543C",
"u  c #795539",
"i  c #5C4C46",
"p  c #564D4C",
"a  c #685648",
"s  c #6B554A",
"d  c #735442",
"f  c #765944",
"g  c #7C5B43",
"h  c #745B4C",
"j  c #7B5D4A",
"k  c #685B56",
"l  c #7C624B",
"z  c #79655A",
"x  c #756C6C",
"c  c #854B2A",
"v  c #8C522B",
"b  c #9E5329",
"n  c #885535",
"m  c #835B3D",
"M  c #8C5C3B",
"N  c #9B5C33",
"B  c #9A5D37",
"V  c #925B3A",
"C  c #A65A2D",
"Z  c #96613A",
"A  c #9C623C",
"S  c #AA652E",
"D  c #B6692D",
"F  c #A96737",
"G  c #A3653B",
"H  c #AC6B3B",
"J  c #B36B33",
"K  c #B56934",
"L  c #B46C3C",
"P  c #AD723A",
"I  c #B97335",
"U  c #B5733B",
"Y  c #BC743C",
"T  c #BD7A3E",
"R  c #C06F35",
"E  c #C17434",
"W  c #C1763D",
"Q  c #C27A3D",
"!  c #835D44",
"~  c #885E46",
"^  c #8B6245",
"/  c #886649",
"(  c #946444",
")  c #9C6542",
"_  c #976848",
"`  c #9B6C4C",
"'  c #99724B",
"]  c #8C6B55",
"[  c #876A58",
"{  c #946D54",
"}  c #8B715C",
"|  c #9B7254",
" . c #97745C",
".. c #A56943",
"X. c #AC6D43",
"o. c #A56D49",
"O. c #B56E42",
"+. c #AD7346",
"@. c #A2734D",
"#. c #AB734C",
"$. c #B47245",
"%. c #BB7543",
"&. c #BD7B44",
"*. c #B3744B",
"=. c #B9764B",
"-. c #B57B49",
";. c #BC7B4B",
":. c #A77857",
">. c #AC7B55",
",. c #B47B53",
"<. c #BB7C52",
"1. c #B57C58",
"2. c #887469",
"3. c #8B726D",
"4. c #997A67",
"5. c #9A7F73",
"6. c #A37C66",
"7. c #C17741",
"8. c #C37C44",
"9. c #C37D4B",
"0. c #C37E52",
"q. c #C5833E",
"w. c #BC8145",
"e. c #BE824C",
"r. c #AB825B",
"t. c #BD8354",
"y. c #B68559",
"u. c #BB835C",
"i. c #9D8067",
"p. c #9A8377",
"a. c #AB8364",
"s. c #A5826D",
"d. c #AB856A",
"f. c #BB8662",
"g. c #B58866",
"h. c #BD8C64",
"j. c #BD8D6B",
"k. c #A78776",
"l. c #B38B75",
"z. c #B89272",
"x. c #BA9579",
"c. c #C48343",
"v. c #CA8545",
"b. c #CC8946",
"n. c #C4824B",
"m. c #CB854B",
"M. c #C48B48",
"N. c #CD8B4B",
"B. c #D28748",
"V. c #D18C4B",
"C. c #CC964A",
"Z. c #CD924C",
"A. c #D3934D",
"S. c #D49A4E",
"D. c #D99B4A",
"F. c #C48453",
"G. c #CB8553",
"H. c #C68B53",
"J. c #CC8B54",
"K. c #C3855A",
"L. c #C48A5B",
"P. c #CC8C5B",
"I. c #D28C53",
"U. c #D38C5A",
"Y. c #C69354",
"T. c #CC9252",
"R. c #CD935B",
"E. c #CE9A5B",
"W. c #D39353",
"Q. c #D59A54",
"!. c #D99C54",
"~. c #D3955B",
"^. c #DC9658",
"/. c #D59C5C",
"(. c #D99D5C",
"). c #E09F4C",
"_. c #DAA24B",
"`. c #DAA155",
"'. c #D8A359",
"]. c #DBA35D",
"[. c #E1AA51",
"{. c #E2AC5D",
"}. c #C48B63",
"|. c #C68D66",
" X c #CC9364",
".X c #C99862",
"XX c #C4936C",
"oX c #CB946B",
"OX c #CD9A6D",
"+X c #D39464",
"@X c #D49C63",
"#X c #DA9D63",
"$X c #D79A6A",
"%X c #D39C6A",
"&X c #C28E71",
"*X c #C69876",
"=X c #CD9C72",
"-X c #D49C73",
";X c #D79E77",
":X c #D5A264",
">X c #DCA463",
",X c #DEAA64",
"<X c #D4A16E",
"1X c #DBA36B",
"2X c #DCAA6C",
"3X c #CEA479",
"4X c #D5A373",
"5X c #DBA473",
"6X c #DCAA74",
"7X c #D7A47B",
"8X c #DBAB7C",
"9X c #E1AC64",
"0X c #E2A669",
"qX c #E2AC6B",
"wX c #E4B46B",
"eX c #E7B56A",
"rX c #E1AD73",
"tX c #E3B272",
"yX c #EBBB75",
"uX c #E3B37C",
"iX c #E6B978",
"pX c #EAC47C",
"aX c #AA9185",
"sX c #B69785",
"dX c #B0968E",
"fX c #C39D85",
"gX c #C9A387",
"hX c #D7A885",
"jX c #DCAD84",
"kX c #D8B387",
"lX c #CCAA94",
"zX c #D9B69A",
"xX c #E2AF8D",
"cX c #E3B484",
"vX c #E6BA89",
"bX c #E5BB94",
"nX c #D8B6A6",
"mX c #E2BFAA",
"MX c #EDC583",
"NX c #ECC789",
"BX c #EDC998",
"VX c #F1CF96",
"CX c #F1D390",
"ZX c #EAC8A6",
/* pixels */
"b.c.9.8.;.;.>.4 2 }  ._ ~ ~ m u { h.%   % gX8X%X/.E.I.N.J.u.& y.J.B.V.V.N.N.v.m.F.@.: 6.<.%.&.8.T v.",
"b.v.9.%.=.<.>.q k f.u.1.<.;.<.1.V v.u X 2.BXcX@XR.@X:X2X6X/.m ( G.m.m.V.Y &.8.9.<.y a j.=.%.7.T c.c.",
"v.v.9.%.;.,.| * [ u.1.<.;.;.;.e.v %.A & aXbXvXiXiXtXrX,X:X:Xy.6 K.G.m.m.m.H ;.) w 5 l.F.Y W Q Q Q c.",
"v.v.n.$.V r 9 O } f.|.<.9.;.&.;.%.c F 6 aXbXuXtX,X,X>X>X/./.~.^ 8 F.G.<.o.` f g 3 s.G.v.8.W Q Q Q c.",
"n.v.F c A o.@.4 l.kX}.e.;.&.8.Y %.N c 7 2.cX6X>X>X].:X]./././. X9 w _ ! d 5 q / { }.n.v.v.Q T T Y 8.",
"n.B v P U H ..g nX*XK.e.n.8.&.Y Y O.c 6 9 jX1X#X(.].(.(././.%XOXa.  - u ^ @.#.Z >.L.n.m.b.Q T %.%.9.",
"Z n U U I J G / zXu.t.;.;.;.&.Y &.%.L 7 & =X$X(.(.(.(./.@X%XOX*X .5 x.XX-.P P P ` }.n.n.b.Q T %.=.=.",
"_ >.P L J F n 4.*Xu.L.<.;.;.%.%.7.%.%.X.- a.%X@X@X/.@X@X%XOX-X&Xh 4.h.P J U e.;.( { f.n.m.&.%.$.=._ ",
"t 3 e Z F A > p.f.1.<.;.;.%.%.%.%.$.B +.e ] oX%X%X%X%X@X%X=X3Xl.< d.$.F w./.N.e.' > h | *.$.$.#.:.u ",
"h s.4.u 6 3 O } @.) @.o.N %.Y %.F B B ..e f x.=Xy.A v v N G #.f X g.H D E.b.;./ 3 o o : q 9 y f q < ",
"@XB.#X5Xg.3 ; sX%XW.W.+Xa.r F %.G X.$.Z % : m n n G -.-.%.U O.g @ g.S J T.&.y + ; = X O O O : + 2 k.",
"D D D S X.i 2.3XH.8.n.&.9.M # V H B r ] p.f ` ,.t.e.e.e.&.;.=.^ :.' H U 8.8 = 3.dXsXk.k.5.p.sXq dX_ ",
"b b C N r $ sXL.e.8.8.8.&.X.# 4 / r.4XuX4Xt.` 1.;.;.&.&.%.;.*.! ` w ) *.G & aXlX;X;X%X@X%XoX=X` [ ` ",
"N c 7 - X ; sXt.n.c.c.%.$.$.- r.R.tXiXvX~.+X,.r.1.#.A r 9 - w  .j.=Xj.@.0 i zX%X#X].].(./.~.P.u.1 k ",
"9 } k.p.k :  .e.e.n.U U H .., jX/.(.vXuX#X#XP./ j - X X % q 6.bX`.`./.*X5 z gX#X].`.`.!.S.W.n.F.[ . ",
"BXBXNXNXzX*X_ M %.L L L O.7 x.bX(.].qXqX1X$X Xt X * } sXnXbXjX%X_.C.b.>.2 3.oX(.`.!.D.D._.A.c.n.1.% ",
"MXVXVXVXMXtX1XL.n A ..X.n _ 8X2X].9XqXtXqX$Xh.: [ nXjX5X4X1X1X+X_.Z.c./ . } =X#X!.!._.).[.A.v.n.*.a ",
"yXMXNXpXiXiXrX1Xt.6 y u 9 OX:X].].0XqXqXqX4Xm z mX8X1X1X1X+XG.H C.c.9.w k ! -X6XQ.!.D._.{.N.m.9.V 2.",
"yXwXwXiXwX9XqX6X$X@.^ m :./.1X>XW.#X0XqX2XOXw lXbX5X1X:X]./.W.%.w.n.@.t r.V %XcX/.S.D.[.].v.m.9.n k.",
"wXwXwXwXwX,X,X,X4X|.u 6 L.$X>X>X!.,X0X0X1XL.d zXvXuXqX,X'.!.W.J.G #.w { %.G %XxX~.S.D.[.Q.b.n.9.e d.",
"9XwX9X9XqXqX,X>X X Xl 1  X1X0XW.!.{./.Q.m.t.h zXcXiXwX9X`.!.W.%.<.~ > ) S F XXxXF.N.D.`.N.b.n.;.w f.",
"{.9X9XqX,X0X,X@X X Xf q -X5X#XV.D.{.>Xb.B.;.h lXuXtX9X9X].'.N.m.9.| 0 G S S f.%XW.Q.S.A.N.v.9.X.h 0.",
"].,X9X9X/.>X9X+X X}.d l ;X5X~.V.!.qXqXV.B.9.h gX6X/.,X{.]./.N.m.F./ t A N N ` oXW.Q.Q.S.N.9.9.M 3.m.",
">X,X,X>X:X>X:XR.+Xu.0 4.;X5X+X~.qXtX/.V.B.G.t l.5XT.].].`./.N.N.F.d % t w 4 3 l.~.Q.W.T.N.9.<.6 k.G.",
">X0X>X>X,XW.~.@X X4.: 4.sXgX7X4XrXuXL.U.J.L.^ ] 6X1X].`.].J.N.N.;.w O p x p o } |.P.J.J.K.y.' & k.G.",
"1X,X>X/.:X(.#X+X1.h X z aXfXhXhXjXOXK.P.R. X1.d =XqX>X!.,XJ.N.N.0.9 a sX*Xd.l > { r.@.g 0 3 5 O s.F.",
"%X:X>X#X$XP.*._ | *Xp.p 2 [ x.gXgX:.>.>.:.j } [ } <X1X(.wXW.N.N.G.6 k..XZ.J.,.f O = 4 a 2.5.z.i./ K.",
"}  .>.| M e ] j.rXqX X[ 2.2.a * = = i } s.a z a > :.1X(.yXW.N.m.N.6 gXC.C.b.w./ . x lX3X XF.<.1.1 j ",
"O = < 5 i h 3XuXiXyX^.( f.` a z 2.i x } j x.lX4.p f %X2XVX<Xb.N.F.9 8X'.M.v.8._ % aX6XW.8.7.%.=.6 . ",
"p.fXXXu.| ] |.$X0XyX(.) ^ { =XP.}.oX{ z gXcXtX<Xl w y.cXvX2XN.m.t./ :XE.c.c.n.^ * gX@Xm.Q W L $.y . ",
"bXb.q.T +.j _ Z X.m.t.` h oX9.Q W v.1XlXcXwXiXrXF.f / 4X@X~.T.n.y.z @XM.q.q.e.y = fXG.8.Y Y L O.( X ",
"7XQ E I $.{ =X3Xa.g ! ~ 5.9.Q E R Y ].vXyXwXwX,XP.^ 5 a.XX XR.y.l 5 4XM.c.&.A q 2 z.9.Q Y Y Y O.` = ",
"4XQ E Y X.x.NXiX2X.X/ * x.&.Q I J q.Z.MXyX,X,X].~.y.> [ d.a.] $ a y :.K.F.G @.5 z u.9.W Y W Y %.#.5 ",
"XX;.H A :.ZXNXtX,X].R.' sX;.J I 7.c.M.MXwX,X>X(.+X|.[ = i i k x ; = a ] l / k + s.8.Q Y Y W Y $.o.a ",
"1 ^ j.vXVXCXpX>X!.S.T.y.p.-.U T c.M.C.MX{.].]./.|.g.g i p.fXx.6.+ x nXnXaXk j p a.O.Q 8.c.W L ` j + ",
"kXMXpXpXpXwX!.S.W.Z.N.J.` t.T c.n.M.E.iX'.].:X~.h.g s.7XP.m.G.,.3 nXbX<X4X4.3 5 :.=.Y L F N ( d 2 x ",
"yXwX,X'.Q.S.A.A.W.n.N.V.) >.t.&.n.H..XtX:X:X@X X^ d.U.m.b.V.N.-.q ZX:XY.@X+.h } e G O.Y $.A & i k.f.",
"S.`.'.S.A.A.V.W.W.V.N.m.o.[ :.| { / 9 >.:.@.a. .d oXm.m.V.N.B.` a NXE.T.E.#.z.8XoX! M o.~ 1 2.&Xn.J.",
"C.S.Q.Z.V.N.A.Q.A.V.c.m.>.% f ] [ / ] 6.6.| d =  .J.N.N.B.B.I.M 4.uX/.Y.R.*.h.V.v.H.m 4 a l.}.n.N.Z.",
"C.Z.N.N.V.V.!.W.V.V.c.m.#.d hX-X-X$X+X$X+X+X|.] :.&.J.N.V.N.G.8 x.>X/.Y.P.o.XXq.Q I $.e k.XXn.m.N.C.",
"c.b.N.V.A.W.W.A.N.b.N.G.M z.U.U.I.I.I.I.I.U.P.#.` %.m.m.v.m.F.6 kX/.:XT.J...f.Q I I K Z 4.|.m.m.b.N.",
"8.c.b.V.V.V.A.V.N.Z.N.9.M -XI.~.W.V.A.I.W.W.I.<.V G.8.8.m.m.=.e bXQ./.W.J.$.` %.J D J A h j.G.m.m.v.",
"&.8.v.v.b.N.V.b.V.N.G.B j.#XW.W.W.W.Q.Q.(.(.I.9.V F.7.m.m.m.A / uXT.~.W.W.G.n ..L K F u = s.G.J.N.c.",
";.m.m.N.V.V.V.N.N.G.A ` cX~.(./.!.!.>X].(./.W.P.c X.n.m.m.G.7 z.2XN.N.~.W.V.<.e ) ) e : 5 h u.K.0.+.",
"1 r n Z G X.$.#.A r _ vX0X(.].>X/.>X:X/.W.~.~.}.e m ;.n.m.F.# kX,XN.N.W.A.V.G.! q 4 : | =.Z e 0 - % ",
"p.sX*XOXy.! * ~ / g jXrX>X>X1X>X>X1X#X(.%X<X+X&X5 @ _ 0.0.*.- cX/.N.V.A.!.V.m.,.* i :.8.7.&...j } 2.",
"G.(.!.W.9.#.d 9 ( hXrX].1X@X1X2X6X1X%X%X%X=X|.! i h 1 y :.e / 5XW.V.V.V.Q.A.V.G.g { <.8.Q &.7...=.>.",
"Q Q Q Q 7.=.! w jX6X>X<X:XP.6X6X6X+X%X%XoXh.y 5.&XK.1.u &   4.@XW.V.V.V.A.V.V.G.*.^ <.8.Q Q W L 7.9.",
"q.8.Q Q Q ;.g a.5X6X6X5X@X4X4X-X;X=XoXoXj.0 5.-XJ.m.m.m.;.9 ! .XW.V.V.V.V.V.V.I.G.m #.8.8.T 8.U v.v.",
"v.n.8.7.Q ;./ d u.h.f.h.}.j.j. .h t  .j.y a gXN.B.m.V.V.V.+.- }.T.V.V.V.V.V.V.m.G.` u K.9.&.%.$.q.c."
};
