/* XPM */
static char *_97d5fde7cc442819b5cd7536f65d29awb0mjV2d6GKYbtWQ[] = {
/* columns rows colors chars-per-pixel */
"50 50 243 2 ",
"   c #281706",
".  c #3C2405",
"X  c #482808",
"o  c #552A0A",
"O  c #58280A",
"+  c #57350A",
"@  c #553810",
"#  c #652E0A",
"$  c #67380D",
"%  c #733A0D",
"&  c #693B13",
"*  c #773E13",
"=  c #2A5310",
"-  c #396A1B",
";  c #3C6E22",
":  c #584C13",
">  c #525010",
",  c #66450C",
"<  c #68580C",
"1  c #75510E",
"2  c #6B4716",
"3  c #7A4312",
"4  c #7D4A15",
"5  c #764B18",
"6  c #695315",
"7  c #785317",
"8  c #49671C",
"9  c #536F1D",
"0  c #69671B",
"q  c #776715",
"w  c #7C7A1B",
"e  c #6A4620",
"r  c #7C4D21",
"t  c #7A5624",
"y  c #596922",
"u  c #587727",
"i  c #7F6826",
"p  c #6F732B",
"a  c #6B772B",
"s  c #824914",
"d  c #8B4B16",
"f  c #8B4C1B",
"g  c #914B12",
"h  c #865A17",
"j  c #83531B",
"k  c #8D521B",
"l  c #8C5B1C",
"z  c #94541B",
"x  c #97581B",
"c  c #9C5C1D",
"v  c #A25B1D",
"b  c #88661A",
"n  c #97661A",
"m  c #87751A",
"M  c #98771D",
"N  c #A2631E",
"B  c #A86A1E",
"V  c #855323",
"C  c #875B24",
"Z  c #945C21",
"A  c #9A5C21",
"S  c #866725",
"D  c #946222",
"F  c #9C6324",
"G  c #956827",
"H  c #9C6B25",
"J  c #9C6C2D",
"K  c #987628",
"L  c #9D6F33",
"P  c #8B7230",
"I  c #987933",
"U  c #A36423",
"Y  c #A86422",
"T  c #A46B25",
"R  c #AC6C24",
"E  c #A46C2B",
"W  c #AD6D2A",
"Q  c #A96F2E",
"!  c #AB7224",
"~  c #A77927",
"^  c #A4722C",
"/  c #AC742C",
"(  c #AB7C2C",
")  c #B27526",
"_  c #B2752C",
"`  c #B57B2D",
"'  c #B87B2B",
"]  c #A57C33",
"[  c #AD7C33",
"{  c #A97738",
"}  c #B37C33",
"|  c #B67C34",
" . c #4E8120",
".. c #718A2F",
"X. c #768A3B",
"o. c #739342",
"O. c #98841C",
"+. c #8D8422",
"@. c #978726",
"#. c #9C832A",
"$. c #9C8B2B",
"%. c #8A9127",
"&. c #999726",
"*. c #898436",
"=. c #9D8435",
"-. c #9B9939",
";. c #A28323",
":. c #A5822B",
">. c #AD862A",
",. c #A48B2A",
"<. c #B3832E",
"1. c #B7852D",
"2. c #A3922D",
"3. c #AC8433",
"4. c #A58835",
"5. c #AC8A33",
"6. c #A6853B",
"7. c #AB8C3B",
"8. c #B48234",
"9. c #BB8333",
"0. c #B58B35",
"q. c #BB8934",
"w. c #B4843B",
"e. c #BA853B",
"r. c #B58C3C",
"t. c #BC8B3C",
"y. c #AC9436",
"u. c #A29B33",
"i. c #AA9A35",
"p. c #AC943A",
"a. c #A59939",
"s. c #AB9C3D",
"d. c #B4923D",
"f. c #BB933C",
"g. c #B29C3E",
"h. c #BB9B3A",
"j. c #9DA228",
"k. c #A8A635",
"l. c #AFA937",
"z. c #ACA33C",
"x. c #B4A23C",
"c. c #B6A839",
"v. c #C18B34",
"b. c #C28D3D",
"n. c #C7953A",
"m. c #C3933D",
"M. c #979146",
"N. c #AE8C43",
"B. c #A48E49",
"V. c #B48642",
"C. c #B48C43",
"Z. c #BC8D43",
"A. c #BA8A45",
"S. c #AB9245",
"D. c #AA964A",
"F. c #B49442",
"G. c #BD9244",
"H. c #B59C43",
"J. c #BB9C43",
"K. c #B5934A",
"L. c #BC954B",
"P. c #B39C4B",
"I. c #BB9B4B",
"U. c #B79B55",
"Y. c #BE9A52",
"T. c #BC9C5A",
"R. c #ACA445",
"E. c #B2A443",
"W. c #BBA344",
"Q. c #B4AC44",
"!. c #BCAC44",
"~. c #B5A34B",
"^. c #BAA24C",
"/. c #B6AE49",
"(. c #B4AC4E",
"). c #BCA94B",
"_. c #BCA353",
"`. c #B9A558",
"'. c #ACA060",
"]. c #BBA565",
"[. c #C49444",
"{. c #C59A44",
"}. c #CA9845",
"|. c #C3954C",
" X c #C39A4D",
".X c #CB9C4D",
"XX c #C39651",
"oX c #C39C54",
"OX c #CA9D53",
"+X c #C39D5A",
"@X c #CA9E5A",
"#X c #C6A647",
"$X c #C3A34C",
"%X c #CCA34C",
"&X c #C4A94B",
"*X c #D0A74A",
"=X c #C4A254",
"-X c #CBA354",
";X c #C4AD54",
":X c #CBAB55",
">X c #C4A35C",
",X c #CBA45C",
"<X c #C5AC5B",
"1X c #CDAA5D",
"2X c #D2A553",
"3X c #D2A65D",
"4X c #D5AA59",
"5X c #D3AB5D",
"6X c #C9B25B",
"7X c #D8B25F",
"8X c #C5A463",
"9X c #CBA662",
"0X c #C5A962",
"qX c #CCAA63",
"wX c #C5A569",
"eX c #C5AB6A",
"rX c #CBAC6B",
"tX c #D1A661",
"yX c #D2AC63",
"uX c #D3AE6A",
"iX c #CBB264",
"pX c #CBB568",
"aX c #CCB26C",
"sX c #D5B265",
"dX c #D9B365",
"fX c #D4B26C",
"gX c #D9B46C",
"hX c #D8BA6E",
"jX c #C8AD71",
"kX c #D0AE70",
"lX c #CCB173",
"zX c #CCB579",
"xX c #D4B472",
"cX c #D9B671",
"vX c #D6B976",
"bX c #DABB74",
"nX c #D6BB7A",
"mX c #DABD79",
"MX c #DDC17B",
"NX c #E1C17D",
"BX c #CEB781",
"VX c #D4BD81",
"CX c #D8C183",
/* pixels */
"} ,X9X9X,X+XoX+Xw./ / 3 x _ 9.[.OX|.` N b < M O.>.) q.b..X[.U F / w.w.Z.F.F.T.oX8.t.m.-XsXfXfXfXrX<X",
"^ OX,X>X8XoX+XL.[ } F * % z _ 9.b.|.Z.( h + q m n B ' | _ z O J w.L.0X0X_.s.a.I.t.e.m.4XfXiX<XyXfXqX",
"r 8.e.w.G.Y.eX0X+XV.J * % o A Z.oX>XoXG.,.+.< 1 b n v x v g % J 3.+XlXrX0XR.$.T.G.t.b.3XsX:X&X).;X=X",
"o _ 8.8.|.wXjXjXT.V.j % % % U  X>X>X_.^.s.u.@.b T q.b.9.Y c ^ n K I.rXwX`.R.$.p.G.t.m.-X5X-XW.c.!.g.",
"& 8. X>X,X8XjXwX{ J + s D T e.=X>X).E.^.H.g.y.3.8.m.[.m._ x ~ #.1 ( OX9X_.s.+.,.e.b..X3X3X-X$X!.!.I.",
"x Z XXqX9XT.wXK.l + 6 K oX@X X,X=X&X$X,X=X XW.g.y.e.q.9._ s n M + * F / r.~ n E _ `  X3XgXyX;XW.W.t.",
"Y j x w.M.0 i 7 2 X 7 7.rXrX Xt.G.f.h.=X=X:X:XW.g.9._ _ Y d n b 7 l s s d c N c R 9. XsXmXhX6X:X XZ.",
"|.|.e.6 = = : + X X $ w.oX,Xb.}.OXb.{.$X=X&X:X#Xx.8.} W v c B ( <.>.) n O c R B R e.OX,XbXcXhX5X[.Z.",
".X-X Xl > > 7 h 4 X j w.G.m.[.tXyX3X,X-X,X-X*Xc.).w.e.} v N R 9.8.8.<.) g ' _ ! H K.>X9XfXsX,XZ.e.A.",
"-X.X|.W k U [ 3.H X h 3.e.b..XyXyXtX3X,X,X9X4X&X^.^ } W Y _ ) 9.9.1.<._ A T B n 8 y V.@XoX|.A.Z.oX|.",
"[..Xb._ R t.>X8X6.5 , ^ ` t.[.tXyX3X3X3XtXqX-XH.3.x | A x Z ) ` 9.<.} _ r e 2 7 0 i | A.A.|.oX,XrX>X",
"}..X[.' 9. X8X>XB.K @ 5 } ` 0.-X4X3X3X3X3X,X XE l x E F } ( _ _ ! Y z 2 : i.=XoXY.Y.Y.oXfXfX,XyXuXyX",
".X}.-X) 9.OX>XeX'.B.t j q.m.<.{.2X5X2X3X3X,X|.J X C w.G.f.g.J.f.! *   2 @.R.iXqX,XXX|.,XmXmXxXsXuXyX",
"3X5X}.N ` [.8X>XjXU.G D Z.m.H m.4XdXdXdXyX,XA.5 G |. XJ.!.Q.Q.H.5.T 2 7 4.^.=X,X-X|.|.yXbXmXfXuXyX1X",
"7XbXsX_ t. X+XoX_.Z.V Z r.3.K E.5X4X4XgXfXuXE X t.oXOX&X!.c.l.x.H.$.b 2 *.I.oX-X,XXX[.,XsXgXyX-X,X,X",
"sXbXdX9.,X XG.! ` :.X 7 J @.%.-.sX5X2XsXfXuX{ o Z.oX=X#X&Xc.Q./.W.H.K , S F.=X,X=X,X-X4X-X3X3X3XtX3X",
"6XpX9XXX XoX.X} 3.y 8 0 6 m ..-.=X3X%X%X-X|.r O A.G. X#Xc.c./.;X;X=X6.2 b p.$X,X,X9XtX4X}.}.,XyXyXyX",
").Q.=XoX>XwX>XXXw.8 9 w w w %.#.S.S. X} [ L C X / Z. X$Xx.!.!.&X{.yXN.7 P P.;XqX3XyX5X5X-X.X,XyXyX1X",
"4.Q.<X,XqXrXuXsXdX6.0 ,.2.%.q 6 G S J t.oX,XP.b F t.|. Xh.{.$X:X%X1XS.5 I P.I.9XyXcXsXyX3X-X-X1X9X3X",
"~.`.aXaXrXuXfXbXbX$X5 F.H.y.7.t 2 5 6.>XqX>XE.,.T | b.|.m.n.%X-X{.-XoX7 4 ] F.0XfXfXsXsXyX3X5X-X,X,X",
"qXvXvXvXfXsXgXfXdXJ.4 g.=XL.K.C.7.N.K.=XqX X,.;.l F 9.t.{.%X2X-X0.L.L.I + l ] U.].aXfXsXsX'.sXyX9XOX",
"1XfXxXfXsXyXsXsXsX%X5.i.H.oX+X+X>X>X>X,X,Xm.5.:.F k A } {..X%X.XG.V.N.K . + Z D.`.`.0XU.`.X.`.qXqX=X",
"fXvXxXxXfXuXsXsXyX1X$Xr.C.oX>X,XqXqXyXyXtX X0.m.v.| U f e.}..X,XY.4.H 4 S I K.D.`.`.`.1XX.- X.qXqX9X",
"CXCXVXxXfXsXsXsX1X,X=Xf.K.oX>X,X9XyXyXyXyXyX4X5X5X-X9.z V.G.f.[.4.D E w.G.>XlXeX>XP.%...- = 8 X.].qX",
"VXCXvXfXfXyXuXsX3X-X Xy.$.F.OX9X9XtX1XyXyXsXdXMXMXyX.XU A } G.r.J H t.[.>X>XpXaX>Xi.#.+. .- 9 r.K.L.",
"vXxXvXyXuXuXsXyXtX-Xf.,.#.r.,X9X9XtX3X-X3XbXbXMXNXsX5X[.d E G.t.^ t.e.0XfX1X,XpXrX5.K < w y D.S.G.V ",
"rXxXfXfXuXuXuXyX4X[.G G ( oXqX9X9XtX3X X{.;XsXhXbXsXyXw.d 3 F } ^ 8.[.VXnXxX9X1X1X5.#.$.$X=X-X XoXZ.",
"<XqXuXuXfXfXxXfXsX,XT.K.8.L.qXqX9XyX-Xt.f.>.%X1XdXsX}._ R U s + ` 1.OXVXnXvXfXvX^.2.2.=XqXyXtX,X,XoX",
"J. X-XuXxXxXxXfX9XrX9XwXL.oXZ.|.@XA.E U <.r.W.$XZ.b.q.} _ _ R k ~ ;.q. X-X-X-X-XJ.,.p.6X<X<XqX9X,X.X",
"( H I.rXxXxXxXrXqXqXrX8X[.|.} e.[ [ G k H ;.u.k.g.^ t.e.e.Y Y T n O.;.8.=X=X0XrX7.b :.$X<X;X1X,X,X,X",
"d.,.H.0XlXxXkXwX9X9X9X|.OXG.} Z.,X=X{.} 4 m M &.$.2.r.A.R v Y T M q m ~ ( / U F k 3 :.W.=X;X,X$X;X,X",
"~.i.I.wXlXxX0X8X9X9X>XZ.[.w.E L.rXrXwXOX{ X 5 b M ;.H f % z N c b m $.$.@.~ T z & & J I.=X=X).l.z.^.",
"_.H.>X0X+XL.L.@X>X=XZ.[ Q E {  XqXrXrX8XC.. C ] [ 5.e.| N Y f $ m M :.5.#.1 3 k L =.y =.oX=Xx.x.E.^.",
"_.I.oX8X+XA.w.G.B.N.] R Z..XOXoXoXoXL. XS V 5.F.K.+X,X|.| e.` n , n T b 1 7 H /  X*.= p r.b.0.J.<X>X",
"=XJ.I.Y.C.e.e.e.I 9 y ..M.>X>X8X>XG.8.e.& & K.Y.XX|.|.@X[.t.q.! $ D F h > D / } L.*.a X.8 S D r._._.",
" XH.H.8.t.-X1XD.a = = u D.,X8X0XoXV.E z # 3 C.Y.oX|.|.OX{.m.m.b.C.Z.w.:.b G 8.e.L.U.].'.a S.^ r.F.P.",
"H.i.5.f.>X9X9XfXM.- ; 9 -.H.=X>X+XL.[ E f o Z V.|.XXOX@X.X}.}.<X(.p.5.5.M :.w.G.oX>X8X8X>X.X XC.K.T.",
"z.j.a.oX8X9XfXfXo.M.9 < u.z.J.Y.8X+X+XoXV.J o 7 p.iXxXfX7Xn.{./.Q.).I.J.r.<.F { oX+X8XjXzXrXrX>XY.>X",
"j.&.F.oX9X9XsXfXfX,X0 h $.a.~.+X8XwXwX8X`.g.C 4 3.iXbXfXdX%Xh.k.k.<X9X,X-X XU 2 =XrXrXlXzXBXrXY.Y.oX",
"&.&.i.I.OX1XsXfXgX,X9.7 b 2.z.~.].wXwX0X`.z.b M x.pXfXcXgXyX&Xx.c.qXuXfXyXOXp P 9XrXrXjXrXlXqX=XV.w.",
"m M K G.-XyXsXxXfXyXq.l :.s.-.P.8X8XwXeXR.u.l ^ x.;XsX9XtXtXiX6X6XyXsXsXgX0Xu a 9XuXrX9X XoXOX,X{ 3 ",
"K K 3.1XyXsXtXyXyX2XR x 7.a.s.U.T.oXoXL.u.$.4 S I.%XyXtXyX9XuXyX9XqXtXtXyXyX_.-X-XyX9X.Xq.w.m.} & r ",
"7 n h.yXyXyXyX-Xe.W f s 6.P.`.T.T.I G n m q , D G.-X,X,XtXOXOX,X9X9XtXtXyXfXsXfXsXfXyX-Xt.Z F 9.E %X",
"j $ q.%X-XyXtXt.c # $ 8 *.K.Y.Y.P.p.G #.+.m 6 j / {.OXOX,X.X.X=X,X9XtXtXfXvXxXfXvXvXfX_.h.( q.` ` 2X",
"s X 4 w.{.OXe.J & k K a M.>X,XI.d.d.F.a.a.u.$., s T [.{.{.{.Z.G.oX9XqXrXmXxXfXfXvXvXiX).h.1.q.1.' *X",
"9.Z.Z./ k % $ X z [ Z.Y.>X0X9X9X,X0X>XH.p.i.y.m X & k W } } 4 6.d.~._.pXvXfXpXqXfXnX6XQ.$.! 9./ c 1.",
"5X7X3XOXe.V X s F e.Y.Y. X1XyXuXuXxXaX_.K.p.4.G d W t.e.} ^ G J 5.g.z.Q.pXaXpXpXpXxX<X).i.>.t.} T ~ ",
",X,X,X,XoXC.V o z 8.0XoXG.9XvXxXfXxXaX0Xs.@.#.( } OX,X,X,XXXC.] ] p.z.E._.pXpXpXrX+X^.E.x.f.OX.Xb.;.",
",X,X,X@X>X+XL.L 4 T V.oX|.uXmXfXgXxXtX9X~.K #.r.|.2X5X3X3XOX Xe.6.~.~.`._.^.^.H.L.{ K.L.I..XOX.Xb.~ ",
",X,X,X@X>X>XoX8.2 4 / t.Z.3XsXfXcXcX3X,XR.=.K f.}.2X5X5X5X-XOX9XpXrX0X0X+XN.p.=.L D w.8.( ` b.n.v.0."
};
